%TF.GenerationSoftware,KiCad,Pcbnew,10.0.3*%
%TF.CreationDate,2026-06-07T10:57:43-04:00*%
%TF.ProjectId,openchess-controller,6f70656e-6368-4657-9373-2d636f6e7472,0.1*%
%TF.SameCoordinates,Original*%
%TF.FileFunction,Legend,Bot*%
%TF.FilePolarity,Positive*%
%FSLAX46Y46*%
G04 Gerber Fmt 4.6, Leading zero omitted, Abs format (unit mm)*
G04 Created by KiCad (PCBNEW 10.0.3) date 2026-06-07 10:57:43*
%MOMM*%
%LPD*%
G01*
G04 APERTURE LIST*
G04 Aperture macros list*
%AMRoundRect*
0 Rectangle with rounded corners*
0 $1 Rounding radius*
0 $2 $3 $4 $5 $6 $7 $8 $9 X,Y pos of 4 corners*
0 Add a 4 corners polygon primitive as box body*
4,1,4,$2,$3,$4,$5,$6,$7,$8,$9,$2,$3,0*
0 Add four circle primitives for the rounded corners*
1,1,$1+$1,$2,$3*
1,1,$1+$1,$4,$5*
1,1,$1+$1,$6,$7*
1,1,$1+$1,$8,$9*
0 Add four rect primitives between the rounded corners*
20,1,$1+$1,$2,$3,$4,$5,0*
20,1,$1+$1,$4,$5,$6,$7,0*
20,1,$1+$1,$6,$7,$8,$9,0*
20,1,$1+$1,$8,$9,$2,$3,0*%
G04 Aperture macros list end*
%ADD10C,0.150000*%
%ADD11C,0.120000*%
%ADD12C,1.700000*%
%ADD13R,1.700000X1.700000*%
%ADD14C,1.600000*%
%ADD15RoundRect,0.250000X0.550000X-0.550000X0.550000X0.550000X-0.550000X0.550000X-0.550000X-0.550000X0*%
%ADD16O,2.000000X1.200000*%
%ADD17R,2.000000X1.200000*%
G04 APERTURE END LIST*
D10*
X103463332Y-82493485D02*
X103463332Y-83207770D01*
X103463332Y-83207770D02*
X103510951Y-83350627D01*
X103510951Y-83350627D02*
X103606189Y-83445866D01*
X103606189Y-83445866D02*
X103749046Y-83493485D01*
X103749046Y-83493485D02*
X103844284Y-83493485D01*
X102463332Y-83493485D02*
X103034760Y-83493485D01*
X102749046Y-83493485D02*
X102749046Y-82493485D01*
X102749046Y-82493485D02*
X102844284Y-82636342D01*
X102844284Y-82636342D02*
X102939522Y-82731580D01*
X102939522Y-82731580D02*
X103034760Y-82779199D01*
%TO.C,J1*%
D11*
X105779999Y-117278666D02*
X100479999Y-117278666D01*
X105779999Y-86688666D02*
X105779999Y-117278666D01*
X105779999Y-86688666D02*
X103129999Y-86688666D01*
X105779999Y-85418666D02*
X105779999Y-84038666D01*
X105779999Y-84038666D02*
X104399999Y-84038666D01*
X103129999Y-86688666D02*
X103129999Y-84038666D01*
X103129999Y-84038666D02*
X100479999Y-84038666D01*
X100479999Y-84038666D02*
X100479999Y-117278666D01*
%TD*%
%LPC*%
D12*
%TO.C,J3*%
X104399999Y-79778666D03*
X104399999Y-77238666D03*
X104399999Y-74698666D03*
X104399999Y-72158666D03*
X104399999Y-69618666D03*
X104399999Y-67078666D03*
X104399999Y-64538666D03*
X104399999Y-61998666D03*
X104399999Y-59458666D03*
D13*
X104399999Y-56918666D03*
%TD*%
D14*
%TO.C,U6*%
X72059999Y-108278666D03*
X74599999Y-108278666D03*
X77139999Y-108278666D03*
X79679999Y-108278666D03*
X82219999Y-108278666D03*
X84759999Y-108278666D03*
X87299999Y-108278666D03*
X89839999Y-108278666D03*
X92379999Y-108278666D03*
X92379999Y-115898666D03*
X89839999Y-115898666D03*
X87299999Y-115898666D03*
X84759999Y-115898666D03*
X82219999Y-115898666D03*
X79679999Y-115898666D03*
X77139999Y-115898666D03*
X74599999Y-115898666D03*
D15*
X72059999Y-115898666D03*
%TD*%
D16*
%TO.C,U2*%
X92299999Y-56218666D03*
X92299999Y-58758666D03*
X92299999Y-61298666D03*
X92299999Y-63838666D03*
X92299999Y-66378666D03*
X92299999Y-68918666D03*
X92299999Y-71458666D03*
X92299999Y-73998666D03*
X92299999Y-76538666D03*
X92299999Y-79078666D03*
X92299999Y-81618666D03*
X92299999Y-84158666D03*
X92299999Y-86698666D03*
X92299999Y-89238666D03*
X92299999Y-91778666D03*
X92299999Y-94318666D03*
X92299999Y-96858666D03*
X92296319Y-99395946D03*
X92296319Y-101935946D03*
X66899999Y-101938666D03*
X66899999Y-99398666D03*
X66899999Y-96858666D03*
X66899999Y-94318666D03*
X66899999Y-91778666D03*
X66899999Y-89238666D03*
X66899999Y-86698666D03*
X66899999Y-84158666D03*
X66899999Y-81618666D03*
X66899999Y-79078666D03*
X66899999Y-76538666D03*
X66899999Y-73998666D03*
X66899999Y-71458666D03*
X66899999Y-68918666D03*
X66899999Y-66378666D03*
X66899999Y-63838666D03*
X66899999Y-61298666D03*
X66899999Y-58758666D03*
D17*
X66899999Y-56218666D03*
%TD*%
D12*
%TO.C,M1*%
X57899999Y-74698666D03*
X57899999Y-72158666D03*
X57899999Y-69618666D03*
X57899999Y-67078666D03*
X57899999Y-64538666D03*
X57899999Y-61998666D03*
X57899999Y-59458666D03*
D13*
X57899999Y-56918666D03*
%TD*%
D12*
%TO.C,J1*%
X101859999Y-115898666D03*
X104399999Y-115898666D03*
X101859999Y-113358666D03*
X104399999Y-113358666D03*
X101859999Y-110818666D03*
X104399999Y-110818666D03*
X101859999Y-108278666D03*
X104399999Y-108278666D03*
X101859999Y-105738666D03*
X104399999Y-105738666D03*
X101859999Y-103198666D03*
X104399999Y-103198666D03*
X101859999Y-100658666D03*
X104399999Y-100658666D03*
X101859999Y-98118666D03*
X104399999Y-98118666D03*
X101859999Y-95578666D03*
X104399999Y-95578666D03*
X101859999Y-93038666D03*
X104399999Y-93038666D03*
X101859999Y-90498666D03*
X104399999Y-90498666D03*
X101859999Y-87958666D03*
X104399999Y-87958666D03*
X101859999Y-85418666D03*
D13*
X104399999Y-85418666D03*
%TD*%
%LPD*%
M02*
