%TF.GenerationSoftware,KiCad,Pcbnew,10.0.3*%
%TF.CreationDate,2026-06-07T10:57:43-04:00*%
%TF.ProjectId,openchess-controller,6f70656e-6368-4657-9373-2d636f6e7472,0.1*%
%TF.SameCoordinates,Original*%
%TF.FileFunction,Copper,L2,Bot*%
%TF.FilePolarity,Positive*%
%FSLAX46Y46*%
G04 Gerber Fmt 4.6, Leading zero omitted, Abs format (unit mm)*
G04 Created by KiCad (PCBNEW 10.0.3) date 2026-06-07 10:57:43*
%MOMM*%
%LPD*%
G01*
G04 APERTURE LIST*
G04 Aperture macros list*
%AMRoundRect*
0 Rectangle with rounded corners*
0 $1 Rounding radius*
0 $2 $3 $4 $5 $6 $7 $8 $9 X,Y pos of 4 corners*
0 Add a 4 corners polygon primitive as box body*
4,1,4,$2,$3,$4,$5,$6,$7,$8,$9,$2,$3,0*
0 Add four circle primitives for the rounded corners*
1,1,$1+$1,$2,$3*
1,1,$1+$1,$4,$5*
1,1,$1+$1,$6,$7*
1,1,$1+$1,$8,$9*
0 Add four rect primitives between the rounded corners*
20,1,$1+$1,$2,$3,$4,$5,0*
20,1,$1+$1,$4,$5,$6,$7,0*
20,1,$1+$1,$6,$7,$8,$9,0*
20,1,$1+$1,$8,$9,$2,$3,0*%
G04 Aperture macros list end*
%TA.AperFunction,ComponentPad*%
%ADD10C,1.700000*%
%TD*%
%TA.AperFunction,ComponentPad*%
%ADD11R,1.700000X1.700000*%
%TD*%
%TA.AperFunction,ComponentPad*%
%ADD12C,1.600000*%
%TD*%
%TA.AperFunction,ComponentPad*%
%ADD13RoundRect,0.250000X0.550000X-0.550000X0.550000X0.550000X-0.550000X0.550000X-0.550000X-0.550000X0*%
%TD*%
%TA.AperFunction,ComponentPad*%
%ADD14O,2.000000X1.200000*%
%TD*%
%TA.AperFunction,ComponentPad*%
%ADD15R,2.000000X1.200000*%
%TD*%
%TA.AperFunction,ViaPad*%
%ADD16C,0.600000*%
%TD*%
%TA.AperFunction,Conductor*%
%ADD17C,0.200000*%
%TD*%
%TA.AperFunction,Conductor*%
%ADD18C,0.750000*%
%TD*%
G04 APERTURE END LIST*
D10*
%TO.P,J3,10,Pin_10_10*%
%TO.N,GND*%
X104399999Y-79778666D03*
%TO.P,J3,9,Pin_9_9*%
%TO.N,/PANEL_SPARE2*%
X104399999Y-77238666D03*
%TO.P,J3,8,Pin_8_8*%
%TO.N,/PANEL_SPARE*%
X104399999Y-74698666D03*
%TO.P,J3,7,Pin_7_7*%
%TO.N,/BTN_MODE*%
X104399999Y-72158666D03*
%TO.P,J3,6,Pin_6_6*%
%TO.N,/BTN_POWER*%
X104399999Y-69618666D03*
%TO.P,J3,5,Pin_5_5*%
%TO.N,/BTN_SELECT*%
X104399999Y-67078666D03*
%TO.P,J3,4,Pin_4_4*%
%TO.N,/I2C_SCL*%
X104399999Y-64538666D03*
%TO.P,J3,3,Pin_3_3*%
%TO.N,/I2C_SDA*%
X104399999Y-61998666D03*
%TO.P,J3,2,Pin_2_2*%
%TO.N,GND*%
X104399999Y-59458666D03*
D11*
%TO.P,J3,1,Pin_1_1*%
%TO.N,+3.3V*%
X104399999Y-56918666D03*
%TD*%
D12*
%TO.P,U6,18,O1_18*%
%TO.N,/CA_PWR*%
X72059999Y-108278666D03*
%TO.P,U6,17,O2_17*%
%TO.N,/CB_PWR*%
X74599999Y-108278666D03*
%TO.P,U6,16,O3_16*%
%TO.N,/CC_PWR*%
X77139999Y-108278666D03*
%TO.P,U6,15,O4_15*%
%TO.N,/CD_PWR*%
X79679999Y-108278666D03*
%TO.P,U6,14,O5_14*%
%TO.N,/CE_PWR*%
X82219999Y-108278666D03*
%TO.P,U6,13,O6_13*%
%TO.N,/CF_PWR*%
X84759999Y-108278666D03*
%TO.P,U6,12,O7_12*%
%TO.N,/CG_PWR*%
X87299999Y-108278666D03*
%TO.P,U6,11,O8_11*%
%TO.N,/CH_PWR*%
X89839999Y-108278666D03*
%TO.P,U6,10,GND_10*%
%TO.N,GND*%
X92379999Y-108278666D03*
%TO.P,U6,9,VCC_9*%
%TO.N,+5V_LED*%
X92379999Y-115898666D03*
%TO.P,U6,8,I8_8*%
%TO.N,/COL_DRV_H*%
X89839999Y-115898666D03*
%TO.P,U6,7,I7_7*%
%TO.N,/COL_DRV_G*%
X87299999Y-115898666D03*
%TO.P,U6,6,I6_6*%
%TO.N,/COL_DRV_F*%
X84759999Y-115898666D03*
%TO.P,U6,5,I5_5*%
%TO.N,/COL_DRV_E*%
X82219999Y-115898666D03*
%TO.P,U6,4,I4_4*%
%TO.N,/COL_DRV_D*%
X79679999Y-115898666D03*
%TO.P,U6,3,I3_3*%
%TO.N,/COL_DRV_C*%
X77139999Y-115898666D03*
%TO.P,U6,2,I2_2*%
%TO.N,/COL_DRV_B*%
X74599999Y-115898666D03*
D13*
%TO.P,U6,1,I1_1*%
%TO.N,/COL_DRV_A*%
X72059999Y-115898666D03*
%TD*%
D14*
%TO.P,U2,38,GND_38*%
%TO.N,GND*%
X92299999Y-56218666D03*
%TO.P,U2,37,GPIO23_37*%
%TO.N,/S7*%
X92299999Y-58758666D03*
%TO.P,U2,36,GPIO22_36*%
%TO.N,/S6*%
X92299999Y-61298666D03*
%TO.P,U2,35,U0TXD/GPIO1_35*%
%TO.N,/I2C_SDA*%
X92299999Y-63838666D03*
%TO.P,U2,34,U0RXD/GPIO3_34*%
%TO.N,/I2C_SCL*%
X92299999Y-66378666D03*
%TO.P,U2,33,GPIO21_33*%
%TO.N,/S5*%
X92299999Y-68918666D03*
%TO.P,U2,32,GND_32*%
%TO.N,GND*%
X92299999Y-71458666D03*
%TO.P,U2,31,GPIO19_31*%
%TO.N,/S4*%
X92299999Y-73998666D03*
%TO.P,U2,30,GPIO18_30*%
%TO.N,/S3*%
X92299999Y-76538666D03*
%TO.P,U2,29,GPIO5_29*%
%TO.N,/COL_DRV_G*%
X92299999Y-79078666D03*
%TO.P,U2,28,GPIO17_28*%
%TO.N,/S2*%
X92299999Y-81618666D03*
%TO.P,U2,27,GPIO16_27*%
%TO.N,/S1*%
X92299999Y-84158666D03*
%TO.P,U2,26,ADC2_CH0/GPIO4_26*%
%TO.N,/S0*%
X92299999Y-86698666D03*
%TO.P,U2,25,GPIO0/BOOT/ADC2_CH1_25*%
%TO.N,unconnected-(U2-GPIO0{slash}BOOT{slash}ADC2_CH1-Pad25)*%
X92299999Y-89238666D03*
%TO.P,U2,24,ADC2_CH2/GPIO2_24*%
%TO.N,/BTN_SELECT*%
X92299999Y-91778666D03*
%TO.P,U2,23,MTDO/GPIO15/ADC2_CH3_23*%
%TO.N,/COL_DRV_H*%
X92299999Y-94318666D03*
%TO.P,U2,22,SD_DATA1/GPIO8_22*%
%TO.N,unconnected-(U2-SD_DATA1{slash}GPIO8-Pad22)*%
X92299999Y-96858666D03*
%TO.P,U2,21,SD_DATA0/GPIO7_21*%
%TO.N,unconnected-(U2-SD_DATA0{slash}GPIO7-Pad21)*%
X92296319Y-99395946D03*
%TO.P,U2,20,SD_CLK/GPIO6_20*%
%TO.N,unconnected-(U2-SD_CLK{slash}GPIO6-Pad20)*%
X92296319Y-101935946D03*
%TO.P,U2,19,5V_19*%
%TO.N,Net-(D2-K)*%
X66899999Y-101938666D03*
%TO.P,U2,18,CMD_18*%
%TO.N,unconnected-(U2-CMD-Pad18)*%
X66899999Y-99398666D03*
%TO.P,U2,17,SD_DATA3/GPIO10_17*%
%TO.N,unconnected-(U2-SD_DATA3{slash}GPIO10-Pad17)*%
X66899999Y-96858666D03*
%TO.P,U2,16,SD_DATA2/GPIO9_16*%
%TO.N,unconnected-(U2-SD_DATA2{slash}GPIO9-Pad16)*%
X66899999Y-94318666D03*
%TO.P,U2,15,MTCK/GPIO13/ADC2_CH4_15*%
%TO.N,/COL_DRV_A*%
X66899999Y-91778666D03*
%TO.P,U2,14,GND_14*%
%TO.N,GND*%
X66899999Y-89238666D03*
%TO.P,U2,13,MTDI/GPIO12/ADC2_CH5_13*%
%TO.N,unconnected-(U2-MTDI{slash}GPIO12{slash}ADC2_CH5-Pad13)*%
X66899999Y-86698666D03*
%TO.P,U2,12,MTMS/GPIO14/ADC2_CH6_12*%
%TO.N,/COL_DRV_B*%
X66899999Y-84158666D03*
%TO.P,U2,11,ADC2_CH7/GPIO27_11*%
%TO.N,/COL_DRV_C*%
X66899999Y-81618666D03*
%TO.P,U2,10,DAC_2/ADC2_CH9/GPIO26_10*%
%TO.N,/COL_DRV_D*%
X66899999Y-79078666D03*
%TO.P,U2,9,DAC_1/ADC2_CH8/GPIO25_9*%
%TO.N,/COL_DRV_E*%
X66899999Y-76538666D03*
%TO.P,U2,8,32K_XN/GPIO33/ADC1_CH5_8*%
%TO.N,/COL_DRV_F*%
X66899999Y-73998666D03*
%TO.P,U2,7,32K_XP/GPIO32/ADC1_CH4_7*%
%TO.N,/LED_DATA*%
X66899999Y-71458666D03*
%TO.P,U2,6,VDET_2/GPIO35/ADC1_CH7_6*%
%TO.N,/PANEL_SPARE*%
X66899999Y-68918666D03*
%TO.P,U2,5,VDET_1/GPIO34/ADC1_CH6_5*%
%TO.N,/VBAT_MON*%
X66899999Y-66378666D03*
%TO.P,U2,4,SENSOR_VN/GPIO39/ADC1_CH3_4*%
%TO.N,/BTN_MODE*%
X66899999Y-63838666D03*
%TO.P,U2,3,SENSOR_VP/GPIO36/ADC1_CH0_3*%
%TO.N,/BTN_POWER*%
X66899999Y-61298666D03*
%TO.P,U2,2,CHIP_PU_2*%
%TO.N,unconnected-(U2-CHIP_PU-Pad2)*%
X66899999Y-58758666D03*
D15*
%TO.P,U2,1,3V3_1*%
%TO.N,unconnected-(U2-3V3-Pad1)*%
X66899999Y-56218666D03*
%TD*%
D10*
%TO.P,M1,8,Pin_8_8*%
%TO.N,unconnected-(M1-Pin_8-Pad8)*%
X57899999Y-74698666D03*
%TO.P,M1,7,Pin_7_7*%
%TO.N,GND*%
X57899999Y-72158666D03*
%TO.P,M1,6,Pin_6_6*%
%TO.N,/BAT*%
X57899999Y-69618666D03*
%TO.P,M1,5,Pin_5_5*%
%TO.N,GND*%
X57899999Y-67078666D03*
%TO.P,M1,4,Pin_4_4*%
%TO.N,+5V_LED*%
X57899999Y-64538666D03*
%TO.P,M1,3,Pin_3_3*%
%TO.N,GND*%
X57899999Y-61998666D03*
%TO.P,M1,2,Pin_2_2*%
%TO.N,unconnected-(M1-Pin_2-Pad2)*%
X57899999Y-59458666D03*
D11*
%TO.P,M1,1,Pin_1_1*%
%TO.N,+3.3V*%
X57899999Y-56918666D03*
%TD*%
D10*
%TO.P,J1,26,Pin_26_26*%
%TO.N,GND*%
X101859999Y-115898666D03*
%TO.P,J1,25,Pin_25_25*%
%TO.N,+5V_LED*%
X104399999Y-115898666D03*
%TO.P,J1,24,Pin_24_24*%
%TO.N,/CH_PWR*%
X101859999Y-113358666D03*
%TO.P,J1,23,Pin_23_23*%
%TO.N,/CG_PWR*%
X104399999Y-113358666D03*
%TO.P,J1,22,Pin_22_22*%
%TO.N,/CF_PWR*%
X101859999Y-110818666D03*
%TO.P,J1,21,Pin_21_21*%
%TO.N,/CE_PWR*%
X104399999Y-110818666D03*
%TO.P,J1,20,Pin_20_20*%
%TO.N,/CD_PWR*%
X101859999Y-108278666D03*
%TO.P,J1,19,Pin_19_19*%
%TO.N,/CC_PWR*%
X104399999Y-108278666D03*
%TO.P,J1,18,Pin_18_18*%
%TO.N,/CB_PWR*%
X101859999Y-105738666D03*
%TO.P,J1,17,Pin_17_17*%
%TO.N,/CA_PWR*%
X104399999Y-105738666D03*
%TO.P,J1,16,Pin_16_16*%
%TO.N,/S7*%
X101859999Y-103198666D03*
%TO.P,J1,15,Pin_15_15*%
%TO.N,/S6*%
X104399999Y-103198666D03*
%TO.P,J1,14,Pin_14_14*%
%TO.N,/S5*%
X101859999Y-100658666D03*
%TO.P,J1,13,Pin_13_13*%
%TO.N,/S4*%
X104399999Y-100658666D03*
%TO.P,J1,12,Pin_12_12*%
%TO.N,/S3*%
X101859999Y-98118666D03*
%TO.P,J1,11,Pin_11_11*%
%TO.N,/S2*%
X104399999Y-98118666D03*
%TO.P,J1,10,Pin_10_10*%
%TO.N,/S1*%
X101859999Y-95578666D03*
%TO.P,J1,9,Pin_9_9*%
%TO.N,/S0*%
X104399999Y-95578666D03*
%TO.P,J1,8,Pin_8_8*%
%TO.N,GND*%
X101859999Y-93038666D03*
%TO.P,J1,7,Pin_7_7*%
%TO.N,/LED_DATA_5V*%
X104399999Y-93038666D03*
%TO.P,J1,6,Pin_6_6*%
%TO.N,GND*%
X101859999Y-90498666D03*
%TO.P,J1,5,Pin_5_5*%
%TO.N,+5V_LED*%
X104399999Y-90498666D03*
%TO.P,J1,4,Pin_4_4*%
%TO.N,GND*%
X101859999Y-87958666D03*
%TO.P,J1,3,Pin_3_3*%
%TO.N,+5V_LED*%
X104399999Y-87958666D03*
%TO.P,J1,2,Pin_2_2*%
%TO.N,GND*%
X101859999Y-85418666D03*
D11*
%TO.P,J1,1,Pin_1_1*%
%TO.N,+5V_LED*%
X104399999Y-85418666D03*
%TD*%
D16*
%TO.N,GND*%
X94900000Y-71468666D03*
X94600000Y-108268666D03*
%TO.N,/S6*%
X107000000Y-90268666D03*
X99622499Y-61480666D03*
%TO.N,/S4*%
X99622499Y-75093666D03*
%TO.N,/LED_DATA*%
X64399999Y-93968666D03*
X61449999Y-93968666D03*
%TO.N,/S3*%
X99622499Y-80337066D03*
%TO.N,/LED_DATA_5V*%
X56000000Y-112018666D03*
%TD*%
%TO.N,/S0*%
D17*
X95229499Y-86698666D02*
X100299499Y-91768666D01*
%TO.N,/S6*%
X99622499Y-61480666D02*
X93783699Y-61480666D01*
%TO.N,/BTN_POWER*%
X74506799Y-67603766D02*
X102385099Y-67603766D01*
%TO.N,/S0*%
X103129999Y-94308666D02*
X104399999Y-95578666D01*
%TO.N,/S6*%
X93783699Y-61480666D02*
X93601699Y-61298666D01*
%TO.N,/BTN_POWER*%
X68201699Y-61298666D02*
X74506799Y-67603766D01*
%TO.N,/S6*%
X92299999Y-61298666D02*
X93601699Y-61298666D01*
%TO.N,/S0*%
X103129999Y-92653266D02*
X103129999Y-94308666D01*
X92299999Y-86698666D02*
X95229499Y-86698666D01*
%TO.N,/S6*%
X107000000Y-100598665D02*
X104399999Y-103198666D01*
%TO.N,/BTN_POWER*%
X102385099Y-67603766D02*
X104399999Y-69618666D01*
%TO.N,/S0*%
X102245399Y-91768666D02*
X103129999Y-92653266D01*
%TO.N,/S6*%
X107000000Y-90268666D02*
X107000000Y-100598665D01*
%TO.N,/S0*%
X100299499Y-91768666D02*
X102245399Y-91768666D01*
%TO.N,/BTN_POWER*%
X66899999Y-61298666D02*
X68201699Y-61298666D01*
%TO.N,GND*%
D18*
X92299999Y-71458666D02*
X94890000Y-71458666D01*
X94890000Y-71458666D02*
X94900000Y-71468666D01*
X92379999Y-108278666D02*
X94590000Y-108278666D01*
X94590000Y-108278666D02*
X94600000Y-108268666D01*
%TO.N,/S1*%
D17*
X91866899Y-87968666D02*
X90998299Y-87100066D01*
X90998299Y-87100066D02*
X90998299Y-84158666D01*
%TO.N,/S4*%
X92299999Y-73998666D02*
X98527499Y-73998666D01*
X98527499Y-73998666D02*
X99622499Y-75093666D01*
%TO.N,/S1*%
X94249999Y-87968666D02*
X91866899Y-87968666D01*
X92299999Y-84158666D02*
X90998299Y-84158666D01*
X101859999Y-95578666D02*
X94249999Y-87968666D01*
%TO.N,/CF_PWR*%
X84759999Y-108278666D02*
X85899599Y-107139066D01*
%TO.N,/CG_PWR*%
X93570599Y-114549266D02*
X87299999Y-108278666D01*
%TO.N,/CF_PWR*%
X85899599Y-107139066D02*
X98180399Y-107139066D01*
%TO.N,/PANEL_SPARE*%
X104399999Y-74698666D02*
X102429999Y-72728666D01*
%TO.N,/CC_PWR*%
X101211499Y-106890366D02*
X103011699Y-106890366D01*
%TO.N,/CB_PWR*%
X101039999Y-104918666D02*
X77959999Y-104918666D01*
%TO.N,/CC_PWR*%
X103011699Y-106890366D02*
X104399999Y-108278666D01*
%TO.N,/CE_PWR*%
X98508099Y-106618666D02*
X101319799Y-109430366D01*
%TO.N,/CC_PWR*%
X77139999Y-108278666D02*
X79899999Y-105518666D01*
%TO.N,/BTN_MODE*%
X68201699Y-63838666D02*
X74551699Y-70188666D01*
%TO.N,/CB_PWR*%
X101859999Y-105738666D02*
X101039999Y-104918666D01*
%TO.N,/BTN_MODE*%
X66899999Y-63838666D02*
X68201699Y-63838666D01*
%TO.N,/CA_PWR*%
X72059999Y-108278666D02*
X75919999Y-104418666D01*
%TO.N,/CE_PWR*%
X83879999Y-106618666D02*
X98508099Y-106618666D01*
%TO.N,/CA_PWR*%
X75919999Y-104418666D02*
X103079999Y-104418666D01*
%TO.N,/CD_PWR*%
X99649999Y-106068666D02*
X101859999Y-108278666D01*
%TO.N,/PANEL_SPARE*%
X70650000Y-68918666D02*
X66899999Y-68918666D01*
%TO.N,/CC_PWR*%
X99839799Y-105518666D02*
X101211499Y-106890366D01*
%TO.N,/PANEL_SPARE*%
X102429999Y-72728666D02*
X74460000Y-72728666D01*
%TO.N,/CB_PWR*%
X77959999Y-104918666D02*
X74599999Y-108278666D01*
%TO.N,/CG_PWR*%
X104399999Y-113358666D02*
X103209399Y-114549266D01*
%TO.N,/CH_PWR*%
X94919999Y-113358666D02*
X89839999Y-108278666D01*
X101859999Y-113358666D02*
X94919999Y-113358666D01*
%TO.N,/CE_PWR*%
X101319799Y-109430366D02*
X103011699Y-109430366D01*
X82219999Y-108278666D02*
X83879999Y-106618666D01*
%TO.N,/CC_PWR*%
X79899999Y-105518666D02*
X99839799Y-105518666D01*
%TO.N,/CG_PWR*%
X103209399Y-114549266D02*
X93570599Y-114549266D01*
%TO.N,/BTN_MODE*%
X74551699Y-70188666D02*
X102429999Y-70188666D01*
%TO.N,/CE_PWR*%
X103011699Y-109430366D02*
X104399999Y-110818666D01*
%TO.N,/CD_PWR*%
X81889999Y-106068666D02*
X99649999Y-106068666D01*
%TO.N,/BTN_MODE*%
X102429999Y-70188666D02*
X104399999Y-72158666D01*
%TO.N,/CA_PWR*%
X103079999Y-104418666D02*
X104399999Y-105738666D01*
%TO.N,/CD_PWR*%
X79679999Y-108278666D02*
X81889999Y-106068666D01*
%TO.N,/CF_PWR*%
X98180399Y-107139066D02*
X101859999Y-110818666D01*
%TO.N,/PANEL_SPARE*%
X74460000Y-72728666D02*
X70650000Y-68918666D01*
%TO.N,/LED_DATA*%
X61449999Y-93968666D02*
X64399999Y-93968666D01*
%TO.N,/BTN_SELECT*%
X99255299Y-80951466D02*
X99020699Y-80716866D01*
X105619899Y-68298566D02*
X105619899Y-75186466D01*
X103150000Y-75968666D02*
X100252199Y-78866467D01*
X90998299Y-91778666D02*
X92299999Y-91778666D01*
X91296599Y-80716866D02*
X89550000Y-82463465D01*
X105619899Y-75186466D02*
X104837699Y-75968666D01*
X99020699Y-80716866D02*
X91296599Y-80716866D01*
X104399999Y-67078666D02*
X105619899Y-68298566D01*
X89550000Y-90330367D02*
X90998299Y-91778666D01*
X89550000Y-82463465D02*
X89550000Y-90330367D01*
X100252199Y-80565166D02*
X99865899Y-80951466D01*
X104837699Y-75968666D02*
X103150000Y-75968666D01*
X99865899Y-80951466D02*
X99255299Y-80951466D01*
X100252199Y-78866467D02*
X100252199Y-80565166D01*
%TO.N,/S2*%
X103011699Y-96730366D02*
X100111799Y-96730366D01*
X104399999Y-98118666D02*
X103011699Y-96730366D01*
X93890099Y-90508666D02*
X91863199Y-90508666D01*
X90568499Y-82048466D02*
X90998299Y-81618666D01*
X90568499Y-89213966D02*
X90568499Y-82048466D01*
X100111799Y-96730366D02*
X93890099Y-90508666D01*
X91863199Y-90508666D02*
X90568499Y-89213966D01*
X92299999Y-81618666D02*
X90998299Y-81618666D01*
%TO.N,/S3*%
X92299999Y-76538666D02*
X95824099Y-76538666D01*
X95824099Y-76538666D02*
X99622499Y-80337066D01*
%TO.N,/I2C_SCL*%
X95441699Y-64538666D02*
X93601699Y-66378666D01*
X92299999Y-66378666D02*
X93601699Y-66378666D01*
X104399999Y-64538666D02*
X95441699Y-64538666D01*
%TO.N,/I2C_SDA*%
X91575699Y-60347766D02*
X90998299Y-60925166D01*
X102749099Y-60347766D02*
X91575699Y-60347766D01*
X90998299Y-60925166D02*
X90998299Y-61672166D01*
X92299999Y-63838666D02*
X93601699Y-63838666D01*
X93601699Y-63428866D02*
X93601699Y-63838666D01*
X91526699Y-62200566D02*
X92373399Y-62200566D01*
X104399999Y-61998666D02*
X102749099Y-60347766D01*
X92373399Y-62200566D02*
X93601699Y-63428866D01*
X90998299Y-61672166D02*
X91526699Y-62200566D01*
%TO.N,/LED_DATA_5V*%
X74796099Y-103868666D02*
X96150000Y-103868666D01*
X100630000Y-99388666D02*
X104807799Y-99388666D01*
X66646099Y-112018666D02*
X74796099Y-103868666D01*
X96150000Y-103868666D02*
X100630000Y-99388666D01*
X105605699Y-94244366D02*
X104399999Y-93038666D01*
X105605699Y-98590766D02*
X105605699Y-94244366D01*
X56000000Y-112018666D02*
X66646099Y-112018666D01*
X104807799Y-99388666D02*
X105605699Y-98590766D01*
%TD*%
%TA.AperFunction,Conductor*%
%TO.N,GND*%
G36*
X102341770Y-92305854D02*
G01*
X102386117Y-92334355D01*
X102564309Y-92512547D01*
X102597794Y-92573870D01*
X102592810Y-92643562D01*
X102564309Y-92687909D01*
X102342961Y-92909256D01*
X102325924Y-92845673D01*
X102260098Y-92731659D01*
X102167006Y-92638567D01*
X102052992Y-92572741D01*
X101989406Y-92555702D01*
X102210755Y-92334355D01*
X102272078Y-92300870D01*
X102341770Y-92305854D01*
G37*
%TD.AperFunction*%
%TA.AperFunction,Conductor*%
G36*
X102321205Y-70508851D02*
G01*
X102341847Y-70525485D01*
X103412923Y-71596561D01*
X103446408Y-71657884D01*
X103441424Y-71727576D01*
X103439803Y-71731695D01*
X103389869Y-71852245D01*
X103389867Y-71852253D01*
X103349499Y-72055196D01*
X103349499Y-72262135D01*
X103389867Y-72465078D01*
X103389869Y-72465086D01*
X103469057Y-72656262D01*
X103584023Y-72828323D01*
X103730341Y-72974641D01*
X103730344Y-72974643D01*
X103902401Y-73089607D01*
X104093579Y-73168796D01*
X104241233Y-73198166D01*
X104296529Y-73209165D01*
X104296533Y-73209166D01*
X104296534Y-73209166D01*
X104503465Y-73209166D01*
X104503466Y-73209165D01*
X104706419Y-73168796D01*
X104897597Y-73089607D01*
X105069654Y-72974643D01*
X105075174Y-72969123D01*
X105107718Y-72936580D01*
X105169041Y-72903095D01*
X105238733Y-72908079D01*
X105294666Y-72949951D01*
X105319083Y-73015415D01*
X105319399Y-73024261D01*
X105319399Y-73833071D01*
X105299714Y-73900110D01*
X105246910Y-73945865D01*
X105177752Y-73955809D01*
X105114196Y-73926784D01*
X105107718Y-73920752D01*
X105069656Y-73882690D01*
X104902615Y-73771078D01*
X104897597Y-73767725D01*
X104897592Y-73767723D01*
X104706419Y-73688536D01*
X104706411Y-73688534D01*
X104503468Y-73648166D01*
X104503464Y-73648166D01*
X104296534Y-73648166D01*
X104296529Y-73648166D01*
X104093586Y-73688534D01*
X104093578Y-73688536D01*
X103973028Y-73738470D01*
X103903558Y-73745939D01*
X103841079Y-73714664D01*
X103837894Y-73711590D01*
X102614511Y-72488207D01*
X102614503Y-72488201D01*
X102545994Y-72448648D01*
X102545989Y-72448645D01*
X102520512Y-72441818D01*
X102469561Y-72428166D01*
X102469559Y-72428166D01*
X93585496Y-72428166D01*
X93518457Y-72408481D01*
X93472702Y-72355677D01*
X93462758Y-72286519D01*
X93491783Y-72222963D01*
X93497815Y-72216485D01*
X93539031Y-72175268D01*
X93640803Y-72035190D01*
X93719407Y-71880921D01*
X93772913Y-71716250D01*
X93774114Y-71708666D01*
X92615685Y-71708666D01*
X92620079Y-71704272D01*
X92672740Y-71613060D01*
X92699999Y-71511327D01*
X92699999Y-71406005D01*
X92672740Y-71304272D01*
X92620079Y-71213060D01*
X92615685Y-71208666D01*
X93774114Y-71208666D01*
X93774114Y-71208665D01*
X93772913Y-71201081D01*
X93719407Y-71036410D01*
X93640803Y-70882141D01*
X93539031Y-70742063D01*
X93497815Y-70700847D01*
X93464330Y-70639524D01*
X93469314Y-70569832D01*
X93511186Y-70513899D01*
X93576650Y-70489482D01*
X93585496Y-70489166D01*
X102254166Y-70489166D01*
X102321205Y-70508851D01*
G37*
%TD.AperFunction*%
%TA.AperFunction,Conductor*%
G36*
X106003736Y-50500726D02*
G01*
X106293796Y-50518271D01*
X106308659Y-50520076D01*
X106590797Y-50571780D01*
X106605334Y-50575363D01*
X106879182Y-50660698D01*
X106893163Y-50666000D01*
X107154734Y-50783724D01*
X107167987Y-50790680D01*
X107413458Y-50939071D01*
X107425776Y-50947573D01*
X107651573Y-51124474D01*
X107662781Y-51134404D01*
X107865595Y-51337218D01*
X107875525Y-51348426D01*
X108052422Y-51574217D01*
X108060928Y-51586541D01*
X108209319Y-51832012D01*
X108216277Y-51845269D01*
X108333994Y-52106823D01*
X108339304Y-52120825D01*
X108424635Y-52394664D01*
X108428219Y-52409202D01*
X108479923Y-52691340D01*
X108481728Y-52706205D01*
X108499274Y-52996263D01*
X108499500Y-53003750D01*
X108499500Y-117996249D01*
X108499274Y-118003736D01*
X108481728Y-118293794D01*
X108479923Y-118308659D01*
X108428219Y-118590797D01*
X108424635Y-118605335D01*
X108339304Y-118879174D01*
X108333994Y-118893176D01*
X108216277Y-119154730D01*
X108209319Y-119167987D01*
X108060928Y-119413458D01*
X108052422Y-119425782D01*
X107875525Y-119651573D01*
X107865595Y-119662781D01*
X107662781Y-119865595D01*
X107651573Y-119875525D01*
X107425782Y-120052422D01*
X107413458Y-120060928D01*
X107167987Y-120209319D01*
X107154730Y-120216277D01*
X106893176Y-120333994D01*
X106879174Y-120339304D01*
X106605335Y-120424635D01*
X106590797Y-120428219D01*
X106308659Y-120479923D01*
X106293794Y-120481728D01*
X106003736Y-120499274D01*
X105996249Y-120499500D01*
X53003751Y-120499500D01*
X52996264Y-120499274D01*
X52706205Y-120481728D01*
X52691340Y-120479923D01*
X52409202Y-120428219D01*
X52394664Y-120424635D01*
X52120825Y-120339304D01*
X52106827Y-120333995D01*
X51954096Y-120265256D01*
X51845269Y-120216277D01*
X51832012Y-120209319D01*
X51586541Y-120060928D01*
X51574217Y-120052422D01*
X51348426Y-119875525D01*
X51337218Y-119865595D01*
X51134404Y-119662781D01*
X51124474Y-119651573D01*
X50947573Y-119425776D01*
X50939071Y-119413458D01*
X50790680Y-119167987D01*
X50783722Y-119154730D01*
X50666000Y-118893163D01*
X50660698Y-118879182D01*
X50575363Y-118605334D01*
X50571780Y-118590797D01*
X50520076Y-118308659D01*
X50518271Y-118293794D01*
X50500726Y-118003736D01*
X50500500Y-117996249D01*
X50500500Y-115294396D01*
X71059499Y-115294396D01*
X71059499Y-116502935D01*
X71062352Y-116533365D01*
X71062352Y-116533367D01*
X71098604Y-116636965D01*
X71107206Y-116661548D01*
X71187849Y-116770816D01*
X71297117Y-116851459D01*
X71323575Y-116860717D01*
X71425298Y-116896312D01*
X71455729Y-116899166D01*
X71455733Y-116899166D01*
X72664269Y-116899166D01*
X72694698Y-116896312D01*
X72694700Y-116896312D01*
X72758789Y-116873885D01*
X72822881Y-116851459D01*
X72932149Y-116770816D01*
X73012792Y-116661548D01*
X73035218Y-116597456D01*
X73057645Y-116533367D01*
X73057645Y-116533365D01*
X73060499Y-116502935D01*
X73060499Y-115997209D01*
X73599498Y-115997209D01*
X73637946Y-116190495D01*
X73637949Y-116190505D01*
X73713363Y-116372573D01*
X73713370Y-116372586D01*
X73822859Y-116536447D01*
X73822862Y-116536451D01*
X73962213Y-116675802D01*
X73962217Y-116675805D01*
X74126078Y-116785294D01*
X74126091Y-116785301D01*
X74285813Y-116851459D01*
X74308164Y-116860717D01*
X74308168Y-116860717D01*
X74308169Y-116860718D01*
X74501455Y-116899166D01*
X74501458Y-116899166D01*
X74698542Y-116899166D01*
X74828581Y-116873298D01*
X74891834Y-116860717D01*
X75073913Y-116785298D01*
X75237781Y-116675805D01*
X75377138Y-116536448D01*
X75486631Y-116372580D01*
X75562050Y-116190501D01*
X75588802Y-116056012D01*
X75600499Y-115997209D01*
X76139498Y-115997209D01*
X76177946Y-116190495D01*
X76177949Y-116190505D01*
X76253363Y-116372573D01*
X76253370Y-116372586D01*
X76362859Y-116536447D01*
X76362862Y-116536451D01*
X76502213Y-116675802D01*
X76502217Y-116675805D01*
X76666078Y-116785294D01*
X76666091Y-116785301D01*
X76825813Y-116851459D01*
X76848164Y-116860717D01*
X76848168Y-116860717D01*
X76848169Y-116860718D01*
X77041455Y-116899166D01*
X77041458Y-116899166D01*
X77238542Y-116899166D01*
X77368581Y-116873298D01*
X77431834Y-116860717D01*
X77613913Y-116785298D01*
X77777781Y-116675805D01*
X77917138Y-116536448D01*
X78026631Y-116372580D01*
X78102050Y-116190501D01*
X78128802Y-116056012D01*
X78140499Y-115997209D01*
X78679498Y-115997209D01*
X78717946Y-116190495D01*
X78717949Y-116190505D01*
X78793363Y-116372573D01*
X78793370Y-116372586D01*
X78902859Y-116536447D01*
X78902862Y-116536451D01*
X79042213Y-116675802D01*
X79042217Y-116675805D01*
X79206078Y-116785294D01*
X79206091Y-116785301D01*
X79365813Y-116851459D01*
X79388164Y-116860717D01*
X79388168Y-116860717D01*
X79388169Y-116860718D01*
X79581455Y-116899166D01*
X79581458Y-116899166D01*
X79778542Y-116899166D01*
X79908581Y-116873298D01*
X79971834Y-116860717D01*
X80153913Y-116785298D01*
X80317781Y-116675805D01*
X80457138Y-116536448D01*
X80566631Y-116372580D01*
X80642050Y-116190501D01*
X80668802Y-116056012D01*
X80680499Y-115997209D01*
X81219498Y-115997209D01*
X81257946Y-116190495D01*
X81257949Y-116190505D01*
X81333363Y-116372573D01*
X81333370Y-116372586D01*
X81442859Y-116536447D01*
X81442862Y-116536451D01*
X81582213Y-116675802D01*
X81582217Y-116675805D01*
X81746078Y-116785294D01*
X81746091Y-116785301D01*
X81905813Y-116851459D01*
X81928164Y-116860717D01*
X81928168Y-116860717D01*
X81928169Y-116860718D01*
X82121455Y-116899166D01*
X82121458Y-116899166D01*
X82318542Y-116899166D01*
X82448581Y-116873298D01*
X82511834Y-116860717D01*
X82693913Y-116785298D01*
X82857781Y-116675805D01*
X82997138Y-116536448D01*
X83106631Y-116372580D01*
X83182050Y-116190501D01*
X83208802Y-116056012D01*
X83220499Y-115997209D01*
X83759498Y-115997209D01*
X83797946Y-116190495D01*
X83797949Y-116190505D01*
X83873363Y-116372573D01*
X83873370Y-116372586D01*
X83982859Y-116536447D01*
X83982862Y-116536451D01*
X84122213Y-116675802D01*
X84122217Y-116675805D01*
X84286078Y-116785294D01*
X84286091Y-116785301D01*
X84445813Y-116851459D01*
X84468164Y-116860717D01*
X84468168Y-116860717D01*
X84468169Y-116860718D01*
X84661455Y-116899166D01*
X84661458Y-116899166D01*
X84858542Y-116899166D01*
X84988581Y-116873298D01*
X85051834Y-116860717D01*
X85233913Y-116785298D01*
X85397781Y-116675805D01*
X85537138Y-116536448D01*
X85646631Y-116372580D01*
X85722050Y-116190501D01*
X85748802Y-116056012D01*
X85760499Y-115997209D01*
X86299498Y-115997209D01*
X86337946Y-116190495D01*
X86337949Y-116190505D01*
X86413363Y-116372573D01*
X86413370Y-116372586D01*
X86522859Y-116536447D01*
X86522862Y-116536451D01*
X86662213Y-116675802D01*
X86662217Y-116675805D01*
X86826078Y-116785294D01*
X86826091Y-116785301D01*
X86985813Y-116851459D01*
X87008164Y-116860717D01*
X87008168Y-116860717D01*
X87008169Y-116860718D01*
X87201455Y-116899166D01*
X87201458Y-116899166D01*
X87398542Y-116899166D01*
X87528581Y-116873298D01*
X87591834Y-116860717D01*
X87773913Y-116785298D01*
X87937781Y-116675805D01*
X88077138Y-116536448D01*
X88186631Y-116372580D01*
X88262050Y-116190501D01*
X88288802Y-116056012D01*
X88300499Y-115997209D01*
X88839498Y-115997209D01*
X88877946Y-116190495D01*
X88877949Y-116190505D01*
X88953363Y-116372573D01*
X88953370Y-116372586D01*
X89062859Y-116536447D01*
X89062862Y-116536451D01*
X89202213Y-116675802D01*
X89202217Y-116675805D01*
X89366078Y-116785294D01*
X89366091Y-116785301D01*
X89525813Y-116851459D01*
X89548164Y-116860717D01*
X89548168Y-116860717D01*
X89548169Y-116860718D01*
X89741455Y-116899166D01*
X89741458Y-116899166D01*
X89938542Y-116899166D01*
X90068581Y-116873298D01*
X90131834Y-116860717D01*
X90313913Y-116785298D01*
X90477781Y-116675805D01*
X90617138Y-116536448D01*
X90726631Y-116372580D01*
X90802050Y-116190501D01*
X90828802Y-116056012D01*
X90840499Y-115997209D01*
X90840499Y-115805045D01*
X91429499Y-115805045D01*
X91429499Y-115992286D01*
X91466024Y-116175909D01*
X91466026Y-116175917D01*
X91537675Y-116348894D01*
X91537680Y-116348903D01*
X91641696Y-116504573D01*
X91641699Y-116504577D01*
X91774087Y-116636965D01*
X91774091Y-116636968D01*
X91929761Y-116740984D01*
X91929767Y-116740987D01*
X91929768Y-116740988D01*
X92102748Y-116812639D01*
X92265741Y-116845060D01*
X92286378Y-116849165D01*
X92286382Y-116849166D01*
X92286383Y-116849166D01*
X92473616Y-116849166D01*
X92473617Y-116849165D01*
X92479481Y-116847999D01*
X92494260Y-116845060D01*
X92570145Y-116829964D01*
X92657250Y-116812639D01*
X92830230Y-116740988D01*
X92985907Y-116636968D01*
X93118301Y-116504574D01*
X93222321Y-116348897D01*
X93293972Y-116175917D01*
X93330499Y-115992282D01*
X93330499Y-115805050D01*
X93293972Y-115621415D01*
X93222321Y-115448435D01*
X93222320Y-115448434D01*
X93222317Y-115448428D01*
X93118301Y-115292758D01*
X93118298Y-115292754D01*
X92985910Y-115160366D01*
X92985906Y-115160363D01*
X92830236Y-115056347D01*
X92830227Y-115056342D01*
X92657250Y-114984693D01*
X92657242Y-114984691D01*
X92473619Y-114948166D01*
X92473615Y-114948166D01*
X92286383Y-114948166D01*
X92286378Y-114948166D01*
X92102755Y-114984691D01*
X92102747Y-114984693D01*
X91929770Y-115056342D01*
X91929761Y-115056347D01*
X91774091Y-115160363D01*
X91774087Y-115160366D01*
X91641699Y-115292754D01*
X91641696Y-115292758D01*
X91537680Y-115448428D01*
X91537675Y-115448437D01*
X91466026Y-115621414D01*
X91466024Y-115621422D01*
X91429499Y-115805045D01*
X90840499Y-115805045D01*
X90840499Y-115800122D01*
X90802051Y-115606836D01*
X90802050Y-115606833D01*
X90802050Y-115606831D01*
X90736438Y-115448428D01*
X90726634Y-115424758D01*
X90726627Y-115424745D01*
X90617138Y-115260884D01*
X90617135Y-115260880D01*
X90477784Y-115121529D01*
X90477780Y-115121526D01*
X90313919Y-115012037D01*
X90313906Y-115012030D01*
X90131838Y-114936616D01*
X90131828Y-114936613D01*
X89938542Y-114898166D01*
X89938540Y-114898166D01*
X89741458Y-114898166D01*
X89741456Y-114898166D01*
X89548169Y-114936613D01*
X89548159Y-114936616D01*
X89366091Y-115012030D01*
X89366078Y-115012037D01*
X89202217Y-115121526D01*
X89202213Y-115121529D01*
X89062862Y-115260880D01*
X89062859Y-115260884D01*
X88953370Y-115424745D01*
X88953363Y-115424758D01*
X88877949Y-115606826D01*
X88877946Y-115606836D01*
X88839499Y-115800122D01*
X88839499Y-115800125D01*
X88839499Y-115997207D01*
X88839499Y-115997209D01*
X88839498Y-115997209D01*
X88300499Y-115997209D01*
X88300499Y-115800122D01*
X88262051Y-115606836D01*
X88262050Y-115606833D01*
X88262050Y-115606831D01*
X88196438Y-115448428D01*
X88186634Y-115424758D01*
X88186627Y-115424745D01*
X88077138Y-115260884D01*
X88077135Y-115260880D01*
X87937784Y-115121529D01*
X87937780Y-115121526D01*
X87773919Y-115012037D01*
X87773906Y-115012030D01*
X87591838Y-114936616D01*
X87591828Y-114936613D01*
X87398542Y-114898166D01*
X87398540Y-114898166D01*
X87201458Y-114898166D01*
X87201456Y-114898166D01*
X87008169Y-114936613D01*
X87008159Y-114936616D01*
X86826091Y-115012030D01*
X86826078Y-115012037D01*
X86662217Y-115121526D01*
X86662213Y-115121529D01*
X86522862Y-115260880D01*
X86522859Y-115260884D01*
X86413370Y-115424745D01*
X86413363Y-115424758D01*
X86337949Y-115606826D01*
X86337946Y-115606836D01*
X86299499Y-115800122D01*
X86299499Y-115800125D01*
X86299499Y-115997207D01*
X86299499Y-115997209D01*
X86299498Y-115997209D01*
X85760499Y-115997209D01*
X85760499Y-115800122D01*
X85722051Y-115606836D01*
X85722050Y-115606833D01*
X85722050Y-115606831D01*
X85656438Y-115448428D01*
X85646634Y-115424758D01*
X85646627Y-115424745D01*
X85537138Y-115260884D01*
X85537135Y-115260880D01*
X85397784Y-115121529D01*
X85397780Y-115121526D01*
X85233919Y-115012037D01*
X85233906Y-115012030D01*
X85051838Y-114936616D01*
X85051828Y-114936613D01*
X84858542Y-114898166D01*
X84858540Y-114898166D01*
X84661458Y-114898166D01*
X84661456Y-114898166D01*
X84468169Y-114936613D01*
X84468159Y-114936616D01*
X84286091Y-115012030D01*
X84286078Y-115012037D01*
X84122217Y-115121526D01*
X84122213Y-115121529D01*
X83982862Y-115260880D01*
X83982859Y-115260884D01*
X83873370Y-115424745D01*
X83873363Y-115424758D01*
X83797949Y-115606826D01*
X83797946Y-115606836D01*
X83759499Y-115800122D01*
X83759499Y-115800125D01*
X83759499Y-115997207D01*
X83759499Y-115997209D01*
X83759498Y-115997209D01*
X83220499Y-115997209D01*
X83220499Y-115800122D01*
X83182051Y-115606836D01*
X83182050Y-115606833D01*
X83182050Y-115606831D01*
X83116438Y-115448428D01*
X83106634Y-115424758D01*
X83106627Y-115424745D01*
X82997138Y-115260884D01*
X82997135Y-115260880D01*
X82857784Y-115121529D01*
X82857780Y-115121526D01*
X82693919Y-115012037D01*
X82693906Y-115012030D01*
X82511838Y-114936616D01*
X82511828Y-114936613D01*
X82318542Y-114898166D01*
X82318540Y-114898166D01*
X82121458Y-114898166D01*
X82121456Y-114898166D01*
X81928169Y-114936613D01*
X81928159Y-114936616D01*
X81746091Y-115012030D01*
X81746078Y-115012037D01*
X81582217Y-115121526D01*
X81582213Y-115121529D01*
X81442862Y-115260880D01*
X81442859Y-115260884D01*
X81333370Y-115424745D01*
X81333363Y-115424758D01*
X81257949Y-115606826D01*
X81257946Y-115606836D01*
X81219499Y-115800122D01*
X81219499Y-115800125D01*
X81219499Y-115997207D01*
X81219499Y-115997209D01*
X81219498Y-115997209D01*
X80680499Y-115997209D01*
X80680499Y-115800122D01*
X80642051Y-115606836D01*
X80642050Y-115606833D01*
X80642050Y-115606831D01*
X80576438Y-115448428D01*
X80566634Y-115424758D01*
X80566627Y-115424745D01*
X80457138Y-115260884D01*
X80457135Y-115260880D01*
X80317784Y-115121529D01*
X80317780Y-115121526D01*
X80153919Y-115012037D01*
X80153906Y-115012030D01*
X79971838Y-114936616D01*
X79971828Y-114936613D01*
X79778542Y-114898166D01*
X79778540Y-114898166D01*
X79581458Y-114898166D01*
X79581456Y-114898166D01*
X79388169Y-114936613D01*
X79388159Y-114936616D01*
X79206091Y-115012030D01*
X79206078Y-115012037D01*
X79042217Y-115121526D01*
X79042213Y-115121529D01*
X78902862Y-115260880D01*
X78902859Y-115260884D01*
X78793370Y-115424745D01*
X78793363Y-115424758D01*
X78717949Y-115606826D01*
X78717946Y-115606836D01*
X78679499Y-115800122D01*
X78679499Y-115800125D01*
X78679499Y-115997207D01*
X78679499Y-115997209D01*
X78679498Y-115997209D01*
X78140499Y-115997209D01*
X78140499Y-115800122D01*
X78102051Y-115606836D01*
X78102050Y-115606833D01*
X78102050Y-115606831D01*
X78036438Y-115448428D01*
X78026634Y-115424758D01*
X78026627Y-115424745D01*
X77917138Y-115260884D01*
X77917135Y-115260880D01*
X77777784Y-115121529D01*
X77777780Y-115121526D01*
X77613919Y-115012037D01*
X77613906Y-115012030D01*
X77431838Y-114936616D01*
X77431828Y-114936613D01*
X77238542Y-114898166D01*
X77238540Y-114898166D01*
X77041458Y-114898166D01*
X77041456Y-114898166D01*
X76848169Y-114936613D01*
X76848159Y-114936616D01*
X76666091Y-115012030D01*
X76666078Y-115012037D01*
X76502217Y-115121526D01*
X76502213Y-115121529D01*
X76362862Y-115260880D01*
X76362859Y-115260884D01*
X76253370Y-115424745D01*
X76253363Y-115424758D01*
X76177949Y-115606826D01*
X76177946Y-115606836D01*
X76139499Y-115800122D01*
X76139499Y-115800125D01*
X76139499Y-115997207D01*
X76139499Y-115997209D01*
X76139498Y-115997209D01*
X75600499Y-115997209D01*
X75600499Y-115800122D01*
X75562051Y-115606836D01*
X75562050Y-115606833D01*
X75562050Y-115606831D01*
X75496438Y-115448428D01*
X75486634Y-115424758D01*
X75486627Y-115424745D01*
X75377138Y-115260884D01*
X75377135Y-115260880D01*
X75237784Y-115121529D01*
X75237780Y-115121526D01*
X75073919Y-115012037D01*
X75073906Y-115012030D01*
X74891838Y-114936616D01*
X74891828Y-114936613D01*
X74698542Y-114898166D01*
X74698540Y-114898166D01*
X74501458Y-114898166D01*
X74501456Y-114898166D01*
X74308169Y-114936613D01*
X74308159Y-114936616D01*
X74126091Y-115012030D01*
X74126078Y-115012037D01*
X73962217Y-115121526D01*
X73962213Y-115121529D01*
X73822862Y-115260880D01*
X73822859Y-115260884D01*
X73713370Y-115424745D01*
X73713363Y-115424758D01*
X73637949Y-115606826D01*
X73637946Y-115606836D01*
X73599499Y-115800122D01*
X73599499Y-115800125D01*
X73599499Y-115997207D01*
X73599499Y-115997209D01*
X73599498Y-115997209D01*
X73060499Y-115997209D01*
X73060499Y-115294396D01*
X73057645Y-115263966D01*
X73057645Y-115263964D01*
X73024005Y-115167829D01*
X73012792Y-115135784D01*
X72932149Y-115026516D01*
X72822881Y-114945873D01*
X72822879Y-114945872D01*
X72694699Y-114901019D01*
X72664269Y-114898166D01*
X72664265Y-114898166D01*
X71455733Y-114898166D01*
X71455729Y-114898166D01*
X71425299Y-114901019D01*
X71425297Y-114901019D01*
X71297118Y-114945872D01*
X71297116Y-114945873D01*
X71187849Y-115026516D01*
X71107206Y-115135783D01*
X71107205Y-115135785D01*
X71062352Y-115263964D01*
X71062352Y-115263966D01*
X71059499Y-115294396D01*
X50500500Y-115294396D01*
X50500500Y-111952774D01*
X55499500Y-111952774D01*
X55499500Y-112084557D01*
X55533608Y-112211853D01*
X55560902Y-112259126D01*
X55599500Y-112325980D01*
X55692686Y-112419166D01*
X55806814Y-112485058D01*
X55934108Y-112519166D01*
X55934110Y-112519166D01*
X56065890Y-112519166D01*
X56065892Y-112519166D01*
X56193186Y-112485058D01*
X56307314Y-112419166D01*
X56370995Y-112355485D01*
X56432318Y-112322000D01*
X56458676Y-112319166D01*
X66685659Y-112319166D01*
X66685661Y-112319166D01*
X66762088Y-112298687D01*
X66830610Y-112259126D01*
X66886559Y-112203177D01*
X70847818Y-108241916D01*
X70909141Y-108208432D01*
X70978833Y-108213416D01*
X71034766Y-108255288D01*
X71059183Y-108320752D01*
X71059499Y-108329598D01*
X71059499Y-108377207D01*
X71059499Y-108377209D01*
X71059498Y-108377209D01*
X71097946Y-108570495D01*
X71097949Y-108570505D01*
X71173363Y-108752573D01*
X71173370Y-108752586D01*
X71282859Y-108916447D01*
X71282862Y-108916451D01*
X71422213Y-109055802D01*
X71422217Y-109055805D01*
X71586078Y-109165294D01*
X71586091Y-109165301D01*
X71736187Y-109227472D01*
X71768164Y-109240717D01*
X71768168Y-109240717D01*
X71768169Y-109240718D01*
X71961455Y-109279166D01*
X71961458Y-109279166D01*
X72158542Y-109279166D01*
X72288581Y-109253298D01*
X72351834Y-109240717D01*
X72533913Y-109165298D01*
X72697781Y-109055805D01*
X72837138Y-108916448D01*
X72946631Y-108752580D01*
X73022050Y-108570501D01*
X73049389Y-108433060D01*
X73060499Y-108377209D01*
X73060499Y-108180122D01*
X73022051Y-107986836D01*
X73022050Y-107986835D01*
X73022050Y-107986831D01*
X72981924Y-107889960D01*
X72974456Y-107820494D01*
X73005731Y-107758015D01*
X73008777Y-107754857D01*
X76008151Y-104755485D01*
X76069474Y-104722000D01*
X76095832Y-104719166D01*
X77435166Y-104719166D01*
X77502205Y-104738851D01*
X77547960Y-104791655D01*
X77557904Y-104860813D01*
X77528879Y-104924369D01*
X77522847Y-104930847D01*
X75123834Y-107329858D01*
X75062511Y-107363343D01*
X74992819Y-107358359D01*
X74988701Y-107356738D01*
X74891838Y-107316616D01*
X74891828Y-107316613D01*
X74698542Y-107278166D01*
X74698540Y-107278166D01*
X74501458Y-107278166D01*
X74501456Y-107278166D01*
X74308169Y-107316613D01*
X74308159Y-107316616D01*
X74126091Y-107392030D01*
X74126078Y-107392037D01*
X73962217Y-107501526D01*
X73962213Y-107501529D01*
X73822862Y-107640880D01*
X73822859Y-107640884D01*
X73713370Y-107804745D01*
X73713363Y-107804758D01*
X73637949Y-107986826D01*
X73637946Y-107986836D01*
X73599499Y-108180122D01*
X73599499Y-108180125D01*
X73599499Y-108377207D01*
X73599499Y-108377209D01*
X73599498Y-108377209D01*
X73637946Y-108570495D01*
X73637949Y-108570505D01*
X73713363Y-108752573D01*
X73713370Y-108752586D01*
X73822859Y-108916447D01*
X73822862Y-108916451D01*
X73962213Y-109055802D01*
X73962217Y-109055805D01*
X74126078Y-109165294D01*
X74126091Y-109165301D01*
X74276187Y-109227472D01*
X74308164Y-109240717D01*
X74308168Y-109240717D01*
X74308169Y-109240718D01*
X74501455Y-109279166D01*
X74501458Y-109279166D01*
X74698542Y-109279166D01*
X74828581Y-109253298D01*
X74891834Y-109240717D01*
X75073913Y-109165298D01*
X75237781Y-109055805D01*
X75377138Y-108916448D01*
X75486631Y-108752580D01*
X75562050Y-108570501D01*
X75589389Y-108433060D01*
X75600499Y-108377209D01*
X75600499Y-108180122D01*
X75562051Y-107986836D01*
X75562050Y-107986835D01*
X75562050Y-107986831D01*
X75521924Y-107889960D01*
X75514456Y-107820494D01*
X75545731Y-107758015D01*
X75548776Y-107754858D01*
X78048151Y-105255485D01*
X78109474Y-105222000D01*
X78135832Y-105219166D01*
X79475166Y-105219166D01*
X79542205Y-105238851D01*
X79587960Y-105291655D01*
X79597904Y-105360813D01*
X79568879Y-105424369D01*
X79562847Y-105430847D01*
X77663834Y-107329858D01*
X77602511Y-107363343D01*
X77532819Y-107358359D01*
X77528701Y-107356738D01*
X77431838Y-107316616D01*
X77431828Y-107316613D01*
X77238542Y-107278166D01*
X77238540Y-107278166D01*
X77041458Y-107278166D01*
X77041456Y-107278166D01*
X76848169Y-107316613D01*
X76848159Y-107316616D01*
X76666091Y-107392030D01*
X76666078Y-107392037D01*
X76502217Y-107501526D01*
X76502213Y-107501529D01*
X76362862Y-107640880D01*
X76362859Y-107640884D01*
X76253370Y-107804745D01*
X76253363Y-107804758D01*
X76177949Y-107986826D01*
X76177946Y-107986836D01*
X76139499Y-108180122D01*
X76139499Y-108180125D01*
X76139499Y-108377207D01*
X76139499Y-108377209D01*
X76139498Y-108377209D01*
X76177946Y-108570495D01*
X76177949Y-108570505D01*
X76253363Y-108752573D01*
X76253370Y-108752586D01*
X76362859Y-108916447D01*
X76362862Y-108916451D01*
X76502213Y-109055802D01*
X76502217Y-109055805D01*
X76666078Y-109165294D01*
X76666091Y-109165301D01*
X76816187Y-109227472D01*
X76848164Y-109240717D01*
X76848168Y-109240717D01*
X76848169Y-109240718D01*
X77041455Y-109279166D01*
X77041458Y-109279166D01*
X77238542Y-109279166D01*
X77368581Y-109253298D01*
X77431834Y-109240717D01*
X77613913Y-109165298D01*
X77777781Y-109055805D01*
X77917138Y-108916448D01*
X78026631Y-108752580D01*
X78102050Y-108570501D01*
X78129389Y-108433060D01*
X78140499Y-108377209D01*
X78140499Y-108180122D01*
X78102051Y-107986836D01*
X78102050Y-107986835D01*
X78102050Y-107986831D01*
X78061924Y-107889960D01*
X78054456Y-107820494D01*
X78085731Y-107758015D01*
X78088776Y-107754858D01*
X79988151Y-105855485D01*
X80049474Y-105822000D01*
X80075832Y-105819166D01*
X81415166Y-105819166D01*
X81482205Y-105838851D01*
X81527960Y-105891655D01*
X81537904Y-105960813D01*
X81508879Y-106024369D01*
X81502847Y-106030847D01*
X80203834Y-107329858D01*
X80142511Y-107363343D01*
X80072819Y-107358359D01*
X80068701Y-107356738D01*
X79971838Y-107316616D01*
X79971828Y-107316613D01*
X79778542Y-107278166D01*
X79778540Y-107278166D01*
X79581458Y-107278166D01*
X79581456Y-107278166D01*
X79388169Y-107316613D01*
X79388159Y-107316616D01*
X79206091Y-107392030D01*
X79206078Y-107392037D01*
X79042217Y-107501526D01*
X79042213Y-107501529D01*
X78902862Y-107640880D01*
X78902859Y-107640884D01*
X78793370Y-107804745D01*
X78793363Y-107804758D01*
X78717949Y-107986826D01*
X78717946Y-107986836D01*
X78679499Y-108180122D01*
X78679499Y-108180125D01*
X78679499Y-108377207D01*
X78679499Y-108377209D01*
X78679498Y-108377209D01*
X78717946Y-108570495D01*
X78717949Y-108570505D01*
X78793363Y-108752573D01*
X78793370Y-108752586D01*
X78902859Y-108916447D01*
X78902862Y-108916451D01*
X79042213Y-109055802D01*
X79042217Y-109055805D01*
X79206078Y-109165294D01*
X79206091Y-109165301D01*
X79356187Y-109227472D01*
X79388164Y-109240717D01*
X79388168Y-109240717D01*
X79388169Y-109240718D01*
X79581455Y-109279166D01*
X79581458Y-109279166D01*
X79778542Y-109279166D01*
X79908581Y-109253298D01*
X79971834Y-109240717D01*
X80153913Y-109165298D01*
X80317781Y-109055805D01*
X80457138Y-108916448D01*
X80566631Y-108752580D01*
X80642050Y-108570501D01*
X80669389Y-108433060D01*
X80680499Y-108377209D01*
X80680499Y-108180122D01*
X80642051Y-107986836D01*
X80642050Y-107986835D01*
X80642050Y-107986831D01*
X80601924Y-107889960D01*
X80594456Y-107820494D01*
X80625731Y-107758015D01*
X80628776Y-107754858D01*
X81978151Y-106405485D01*
X82039474Y-106372000D01*
X82065832Y-106369166D01*
X83405166Y-106369166D01*
X83472205Y-106388851D01*
X83517960Y-106441655D01*
X83527904Y-106510813D01*
X83498879Y-106574369D01*
X83492847Y-106580847D01*
X82743834Y-107329858D01*
X82682511Y-107363343D01*
X82612819Y-107358359D01*
X82608701Y-107356738D01*
X82511838Y-107316616D01*
X82511828Y-107316613D01*
X82318542Y-107278166D01*
X82318540Y-107278166D01*
X82121458Y-107278166D01*
X82121456Y-107278166D01*
X81928169Y-107316613D01*
X81928159Y-107316616D01*
X81746091Y-107392030D01*
X81746078Y-107392037D01*
X81582217Y-107501526D01*
X81582213Y-107501529D01*
X81442862Y-107640880D01*
X81442859Y-107640884D01*
X81333370Y-107804745D01*
X81333363Y-107804758D01*
X81257949Y-107986826D01*
X81257946Y-107986836D01*
X81219499Y-108180122D01*
X81219499Y-108180125D01*
X81219499Y-108377207D01*
X81219499Y-108377209D01*
X81219498Y-108377209D01*
X81257946Y-108570495D01*
X81257949Y-108570505D01*
X81333363Y-108752573D01*
X81333370Y-108752586D01*
X81442859Y-108916447D01*
X81442862Y-108916451D01*
X81582213Y-109055802D01*
X81582217Y-109055805D01*
X81746078Y-109165294D01*
X81746091Y-109165301D01*
X81896187Y-109227472D01*
X81928164Y-109240717D01*
X81928168Y-109240717D01*
X81928169Y-109240718D01*
X82121455Y-109279166D01*
X82121458Y-109279166D01*
X82318542Y-109279166D01*
X82448581Y-109253298D01*
X82511834Y-109240717D01*
X82693913Y-109165298D01*
X82857781Y-109055805D01*
X82997138Y-108916448D01*
X83106631Y-108752580D01*
X83182050Y-108570501D01*
X83209389Y-108433060D01*
X83220499Y-108377209D01*
X83220499Y-108180122D01*
X83182051Y-107986836D01*
X83182050Y-107986835D01*
X83182050Y-107986831D01*
X83141924Y-107889960D01*
X83134456Y-107820494D01*
X83165731Y-107758015D01*
X83168775Y-107754859D01*
X83968151Y-106955485D01*
X84029474Y-106922000D01*
X84055832Y-106919166D01*
X85395166Y-106919166D01*
X85462205Y-106938851D01*
X85507960Y-106991655D01*
X85517904Y-107060813D01*
X85488879Y-107124369D01*
X85482866Y-107130826D01*
X85322103Y-107291590D01*
X85283834Y-107329859D01*
X85222510Y-107363343D01*
X85152819Y-107358359D01*
X85148701Y-107356738D01*
X85051838Y-107316616D01*
X85051828Y-107316613D01*
X84858542Y-107278166D01*
X84858540Y-107278166D01*
X84661458Y-107278166D01*
X84661456Y-107278166D01*
X84468169Y-107316613D01*
X84468159Y-107316616D01*
X84286091Y-107392030D01*
X84286078Y-107392037D01*
X84122217Y-107501526D01*
X84122213Y-107501529D01*
X83982862Y-107640880D01*
X83982859Y-107640884D01*
X83873370Y-107804745D01*
X83873363Y-107804758D01*
X83797949Y-107986826D01*
X83797946Y-107986836D01*
X83759499Y-108180122D01*
X83759499Y-108180125D01*
X83759499Y-108377207D01*
X83759499Y-108377209D01*
X83759498Y-108377209D01*
X83797946Y-108570495D01*
X83797949Y-108570505D01*
X83873363Y-108752573D01*
X83873370Y-108752586D01*
X83982859Y-108916447D01*
X83982862Y-108916451D01*
X84122213Y-109055802D01*
X84122217Y-109055805D01*
X84286078Y-109165294D01*
X84286091Y-109165301D01*
X84436187Y-109227472D01*
X84468164Y-109240717D01*
X84468168Y-109240717D01*
X84468169Y-109240718D01*
X84661455Y-109279166D01*
X84661458Y-109279166D01*
X84858542Y-109279166D01*
X84988581Y-109253298D01*
X85051834Y-109240717D01*
X85233913Y-109165298D01*
X85397781Y-109055805D01*
X85537138Y-108916448D01*
X85646631Y-108752580D01*
X85722050Y-108570501D01*
X85749389Y-108433060D01*
X85760499Y-108377209D01*
X85760499Y-108180122D01*
X85722051Y-107986836D01*
X85722050Y-107986835D01*
X85722050Y-107986831D01*
X85681924Y-107889960D01*
X85674456Y-107820494D01*
X85705731Y-107758015D01*
X85708746Y-107754888D01*
X85987752Y-107475882D01*
X86049074Y-107442400D01*
X86075432Y-107439566D01*
X86425901Y-107439566D01*
X86492940Y-107459251D01*
X86538695Y-107512055D01*
X86548639Y-107581213D01*
X86524958Y-107634960D01*
X86526244Y-107635819D01*
X86413370Y-107804745D01*
X86413363Y-107804758D01*
X86337949Y-107986826D01*
X86337946Y-107986836D01*
X86299499Y-108180122D01*
X86299499Y-108180125D01*
X86299499Y-108377207D01*
X86299499Y-108377209D01*
X86299498Y-108377209D01*
X86337946Y-108570495D01*
X86337949Y-108570505D01*
X86413363Y-108752573D01*
X86413370Y-108752586D01*
X86522859Y-108916447D01*
X86522862Y-108916451D01*
X86662213Y-109055802D01*
X86662217Y-109055805D01*
X86826078Y-109165294D01*
X86826091Y-109165301D01*
X86976187Y-109227472D01*
X87008164Y-109240717D01*
X87008168Y-109240717D01*
X87008169Y-109240718D01*
X87201455Y-109279166D01*
X87201458Y-109279166D01*
X87398542Y-109279166D01*
X87528581Y-109253298D01*
X87591834Y-109240717D01*
X87688701Y-109200592D01*
X87758168Y-109193123D01*
X87820648Y-109224397D01*
X87823834Y-109227472D01*
X93386088Y-114789726D01*
X93445428Y-114823986D01*
X93454607Y-114829286D01*
X93454611Y-114829288D01*
X93531037Y-114849766D01*
X93531039Y-114849766D01*
X100710014Y-114849766D01*
X100777053Y-114869451D01*
X100822808Y-114922255D01*
X100832752Y-114991413D01*
X100810332Y-115046651D01*
X100705378Y-115191108D01*
X100608903Y-115380448D01*
X100543241Y-115582535D01*
X100543241Y-115582538D01*
X100509999Y-115792419D01*
X100509999Y-116004912D01*
X100543241Y-116214793D01*
X100543241Y-116214796D01*
X100608903Y-116416883D01*
X100705374Y-116606216D01*
X100744727Y-116660382D01*
X101377035Y-116028073D01*
X101394074Y-116091659D01*
X101459900Y-116205673D01*
X101552992Y-116298765D01*
X101667006Y-116364591D01*
X101730589Y-116381628D01*
X101098281Y-117013935D01*
X101098281Y-117013936D01*
X101152448Y-117053290D01*
X101341781Y-117149761D01*
X101543869Y-117215423D01*
X101753753Y-117248666D01*
X101966245Y-117248666D01*
X102176126Y-117215423D01*
X102176129Y-117215423D01*
X102378216Y-117149761D01*
X102567553Y-117053288D01*
X102621715Y-117013936D01*
X102621716Y-117013936D01*
X101989407Y-116381628D01*
X102052992Y-116364591D01*
X102167006Y-116298765D01*
X102260098Y-116205673D01*
X102325924Y-116091659D01*
X102342961Y-116028075D01*
X102975269Y-116660383D01*
X102975269Y-116660382D01*
X103014621Y-116606220D01*
X103111094Y-116416883D01*
X103176754Y-116214800D01*
X103186055Y-116156078D01*
X103215984Y-116092943D01*
X103275295Y-116056012D01*
X103345158Y-116057008D01*
X103403391Y-116095618D01*
X103430146Y-116151282D01*
X103437946Y-116190496D01*
X103437949Y-116190505D01*
X103513363Y-116372573D01*
X103513370Y-116372586D01*
X103622859Y-116536447D01*
X103622862Y-116536451D01*
X103762213Y-116675802D01*
X103762217Y-116675805D01*
X103926078Y-116785294D01*
X103926091Y-116785301D01*
X104085813Y-116851459D01*
X104108164Y-116860717D01*
X104108168Y-116860717D01*
X104108169Y-116860718D01*
X104301455Y-116899166D01*
X104301458Y-116899166D01*
X104498542Y-116899166D01*
X104628581Y-116873298D01*
X104691834Y-116860717D01*
X104873913Y-116785298D01*
X105037781Y-116675805D01*
X105177138Y-116536448D01*
X105286631Y-116372580D01*
X105362050Y-116190501D01*
X105388802Y-116056012D01*
X105400499Y-115997209D01*
X105400499Y-115800122D01*
X105362051Y-115606836D01*
X105362050Y-115606833D01*
X105362050Y-115606831D01*
X105296438Y-115448428D01*
X105286634Y-115424758D01*
X105286627Y-115424745D01*
X105177138Y-115260884D01*
X105177135Y-115260880D01*
X105037784Y-115121529D01*
X105037780Y-115121526D01*
X104873919Y-115012037D01*
X104873906Y-115012030D01*
X104691838Y-114936616D01*
X104691828Y-114936613D01*
X104498542Y-114898166D01*
X104498540Y-114898166D01*
X104301458Y-114898166D01*
X104301456Y-114898166D01*
X104108169Y-114936613D01*
X104108159Y-114936616D01*
X103926091Y-115012030D01*
X103926078Y-115012037D01*
X103762217Y-115121526D01*
X103762213Y-115121529D01*
X103622862Y-115260880D01*
X103622859Y-115260884D01*
X103513370Y-115424745D01*
X103513363Y-115424758D01*
X103437949Y-115606826D01*
X103437947Y-115606833D01*
X103430146Y-115646050D01*
X103397760Y-115707960D01*
X103337043Y-115742533D01*
X103267274Y-115738792D01*
X103210603Y-115697924D01*
X103186055Y-115641253D01*
X103176754Y-115582531D01*
X103111094Y-115380448D01*
X103014619Y-115191108D01*
X102909666Y-115046651D01*
X102886186Y-114980845D01*
X102902012Y-114912791D01*
X102952117Y-114864096D01*
X103009984Y-114849766D01*
X103248959Y-114849766D01*
X103248961Y-114849766D01*
X103325388Y-114829287D01*
X103393910Y-114789726D01*
X103449859Y-114733777D01*
X103837895Y-114345739D01*
X103899216Y-114312256D01*
X103968907Y-114317240D01*
X103973006Y-114318852D01*
X104093579Y-114368796D01*
X104296529Y-114409165D01*
X104296533Y-114409166D01*
X104296534Y-114409166D01*
X104503465Y-114409166D01*
X104503466Y-114409165D01*
X104706419Y-114368796D01*
X104897597Y-114289607D01*
X105069654Y-114174643D01*
X105215976Y-114028321D01*
X105330940Y-113856264D01*
X105410129Y-113665086D01*
X105450499Y-113462131D01*
X105450499Y-113255201D01*
X105410129Y-113052246D01*
X105330940Y-112861068D01*
X105215976Y-112689011D01*
X105215974Y-112689008D01*
X105069656Y-112542690D01*
X104983401Y-112485057D01*
X104897597Y-112427725D01*
X104876931Y-112419165D01*
X104706419Y-112348536D01*
X104706411Y-112348534D01*
X104503468Y-112308166D01*
X104503464Y-112308166D01*
X104296534Y-112308166D01*
X104296529Y-112308166D01*
X104093586Y-112348534D01*
X104093578Y-112348536D01*
X103902402Y-112427724D01*
X103730341Y-112542690D01*
X103584023Y-112689008D01*
X103469057Y-112861069D01*
X103389869Y-113052245D01*
X103389867Y-113052253D01*
X103349499Y-113255196D01*
X103349499Y-113462135D01*
X103389867Y-113665078D01*
X103389870Y-113665090D01*
X103439802Y-113785637D01*
X103447271Y-113855106D01*
X103415996Y-113917585D01*
X103412923Y-113920770D01*
X103121245Y-114212448D01*
X103059925Y-114245932D01*
X103033566Y-114248766D01*
X102754894Y-114248766D01*
X102687855Y-114229081D01*
X102642100Y-114176277D01*
X102632156Y-114107119D01*
X102661181Y-114043563D01*
X102667213Y-114037085D01*
X102675973Y-114028324D01*
X102675974Y-114028323D01*
X102675976Y-114028321D01*
X102790940Y-113856264D01*
X102870129Y-113665086D01*
X102910499Y-113462131D01*
X102910499Y-113255201D01*
X102870129Y-113052246D01*
X102790940Y-112861068D01*
X102675976Y-112689011D01*
X102675974Y-112689008D01*
X102529656Y-112542690D01*
X102443401Y-112485057D01*
X102357597Y-112427725D01*
X102336931Y-112419165D01*
X102166419Y-112348536D01*
X102166411Y-112348534D01*
X101963468Y-112308166D01*
X101963464Y-112308166D01*
X101756534Y-112308166D01*
X101756529Y-112308166D01*
X101553586Y-112348534D01*
X101553578Y-112348536D01*
X101362402Y-112427724D01*
X101190341Y-112542690D01*
X101044023Y-112689008D01*
X100929057Y-112861069D01*
X100879124Y-112981619D01*
X100835283Y-113036022D01*
X100768989Y-113058087D01*
X100764563Y-113058166D01*
X95095832Y-113058166D01*
X95028793Y-113038481D01*
X95008151Y-113021847D01*
X91596106Y-109609802D01*
X91562621Y-109548479D01*
X91567605Y-109478787D01*
X91609477Y-109422854D01*
X91674941Y-109398437D01*
X91740082Y-109411636D01*
X91880967Y-109483421D01*
X92075581Y-109546656D01*
X92277682Y-109578666D01*
X92482316Y-109578666D01*
X92684416Y-109546656D01*
X92879030Y-109483421D01*
X93061348Y-109390525D01*
X93105920Y-109358140D01*
X92426446Y-108678666D01*
X92432660Y-108678666D01*
X92534393Y-108651407D01*
X92625605Y-108598746D01*
X92700079Y-108524272D01*
X92752740Y-108433060D01*
X92779999Y-108331327D01*
X92779999Y-108325113D01*
X93459473Y-109004587D01*
X93491858Y-108960015D01*
X93584754Y-108777697D01*
X93647989Y-108583083D01*
X93679999Y-108380983D01*
X93679999Y-108176348D01*
X93647989Y-107974248D01*
X93584753Y-107779631D01*
X93503346Y-107619860D01*
X93490450Y-107551191D01*
X93516727Y-107486451D01*
X93573833Y-107446194D01*
X93613831Y-107439566D01*
X98004566Y-107439566D01*
X98071605Y-107459251D01*
X98092247Y-107475885D01*
X100872923Y-110256561D01*
X100906408Y-110317884D01*
X100901424Y-110387576D01*
X100899803Y-110391695D01*
X100849869Y-110512245D01*
X100849867Y-110512253D01*
X100809499Y-110715196D01*
X100809499Y-110922135D01*
X100849867Y-111125078D01*
X100849869Y-111125086D01*
X100929057Y-111316262D01*
X101044023Y-111488323D01*
X101190341Y-111634641D01*
X101190344Y-111634643D01*
X101362401Y-111749607D01*
X101553579Y-111828796D01*
X101756529Y-111869165D01*
X101756533Y-111869166D01*
X101756534Y-111869166D01*
X101963465Y-111869166D01*
X101963466Y-111869165D01*
X102166419Y-111828796D01*
X102357597Y-111749607D01*
X102529654Y-111634643D01*
X102675976Y-111488321D01*
X102790940Y-111316264D01*
X102870129Y-111125086D01*
X102910499Y-110922131D01*
X102910499Y-110715201D01*
X102870129Y-110512246D01*
X102790940Y-110321068D01*
X102675976Y-110149011D01*
X102675974Y-110149008D01*
X102529656Y-110002690D01*
X102462725Y-109957969D01*
X102417919Y-109904357D01*
X102409212Y-109835032D01*
X102439366Y-109772004D01*
X102498809Y-109735284D01*
X102531615Y-109730866D01*
X102835866Y-109730866D01*
X102902905Y-109750551D01*
X102923547Y-109767185D01*
X103412923Y-110256561D01*
X103446408Y-110317884D01*
X103441424Y-110387576D01*
X103439803Y-110391695D01*
X103389869Y-110512245D01*
X103389867Y-110512253D01*
X103349499Y-110715196D01*
X103349499Y-110922135D01*
X103389867Y-111125078D01*
X103389869Y-111125086D01*
X103469057Y-111316262D01*
X103584023Y-111488323D01*
X103730341Y-111634641D01*
X103730344Y-111634643D01*
X103902401Y-111749607D01*
X104093579Y-111828796D01*
X104296529Y-111869165D01*
X104296533Y-111869166D01*
X104296534Y-111869166D01*
X104503465Y-111869166D01*
X104503466Y-111869165D01*
X104706419Y-111828796D01*
X104897597Y-111749607D01*
X105069654Y-111634643D01*
X105215976Y-111488321D01*
X105330940Y-111316264D01*
X105410129Y-111125086D01*
X105450499Y-110922131D01*
X105450499Y-110715201D01*
X105410129Y-110512246D01*
X105330940Y-110321068D01*
X105215976Y-110149011D01*
X105215974Y-110149008D01*
X105069656Y-110002690D01*
X104983625Y-109945207D01*
X104897597Y-109887725D01*
X104845001Y-109865939D01*
X104706419Y-109808536D01*
X104706411Y-109808534D01*
X104503468Y-109768166D01*
X104503464Y-109768166D01*
X104296534Y-109768166D01*
X104296529Y-109768166D01*
X104093586Y-109808534D01*
X104093578Y-109808536D01*
X103973028Y-109858470D01*
X103903558Y-109865939D01*
X103841079Y-109834664D01*
X103837894Y-109831590D01*
X103196211Y-109189907D01*
X103196203Y-109189901D01*
X103153587Y-109165297D01*
X103153585Y-109165297D01*
X103127688Y-109150345D01*
X103051261Y-109129866D01*
X103051259Y-109129866D01*
X102786659Y-109129866D01*
X102719620Y-109110181D01*
X102673865Y-109057377D01*
X102663921Y-108988219D01*
X102683557Y-108936976D01*
X102779752Y-108793008D01*
X102790940Y-108776264D01*
X102870129Y-108585086D01*
X102910499Y-108382131D01*
X102910499Y-108175201D01*
X102870129Y-107972246D01*
X102790940Y-107781068D01*
X102675976Y-107609011D01*
X102675974Y-107609008D01*
X102529656Y-107462690D01*
X102462725Y-107417969D01*
X102417919Y-107364357D01*
X102409212Y-107295032D01*
X102439366Y-107232004D01*
X102498809Y-107195284D01*
X102531615Y-107190866D01*
X102835866Y-107190866D01*
X102902905Y-107210551D01*
X102923547Y-107227185D01*
X103412923Y-107716561D01*
X103446408Y-107777884D01*
X103441424Y-107847576D01*
X103439803Y-107851695D01*
X103389869Y-107972245D01*
X103389867Y-107972253D01*
X103349499Y-108175196D01*
X103349499Y-108382135D01*
X103389867Y-108585078D01*
X103389869Y-108585086D01*
X103455658Y-108743915D01*
X103469058Y-108776264D01*
X103480246Y-108793008D01*
X103584023Y-108948323D01*
X103730341Y-109094641D01*
X103730344Y-109094643D01*
X103902401Y-109209607D01*
X104093579Y-109288796D01*
X104296529Y-109329165D01*
X104296533Y-109329166D01*
X104296534Y-109329166D01*
X104503465Y-109329166D01*
X104503466Y-109329165D01*
X104706419Y-109288796D01*
X104897597Y-109209607D01*
X105069654Y-109094643D01*
X105215976Y-108948321D01*
X105330940Y-108776264D01*
X105410129Y-108585086D01*
X105450499Y-108382131D01*
X105450499Y-108175201D01*
X105410129Y-107972246D01*
X105330940Y-107781068D01*
X105215976Y-107609011D01*
X105215974Y-107609008D01*
X105069656Y-107462690D01*
X104963915Y-107392037D01*
X104897597Y-107347725D01*
X104845001Y-107325939D01*
X104706419Y-107268536D01*
X104706411Y-107268534D01*
X104503468Y-107228166D01*
X104503464Y-107228166D01*
X104296534Y-107228166D01*
X104296529Y-107228166D01*
X104093586Y-107268534D01*
X104093578Y-107268536D01*
X103973028Y-107318470D01*
X103903558Y-107325939D01*
X103841079Y-107294664D01*
X103837894Y-107291590D01*
X103196211Y-106649907D01*
X103196203Y-106649901D01*
X103127694Y-106610348D01*
X103127689Y-106610345D01*
X103102212Y-106603518D01*
X103051261Y-106589866D01*
X103051259Y-106589866D01*
X102786659Y-106589866D01*
X102719620Y-106570181D01*
X102673865Y-106517377D01*
X102663921Y-106448219D01*
X102683557Y-106396976D01*
X102790939Y-106236265D01*
X102790940Y-106236264D01*
X102870129Y-106045086D01*
X102910499Y-105842131D01*
X102910499Y-105635201D01*
X102870129Y-105432246D01*
X102790940Y-105241068D01*
X102675976Y-105069011D01*
X102675974Y-105069008D01*
X102537813Y-104930847D01*
X102504328Y-104869524D01*
X102509312Y-104799832D01*
X102551184Y-104743899D01*
X102616648Y-104719482D01*
X102625494Y-104719166D01*
X102904166Y-104719166D01*
X102971205Y-104738851D01*
X102991847Y-104755485D01*
X103412923Y-105176561D01*
X103446408Y-105237884D01*
X103441424Y-105307576D01*
X103439803Y-105311695D01*
X103389869Y-105432245D01*
X103389867Y-105432253D01*
X103349499Y-105635196D01*
X103349499Y-105842135D01*
X103389867Y-106045078D01*
X103389869Y-106045086D01*
X103469057Y-106236262D01*
X103584023Y-106408323D01*
X103730341Y-106554641D01*
X103730344Y-106554643D01*
X103902401Y-106669607D01*
X104093579Y-106748796D01*
X104296529Y-106789165D01*
X104296533Y-106789166D01*
X104296534Y-106789166D01*
X104503465Y-106789166D01*
X104503466Y-106789165D01*
X104706419Y-106748796D01*
X104897597Y-106669607D01*
X105069654Y-106554643D01*
X105215976Y-106408321D01*
X105330940Y-106236264D01*
X105410129Y-106045086D01*
X105450499Y-105842131D01*
X105450499Y-105635201D01*
X105410129Y-105432246D01*
X105330940Y-105241068D01*
X105215976Y-105069011D01*
X105215974Y-105069008D01*
X105069656Y-104922690D01*
X104902615Y-104811078D01*
X104897597Y-104807725D01*
X104845001Y-104785939D01*
X104706419Y-104728536D01*
X104706411Y-104728534D01*
X104503468Y-104688166D01*
X104503464Y-104688166D01*
X104296534Y-104688166D01*
X104296529Y-104688166D01*
X104093586Y-104728534D01*
X104093578Y-104728536D01*
X103973028Y-104778470D01*
X103903558Y-104785939D01*
X103841079Y-104754664D01*
X103837894Y-104751590D01*
X103264509Y-104178205D01*
X103238945Y-104163446D01*
X103213381Y-104148687D01*
X103195988Y-104138645D01*
X103119561Y-104118166D01*
X103119559Y-104118166D01*
X102725494Y-104118166D01*
X102658455Y-104098481D01*
X102612700Y-104045677D01*
X102602756Y-103976519D01*
X102631781Y-103912963D01*
X102637813Y-103906485D01*
X102675973Y-103868324D01*
X102675974Y-103868323D01*
X102675976Y-103868321D01*
X102790940Y-103696264D01*
X102870129Y-103505086D01*
X102910499Y-103302131D01*
X102910499Y-103095201D01*
X102910498Y-103095196D01*
X103349499Y-103095196D01*
X103349499Y-103302135D01*
X103389867Y-103505078D01*
X103389869Y-103505086D01*
X103469057Y-103696262D01*
X103584023Y-103868323D01*
X103730341Y-104014641D01*
X103730344Y-104014643D01*
X103902401Y-104129607D01*
X104093579Y-104208796D01*
X104296529Y-104249165D01*
X104296533Y-104249166D01*
X104296534Y-104249166D01*
X104503465Y-104249166D01*
X104503466Y-104249165D01*
X104706419Y-104208796D01*
X104897597Y-104129607D01*
X105069654Y-104014643D01*
X105215976Y-103868321D01*
X105330940Y-103696264D01*
X105410129Y-103505086D01*
X105450499Y-103302131D01*
X105450499Y-103095201D01*
X105410129Y-102892246D01*
X105360193Y-102771692D01*
X105352725Y-102702225D01*
X105384000Y-102639746D01*
X105387045Y-102636589D01*
X107240460Y-100783176D01*
X107280022Y-100714653D01*
X107300500Y-100638227D01*
X107300500Y-100559103D01*
X107300500Y-90727342D01*
X107320185Y-90660303D01*
X107336819Y-90639661D01*
X107400500Y-90575980D01*
X107466392Y-90461852D01*
X107500500Y-90334558D01*
X107500500Y-90202774D01*
X107466392Y-90075480D01*
X107400500Y-89961352D01*
X107307314Y-89868166D01*
X107250250Y-89835220D01*
X107193187Y-89802274D01*
X107129539Y-89785220D01*
X107065892Y-89768166D01*
X106934108Y-89768166D01*
X106806812Y-89802274D01*
X106692686Y-89868166D01*
X106692683Y-89868168D01*
X106599502Y-89961349D01*
X106599500Y-89961352D01*
X106533608Y-90075478D01*
X106517478Y-90135677D01*
X106499500Y-90202774D01*
X106499500Y-90334558D01*
X106501637Y-90342533D01*
X106533608Y-90461853D01*
X106554862Y-90498665D01*
X106599500Y-90575980D01*
X106599502Y-90575982D01*
X106663181Y-90639661D01*
X106696666Y-90700984D01*
X106699500Y-90727342D01*
X106699500Y-100422831D01*
X106679815Y-100489870D01*
X106663181Y-100510512D01*
X104962103Y-102211589D01*
X104900780Y-102245074D01*
X104831088Y-102240090D01*
X104826970Y-102238469D01*
X104706423Y-102188537D01*
X104706411Y-102188534D01*
X104503468Y-102148166D01*
X104503464Y-102148166D01*
X104296534Y-102148166D01*
X104296529Y-102148166D01*
X104093586Y-102188534D01*
X104093578Y-102188536D01*
X103902402Y-102267724D01*
X103730341Y-102382690D01*
X103584023Y-102529008D01*
X103469057Y-102701069D01*
X103389869Y-102892245D01*
X103389867Y-102892253D01*
X103349499Y-103095196D01*
X102910498Y-103095196D01*
X102870129Y-102892246D01*
X102790940Y-102701068D01*
X102675976Y-102529011D01*
X102675974Y-102529008D01*
X102529656Y-102382690D01*
X102362615Y-102271078D01*
X102357597Y-102267725D01*
X102166419Y-102188536D01*
X102166411Y-102188534D01*
X101963468Y-102148166D01*
X101963464Y-102148166D01*
X101756534Y-102148166D01*
X101756529Y-102148166D01*
X101553586Y-102188534D01*
X101553578Y-102188536D01*
X101362402Y-102267724D01*
X101190341Y-102382690D01*
X101044023Y-102529008D01*
X100929057Y-102701069D01*
X100849869Y-102892245D01*
X100849867Y-102892253D01*
X100809499Y-103095196D01*
X100809499Y-103302135D01*
X100849867Y-103505078D01*
X100849869Y-103505086D01*
X100929057Y-103696262D01*
X101044023Y-103868323D01*
X101082185Y-103906485D01*
X101115670Y-103967808D01*
X101110686Y-104037500D01*
X101068814Y-104093433D01*
X101003350Y-104117850D01*
X100994504Y-104118166D01*
X96624833Y-104118166D01*
X96557794Y-104098481D01*
X96512039Y-104045677D01*
X96502095Y-103976519D01*
X96531120Y-103912963D01*
X96537152Y-103906485D01*
X100718152Y-99725485D01*
X100745079Y-99710781D01*
X100770898Y-99694189D01*
X100777098Y-99693297D01*
X100779475Y-99692000D01*
X100805833Y-99689166D01*
X101044504Y-99689166D01*
X101111543Y-99708851D01*
X101157298Y-99761655D01*
X101167242Y-99830813D01*
X101138217Y-99894369D01*
X101132185Y-99900847D01*
X101044024Y-99989007D01*
X101044023Y-99989008D01*
X100929057Y-100161069D01*
X100849869Y-100352245D01*
X100849867Y-100352253D01*
X100809499Y-100555196D01*
X100809499Y-100762135D01*
X100849867Y-100965078D01*
X100849869Y-100965086D01*
X100921561Y-101138166D01*
X100929058Y-101156264D01*
X100937521Y-101168930D01*
X101044023Y-101328323D01*
X101190341Y-101474641D01*
X101190344Y-101474643D01*
X101362401Y-101589607D01*
X101553579Y-101668796D01*
X101736440Y-101705169D01*
X101756529Y-101709165D01*
X101756533Y-101709166D01*
X101756534Y-101709166D01*
X101963465Y-101709166D01*
X101963466Y-101709165D01*
X102166419Y-101668796D01*
X102357597Y-101589607D01*
X102529654Y-101474643D01*
X102675976Y-101328321D01*
X102790940Y-101156264D01*
X102870129Y-100965086D01*
X102910499Y-100762131D01*
X102910499Y-100555201D01*
X102870129Y-100352246D01*
X102790940Y-100161068D01*
X102675976Y-99989011D01*
X102675974Y-99989008D01*
X102587813Y-99900847D01*
X102554328Y-99839524D01*
X102559312Y-99769832D01*
X102601184Y-99713899D01*
X102666648Y-99689482D01*
X102675494Y-99689166D01*
X103584504Y-99689166D01*
X103651543Y-99708851D01*
X103697298Y-99761655D01*
X103707242Y-99830813D01*
X103678217Y-99894369D01*
X103672185Y-99900847D01*
X103584024Y-99989007D01*
X103584023Y-99989008D01*
X103469057Y-100161069D01*
X103389869Y-100352245D01*
X103389867Y-100352253D01*
X103349499Y-100555196D01*
X103349499Y-100762135D01*
X103389867Y-100965078D01*
X103389869Y-100965086D01*
X103461561Y-101138166D01*
X103469058Y-101156264D01*
X103477521Y-101168930D01*
X103584023Y-101328323D01*
X103730341Y-101474641D01*
X103730344Y-101474643D01*
X103902401Y-101589607D01*
X104093579Y-101668796D01*
X104276440Y-101705169D01*
X104296529Y-101709165D01*
X104296533Y-101709166D01*
X104296534Y-101709166D01*
X104503465Y-101709166D01*
X104503466Y-101709165D01*
X104706419Y-101668796D01*
X104897597Y-101589607D01*
X105069654Y-101474643D01*
X105215976Y-101328321D01*
X105330940Y-101156264D01*
X105410129Y-100965086D01*
X105450499Y-100762131D01*
X105450499Y-100555201D01*
X105410129Y-100352246D01*
X105330940Y-100161068D01*
X105215976Y-99989011D01*
X105215974Y-99989008D01*
X105069656Y-99842690D01*
X105049752Y-99829391D01*
X105020897Y-99810110D01*
X104976093Y-99756500D01*
X104967384Y-99687175D01*
X104997539Y-99624147D01*
X105002089Y-99619346D01*
X105048259Y-99573177D01*
X105846159Y-98775277D01*
X105863382Y-98745446D01*
X105885720Y-98706755D01*
X105906199Y-98630328D01*
X105906199Y-94204804D01*
X105885720Y-94128377D01*
X105860771Y-94085164D01*
X105846163Y-94059861D01*
X105846157Y-94059853D01*
X105387074Y-93600770D01*
X105353589Y-93539447D01*
X105358573Y-93469755D01*
X105360162Y-93465715D01*
X105410129Y-93345086D01*
X105450499Y-93142131D01*
X105450499Y-92935201D01*
X105410129Y-92732246D01*
X105330940Y-92541068D01*
X105215976Y-92369011D01*
X105215974Y-92369008D01*
X105069656Y-92222690D01*
X104948377Y-92141655D01*
X104897597Y-92107725D01*
X104876173Y-92098851D01*
X104706419Y-92028536D01*
X104706411Y-92028534D01*
X104503468Y-91988166D01*
X104503464Y-91988166D01*
X104296534Y-91988166D01*
X104296529Y-91988166D01*
X104093586Y-92028534D01*
X104093578Y-92028536D01*
X103902402Y-92107724D01*
X103730341Y-92222690D01*
X103584024Y-92369007D01*
X103584018Y-92369015D01*
X103542472Y-92431194D01*
X103488860Y-92476000D01*
X103419535Y-92484707D01*
X103356508Y-92454553D01*
X103351689Y-92449985D01*
X102654398Y-91752694D01*
X102620913Y-91691371D01*
X102618461Y-91655283D01*
X102621715Y-91613935D01*
X101989407Y-90981628D01*
X102052992Y-90964591D01*
X102167006Y-90898765D01*
X102260098Y-90805673D01*
X102325924Y-90691659D01*
X102342961Y-90628075D01*
X102975269Y-91260383D01*
X102975269Y-91260382D01*
X103014621Y-91206220D01*
X103111094Y-91016883D01*
X103176754Y-90814800D01*
X103186055Y-90756078D01*
X103215984Y-90692943D01*
X103275295Y-90656012D01*
X103345158Y-90657008D01*
X103403391Y-90695618D01*
X103430146Y-90751282D01*
X103437946Y-90790496D01*
X103437949Y-90790505D01*
X103513363Y-90972573D01*
X103513370Y-90972586D01*
X103622859Y-91136447D01*
X103622862Y-91136451D01*
X103762213Y-91275802D01*
X103762217Y-91275805D01*
X103926078Y-91385294D01*
X103926091Y-91385301D01*
X104108159Y-91460715D01*
X104108164Y-91460717D01*
X104108168Y-91460717D01*
X104108169Y-91460718D01*
X104301455Y-91499166D01*
X104301458Y-91499166D01*
X104498542Y-91499166D01*
X104628581Y-91473298D01*
X104691834Y-91460717D01*
X104873913Y-91385298D01*
X105037781Y-91275805D01*
X105177138Y-91136448D01*
X105286631Y-90972580D01*
X105362050Y-90790501D01*
X105388802Y-90656012D01*
X105400499Y-90597209D01*
X105400499Y-90400122D01*
X105362051Y-90206836D01*
X105362050Y-90206833D01*
X105362050Y-90206831D01*
X105340388Y-90154534D01*
X105286634Y-90024758D01*
X105286627Y-90024745D01*
X105177138Y-89860884D01*
X105177135Y-89860880D01*
X105037784Y-89721529D01*
X105037780Y-89721526D01*
X104873919Y-89612037D01*
X104873906Y-89612030D01*
X104691838Y-89536616D01*
X104691828Y-89536613D01*
X104498542Y-89498166D01*
X104498540Y-89498166D01*
X104301458Y-89498166D01*
X104301456Y-89498166D01*
X104108169Y-89536613D01*
X104108159Y-89536616D01*
X103926091Y-89612030D01*
X103926078Y-89612037D01*
X103762217Y-89721526D01*
X103762213Y-89721529D01*
X103622862Y-89860880D01*
X103622859Y-89860884D01*
X103513370Y-90024745D01*
X103513363Y-90024758D01*
X103437949Y-90206826D01*
X103437947Y-90206833D01*
X103430146Y-90246050D01*
X103397760Y-90307960D01*
X103337043Y-90342533D01*
X103267274Y-90338792D01*
X103210603Y-90297924D01*
X103186055Y-90241253D01*
X103176754Y-90182531D01*
X103111094Y-89980448D01*
X103014623Y-89791115D01*
X102975269Y-89736948D01*
X102975268Y-89736948D01*
X102342961Y-90369256D01*
X102325924Y-90305673D01*
X102260098Y-90191659D01*
X102167006Y-90098567D01*
X102052992Y-90032741D01*
X101989408Y-90015703D01*
X102621715Y-89383394D01*
X102567549Y-89344041D01*
X102557953Y-89339152D01*
X102507156Y-89291178D01*
X102490360Y-89223358D01*
X102512896Y-89157222D01*
X102557953Y-89118180D01*
X102567553Y-89113288D01*
X102621715Y-89073936D01*
X102621716Y-89073936D01*
X101989407Y-88441628D01*
X102052992Y-88424591D01*
X102167006Y-88358765D01*
X102260098Y-88265673D01*
X102325924Y-88151659D01*
X102342961Y-88088075D01*
X102975269Y-88720383D01*
X102975269Y-88720382D01*
X103014621Y-88666220D01*
X103111094Y-88476883D01*
X103176754Y-88274800D01*
X103186055Y-88216078D01*
X103215984Y-88152943D01*
X103275295Y-88116012D01*
X103345158Y-88117008D01*
X103403391Y-88155618D01*
X103430146Y-88211282D01*
X103437946Y-88250496D01*
X103437949Y-88250505D01*
X103513363Y-88432573D01*
X103513370Y-88432586D01*
X103622859Y-88596447D01*
X103622862Y-88596451D01*
X103762213Y-88735802D01*
X103762217Y-88735805D01*
X103926078Y-88845294D01*
X103926091Y-88845301D01*
X104103019Y-88918586D01*
X104108164Y-88920717D01*
X104108168Y-88920717D01*
X104108169Y-88920718D01*
X104301455Y-88959166D01*
X104301458Y-88959166D01*
X104498542Y-88959166D01*
X104628581Y-88933298D01*
X104691834Y-88920717D01*
X104873913Y-88845298D01*
X105037781Y-88735805D01*
X105177138Y-88596448D01*
X105286631Y-88432580D01*
X105362050Y-88250501D01*
X105388802Y-88116012D01*
X105400499Y-88057209D01*
X105400499Y-87860122D01*
X105362051Y-87666836D01*
X105362050Y-87666833D01*
X105362050Y-87666831D01*
X105337441Y-87607418D01*
X105286634Y-87484758D01*
X105286627Y-87484745D01*
X105177138Y-87320884D01*
X105177135Y-87320880D01*
X105037784Y-87181529D01*
X105037780Y-87181526D01*
X104873919Y-87072037D01*
X104873906Y-87072030D01*
X104691838Y-86996616D01*
X104691828Y-86996613D01*
X104498542Y-86958166D01*
X104498540Y-86958166D01*
X104301458Y-86958166D01*
X104301456Y-86958166D01*
X104108169Y-86996613D01*
X104108159Y-86996616D01*
X103926091Y-87072030D01*
X103926078Y-87072037D01*
X103762217Y-87181526D01*
X103762213Y-87181529D01*
X103622862Y-87320880D01*
X103622859Y-87320884D01*
X103513370Y-87484745D01*
X103513363Y-87484758D01*
X103437949Y-87666826D01*
X103437947Y-87666833D01*
X103430146Y-87706050D01*
X103397760Y-87767960D01*
X103337043Y-87802533D01*
X103267274Y-87798792D01*
X103210603Y-87757924D01*
X103186055Y-87701253D01*
X103176754Y-87642531D01*
X103111094Y-87440448D01*
X103014623Y-87251115D01*
X102975269Y-87196948D01*
X102975268Y-87196948D01*
X102342961Y-87829256D01*
X102325924Y-87765673D01*
X102260098Y-87651659D01*
X102167006Y-87558567D01*
X102052992Y-87492741D01*
X101989408Y-87475703D01*
X102621715Y-86843394D01*
X102567549Y-86804041D01*
X102557953Y-86799152D01*
X102507156Y-86751178D01*
X102490360Y-86683358D01*
X102512896Y-86617222D01*
X102557953Y-86578180D01*
X102567553Y-86573288D01*
X102621715Y-86533936D01*
X102621716Y-86533936D01*
X101989407Y-85901628D01*
X102052992Y-85884591D01*
X102167006Y-85818765D01*
X102260098Y-85725673D01*
X102325924Y-85611659D01*
X102342961Y-85548075D01*
X102975269Y-86180383D01*
X102975269Y-86180382D01*
X103014621Y-86126220D01*
X103111094Y-85936883D01*
X103157568Y-85793851D01*
X103197005Y-85736176D01*
X103261364Y-85708977D01*
X103330210Y-85720891D01*
X103381686Y-85768135D01*
X103399499Y-85832169D01*
X103399499Y-86283486D01*
X103399499Y-86283488D01*
X103399498Y-86283488D01*
X103408230Y-86327383D01*
X103408231Y-86327387D01*
X103408232Y-86327388D01*
X103441495Y-86377170D01*
X103491277Y-86410433D01*
X103491280Y-86410433D01*
X103491281Y-86410434D01*
X103535176Y-86419166D01*
X103535179Y-86419166D01*
X105264821Y-86419166D01*
X105308716Y-86410434D01*
X105308716Y-86410433D01*
X105308721Y-86410433D01*
X105358503Y-86377170D01*
X105391766Y-86327388D01*
X105392914Y-86321615D01*
X105400499Y-86283488D01*
X105400499Y-84553843D01*
X105391767Y-84509948D01*
X105391766Y-84509947D01*
X105391766Y-84509944D01*
X105358503Y-84460162D01*
X105358502Y-84460161D01*
X105308723Y-84426900D01*
X105308716Y-84426897D01*
X105264821Y-84418166D01*
X105264819Y-84418166D01*
X103535179Y-84418166D01*
X103535177Y-84418166D01*
X103491281Y-84426897D01*
X103491274Y-84426900D01*
X103441495Y-84460161D01*
X103441494Y-84460162D01*
X103408233Y-84509941D01*
X103408230Y-84509948D01*
X103399499Y-84553843D01*
X103399499Y-85005162D01*
X103379814Y-85072201D01*
X103327010Y-85117956D01*
X103257852Y-85127900D01*
X103194296Y-85098875D01*
X103157568Y-85043480D01*
X103111094Y-84900448D01*
X103014623Y-84711115D01*
X102975269Y-84656948D01*
X102975268Y-84656948D01*
X102342961Y-85289256D01*
X102325924Y-85225673D01*
X102260098Y-85111659D01*
X102167006Y-85018567D01*
X102052992Y-84952741D01*
X101989408Y-84935703D01*
X102621715Y-84303394D01*
X102567549Y-84264041D01*
X102378216Y-84167570D01*
X102176128Y-84101908D01*
X101966245Y-84068666D01*
X101753753Y-84068666D01*
X101543871Y-84101908D01*
X101543868Y-84101908D01*
X101341781Y-84167570D01*
X101152438Y-84264046D01*
X101098281Y-84303393D01*
X101098281Y-84303394D01*
X101730590Y-84935703D01*
X101667006Y-84952741D01*
X101552992Y-85018567D01*
X101459900Y-85111659D01*
X101394074Y-85225673D01*
X101377036Y-85289257D01*
X100744727Y-84656948D01*
X100744726Y-84656948D01*
X100705379Y-84711105D01*
X100608903Y-84900448D01*
X100543241Y-85102535D01*
X100543241Y-85102538D01*
X100509999Y-85312419D01*
X100509999Y-85524912D01*
X100543241Y-85734793D01*
X100543241Y-85734796D01*
X100608903Y-85936883D01*
X100705374Y-86126216D01*
X100744727Y-86180382D01*
X101377036Y-85548074D01*
X101394074Y-85611659D01*
X101459900Y-85725673D01*
X101552992Y-85818765D01*
X101667006Y-85884591D01*
X101730590Y-85901628D01*
X101129970Y-86502247D01*
X101208710Y-86619561D01*
X101209919Y-86623395D01*
X101212843Y-86626157D01*
X101220342Y-86656444D01*
X101229726Y-86686195D01*
X101228670Y-86690074D01*
X101229637Y-86693978D01*
X101219572Y-86723510D01*
X101211382Y-86753613D01*
X101208396Y-86756306D01*
X101207099Y-86760113D01*
X101162050Y-86799149D01*
X101152439Y-86804046D01*
X101098281Y-86843393D01*
X101098281Y-86843394D01*
X101730590Y-87475703D01*
X101667006Y-87492741D01*
X101552992Y-87558567D01*
X101459900Y-87651659D01*
X101394074Y-87765673D01*
X101377036Y-87829257D01*
X100744727Y-87196948D01*
X100744726Y-87196948D01*
X100705379Y-87251105D01*
X100608903Y-87440448D01*
X100543241Y-87642535D01*
X100543241Y-87642538D01*
X100509999Y-87852419D01*
X100509999Y-88064912D01*
X100543241Y-88274793D01*
X100543241Y-88274796D01*
X100608903Y-88476883D01*
X100705374Y-88666216D01*
X100744727Y-88720382D01*
X101377036Y-88088074D01*
X101394074Y-88151659D01*
X101459900Y-88265673D01*
X101552992Y-88358765D01*
X101667006Y-88424591D01*
X101730589Y-88441628D01*
X101098281Y-89073935D01*
X101098281Y-89073936D01*
X101152451Y-89113292D01*
X101162047Y-89118182D01*
X101212843Y-89166157D01*
X101229637Y-89233978D01*
X101207099Y-89300113D01*
X101162050Y-89339149D01*
X101152439Y-89344046D01*
X101098281Y-89383393D01*
X101098281Y-89383394D01*
X101730590Y-90015703D01*
X101667006Y-90032741D01*
X101552992Y-90098567D01*
X101459900Y-90191659D01*
X101394074Y-90305673D01*
X101377036Y-90369257D01*
X100744727Y-89736948D01*
X100744726Y-89736948D01*
X100705379Y-89791105D01*
X100608903Y-89980448D01*
X100543241Y-90182535D01*
X100543241Y-90182538D01*
X100509999Y-90392419D01*
X100509999Y-90604912D01*
X100543241Y-90814793D01*
X100543241Y-90814796D01*
X100608903Y-91016883D01*
X100705378Y-91206223D01*
X100752645Y-91271281D01*
X100756876Y-91283140D01*
X100765121Y-91292655D01*
X100768394Y-91315421D01*
X100776125Y-91337087D01*
X100773273Y-91349351D01*
X100775065Y-91361813D01*
X100765510Y-91382735D01*
X100760300Y-91405141D01*
X100751270Y-91413916D01*
X100746040Y-91425369D01*
X100726690Y-91437804D01*
X100710194Y-91453836D01*
X100696446Y-91457240D01*
X100687262Y-91463143D01*
X100652327Y-91468166D01*
X100475332Y-91468166D01*
X100408293Y-91448481D01*
X100387651Y-91431847D01*
X95414011Y-86458207D01*
X95414003Y-86458201D01*
X95345494Y-86418648D01*
X95345489Y-86418645D01*
X95314841Y-86410433D01*
X95269061Y-86398166D01*
X95269059Y-86398166D01*
X93524837Y-86398166D01*
X93457798Y-86378481D01*
X93412043Y-86325677D01*
X93410274Y-86321615D01*
X93409393Y-86319487D01*
X93409390Y-86319482D01*
X93409389Y-86319480D01*
X93321788Y-86188377D01*
X93321785Y-86188373D01*
X93210291Y-86076879D01*
X93210287Y-86076876D01*
X93079184Y-85989275D01*
X93079171Y-85989268D01*
X92933500Y-85928930D01*
X92933488Y-85928927D01*
X92778844Y-85898166D01*
X92778841Y-85898166D01*
X91821157Y-85898166D01*
X91821154Y-85898166D01*
X91666509Y-85928927D01*
X91666497Y-85928930D01*
X91520826Y-85989268D01*
X91520815Y-85989274D01*
X91491689Y-86008736D01*
X91425011Y-86029613D01*
X91357631Y-86011128D01*
X91310942Y-85959149D01*
X91298799Y-85905633D01*
X91298799Y-84951698D01*
X91318484Y-84884659D01*
X91371288Y-84838904D01*
X91440446Y-84828960D01*
X91491691Y-84848597D01*
X91520811Y-84868055D01*
X91520826Y-84868063D01*
X91666497Y-84928401D01*
X91666502Y-84928403D01*
X91788857Y-84952741D01*
X91821152Y-84959165D01*
X91821155Y-84959166D01*
X91821157Y-84959166D01*
X92778843Y-84959166D01*
X92778844Y-84959165D01*
X92933496Y-84928403D01*
X93079178Y-84868060D01*
X93210288Y-84780455D01*
X93321788Y-84668955D01*
X93409393Y-84537845D01*
X93469736Y-84392163D01*
X93495221Y-84264041D01*
X93500499Y-84237510D01*
X93500499Y-84079821D01*
X93500498Y-84079819D01*
X93469736Y-83925169D01*
X93469734Y-83925164D01*
X93409396Y-83779493D01*
X93409389Y-83779480D01*
X93321788Y-83648377D01*
X93321785Y-83648373D01*
X93210291Y-83536879D01*
X93210287Y-83536876D01*
X93079184Y-83449275D01*
X93079171Y-83449268D01*
X92933500Y-83388930D01*
X92933488Y-83388927D01*
X92778844Y-83358166D01*
X92778841Y-83358166D01*
X91821157Y-83358166D01*
X91821154Y-83358166D01*
X91666509Y-83388927D01*
X91666497Y-83388930D01*
X91520826Y-83449268D01*
X91520813Y-83449275D01*
X91389710Y-83536876D01*
X91389706Y-83536879D01*
X91278212Y-83648373D01*
X91278209Y-83648377D01*
X91190608Y-83779480D01*
X91190606Y-83779485D01*
X91189724Y-83781615D01*
X91188963Y-83782559D01*
X91187735Y-83784857D01*
X91187299Y-83784624D01*
X91177179Y-83797182D01*
X91168874Y-83815369D01*
X91155705Y-83823832D01*
X91145884Y-83836020D01*
X91126914Y-83842334D01*
X91110096Y-83853143D01*
X91082541Y-83857104D01*
X91079591Y-83858087D01*
X91075161Y-83858166D01*
X90992999Y-83858166D01*
X90925960Y-83838481D01*
X90880205Y-83785677D01*
X90868999Y-83734166D01*
X90868999Y-82224299D01*
X90888684Y-82157260D01*
X90905312Y-82136623D01*
X91025082Y-82016853D01*
X91086401Y-81983371D01*
X91156093Y-81988355D01*
X91212027Y-82030226D01*
X91215862Y-82035646D01*
X91278209Y-82128954D01*
X91278212Y-82128958D01*
X91389706Y-82240452D01*
X91389710Y-82240455D01*
X91520813Y-82328056D01*
X91520826Y-82328063D01*
X91666497Y-82388401D01*
X91666502Y-82388403D01*
X91821152Y-82419165D01*
X91821155Y-82419166D01*
X91821157Y-82419166D01*
X92778843Y-82419166D01*
X92778844Y-82419165D01*
X92933496Y-82388403D01*
X93079178Y-82328060D01*
X93210288Y-82240455D01*
X93321788Y-82128955D01*
X93409393Y-81997845D01*
X93469736Y-81852163D01*
X93500499Y-81697508D01*
X93500499Y-81539824D01*
X93500499Y-81539821D01*
X93500498Y-81539819D01*
X93469737Y-81385176D01*
X93469736Y-81385169D01*
X93414562Y-81251965D01*
X93409396Y-81239493D01*
X93409386Y-81239475D01*
X93389863Y-81210256D01*
X93368985Y-81143579D01*
X93387470Y-81076199D01*
X93439449Y-81029509D01*
X93492965Y-81017366D01*
X98844866Y-81017366D01*
X98911905Y-81037051D01*
X98932547Y-81053685D01*
X99070788Y-81191926D01*
X99130128Y-81226186D01*
X99139307Y-81231486D01*
X99139311Y-81231488D01*
X99215737Y-81251966D01*
X99215739Y-81251966D01*
X99905459Y-81251966D01*
X99905461Y-81251966D01*
X99981888Y-81231487D01*
X100050410Y-81191926D01*
X100106359Y-81135977D01*
X100492659Y-80749677D01*
X100532221Y-80681154D01*
X100552699Y-80604728D01*
X100552699Y-80525604D01*
X100552699Y-79042300D01*
X100572384Y-78975261D01*
X100589018Y-78954619D01*
X103238152Y-76305485D01*
X103299475Y-76272000D01*
X103325833Y-76269166D01*
X103584504Y-76269166D01*
X103651543Y-76288851D01*
X103697298Y-76341655D01*
X103707242Y-76410813D01*
X103678217Y-76474369D01*
X103672185Y-76480847D01*
X103584024Y-76569007D01*
X103584023Y-76569008D01*
X103469057Y-76741069D01*
X103389869Y-76932245D01*
X103389867Y-76932253D01*
X103349499Y-77135196D01*
X103349499Y-77342135D01*
X103389867Y-77545078D01*
X103389869Y-77545086D01*
X103469057Y-77736262D01*
X103584023Y-77908323D01*
X103730341Y-78054641D01*
X103902404Y-78169609D01*
X104005042Y-78212122D01*
X104067107Y-78237830D01*
X104121510Y-78281671D01*
X104143575Y-78347965D01*
X104126296Y-78415664D01*
X104075159Y-78463275D01*
X104057973Y-78470322D01*
X103881780Y-78527571D01*
X103692438Y-78624046D01*
X103638281Y-78663393D01*
X103638281Y-78663394D01*
X104270590Y-79295703D01*
X104207006Y-79312741D01*
X104092992Y-79378567D01*
X103999900Y-79471659D01*
X103934074Y-79585673D01*
X103917036Y-79649257D01*
X103284727Y-79016948D01*
X103284726Y-79016948D01*
X103245379Y-79071105D01*
X103148903Y-79260448D01*
X103083241Y-79462535D01*
X103083241Y-79462538D01*
X103049999Y-79672419D01*
X103049999Y-79884912D01*
X103083241Y-80094793D01*
X103083241Y-80094796D01*
X103148903Y-80296883D01*
X103245374Y-80486216D01*
X103284727Y-80540382D01*
X103917035Y-79908073D01*
X103934074Y-79971659D01*
X103999900Y-80085673D01*
X104092992Y-80178765D01*
X104207006Y-80244591D01*
X104270589Y-80261628D01*
X103638281Y-80893935D01*
X103638281Y-80893936D01*
X103692448Y-80933290D01*
X103881781Y-81029761D01*
X104083869Y-81095423D01*
X104293753Y-81128666D01*
X104506245Y-81128666D01*
X104716126Y-81095423D01*
X104716129Y-81095423D01*
X104918216Y-81029761D01*
X105107553Y-80933288D01*
X105161715Y-80893936D01*
X105161716Y-80893936D01*
X104529407Y-80261628D01*
X104592992Y-80244591D01*
X104707006Y-80178765D01*
X104800098Y-80085673D01*
X104865924Y-79971659D01*
X104882961Y-79908074D01*
X105515269Y-80540383D01*
X105515269Y-80540382D01*
X105554621Y-80486220D01*
X105651094Y-80296883D01*
X105716756Y-80094796D01*
X105716756Y-80094793D01*
X105749999Y-79884912D01*
X105749999Y-79672419D01*
X105716756Y-79462538D01*
X105716756Y-79462535D01*
X105651094Y-79260448D01*
X105554623Y-79071115D01*
X105515269Y-79016948D01*
X105515268Y-79016948D01*
X104882961Y-79649256D01*
X104865924Y-79585673D01*
X104800098Y-79471659D01*
X104707006Y-79378567D01*
X104592992Y-79312741D01*
X104529408Y-79295703D01*
X105161715Y-78663394D01*
X105107549Y-78624041D01*
X104918215Y-78527570D01*
X104742025Y-78470322D01*
X104684349Y-78430884D01*
X104657151Y-78366526D01*
X104669066Y-78297679D01*
X104716310Y-78246204D01*
X104732881Y-78237834D01*
X104897597Y-78169607D01*
X105069654Y-78054643D01*
X105215976Y-77908321D01*
X105330940Y-77736264D01*
X105410129Y-77545086D01*
X105450499Y-77342131D01*
X105450499Y-77135201D01*
X105410129Y-76932246D01*
X105330940Y-76741068D01*
X105215976Y-76569011D01*
X105215974Y-76569008D01*
X105069656Y-76422690D01*
X105038822Y-76402088D01*
X104994016Y-76348476D01*
X104985309Y-76279151D01*
X105015463Y-76216123D01*
X105020032Y-76211303D01*
X105022207Y-76209127D01*
X105022210Y-76209126D01*
X105078159Y-76153177D01*
X105860359Y-75370977D01*
X105864531Y-75363750D01*
X105899920Y-75302455D01*
X105920399Y-75226028D01*
X105920399Y-68259004D01*
X105899920Y-68182577D01*
X105880494Y-68148930D01*
X105860363Y-68114061D01*
X105860357Y-68114053D01*
X105387074Y-67640770D01*
X105353589Y-67579447D01*
X105358573Y-67509755D01*
X105360162Y-67505715D01*
X105410129Y-67385086D01*
X105450499Y-67182131D01*
X105450499Y-66975201D01*
X105410129Y-66772246D01*
X105330940Y-66581068D01*
X105215976Y-66409011D01*
X105215974Y-66409008D01*
X105069656Y-66262690D01*
X104983625Y-66205207D01*
X104897597Y-66147725D01*
X104891443Y-66145176D01*
X104706419Y-66068536D01*
X104706411Y-66068534D01*
X104503468Y-66028166D01*
X104503464Y-66028166D01*
X104296534Y-66028166D01*
X104296529Y-66028166D01*
X104093586Y-66068534D01*
X104093578Y-66068536D01*
X103902402Y-66147724D01*
X103730341Y-66262690D01*
X103584023Y-66409008D01*
X103469057Y-66581069D01*
X103389869Y-66772245D01*
X103389867Y-66772253D01*
X103349499Y-66975196D01*
X103349499Y-67182135D01*
X103389867Y-67385078D01*
X103389869Y-67385086D01*
X103469057Y-67576262D01*
X103584023Y-67748323D01*
X103730341Y-67894641D01*
X103730344Y-67894643D01*
X103902401Y-68009607D01*
X104093579Y-68088796D01*
X104241233Y-68118166D01*
X104296529Y-68129165D01*
X104296533Y-68129166D01*
X104296534Y-68129166D01*
X104503465Y-68129166D01*
X104503466Y-68129165D01*
X104706419Y-68088796D01*
X104826973Y-68038860D01*
X104896437Y-68031392D01*
X104958917Y-68062666D01*
X104962103Y-68065741D01*
X105283080Y-68386718D01*
X105316565Y-68448041D01*
X105319399Y-68474399D01*
X105319399Y-68753071D01*
X105299714Y-68820110D01*
X105246910Y-68865865D01*
X105177752Y-68875809D01*
X105114196Y-68846784D01*
X105107718Y-68840752D01*
X105069656Y-68802690D01*
X104902615Y-68691078D01*
X104897597Y-68687725D01*
X104897592Y-68687723D01*
X104706419Y-68608536D01*
X104706411Y-68608534D01*
X104503468Y-68568166D01*
X104503464Y-68568166D01*
X104296534Y-68568166D01*
X104296529Y-68568166D01*
X104093586Y-68608534D01*
X104093578Y-68608536D01*
X103973028Y-68658470D01*
X103903558Y-68665939D01*
X103841079Y-68634664D01*
X103837894Y-68631590D01*
X102569611Y-67363307D01*
X102569603Y-67363301D01*
X102501094Y-67323748D01*
X102501089Y-67323745D01*
X102475612Y-67316918D01*
X102424661Y-67303266D01*
X102424659Y-67303266D01*
X93165874Y-67303266D01*
X93098835Y-67283581D01*
X93053080Y-67230777D01*
X93043136Y-67161619D01*
X93072161Y-67098063D01*
X93096983Y-67076164D01*
X93163036Y-67032027D01*
X93210288Y-67000455D01*
X93321788Y-66888955D01*
X93409393Y-66757845D01*
X93410274Y-66755715D01*
X93411034Y-66754772D01*
X93412263Y-66752475D01*
X93412698Y-66752707D01*
X93454114Y-66701312D01*
X93520407Y-66679245D01*
X93524837Y-66679166D01*
X93641259Y-66679166D01*
X93641261Y-66679166D01*
X93717688Y-66658687D01*
X93786210Y-66619126D01*
X93842159Y-66563177D01*
X95529851Y-64875485D01*
X95591174Y-64842000D01*
X95617532Y-64839166D01*
X103304563Y-64839166D01*
X103371602Y-64858851D01*
X103417357Y-64911655D01*
X103419124Y-64915713D01*
X103469057Y-65036262D01*
X103584023Y-65208323D01*
X103730341Y-65354641D01*
X103730344Y-65354643D01*
X103902401Y-65469607D01*
X104093579Y-65548796D01*
X104241233Y-65578166D01*
X104296529Y-65589165D01*
X104296533Y-65589166D01*
X104296534Y-65589166D01*
X104503465Y-65589166D01*
X104503466Y-65589165D01*
X104706419Y-65548796D01*
X104897597Y-65469607D01*
X105069654Y-65354643D01*
X105215976Y-65208321D01*
X105330940Y-65036264D01*
X105410129Y-64845086D01*
X105450499Y-64642131D01*
X105450499Y-64435201D01*
X105410129Y-64232246D01*
X105330940Y-64041068D01*
X105215976Y-63869011D01*
X105215974Y-63869008D01*
X105069656Y-63722690D01*
X104963915Y-63652037D01*
X104897597Y-63607725D01*
X104891443Y-63605176D01*
X104706419Y-63528536D01*
X104706411Y-63528534D01*
X104503468Y-63488166D01*
X104503464Y-63488166D01*
X104296534Y-63488166D01*
X104296529Y-63488166D01*
X104093586Y-63528534D01*
X104093578Y-63528536D01*
X103902402Y-63607724D01*
X103730341Y-63722690D01*
X103584023Y-63869008D01*
X103469057Y-64041069D01*
X103419124Y-64161619D01*
X103375283Y-64216022D01*
X103308989Y-64238087D01*
X103304563Y-64238166D01*
X95402137Y-64238166D01*
X95369781Y-64246836D01*
X95325708Y-64258645D01*
X95325703Y-64258648D01*
X95257194Y-64298201D01*
X95257186Y-64298207D01*
X93574918Y-65980475D01*
X93513595Y-66013960D01*
X93443903Y-66008976D01*
X93387970Y-65967104D01*
X93384135Y-65961685D01*
X93321788Y-65868377D01*
X93321785Y-65868373D01*
X93210291Y-65756879D01*
X93210287Y-65756876D01*
X93079184Y-65669275D01*
X93079171Y-65669268D01*
X92933500Y-65608930D01*
X92933488Y-65608927D01*
X92778844Y-65578166D01*
X92778841Y-65578166D01*
X91821157Y-65578166D01*
X91821154Y-65578166D01*
X91666509Y-65608927D01*
X91666497Y-65608930D01*
X91520826Y-65669268D01*
X91520813Y-65669275D01*
X91389710Y-65756876D01*
X91389706Y-65756879D01*
X91278212Y-65868373D01*
X91278209Y-65868377D01*
X91190608Y-65999480D01*
X91190601Y-65999493D01*
X91130263Y-66145164D01*
X91130260Y-66145176D01*
X91099499Y-66299819D01*
X91099499Y-66457512D01*
X91130260Y-66612155D01*
X91130263Y-66612167D01*
X91190601Y-66757838D01*
X91190608Y-66757851D01*
X91278209Y-66888954D01*
X91278212Y-66888958D01*
X91389706Y-67000452D01*
X91389710Y-67000455D01*
X91503015Y-67076164D01*
X91547820Y-67129776D01*
X91556527Y-67199101D01*
X91526372Y-67262129D01*
X91466929Y-67298848D01*
X91434124Y-67303266D01*
X74682632Y-67303266D01*
X74615593Y-67283581D01*
X74594951Y-67266947D01*
X68386211Y-61058207D01*
X68386203Y-61058201D01*
X68317694Y-61018648D01*
X68317689Y-61018645D01*
X68274787Y-61007149D01*
X68241261Y-60998166D01*
X68123412Y-60998166D01*
X68122009Y-60998134D01*
X68090005Y-60987938D01*
X68057798Y-60978481D01*
X68056836Y-60977371D01*
X68055436Y-60976925D01*
X68034013Y-60951032D01*
X68012043Y-60925677D01*
X68010939Y-60923143D01*
X68010897Y-60923092D01*
X68010889Y-60923027D01*
X68010274Y-60921615D01*
X68009393Y-60919487D01*
X68009390Y-60919482D01*
X68009389Y-60919480D01*
X67986754Y-60885604D01*
X90697799Y-60885604D01*
X90697799Y-61711728D01*
X90708773Y-61752684D01*
X90718231Y-61787982D01*
X90718278Y-61788155D01*
X90727391Y-61803939D01*
X90727392Y-61803942D01*
X90727393Y-61803942D01*
X90757839Y-61856677D01*
X91286239Y-62385077D01*
X91342188Y-62441026D01*
X91342190Y-62441027D01*
X91342194Y-62441030D01*
X91383004Y-62464591D01*
X91410710Y-62480587D01*
X91487137Y-62501066D01*
X91566261Y-62501066D01*
X92197566Y-62501066D01*
X92264605Y-62520751D01*
X92285247Y-62537385D01*
X92574347Y-62826485D01*
X92607832Y-62887808D01*
X92602848Y-62957500D01*
X92560976Y-63013433D01*
X92495512Y-63037850D01*
X92486666Y-63038166D01*
X91821154Y-63038166D01*
X91666509Y-63068927D01*
X91666497Y-63068930D01*
X91520826Y-63129268D01*
X91520813Y-63129275D01*
X91389710Y-63216876D01*
X91389706Y-63216879D01*
X91278212Y-63328373D01*
X91278209Y-63328377D01*
X91190608Y-63459480D01*
X91190601Y-63459493D01*
X91130263Y-63605164D01*
X91130260Y-63605176D01*
X91099499Y-63759819D01*
X91099499Y-63917512D01*
X91130260Y-64072155D01*
X91130263Y-64072167D01*
X91190601Y-64217838D01*
X91190608Y-64217851D01*
X91278209Y-64348954D01*
X91278212Y-64348958D01*
X91389706Y-64460452D01*
X91389710Y-64460455D01*
X91520813Y-64548056D01*
X91520826Y-64548063D01*
X91666497Y-64608401D01*
X91666502Y-64608403D01*
X91811309Y-64637207D01*
X91821152Y-64639165D01*
X91821155Y-64639166D01*
X91821157Y-64639166D01*
X92778843Y-64639166D01*
X92778844Y-64639165D01*
X92933496Y-64608403D01*
X93079178Y-64548060D01*
X93210288Y-64460455D01*
X93321788Y-64348955D01*
X93409393Y-64217845D01*
X93410274Y-64215715D01*
X93411034Y-64214772D01*
X93412263Y-64212475D01*
X93412698Y-64212707D01*
X93454114Y-64161312D01*
X93520407Y-64139245D01*
X93524837Y-64139166D01*
X93641259Y-64139166D01*
X93641261Y-64139166D01*
X93717688Y-64118687D01*
X93786210Y-64079126D01*
X93842159Y-64023177D01*
X93881720Y-63954655D01*
X93902199Y-63878228D01*
X93902199Y-63389304D01*
X93887217Y-63333390D01*
X93887217Y-63333388D01*
X93881722Y-63312881D01*
X93881721Y-63312879D01*
X93881721Y-63312878D01*
X93842159Y-63244355D01*
X92874593Y-62276789D01*
X92841108Y-62215466D01*
X92846092Y-62145774D01*
X92887964Y-62089841D01*
X92928189Y-62071903D01*
X92927664Y-62070172D01*
X92933488Y-62068404D01*
X92933496Y-62068403D01*
X93079178Y-62008060D01*
X93210288Y-61920455D01*
X93321788Y-61808955D01*
X93380475Y-61721124D01*
X93384135Y-61715647D01*
X93437747Y-61670841D01*
X93507072Y-61662134D01*
X93570099Y-61692288D01*
X93574918Y-61696856D01*
X93599188Y-61721126D01*
X93599190Y-61721127D01*
X93599194Y-61721130D01*
X93667703Y-61760683D01*
X93667710Y-61760687D01*
X93744137Y-61781166D01*
X93823261Y-61781166D01*
X99163823Y-61781166D01*
X99230862Y-61800851D01*
X99251504Y-61817485D01*
X99315185Y-61881166D01*
X99429313Y-61947058D01*
X99556607Y-61981166D01*
X99556609Y-61981166D01*
X99688389Y-61981166D01*
X99688391Y-61981166D01*
X99815685Y-61947058D01*
X99929813Y-61881166D01*
X100022999Y-61787980D01*
X100088891Y-61673852D01*
X100122999Y-61546558D01*
X100122999Y-61414774D01*
X100088891Y-61287480D01*
X100022999Y-61173352D01*
X99929813Y-61080166D01*
X99872749Y-61047220D01*
X99815686Y-61014274D01*
X99752038Y-60997220D01*
X99688391Y-60980166D01*
X99556607Y-60980166D01*
X99429311Y-61014274D01*
X99315185Y-61080166D01*
X99315182Y-61080168D01*
X99251504Y-61143847D01*
X99190181Y-61177332D01*
X99163823Y-61180166D01*
X93959532Y-61180166D01*
X93892493Y-61160481D01*
X93871851Y-61143847D01*
X93786211Y-61058207D01*
X93786203Y-61058201D01*
X93717694Y-61018648D01*
X93717689Y-61018645D01*
X93692212Y-61011818D01*
X93641261Y-60998166D01*
X93641259Y-60998166D01*
X93524837Y-60998166D01*
X93457798Y-60978481D01*
X93420146Y-60940618D01*
X93414388Y-60931547D01*
X93409393Y-60919487D01*
X93356247Y-60839949D01*
X93355466Y-60838718D01*
X93346197Y-60806481D01*
X93336177Y-60774480D01*
X93336577Y-60773021D01*
X93336159Y-60771568D01*
X93345789Y-60739439D01*
X93354661Y-60707099D01*
X93355786Y-60706088D01*
X93356220Y-60704641D01*
X93381671Y-60682836D01*
X93406640Y-60660409D01*
X93408287Y-60660035D01*
X93409281Y-60659184D01*
X93416324Y-60658211D01*
X93460157Y-60648266D01*
X102573266Y-60648266D01*
X102640305Y-60667951D01*
X102660947Y-60684585D01*
X103412923Y-61436561D01*
X103446408Y-61497884D01*
X103441424Y-61567576D01*
X103439803Y-61571695D01*
X103389869Y-61692245D01*
X103389867Y-61692253D01*
X103349499Y-61895196D01*
X103349499Y-62102135D01*
X103389867Y-62305078D01*
X103389869Y-62305086D01*
X103469057Y-62496262D01*
X103584023Y-62668323D01*
X103730341Y-62814641D01*
X103730344Y-62814643D01*
X103902401Y-62929607D01*
X104093579Y-63008796D01*
X104241233Y-63038166D01*
X104296529Y-63049165D01*
X104296533Y-63049166D01*
X104296534Y-63049166D01*
X104503465Y-63049166D01*
X104503466Y-63049165D01*
X104706419Y-63008796D01*
X104897597Y-62929607D01*
X105069654Y-62814643D01*
X105215976Y-62668321D01*
X105330940Y-62496264D01*
X105410129Y-62305086D01*
X105450499Y-62102131D01*
X105450499Y-61895201D01*
X105410129Y-61692246D01*
X105330940Y-61501068D01*
X105215976Y-61329011D01*
X105215974Y-61329008D01*
X105069656Y-61182690D01*
X104902615Y-61071078D01*
X104897597Y-61067725D01*
X104891443Y-61065176D01*
X104779108Y-61018645D01*
X104732889Y-60999500D01*
X104678487Y-60955660D01*
X104656422Y-60889366D01*
X104673701Y-60821667D01*
X104724838Y-60774056D01*
X104742025Y-60767009D01*
X104918216Y-60709761D01*
X105107553Y-60613288D01*
X105161715Y-60573936D01*
X105161716Y-60573936D01*
X104529407Y-59941628D01*
X104592992Y-59924591D01*
X104707006Y-59858765D01*
X104800098Y-59765673D01*
X104865924Y-59651659D01*
X104882961Y-59588074D01*
X105515269Y-60220383D01*
X105515269Y-60220382D01*
X105554621Y-60166220D01*
X105651094Y-59976883D01*
X105716756Y-59774796D01*
X105716756Y-59774793D01*
X105749999Y-59564912D01*
X105749999Y-59352419D01*
X105716756Y-59142538D01*
X105716756Y-59142535D01*
X105651094Y-58940448D01*
X105554623Y-58751115D01*
X105515269Y-58696948D01*
X105515268Y-58696948D01*
X104882961Y-59329256D01*
X104865924Y-59265673D01*
X104800098Y-59151659D01*
X104707006Y-59058567D01*
X104592992Y-58992741D01*
X104529408Y-58975703D01*
X105161715Y-58343394D01*
X105107549Y-58304041D01*
X104913878Y-58205360D01*
X104914395Y-58204344D01*
X104864191Y-58163887D01*
X104842126Y-58097593D01*
X104859405Y-58029894D01*
X104910541Y-57982283D01*
X104966047Y-57969166D01*
X105269749Y-57969166D01*
X105269750Y-57969165D01*
X105284567Y-57966218D01*
X105328228Y-57957534D01*
X105328228Y-57957533D01*
X105328230Y-57957533D01*
X105394551Y-57913218D01*
X105438866Y-57846897D01*
X105438866Y-57846895D01*
X105438867Y-57846895D01*
X105450498Y-57788418D01*
X105450499Y-57788416D01*
X105450499Y-56048915D01*
X105450498Y-56048913D01*
X105438867Y-55990436D01*
X105438866Y-55990435D01*
X105394551Y-55924113D01*
X105328229Y-55879798D01*
X105328228Y-55879797D01*
X105269751Y-55868166D01*
X105269747Y-55868166D01*
X103530251Y-55868166D01*
X103530246Y-55868166D01*
X103471769Y-55879797D01*
X103471768Y-55879798D01*
X103405446Y-55924113D01*
X103361131Y-55990435D01*
X103361130Y-55990436D01*
X103349499Y-56048913D01*
X103349499Y-57788418D01*
X103361130Y-57846895D01*
X103361131Y-57846896D01*
X103405446Y-57913218D01*
X103471768Y-57957533D01*
X103471769Y-57957534D01*
X103530246Y-57969165D01*
X103530249Y-57969166D01*
X103833951Y-57969166D01*
X103900990Y-57988851D01*
X103946745Y-58041655D01*
X103956689Y-58110813D01*
X103927664Y-58174369D01*
X103885734Y-58204604D01*
X103886120Y-58205360D01*
X103692438Y-58304046D01*
X103638281Y-58343393D01*
X103638281Y-58343394D01*
X104270590Y-58975703D01*
X104207006Y-58992741D01*
X104092992Y-59058567D01*
X103999900Y-59151659D01*
X103934074Y-59265673D01*
X103917036Y-59329257D01*
X103284727Y-58696948D01*
X103284726Y-58696948D01*
X103245379Y-58751105D01*
X103148903Y-58940448D01*
X103083241Y-59142535D01*
X103083241Y-59142538D01*
X103049999Y-59352419D01*
X103049999Y-59564912D01*
X103083241Y-59774793D01*
X103083241Y-59774796D01*
X103148903Y-59976883D01*
X103152617Y-59984172D01*
X103165512Y-60052841D01*
X103139234Y-60117581D01*
X103082127Y-60157837D01*
X103012322Y-60160829D01*
X102954450Y-60128146D01*
X102933611Y-60107307D01*
X102933603Y-60107301D01*
X102865094Y-60067748D01*
X102865089Y-60067745D01*
X102839612Y-60060918D01*
X102788661Y-60047266D01*
X91536137Y-60047266D01*
X91497923Y-60057505D01*
X91459708Y-60067745D01*
X91459703Y-60067748D01*
X91391194Y-60107301D01*
X91391186Y-60107307D01*
X90757840Y-60740653D01*
X90757834Y-60740661D01*
X90718281Y-60809170D01*
X90718278Y-60809175D01*
X90714931Y-60821667D01*
X90697799Y-60885604D01*
X67986754Y-60885604D01*
X67921788Y-60788377D01*
X67921785Y-60788373D01*
X67810291Y-60676879D01*
X67810287Y-60676876D01*
X67679184Y-60589275D01*
X67679171Y-60589268D01*
X67533500Y-60528930D01*
X67533488Y-60528927D01*
X67378844Y-60498166D01*
X67378841Y-60498166D01*
X66421157Y-60498166D01*
X66421154Y-60498166D01*
X66266509Y-60528927D01*
X66266497Y-60528930D01*
X66120826Y-60589268D01*
X66120813Y-60589275D01*
X65989710Y-60676876D01*
X65989706Y-60676879D01*
X65878212Y-60788373D01*
X65878209Y-60788377D01*
X65790608Y-60919480D01*
X65790601Y-60919493D01*
X65730263Y-61065164D01*
X65730260Y-61065176D01*
X65699499Y-61219819D01*
X65699499Y-61377512D01*
X65730260Y-61532155D01*
X65730263Y-61532167D01*
X65790601Y-61677838D01*
X65790608Y-61677851D01*
X65878209Y-61808954D01*
X65878212Y-61808958D01*
X65989706Y-61920452D01*
X65989710Y-61920455D01*
X66120813Y-62008056D01*
X66120826Y-62008063D01*
X66257060Y-62064492D01*
X66266502Y-62068403D01*
X66421152Y-62099165D01*
X66421155Y-62099166D01*
X66421157Y-62099166D01*
X67378843Y-62099166D01*
X67378844Y-62099165D01*
X67533496Y-62068403D01*
X67679178Y-62008060D01*
X67810288Y-61920455D01*
X67921788Y-61808955D01*
X67980475Y-61721124D01*
X67984135Y-61715647D01*
X68037747Y-61670841D01*
X68107072Y-61662134D01*
X68170099Y-61692288D01*
X68174918Y-61696856D01*
X74266339Y-67788277D01*
X74322288Y-67844226D01*
X74322290Y-67844227D01*
X74322294Y-67844230D01*
X74390803Y-67883783D01*
X74390810Y-67883787D01*
X74467237Y-67904266D01*
X74546361Y-67904266D01*
X91637512Y-67904266D01*
X91704551Y-67923951D01*
X91750306Y-67976755D01*
X91760250Y-68045913D01*
X91731225Y-68109469D01*
X91672447Y-68147243D01*
X91670409Y-68147743D01*
X91666497Y-68148930D01*
X91520826Y-68209268D01*
X91520813Y-68209275D01*
X91389710Y-68296876D01*
X91389706Y-68296879D01*
X91278212Y-68408373D01*
X91278209Y-68408377D01*
X91190608Y-68539480D01*
X91190601Y-68539493D01*
X91130263Y-68685164D01*
X91130260Y-68685176D01*
X91099499Y-68839819D01*
X91099499Y-68997512D01*
X91130260Y-69152155D01*
X91130263Y-69152167D01*
X91190601Y-69297838D01*
X91190608Y-69297851D01*
X91278209Y-69428954D01*
X91278212Y-69428958D01*
X91389706Y-69540452D01*
X91389710Y-69540455D01*
X91520813Y-69628056D01*
X91520826Y-69628063D01*
X91572834Y-69649605D01*
X91627238Y-69693445D01*
X91649303Y-69759739D01*
X91632024Y-69827439D01*
X91580887Y-69875050D01*
X91525382Y-69888166D01*
X74727532Y-69888166D01*
X74660493Y-69868481D01*
X74639851Y-69851847D01*
X68386209Y-63598205D01*
X68367511Y-63587410D01*
X68348813Y-63576615D01*
X68348812Y-63576614D01*
X68317693Y-63558647D01*
X68317692Y-63558646D01*
X68308659Y-63556225D01*
X68241261Y-63538166D01*
X68241259Y-63538166D01*
X68124837Y-63538166D01*
X68057798Y-63518481D01*
X68012043Y-63465677D01*
X68010274Y-63461615D01*
X68009393Y-63459487D01*
X68009390Y-63459482D01*
X68009389Y-63459480D01*
X67921788Y-63328377D01*
X67921785Y-63328373D01*
X67810291Y-63216879D01*
X67810287Y-63216876D01*
X67679184Y-63129275D01*
X67679171Y-63129268D01*
X67533500Y-63068930D01*
X67533488Y-63068927D01*
X67378844Y-63038166D01*
X67378841Y-63038166D01*
X66421157Y-63038166D01*
X66421154Y-63038166D01*
X66266509Y-63068927D01*
X66266497Y-63068930D01*
X66120826Y-63129268D01*
X66120813Y-63129275D01*
X65989710Y-63216876D01*
X65989706Y-63216879D01*
X65878212Y-63328373D01*
X65878209Y-63328377D01*
X65790608Y-63459480D01*
X65790601Y-63459493D01*
X65730263Y-63605164D01*
X65730260Y-63605176D01*
X65699499Y-63759819D01*
X65699499Y-63917512D01*
X65730260Y-64072155D01*
X65730263Y-64072167D01*
X65790601Y-64217838D01*
X65790608Y-64217851D01*
X65878209Y-64348954D01*
X65878212Y-64348958D01*
X65989706Y-64460452D01*
X65989710Y-64460455D01*
X66120813Y-64548056D01*
X66120826Y-64548063D01*
X66266497Y-64608401D01*
X66266502Y-64608403D01*
X66411309Y-64637207D01*
X66421152Y-64639165D01*
X66421155Y-64639166D01*
X66421157Y-64639166D01*
X67378843Y-64639166D01*
X67378844Y-64639165D01*
X67533496Y-64608403D01*
X67679178Y-64548060D01*
X67810288Y-64460455D01*
X67921788Y-64348955D01*
X67955697Y-64298207D01*
X67984135Y-64255647D01*
X68037747Y-64210841D01*
X68107072Y-64202134D01*
X68170099Y-64232288D01*
X68174918Y-64236856D01*
X74311239Y-70373177D01*
X74367188Y-70429126D01*
X74367190Y-70429127D01*
X74367194Y-70429130D01*
X74435703Y-70468683D01*
X74435710Y-70468687D01*
X74512137Y-70489166D01*
X91014502Y-70489166D01*
X91081541Y-70508851D01*
X91127296Y-70561655D01*
X91137240Y-70630813D01*
X91108215Y-70694369D01*
X91102183Y-70700847D01*
X91060966Y-70742063D01*
X90959194Y-70882141D01*
X90880590Y-71036410D01*
X90827084Y-71201081D01*
X90825883Y-71208665D01*
X90825884Y-71208666D01*
X91984313Y-71208666D01*
X91979919Y-71213060D01*
X91927258Y-71304272D01*
X91899999Y-71406005D01*
X91899999Y-71511327D01*
X91927258Y-71613060D01*
X91979919Y-71704272D01*
X91984313Y-71708666D01*
X90825884Y-71708666D01*
X90827084Y-71716250D01*
X90880590Y-71880921D01*
X90959194Y-72035190D01*
X91060966Y-72175268D01*
X91102183Y-72216485D01*
X91135668Y-72277808D01*
X91130684Y-72347500D01*
X91088812Y-72403433D01*
X91023348Y-72427850D01*
X91014502Y-72428166D01*
X74635833Y-72428166D01*
X74568794Y-72408481D01*
X74548152Y-72391847D01*
X70834512Y-68678207D01*
X70834504Y-68678201D01*
X70765995Y-68638648D01*
X70765990Y-68638645D01*
X70739660Y-68631590D01*
X70689562Y-68618166D01*
X70689560Y-68618166D01*
X68124837Y-68618166D01*
X68057798Y-68598481D01*
X68012043Y-68545677D01*
X68010274Y-68541615D01*
X68009393Y-68539487D01*
X68009390Y-68539482D01*
X68009389Y-68539480D01*
X67921788Y-68408377D01*
X67921785Y-68408373D01*
X67810291Y-68296879D01*
X67810287Y-68296876D01*
X67679184Y-68209275D01*
X67679171Y-68209268D01*
X67533500Y-68148930D01*
X67533488Y-68148927D01*
X67378844Y-68118166D01*
X67378841Y-68118166D01*
X66421157Y-68118166D01*
X66421154Y-68118166D01*
X66266509Y-68148927D01*
X66266497Y-68148930D01*
X66120826Y-68209268D01*
X66120813Y-68209275D01*
X65989710Y-68296876D01*
X65989706Y-68296879D01*
X65878212Y-68408373D01*
X65878209Y-68408377D01*
X65790608Y-68539480D01*
X65790601Y-68539493D01*
X65730263Y-68685164D01*
X65730260Y-68685176D01*
X65699499Y-68839819D01*
X65699499Y-68997512D01*
X65730260Y-69152155D01*
X65730263Y-69152167D01*
X65790601Y-69297838D01*
X65790608Y-69297851D01*
X65878209Y-69428954D01*
X65878212Y-69428958D01*
X65989706Y-69540452D01*
X65989710Y-69540455D01*
X66120813Y-69628056D01*
X66120826Y-69628063D01*
X66266497Y-69688401D01*
X66266502Y-69688403D01*
X66421152Y-69719165D01*
X66421155Y-69719166D01*
X66421157Y-69719166D01*
X67378843Y-69719166D01*
X67378844Y-69719165D01*
X67533496Y-69688403D01*
X67679178Y-69628060D01*
X67810288Y-69540455D01*
X67921788Y-69428955D01*
X68009393Y-69297845D01*
X68010274Y-69295715D01*
X68011034Y-69294772D01*
X68012263Y-69292475D01*
X68012698Y-69292707D01*
X68054114Y-69241312D01*
X68120407Y-69219245D01*
X68124837Y-69219166D01*
X70474167Y-69219166D01*
X70541206Y-69238851D01*
X70561848Y-69255485D01*
X74275489Y-72969126D01*
X74344012Y-73008688D01*
X74420438Y-73029166D01*
X74499562Y-73029166D01*
X91525382Y-73029166D01*
X91592421Y-73048851D01*
X91638176Y-73101655D01*
X91648120Y-73170813D01*
X91619095Y-73234369D01*
X91572834Y-73267727D01*
X91520826Y-73289268D01*
X91520813Y-73289275D01*
X91389710Y-73376876D01*
X91389706Y-73376879D01*
X91278212Y-73488373D01*
X91278209Y-73488377D01*
X91190608Y-73619480D01*
X91190601Y-73619493D01*
X91130263Y-73765164D01*
X91130260Y-73765176D01*
X91099499Y-73919819D01*
X91099499Y-74077512D01*
X91130260Y-74232155D01*
X91130263Y-74232167D01*
X91190601Y-74377838D01*
X91190608Y-74377851D01*
X91278209Y-74508954D01*
X91278212Y-74508958D01*
X91389706Y-74620452D01*
X91389710Y-74620455D01*
X91520813Y-74708056D01*
X91520826Y-74708063D01*
X91666497Y-74768401D01*
X91666502Y-74768403D01*
X91821152Y-74799165D01*
X91821155Y-74799166D01*
X91821157Y-74799166D01*
X92778843Y-74799166D01*
X92778844Y-74799165D01*
X92933496Y-74768403D01*
X93079178Y-74708060D01*
X93210288Y-74620455D01*
X93321788Y-74508955D01*
X93409393Y-74377845D01*
X93410274Y-74375715D01*
X93411034Y-74374772D01*
X93412263Y-74372475D01*
X93412698Y-74372707D01*
X93454114Y-74321312D01*
X93520407Y-74299245D01*
X93524837Y-74299166D01*
X98351666Y-74299166D01*
X98418705Y-74318851D01*
X98439347Y-74335485D01*
X99085680Y-74981818D01*
X99119165Y-75043141D01*
X99121999Y-75069499D01*
X99121999Y-75159557D01*
X99156107Y-75286853D01*
X99165115Y-75302455D01*
X99221999Y-75400980D01*
X99315185Y-75494166D01*
X99429313Y-75560058D01*
X99556607Y-75594166D01*
X99556609Y-75594166D01*
X99688389Y-75594166D01*
X99688391Y-75594166D01*
X99815685Y-75560058D01*
X99929813Y-75494166D01*
X100022999Y-75400980D01*
X100088891Y-75286852D01*
X100122999Y-75159558D01*
X100122999Y-75027774D01*
X100088891Y-74900480D01*
X100022999Y-74786352D01*
X99929813Y-74693166D01*
X99872749Y-74660220D01*
X99815686Y-74627274D01*
X99752038Y-74610220D01*
X99688391Y-74593166D01*
X99598332Y-74593166D01*
X99531293Y-74573481D01*
X99510651Y-74556847D01*
X98712011Y-73758207D01*
X98712003Y-73758201D01*
X98643494Y-73718648D01*
X98643489Y-73718645D01*
X98617159Y-73711590D01*
X98567061Y-73698166D01*
X98567059Y-73698166D01*
X93524837Y-73698166D01*
X93457798Y-73678481D01*
X93412043Y-73625677D01*
X93410274Y-73621615D01*
X93409393Y-73619487D01*
X93409390Y-73619482D01*
X93409389Y-73619480D01*
X93321788Y-73488377D01*
X93321785Y-73488373D01*
X93210291Y-73376879D01*
X93210287Y-73376876D01*
X93079184Y-73289275D01*
X93079171Y-73289268D01*
X93027164Y-73267727D01*
X92972760Y-73223887D01*
X92950695Y-73157593D01*
X92967974Y-73089893D01*
X93019111Y-73042282D01*
X93074616Y-73029166D01*
X102254166Y-73029166D01*
X102321205Y-73048851D01*
X102341847Y-73065485D01*
X103412923Y-74136561D01*
X103446408Y-74197884D01*
X103441424Y-74267576D01*
X103439803Y-74271695D01*
X103389869Y-74392245D01*
X103389867Y-74392253D01*
X103349499Y-74595196D01*
X103349499Y-74802135D01*
X103389867Y-75005078D01*
X103389869Y-75005086D01*
X103469057Y-75196262D01*
X103584023Y-75368323D01*
X103672185Y-75456485D01*
X103705670Y-75517808D01*
X103700686Y-75587500D01*
X103658814Y-75643433D01*
X103593350Y-75667850D01*
X103584504Y-75668166D01*
X103110438Y-75668166D01*
X103072224Y-75678405D01*
X103034009Y-75688645D01*
X103034004Y-75688648D01*
X102965495Y-75728201D01*
X102965487Y-75728207D01*
X100011740Y-78681954D01*
X100011734Y-78681962D01*
X99972181Y-78750471D01*
X99972178Y-78750476D01*
X99951699Y-78826906D01*
X99951699Y-79745519D01*
X99946677Y-79762618D01*
X99946680Y-79780441D01*
X99937038Y-79795447D01*
X99932014Y-79812558D01*
X99918546Y-79824227D01*
X99908912Y-79839223D01*
X99892687Y-79846634D01*
X99879210Y-79858313D01*
X99861567Y-79860850D01*
X99845359Y-79868255D01*
X99820413Y-79866770D01*
X99810065Y-79868259D01*
X99802749Y-79867207D01*
X99688391Y-79836566D01*
X99589468Y-79836566D01*
X99580698Y-79835306D01*
X99556649Y-79824326D01*
X99531293Y-79816881D01*
X99519465Y-79807350D01*
X99517139Y-79806288D01*
X99516055Y-79804601D01*
X99510651Y-79800247D01*
X96008611Y-76298207D01*
X96008603Y-76298201D01*
X95940094Y-76258648D01*
X95940089Y-76258645D01*
X95902925Y-76248687D01*
X95863661Y-76238166D01*
X95863659Y-76238166D01*
X93524837Y-76238166D01*
X93457798Y-76218481D01*
X93412043Y-76165677D01*
X93410274Y-76161615D01*
X93409393Y-76159487D01*
X93409390Y-76159482D01*
X93409389Y-76159480D01*
X93321788Y-76028377D01*
X93321785Y-76028373D01*
X93210291Y-75916879D01*
X93210287Y-75916876D01*
X93079184Y-75829275D01*
X93079171Y-75829268D01*
X92933500Y-75768930D01*
X92933488Y-75768927D01*
X92778844Y-75738166D01*
X92778841Y-75738166D01*
X91821157Y-75738166D01*
X91821154Y-75738166D01*
X91666509Y-75768927D01*
X91666497Y-75768930D01*
X91520826Y-75829268D01*
X91520813Y-75829275D01*
X91389710Y-75916876D01*
X91389706Y-75916879D01*
X91278212Y-76028373D01*
X91278209Y-76028377D01*
X91190608Y-76159480D01*
X91190601Y-76159493D01*
X91130263Y-76305164D01*
X91130260Y-76305176D01*
X91099499Y-76459819D01*
X91099499Y-76617512D01*
X91130260Y-76772155D01*
X91130263Y-76772167D01*
X91190601Y-76917838D01*
X91190608Y-76917851D01*
X91278209Y-77048954D01*
X91278212Y-77048958D01*
X91389706Y-77160452D01*
X91389710Y-77160455D01*
X91520813Y-77248056D01*
X91520826Y-77248063D01*
X91666497Y-77308401D01*
X91666502Y-77308403D01*
X91821152Y-77339165D01*
X91821155Y-77339166D01*
X91821157Y-77339166D01*
X92778843Y-77339166D01*
X92778844Y-77339165D01*
X92933496Y-77308403D01*
X93079178Y-77248060D01*
X93210288Y-77160455D01*
X93321788Y-77048955D01*
X93409393Y-76917845D01*
X93410274Y-76915715D01*
X93411034Y-76914772D01*
X93412263Y-76912475D01*
X93412698Y-76912707D01*
X93454114Y-76861312D01*
X93520407Y-76839245D01*
X93524837Y-76839166D01*
X95648266Y-76839166D01*
X95715305Y-76858851D01*
X95735947Y-76875485D01*
X99065147Y-80204685D01*
X99098632Y-80266008D01*
X99093648Y-80335700D01*
X99051776Y-80391633D01*
X98986312Y-80416050D01*
X98977466Y-80416366D01*
X91257037Y-80416366D01*
X91218823Y-80426605D01*
X91180608Y-80436845D01*
X91180603Y-80436848D01*
X91112094Y-80476401D01*
X91112086Y-80476407D01*
X89309541Y-82278952D01*
X89309535Y-82278960D01*
X89269982Y-82347469D01*
X89269979Y-82347474D01*
X89259013Y-82388401D01*
X89249500Y-82423903D01*
X89249500Y-90369929D01*
X89257591Y-90400125D01*
X89269979Y-90446357D01*
X89269980Y-90446358D01*
X89309367Y-90514579D01*
X89309540Y-90514878D01*
X89309542Y-90514881D01*
X90055044Y-91260382D01*
X90757839Y-91963177D01*
X90813788Y-92019126D01*
X90813790Y-92019127D01*
X90813794Y-92019130D01*
X90864989Y-92048687D01*
X90882310Y-92058687D01*
X90958737Y-92079166D01*
X91037861Y-92079166D01*
X91075161Y-92079166D01*
X91142200Y-92098851D01*
X91187955Y-92151655D01*
X91189714Y-92155695D01*
X91190605Y-92157845D01*
X91190606Y-92157846D01*
X91190608Y-92157851D01*
X91278209Y-92288954D01*
X91278212Y-92288958D01*
X91389706Y-92400452D01*
X91389710Y-92400455D01*
X91520813Y-92488056D01*
X91520826Y-92488063D01*
X91648796Y-92541069D01*
X91666502Y-92548403D01*
X91821152Y-92579165D01*
X91821155Y-92579166D01*
X91821157Y-92579166D01*
X92778843Y-92579166D01*
X92778844Y-92579165D01*
X92933496Y-92548403D01*
X93079178Y-92488060D01*
X93210288Y-92400455D01*
X93321788Y-92288955D01*
X93409393Y-92157845D01*
X93410275Y-92155717D01*
X93450465Y-92058687D01*
X93469736Y-92012163D01*
X93500499Y-91857508D01*
X93500499Y-91699824D01*
X93500499Y-91699821D01*
X93500498Y-91699819D01*
X93491639Y-91655283D01*
X93469736Y-91545169D01*
X93434755Y-91460717D01*
X93409396Y-91399493D01*
X93409389Y-91399480D01*
X93321788Y-91268377D01*
X93321785Y-91268373D01*
X93210291Y-91156879D01*
X93210287Y-91156876D01*
X93079184Y-91069275D01*
X93079171Y-91069268D01*
X93027164Y-91047727D01*
X92972760Y-91003887D01*
X92950695Y-90937593D01*
X92967974Y-90869893D01*
X93019111Y-90822282D01*
X93074616Y-90809166D01*
X93714266Y-90809166D01*
X93781305Y-90828851D01*
X93801947Y-90845485D01*
X99927288Y-96970826D01*
X99995811Y-97010388D01*
X100072237Y-97030866D01*
X100151361Y-97030866D01*
X101188383Y-97030866D01*
X101255422Y-97050551D01*
X101301177Y-97103355D01*
X101311121Y-97172513D01*
X101282096Y-97236069D01*
X101257273Y-97257969D01*
X101190341Y-97302690D01*
X101044023Y-97449008D01*
X100929057Y-97621069D01*
X100849869Y-97812245D01*
X100849867Y-97812253D01*
X100809499Y-98015196D01*
X100809499Y-98222135D01*
X100849867Y-98425078D01*
X100849869Y-98425086D01*
X100921561Y-98598166D01*
X100929058Y-98616264D01*
X100937521Y-98628930D01*
X101044023Y-98788323D01*
X101132185Y-98876485D01*
X101165670Y-98937808D01*
X101160686Y-99007500D01*
X101118814Y-99063433D01*
X101053350Y-99087850D01*
X101044504Y-99088166D01*
X100590438Y-99088166D01*
X100514010Y-99108644D01*
X100445489Y-99148206D01*
X100445486Y-99148208D01*
X96061848Y-103531847D01*
X96000525Y-103565332D01*
X95974167Y-103568166D01*
X74756537Y-103568166D01*
X74680109Y-103588644D01*
X74611588Y-103628206D01*
X74611585Y-103628208D01*
X66557947Y-111681847D01*
X66496624Y-111715332D01*
X66470266Y-111718166D01*
X56458676Y-111718166D01*
X56391637Y-111698481D01*
X56370995Y-111681847D01*
X56307316Y-111618168D01*
X56307314Y-111618166D01*
X56250250Y-111585220D01*
X56193187Y-111552274D01*
X56129539Y-111535220D01*
X56065892Y-111518166D01*
X55934108Y-111518166D01*
X55806812Y-111552274D01*
X55692686Y-111618166D01*
X55692683Y-111618168D01*
X55599502Y-111711349D01*
X55599500Y-111711352D01*
X55533608Y-111825478D01*
X55499500Y-111952774D01*
X50500500Y-111952774D01*
X50500500Y-101859819D01*
X65699499Y-101859819D01*
X65699499Y-102017512D01*
X65730260Y-102172155D01*
X65730263Y-102172167D01*
X65790601Y-102317838D01*
X65790608Y-102317851D01*
X65878209Y-102448954D01*
X65878212Y-102448958D01*
X65989706Y-102560452D01*
X65989710Y-102560455D01*
X66120813Y-102648056D01*
X66120826Y-102648063D01*
X66266497Y-102708401D01*
X66266502Y-102708403D01*
X66407478Y-102736445D01*
X66421152Y-102739165D01*
X66421155Y-102739166D01*
X66421157Y-102739166D01*
X67378843Y-102739166D01*
X67378844Y-102739165D01*
X67533496Y-102708403D01*
X67679178Y-102648060D01*
X67810288Y-102560455D01*
X67921788Y-102448955D01*
X68009393Y-102317845D01*
X68069736Y-102172163D01*
X68100499Y-102017508D01*
X68100499Y-101859824D01*
X68100499Y-101859820D01*
X68099958Y-101857099D01*
X91095819Y-101857099D01*
X91095819Y-102014792D01*
X91126580Y-102169435D01*
X91126583Y-102169447D01*
X91186921Y-102315118D01*
X91186928Y-102315131D01*
X91274529Y-102446234D01*
X91274532Y-102446238D01*
X91386026Y-102557732D01*
X91386030Y-102557735D01*
X91517133Y-102645336D01*
X91517146Y-102645343D01*
X91662817Y-102705681D01*
X91662822Y-102705683D01*
X91817472Y-102736445D01*
X91817475Y-102736446D01*
X91817477Y-102736446D01*
X92775163Y-102736446D01*
X92775164Y-102736445D01*
X92929816Y-102705683D01*
X93075498Y-102645340D01*
X93206608Y-102557735D01*
X93318108Y-102446235D01*
X93405713Y-102315125D01*
X93466056Y-102169443D01*
X93496819Y-102014788D01*
X93496819Y-101857104D01*
X93496819Y-101857101D01*
X93496818Y-101857099D01*
X93466057Y-101702456D01*
X93466056Y-101702449D01*
X93419316Y-101589607D01*
X93405716Y-101556773D01*
X93405709Y-101556760D01*
X93318108Y-101425657D01*
X93318105Y-101425653D01*
X93206611Y-101314159D01*
X93206607Y-101314156D01*
X93075504Y-101226555D01*
X93075491Y-101226548D01*
X92929820Y-101166210D01*
X92929808Y-101166207D01*
X92775164Y-101135446D01*
X92775161Y-101135446D01*
X91817477Y-101135446D01*
X91817474Y-101135446D01*
X91662829Y-101166207D01*
X91662817Y-101166210D01*
X91517146Y-101226548D01*
X91517133Y-101226555D01*
X91386030Y-101314156D01*
X91386026Y-101314159D01*
X91274532Y-101425653D01*
X91274529Y-101425657D01*
X91186928Y-101556760D01*
X91186921Y-101556773D01*
X91126583Y-101702444D01*
X91126580Y-101702456D01*
X91095819Y-101857099D01*
X68099958Y-101857099D01*
X68070531Y-101709166D01*
X68069736Y-101705169D01*
X68068607Y-101702444D01*
X68009396Y-101559493D01*
X68009389Y-101559480D01*
X67921788Y-101428377D01*
X67921785Y-101428373D01*
X67810291Y-101316879D01*
X67810287Y-101316876D01*
X67679184Y-101229275D01*
X67679171Y-101229268D01*
X67533500Y-101168930D01*
X67533488Y-101168927D01*
X67378844Y-101138166D01*
X67378841Y-101138166D01*
X66421157Y-101138166D01*
X66421154Y-101138166D01*
X66266509Y-101168927D01*
X66266497Y-101168930D01*
X66120826Y-101229268D01*
X66120813Y-101229275D01*
X65989710Y-101316876D01*
X65989706Y-101316879D01*
X65878212Y-101428373D01*
X65878209Y-101428377D01*
X65790608Y-101559480D01*
X65790601Y-101559493D01*
X65730263Y-101705164D01*
X65730260Y-101705176D01*
X65699499Y-101859819D01*
X50500500Y-101859819D01*
X50500500Y-99319819D01*
X65699499Y-99319819D01*
X65699499Y-99477512D01*
X65730260Y-99632155D01*
X65730263Y-99632167D01*
X65790601Y-99777838D01*
X65790608Y-99777851D01*
X65878209Y-99908954D01*
X65878212Y-99908958D01*
X65989706Y-100020452D01*
X65989710Y-100020455D01*
X66120813Y-100108056D01*
X66120826Y-100108063D01*
X66266497Y-100168401D01*
X66266502Y-100168403D01*
X66407478Y-100196445D01*
X66421152Y-100199165D01*
X66421155Y-100199166D01*
X66421157Y-100199166D01*
X67378843Y-100199166D01*
X67378844Y-100199165D01*
X67533496Y-100168403D01*
X67679178Y-100108060D01*
X67810288Y-100020455D01*
X67921788Y-99908955D01*
X68009393Y-99777845D01*
X68069736Y-99632163D01*
X68100499Y-99477508D01*
X68100499Y-99319824D01*
X68100499Y-99319820D01*
X68099958Y-99317099D01*
X91095819Y-99317099D01*
X91095819Y-99474792D01*
X91126580Y-99629435D01*
X91126583Y-99629447D01*
X91186921Y-99775118D01*
X91186928Y-99775131D01*
X91274529Y-99906234D01*
X91274532Y-99906238D01*
X91386026Y-100017732D01*
X91386030Y-100017735D01*
X91517133Y-100105336D01*
X91517146Y-100105343D01*
X91662817Y-100165681D01*
X91662822Y-100165683D01*
X91817472Y-100196445D01*
X91817475Y-100196446D01*
X91817477Y-100196446D01*
X92775163Y-100196446D01*
X92775164Y-100196445D01*
X92929816Y-100165683D01*
X93075498Y-100105340D01*
X93206608Y-100017735D01*
X93318108Y-99906235D01*
X93405713Y-99775125D01*
X93407906Y-99769832D01*
X93433164Y-99708851D01*
X93466056Y-99629443D01*
X93496819Y-99474788D01*
X93496819Y-99317104D01*
X93496819Y-99317101D01*
X93496818Y-99317099D01*
X93466057Y-99162456D01*
X93466056Y-99162449D01*
X93460157Y-99148208D01*
X93405716Y-99016773D01*
X93405709Y-99016760D01*
X93318108Y-98885657D01*
X93318105Y-98885653D01*
X93206611Y-98774159D01*
X93206607Y-98774156D01*
X93075504Y-98686555D01*
X93075491Y-98686548D01*
X92929820Y-98626210D01*
X92929808Y-98626207D01*
X92775164Y-98595446D01*
X92775161Y-98595446D01*
X91817477Y-98595446D01*
X91817474Y-98595446D01*
X91662829Y-98626207D01*
X91662817Y-98626210D01*
X91517146Y-98686548D01*
X91517133Y-98686555D01*
X91386030Y-98774156D01*
X91386026Y-98774159D01*
X91274532Y-98885653D01*
X91274529Y-98885657D01*
X91186928Y-99016760D01*
X91186921Y-99016773D01*
X91126583Y-99162444D01*
X91126580Y-99162456D01*
X91095819Y-99317099D01*
X68099958Y-99317099D01*
X68069737Y-99165176D01*
X68069736Y-99165169D01*
X68021869Y-99049607D01*
X68009396Y-99019493D01*
X68009389Y-99019480D01*
X67921788Y-98888377D01*
X67921785Y-98888373D01*
X67810291Y-98776879D01*
X67810287Y-98776876D01*
X67679184Y-98689275D01*
X67679171Y-98689268D01*
X67533500Y-98628930D01*
X67533488Y-98628927D01*
X67378844Y-98598166D01*
X67378841Y-98598166D01*
X66421157Y-98598166D01*
X66421154Y-98598166D01*
X66266509Y-98628927D01*
X66266497Y-98628930D01*
X66120826Y-98689268D01*
X66120813Y-98689275D01*
X65989710Y-98776876D01*
X65989706Y-98776879D01*
X65878212Y-98888373D01*
X65878209Y-98888377D01*
X65790608Y-99019480D01*
X65790601Y-99019493D01*
X65730263Y-99165164D01*
X65730260Y-99165176D01*
X65699499Y-99319819D01*
X50500500Y-99319819D01*
X50500500Y-96779819D01*
X65699499Y-96779819D01*
X65699499Y-96937512D01*
X65730260Y-97092155D01*
X65730263Y-97092167D01*
X65790601Y-97237838D01*
X65790608Y-97237851D01*
X65878209Y-97368954D01*
X65878212Y-97368958D01*
X65989706Y-97480452D01*
X65989710Y-97480455D01*
X66120813Y-97568056D01*
X66120826Y-97568063D01*
X66248796Y-97621069D01*
X66266502Y-97628403D01*
X66421152Y-97659165D01*
X66421155Y-97659166D01*
X66421157Y-97659166D01*
X67378843Y-97659166D01*
X67378844Y-97659165D01*
X67533496Y-97628403D01*
X67679178Y-97568060D01*
X67810288Y-97480455D01*
X67921788Y-97368955D01*
X68009393Y-97237845D01*
X68069736Y-97092163D01*
X68100499Y-96937508D01*
X68100499Y-96779824D01*
X68100499Y-96779821D01*
X68100498Y-96779819D01*
X91099499Y-96779819D01*
X91099499Y-96937512D01*
X91130260Y-97092155D01*
X91130263Y-97092167D01*
X91190601Y-97237838D01*
X91190608Y-97237851D01*
X91278209Y-97368954D01*
X91278212Y-97368958D01*
X91389706Y-97480452D01*
X91389710Y-97480455D01*
X91520813Y-97568056D01*
X91520826Y-97568063D01*
X91648796Y-97621069D01*
X91666502Y-97628403D01*
X91821152Y-97659165D01*
X91821155Y-97659166D01*
X91821157Y-97659166D01*
X92778843Y-97659166D01*
X92778844Y-97659165D01*
X92933496Y-97628403D01*
X93079178Y-97568060D01*
X93210288Y-97480455D01*
X93321788Y-97368955D01*
X93409393Y-97237845D01*
X93469736Y-97092163D01*
X93500499Y-96937508D01*
X93500499Y-96779824D01*
X93500499Y-96779821D01*
X93500498Y-96779819D01*
X93470531Y-96629166D01*
X93469736Y-96625169D01*
X93469734Y-96625164D01*
X93409396Y-96479493D01*
X93409389Y-96479480D01*
X93321788Y-96348377D01*
X93321785Y-96348373D01*
X93210291Y-96236879D01*
X93210287Y-96236876D01*
X93079184Y-96149275D01*
X93079171Y-96149268D01*
X92933500Y-96088930D01*
X92933488Y-96088927D01*
X92778844Y-96058166D01*
X92778841Y-96058166D01*
X91821157Y-96058166D01*
X91821154Y-96058166D01*
X91666509Y-96088927D01*
X91666497Y-96088930D01*
X91520826Y-96149268D01*
X91520813Y-96149275D01*
X91389710Y-96236876D01*
X91389706Y-96236879D01*
X91278212Y-96348373D01*
X91278209Y-96348377D01*
X91190608Y-96479480D01*
X91190601Y-96479493D01*
X91130263Y-96625164D01*
X91130260Y-96625176D01*
X91099499Y-96779819D01*
X68100498Y-96779819D01*
X68070531Y-96629166D01*
X68069736Y-96625169D01*
X68069734Y-96625164D01*
X68009396Y-96479493D01*
X68009389Y-96479480D01*
X67921788Y-96348377D01*
X67921785Y-96348373D01*
X67810291Y-96236879D01*
X67810287Y-96236876D01*
X67679184Y-96149275D01*
X67679171Y-96149268D01*
X67533500Y-96088930D01*
X67533488Y-96088927D01*
X67378844Y-96058166D01*
X67378841Y-96058166D01*
X66421157Y-96058166D01*
X66421154Y-96058166D01*
X66266509Y-96088927D01*
X66266497Y-96088930D01*
X66120826Y-96149268D01*
X66120813Y-96149275D01*
X65989710Y-96236876D01*
X65989706Y-96236879D01*
X65878212Y-96348373D01*
X65878209Y-96348377D01*
X65790608Y-96479480D01*
X65790601Y-96479493D01*
X65730263Y-96625164D01*
X65730260Y-96625176D01*
X65699499Y-96779819D01*
X50500500Y-96779819D01*
X50500500Y-93902774D01*
X60949499Y-93902774D01*
X60949499Y-94034558D01*
X60956277Y-94059853D01*
X60983607Y-94161853D01*
X61001755Y-94193286D01*
X61049499Y-94275980D01*
X61142685Y-94369166D01*
X61256813Y-94435058D01*
X61384107Y-94469166D01*
X61384109Y-94469166D01*
X61515889Y-94469166D01*
X61515891Y-94469166D01*
X61643185Y-94435058D01*
X61757313Y-94369166D01*
X61820994Y-94305485D01*
X61882317Y-94272000D01*
X61908675Y-94269166D01*
X63941323Y-94269166D01*
X64008362Y-94288851D01*
X64029004Y-94305485D01*
X64092685Y-94369166D01*
X64206813Y-94435058D01*
X64334107Y-94469166D01*
X64334109Y-94469166D01*
X64465889Y-94469166D01*
X64465891Y-94469166D01*
X64593185Y-94435058D01*
X64707313Y-94369166D01*
X64800499Y-94275980D01*
X64821377Y-94239819D01*
X65699499Y-94239819D01*
X65699499Y-94397512D01*
X65730260Y-94552155D01*
X65730263Y-94552167D01*
X65790601Y-94697838D01*
X65790608Y-94697851D01*
X65878209Y-94828954D01*
X65878212Y-94828958D01*
X65989706Y-94940452D01*
X65989710Y-94940455D01*
X66120813Y-95028056D01*
X66120826Y-95028063D01*
X66248796Y-95081069D01*
X66266502Y-95088403D01*
X66421152Y-95119165D01*
X66421155Y-95119166D01*
X66421157Y-95119166D01*
X67378843Y-95119166D01*
X67378844Y-95119165D01*
X67533496Y-95088403D01*
X67679178Y-95028060D01*
X67810288Y-94940455D01*
X67921788Y-94828955D01*
X68009393Y-94697845D01*
X68069736Y-94552163D01*
X68100499Y-94397508D01*
X68100499Y-94239824D01*
X68100499Y-94239821D01*
X68100498Y-94239819D01*
X91099499Y-94239819D01*
X91099499Y-94397512D01*
X91130260Y-94552155D01*
X91130263Y-94552167D01*
X91190601Y-94697838D01*
X91190608Y-94697851D01*
X91278209Y-94828954D01*
X91278212Y-94828958D01*
X91389706Y-94940452D01*
X91389710Y-94940455D01*
X91520813Y-95028056D01*
X91520826Y-95028063D01*
X91648796Y-95081069D01*
X91666502Y-95088403D01*
X91821152Y-95119165D01*
X91821155Y-95119166D01*
X91821157Y-95119166D01*
X92778843Y-95119166D01*
X92778844Y-95119165D01*
X92933496Y-95088403D01*
X93079178Y-95028060D01*
X93210288Y-94940455D01*
X93321788Y-94828955D01*
X93409393Y-94697845D01*
X93469736Y-94552163D01*
X93500499Y-94397508D01*
X93500499Y-94239824D01*
X93500499Y-94239821D01*
X93500498Y-94239819D01*
X93490284Y-94188471D01*
X93469736Y-94085169D01*
X93459250Y-94059853D01*
X93409396Y-93939493D01*
X93409389Y-93939480D01*
X93321788Y-93808377D01*
X93321785Y-93808373D01*
X93210291Y-93696879D01*
X93210287Y-93696876D01*
X93079184Y-93609275D01*
X93079171Y-93609268D01*
X92933500Y-93548930D01*
X92933488Y-93548927D01*
X92778844Y-93518166D01*
X92778841Y-93518166D01*
X91821157Y-93518166D01*
X91821154Y-93518166D01*
X91666509Y-93548927D01*
X91666497Y-93548930D01*
X91520826Y-93609268D01*
X91520813Y-93609275D01*
X91389710Y-93696876D01*
X91389706Y-93696879D01*
X91278212Y-93808373D01*
X91278209Y-93808377D01*
X91190608Y-93939480D01*
X91190601Y-93939493D01*
X91130263Y-94085164D01*
X91130260Y-94085176D01*
X91099499Y-94239819D01*
X68100498Y-94239819D01*
X68090284Y-94188471D01*
X68069736Y-94085169D01*
X68059250Y-94059853D01*
X68009396Y-93939493D01*
X68009389Y-93939480D01*
X67921788Y-93808377D01*
X67921785Y-93808373D01*
X67810291Y-93696879D01*
X67810287Y-93696876D01*
X67679184Y-93609275D01*
X67679171Y-93609268D01*
X67533500Y-93548930D01*
X67533488Y-93548927D01*
X67378844Y-93518166D01*
X67378841Y-93518166D01*
X66421157Y-93518166D01*
X66421154Y-93518166D01*
X66266509Y-93548927D01*
X66266497Y-93548930D01*
X66120826Y-93609268D01*
X66120813Y-93609275D01*
X65989710Y-93696876D01*
X65989706Y-93696879D01*
X65878212Y-93808373D01*
X65878209Y-93808377D01*
X65790608Y-93939480D01*
X65790601Y-93939493D01*
X65730263Y-94085164D01*
X65730260Y-94085176D01*
X65699499Y-94239819D01*
X64821377Y-94239819D01*
X64866391Y-94161852D01*
X64900499Y-94034558D01*
X64900499Y-93902774D01*
X64866391Y-93775480D01*
X64800499Y-93661352D01*
X64707313Y-93568166D01*
X64620711Y-93518166D01*
X64593186Y-93502274D01*
X64529538Y-93485220D01*
X64465891Y-93468166D01*
X64334107Y-93468166D01*
X64206811Y-93502274D01*
X64092685Y-93568166D01*
X64092682Y-93568168D01*
X64029004Y-93631847D01*
X63967681Y-93665332D01*
X63941323Y-93668166D01*
X61908675Y-93668166D01*
X61841636Y-93648481D01*
X61820994Y-93631847D01*
X61757315Y-93568168D01*
X61757313Y-93568166D01*
X61670711Y-93518166D01*
X61643186Y-93502274D01*
X61579538Y-93485220D01*
X61515891Y-93468166D01*
X61384107Y-93468166D01*
X61256811Y-93502274D01*
X61142685Y-93568166D01*
X61142682Y-93568168D01*
X61049501Y-93661349D01*
X61049499Y-93661352D01*
X60983607Y-93775478D01*
X60949499Y-93902774D01*
X50500500Y-93902774D01*
X50500500Y-91699819D01*
X65699499Y-91699819D01*
X65699499Y-91857512D01*
X65730260Y-92012155D01*
X65730263Y-92012167D01*
X65790601Y-92157838D01*
X65790608Y-92157851D01*
X65878209Y-92288954D01*
X65878212Y-92288958D01*
X65989706Y-92400452D01*
X65989710Y-92400455D01*
X66120813Y-92488056D01*
X66120826Y-92488063D01*
X66248796Y-92541069D01*
X66266502Y-92548403D01*
X66421152Y-92579165D01*
X66421155Y-92579166D01*
X66421157Y-92579166D01*
X67378843Y-92579166D01*
X67378844Y-92579165D01*
X67533496Y-92548403D01*
X67679178Y-92488060D01*
X67810288Y-92400455D01*
X67921788Y-92288955D01*
X68009393Y-92157845D01*
X68010275Y-92155717D01*
X68050465Y-92058687D01*
X68069736Y-92012163D01*
X68100499Y-91857508D01*
X68100499Y-91699824D01*
X68100499Y-91699821D01*
X68100498Y-91699819D01*
X68091639Y-91655283D01*
X68069736Y-91545169D01*
X68034755Y-91460717D01*
X68009396Y-91399493D01*
X68009389Y-91399480D01*
X67921788Y-91268377D01*
X67921785Y-91268373D01*
X67810291Y-91156879D01*
X67810287Y-91156876D01*
X67679184Y-91069275D01*
X67679171Y-91069268D01*
X67533500Y-91008930D01*
X67533488Y-91008927D01*
X67378844Y-90978166D01*
X67378841Y-90978166D01*
X66421157Y-90978166D01*
X66421154Y-90978166D01*
X66266509Y-91008927D01*
X66266497Y-91008930D01*
X66120826Y-91069268D01*
X66120813Y-91069275D01*
X65989710Y-91156876D01*
X65989706Y-91156879D01*
X65878212Y-91268373D01*
X65878209Y-91268377D01*
X65790608Y-91399480D01*
X65790601Y-91399493D01*
X65730263Y-91545164D01*
X65730260Y-91545176D01*
X65699499Y-91699819D01*
X50500500Y-91699819D01*
X50500500Y-88988665D01*
X65425883Y-88988665D01*
X65425884Y-88988666D01*
X66584313Y-88988666D01*
X66579919Y-88993060D01*
X66527258Y-89084272D01*
X66499999Y-89186005D01*
X66499999Y-89291327D01*
X66527258Y-89393060D01*
X66579919Y-89484272D01*
X66584313Y-89488666D01*
X65425884Y-89488666D01*
X65427084Y-89496250D01*
X65480590Y-89660921D01*
X65559194Y-89815190D01*
X65660966Y-89955268D01*
X65783396Y-90077698D01*
X65923474Y-90179470D01*
X66077741Y-90258074D01*
X66242414Y-90311580D01*
X66413428Y-90338666D01*
X66649999Y-90338666D01*
X66649999Y-89554352D01*
X66654393Y-89558746D01*
X66745605Y-89611407D01*
X66847338Y-89638666D01*
X66952660Y-89638666D01*
X67054393Y-89611407D01*
X67145605Y-89558746D01*
X67149999Y-89554352D01*
X67149999Y-90338666D01*
X67386570Y-90338666D01*
X67557583Y-90311580D01*
X67722256Y-90258074D01*
X67876523Y-90179470D01*
X68016601Y-90077698D01*
X68139031Y-89955268D01*
X68240803Y-89815190D01*
X68319407Y-89660921D01*
X68372913Y-89496250D01*
X68374114Y-89488666D01*
X67215685Y-89488666D01*
X67220079Y-89484272D01*
X67272740Y-89393060D01*
X67299999Y-89291327D01*
X67299999Y-89186005D01*
X67272740Y-89084272D01*
X67220079Y-88993060D01*
X67215685Y-88988666D01*
X68374114Y-88988666D01*
X68374114Y-88988665D01*
X68372913Y-88981081D01*
X68319407Y-88816410D01*
X68240803Y-88662141D01*
X68139031Y-88522063D01*
X68016601Y-88399633D01*
X67876523Y-88297861D01*
X67722256Y-88219257D01*
X67557583Y-88165751D01*
X67386570Y-88138666D01*
X67149999Y-88138666D01*
X67149999Y-88922980D01*
X67145605Y-88918586D01*
X67054393Y-88865925D01*
X66952660Y-88838666D01*
X66847338Y-88838666D01*
X66745605Y-88865925D01*
X66654393Y-88918586D01*
X66649999Y-88922980D01*
X66649999Y-88138666D01*
X66413428Y-88138666D01*
X66242414Y-88165751D01*
X66077741Y-88219257D01*
X65923474Y-88297861D01*
X65783396Y-88399633D01*
X65660966Y-88522063D01*
X65559194Y-88662141D01*
X65480590Y-88816410D01*
X65427084Y-88981081D01*
X65425883Y-88988665D01*
X50500500Y-88988665D01*
X50500500Y-86619819D01*
X65699499Y-86619819D01*
X65699499Y-86777512D01*
X65730260Y-86932155D01*
X65730263Y-86932167D01*
X65790601Y-87077838D01*
X65790608Y-87077851D01*
X65878209Y-87208954D01*
X65878212Y-87208958D01*
X65989706Y-87320452D01*
X65989710Y-87320455D01*
X66120813Y-87408056D01*
X66120826Y-87408063D01*
X66266497Y-87468401D01*
X66266502Y-87468403D01*
X66388857Y-87492741D01*
X66421152Y-87499165D01*
X66421155Y-87499166D01*
X66421157Y-87499166D01*
X67378843Y-87499166D01*
X67378844Y-87499165D01*
X67533496Y-87468403D01*
X67679178Y-87408060D01*
X67810288Y-87320455D01*
X67921788Y-87208955D01*
X68009393Y-87077845D01*
X68010275Y-87075717D01*
X68026939Y-87035485D01*
X68069736Y-86932163D01*
X68100499Y-86777508D01*
X68100499Y-86619824D01*
X68100499Y-86619821D01*
X68100498Y-86619819D01*
X68091242Y-86573288D01*
X68069736Y-86465169D01*
X68033286Y-86377170D01*
X68009396Y-86319493D01*
X68009389Y-86319480D01*
X67921788Y-86188377D01*
X67921785Y-86188373D01*
X67810291Y-86076879D01*
X67810287Y-86076876D01*
X67679184Y-85989275D01*
X67679171Y-85989268D01*
X67533500Y-85928930D01*
X67533488Y-85928927D01*
X67378844Y-85898166D01*
X67378841Y-85898166D01*
X66421157Y-85898166D01*
X66421154Y-85898166D01*
X66266509Y-85928927D01*
X66266497Y-85928930D01*
X66120826Y-85989268D01*
X66120813Y-85989275D01*
X65989710Y-86076876D01*
X65989706Y-86076879D01*
X65878212Y-86188373D01*
X65878209Y-86188377D01*
X65790608Y-86319480D01*
X65790601Y-86319493D01*
X65730263Y-86465164D01*
X65730260Y-86465176D01*
X65699499Y-86619819D01*
X50500500Y-86619819D01*
X50500500Y-84079819D01*
X65699499Y-84079819D01*
X65699499Y-84237512D01*
X65730260Y-84392155D01*
X65730263Y-84392167D01*
X65790601Y-84537838D01*
X65790608Y-84537851D01*
X65878209Y-84668954D01*
X65878212Y-84668958D01*
X65989706Y-84780452D01*
X65989710Y-84780455D01*
X66120813Y-84868056D01*
X66120826Y-84868063D01*
X66266497Y-84928401D01*
X66266502Y-84928403D01*
X66388857Y-84952741D01*
X66421152Y-84959165D01*
X66421155Y-84959166D01*
X66421157Y-84959166D01*
X67378843Y-84959166D01*
X67378844Y-84959165D01*
X67533496Y-84928403D01*
X67679178Y-84868060D01*
X67810288Y-84780455D01*
X67921788Y-84668955D01*
X68009393Y-84537845D01*
X68069736Y-84392163D01*
X68100499Y-84237508D01*
X68100499Y-84079824D01*
X68100499Y-84079821D01*
X68100498Y-84079819D01*
X68069736Y-83925169D01*
X68069734Y-83925164D01*
X68009396Y-83779493D01*
X68009389Y-83779480D01*
X67921788Y-83648377D01*
X67921785Y-83648373D01*
X67810291Y-83536879D01*
X67810287Y-83536876D01*
X67679184Y-83449275D01*
X67679171Y-83449268D01*
X67533500Y-83388930D01*
X67533488Y-83388927D01*
X67378844Y-83358166D01*
X67378841Y-83358166D01*
X66421157Y-83358166D01*
X66421154Y-83358166D01*
X66266509Y-83388927D01*
X66266497Y-83388930D01*
X66120826Y-83449268D01*
X66120813Y-83449275D01*
X65989710Y-83536876D01*
X65989706Y-83536879D01*
X65878212Y-83648373D01*
X65878209Y-83648377D01*
X65790608Y-83779480D01*
X65790601Y-83779493D01*
X65730263Y-83925164D01*
X65730260Y-83925176D01*
X65699499Y-84079819D01*
X50500500Y-84079819D01*
X50500500Y-81539819D01*
X65699499Y-81539819D01*
X65699499Y-81697512D01*
X65730260Y-81852155D01*
X65730263Y-81852167D01*
X65790601Y-81997838D01*
X65790608Y-81997851D01*
X65878209Y-82128954D01*
X65878212Y-82128958D01*
X65989706Y-82240452D01*
X65989710Y-82240455D01*
X66120813Y-82328056D01*
X66120826Y-82328063D01*
X66266497Y-82388401D01*
X66266502Y-82388403D01*
X66421152Y-82419165D01*
X66421155Y-82419166D01*
X66421157Y-82419166D01*
X67378843Y-82419166D01*
X67378844Y-82419165D01*
X67533496Y-82388403D01*
X67679178Y-82328060D01*
X67810288Y-82240455D01*
X67921788Y-82128955D01*
X68009393Y-81997845D01*
X68069736Y-81852163D01*
X68100499Y-81697508D01*
X68100499Y-81539824D01*
X68100499Y-81539821D01*
X68100498Y-81539819D01*
X68069737Y-81385176D01*
X68069736Y-81385169D01*
X68014562Y-81251965D01*
X68009396Y-81239493D01*
X68009389Y-81239480D01*
X67921788Y-81108377D01*
X67921785Y-81108373D01*
X67810291Y-80996879D01*
X67810287Y-80996876D01*
X67679184Y-80909275D01*
X67679171Y-80909268D01*
X67533500Y-80848930D01*
X67533488Y-80848927D01*
X67378844Y-80818166D01*
X67378841Y-80818166D01*
X66421157Y-80818166D01*
X66421154Y-80818166D01*
X66266509Y-80848927D01*
X66266497Y-80848930D01*
X66120826Y-80909268D01*
X66120813Y-80909275D01*
X65989710Y-80996876D01*
X65989706Y-80996879D01*
X65878212Y-81108373D01*
X65878209Y-81108377D01*
X65790608Y-81239480D01*
X65790601Y-81239493D01*
X65730263Y-81385164D01*
X65730260Y-81385176D01*
X65699499Y-81539819D01*
X50500500Y-81539819D01*
X50500500Y-78999819D01*
X65699499Y-78999819D01*
X65699499Y-79157512D01*
X65730260Y-79312155D01*
X65730263Y-79312167D01*
X65790601Y-79457838D01*
X65790608Y-79457851D01*
X65878209Y-79588954D01*
X65878212Y-79588958D01*
X65989706Y-79700452D01*
X65989710Y-79700455D01*
X66120813Y-79788056D01*
X66120826Y-79788063D01*
X66242840Y-79838602D01*
X66266502Y-79848403D01*
X66421152Y-79879165D01*
X66421155Y-79879166D01*
X66421157Y-79879166D01*
X67378843Y-79879166D01*
X67378844Y-79879165D01*
X67533496Y-79848403D01*
X67679178Y-79788060D01*
X67810288Y-79700455D01*
X67921788Y-79588955D01*
X68009393Y-79457845D01*
X68069736Y-79312163D01*
X68100499Y-79157508D01*
X68100499Y-78999824D01*
X68100499Y-78999821D01*
X68100498Y-78999819D01*
X91099499Y-78999819D01*
X91099499Y-79157512D01*
X91130260Y-79312155D01*
X91130263Y-79312167D01*
X91190601Y-79457838D01*
X91190608Y-79457851D01*
X91278209Y-79588954D01*
X91278212Y-79588958D01*
X91389706Y-79700452D01*
X91389710Y-79700455D01*
X91520813Y-79788056D01*
X91520826Y-79788063D01*
X91642840Y-79838602D01*
X91666502Y-79848403D01*
X91821152Y-79879165D01*
X91821155Y-79879166D01*
X91821157Y-79879166D01*
X92778843Y-79879166D01*
X92778844Y-79879165D01*
X92933496Y-79848403D01*
X93079178Y-79788060D01*
X93210288Y-79700455D01*
X93321788Y-79588955D01*
X93409393Y-79457845D01*
X93469736Y-79312163D01*
X93500499Y-79157508D01*
X93500499Y-78999824D01*
X93500499Y-78999821D01*
X93500498Y-78999819D01*
X93469737Y-78845176D01*
X93469736Y-78845169D01*
X93430514Y-78750478D01*
X93409396Y-78699493D01*
X93409389Y-78699480D01*
X93321788Y-78568377D01*
X93321785Y-78568373D01*
X93210291Y-78456879D01*
X93210287Y-78456876D01*
X93079184Y-78369275D01*
X93079171Y-78369268D01*
X92933500Y-78308930D01*
X92933488Y-78308927D01*
X92778844Y-78278166D01*
X92778841Y-78278166D01*
X91821157Y-78278166D01*
X91821154Y-78278166D01*
X91666509Y-78308927D01*
X91666497Y-78308930D01*
X91520826Y-78369268D01*
X91520813Y-78369275D01*
X91389710Y-78456876D01*
X91389706Y-78456879D01*
X91278212Y-78568373D01*
X91278209Y-78568377D01*
X91190608Y-78699480D01*
X91190601Y-78699493D01*
X91130263Y-78845164D01*
X91130260Y-78845176D01*
X91099499Y-78999819D01*
X68100498Y-78999819D01*
X68069737Y-78845176D01*
X68069736Y-78845169D01*
X68030514Y-78750478D01*
X68009396Y-78699493D01*
X68009389Y-78699480D01*
X67921788Y-78568377D01*
X67921785Y-78568373D01*
X67810291Y-78456879D01*
X67810287Y-78456876D01*
X67679184Y-78369275D01*
X67679171Y-78369268D01*
X67533500Y-78308930D01*
X67533488Y-78308927D01*
X67378844Y-78278166D01*
X67378841Y-78278166D01*
X66421157Y-78278166D01*
X66421154Y-78278166D01*
X66266509Y-78308927D01*
X66266497Y-78308930D01*
X66120826Y-78369268D01*
X66120813Y-78369275D01*
X65989710Y-78456876D01*
X65989706Y-78456879D01*
X65878212Y-78568373D01*
X65878209Y-78568377D01*
X65790608Y-78699480D01*
X65790601Y-78699493D01*
X65730263Y-78845164D01*
X65730260Y-78845176D01*
X65699499Y-78999819D01*
X50500500Y-78999819D01*
X50500500Y-76459819D01*
X65699499Y-76459819D01*
X65699499Y-76617512D01*
X65730260Y-76772155D01*
X65730263Y-76772167D01*
X65790601Y-76917838D01*
X65790608Y-76917851D01*
X65878209Y-77048954D01*
X65878212Y-77048958D01*
X65989706Y-77160452D01*
X65989710Y-77160455D01*
X66120813Y-77248056D01*
X66120826Y-77248063D01*
X66266497Y-77308401D01*
X66266502Y-77308403D01*
X66421152Y-77339165D01*
X66421155Y-77339166D01*
X66421157Y-77339166D01*
X67378843Y-77339166D01*
X67378844Y-77339165D01*
X67533496Y-77308403D01*
X67679178Y-77248060D01*
X67810288Y-77160455D01*
X67921788Y-77048955D01*
X68009393Y-76917845D01*
X68010275Y-76915717D01*
X68026939Y-76875485D01*
X68069736Y-76772163D01*
X68100499Y-76617508D01*
X68100499Y-76459824D01*
X68100499Y-76459821D01*
X68100498Y-76459819D01*
X68069736Y-76305169D01*
X68033829Y-76218481D01*
X68009396Y-76159493D01*
X68009389Y-76159480D01*
X67921788Y-76028377D01*
X67921785Y-76028373D01*
X67810291Y-75916879D01*
X67810287Y-75916876D01*
X67679184Y-75829275D01*
X67679171Y-75829268D01*
X67533500Y-75768930D01*
X67533488Y-75768927D01*
X67378844Y-75738166D01*
X67378841Y-75738166D01*
X66421157Y-75738166D01*
X66421154Y-75738166D01*
X66266509Y-75768927D01*
X66266497Y-75768930D01*
X66120826Y-75829268D01*
X66120813Y-75829275D01*
X65989710Y-75916876D01*
X65989706Y-75916879D01*
X65878212Y-76028373D01*
X65878209Y-76028377D01*
X65790608Y-76159480D01*
X65790601Y-76159493D01*
X65730263Y-76305164D01*
X65730260Y-76305176D01*
X65699499Y-76459819D01*
X50500500Y-76459819D01*
X50500500Y-61892419D01*
X56549999Y-61892419D01*
X56549999Y-62104912D01*
X56583241Y-62314793D01*
X56583241Y-62314796D01*
X56648903Y-62516883D01*
X56745374Y-62706216D01*
X56784727Y-62760382D01*
X57417036Y-62128074D01*
X57434074Y-62191659D01*
X57499900Y-62305673D01*
X57592992Y-62398765D01*
X57707006Y-62464591D01*
X57770589Y-62481628D01*
X57138281Y-63113935D01*
X57138281Y-63113936D01*
X57192448Y-63153290D01*
X57381781Y-63249761D01*
X57583864Y-63315421D01*
X57642586Y-63324722D01*
X57705721Y-63354651D01*
X57742653Y-63413963D01*
X57741655Y-63483825D01*
X57703046Y-63542058D01*
X57647383Y-63568813D01*
X57608166Y-63576614D01*
X57608159Y-63576616D01*
X57426091Y-63652030D01*
X57426078Y-63652037D01*
X57262217Y-63761526D01*
X57262213Y-63761529D01*
X57122862Y-63900880D01*
X57122859Y-63900884D01*
X57013370Y-64064745D01*
X57013363Y-64064758D01*
X56937949Y-64246826D01*
X56937946Y-64246836D01*
X56899499Y-64440122D01*
X56899499Y-64440125D01*
X56899499Y-64637207D01*
X56899499Y-64637209D01*
X56899498Y-64637209D01*
X56937946Y-64830495D01*
X56937949Y-64830505D01*
X57013363Y-65012573D01*
X57013370Y-65012586D01*
X57122859Y-65176447D01*
X57122862Y-65176451D01*
X57262213Y-65315802D01*
X57262217Y-65315805D01*
X57426078Y-65425294D01*
X57426091Y-65425301D01*
X57533057Y-65469607D01*
X57608164Y-65500717D01*
X57628490Y-65504760D01*
X57647380Y-65508518D01*
X57709291Y-65540903D01*
X57743865Y-65601618D01*
X57740126Y-65671388D01*
X57699260Y-65728060D01*
X57642588Y-65752608D01*
X57583869Y-65761908D01*
X57583868Y-65761908D01*
X57381781Y-65827570D01*
X57192438Y-65924046D01*
X57138281Y-65963393D01*
X57138281Y-65963394D01*
X57770590Y-66595703D01*
X57707006Y-66612741D01*
X57592992Y-66678567D01*
X57499900Y-66771659D01*
X57434074Y-66885673D01*
X57417036Y-66949257D01*
X56784727Y-66316948D01*
X56784726Y-66316948D01*
X56745379Y-66371105D01*
X56648903Y-66560448D01*
X56583241Y-66762535D01*
X56583241Y-66762538D01*
X56549999Y-66972419D01*
X56549999Y-67184912D01*
X56583241Y-67394793D01*
X56583241Y-67394796D01*
X56648903Y-67596883D01*
X56745374Y-67786216D01*
X56784727Y-67840382D01*
X57417036Y-67208074D01*
X57434074Y-67271659D01*
X57499900Y-67385673D01*
X57592992Y-67478765D01*
X57707006Y-67544591D01*
X57770589Y-67561628D01*
X57138281Y-68193935D01*
X57138281Y-68193936D01*
X57192448Y-68233290D01*
X57381781Y-68329761D01*
X57557972Y-68387009D01*
X57615647Y-68426446D01*
X57642846Y-68490805D01*
X57630931Y-68559651D01*
X57583687Y-68611127D01*
X57567107Y-68619501D01*
X57402402Y-68687723D01*
X57230341Y-68802690D01*
X57084023Y-68949008D01*
X56969057Y-69121069D01*
X56889869Y-69312245D01*
X56889867Y-69312253D01*
X56849499Y-69515196D01*
X56849499Y-69722135D01*
X56889867Y-69925078D01*
X56889869Y-69925086D01*
X56969057Y-70116262D01*
X57084023Y-70288323D01*
X57230341Y-70434641D01*
X57402404Y-70549609D01*
X57505042Y-70592122D01*
X57567107Y-70617830D01*
X57621510Y-70661671D01*
X57643575Y-70727965D01*
X57626296Y-70795664D01*
X57575159Y-70843275D01*
X57557973Y-70850322D01*
X57381780Y-70907571D01*
X57192438Y-71004046D01*
X57138281Y-71043393D01*
X57138281Y-71043394D01*
X57770590Y-71675703D01*
X57707006Y-71692741D01*
X57592992Y-71758567D01*
X57499900Y-71851659D01*
X57434074Y-71965673D01*
X57417036Y-72029257D01*
X56784727Y-71396948D01*
X56784726Y-71396948D01*
X56745379Y-71451105D01*
X56648903Y-71640448D01*
X56583241Y-71842535D01*
X56583241Y-71842538D01*
X56549999Y-72052419D01*
X56549999Y-72264912D01*
X56583241Y-72474793D01*
X56583241Y-72474796D01*
X56648903Y-72676883D01*
X56745374Y-72866216D01*
X56784727Y-72920382D01*
X57417036Y-72288074D01*
X57434074Y-72351659D01*
X57499900Y-72465673D01*
X57592992Y-72558765D01*
X57707006Y-72624591D01*
X57770589Y-72641628D01*
X57138281Y-73273935D01*
X57138281Y-73273936D01*
X57192448Y-73313290D01*
X57381781Y-73409761D01*
X57557972Y-73467009D01*
X57615647Y-73506446D01*
X57642846Y-73570805D01*
X57630931Y-73639651D01*
X57583687Y-73691127D01*
X57567107Y-73699501D01*
X57402402Y-73767723D01*
X57230341Y-73882690D01*
X57084023Y-74029008D01*
X56969057Y-74201069D01*
X56889869Y-74392245D01*
X56889867Y-74392253D01*
X56849499Y-74595196D01*
X56849499Y-74802135D01*
X56889867Y-75005078D01*
X56889869Y-75005086D01*
X56969057Y-75196262D01*
X57084023Y-75368323D01*
X57230341Y-75514641D01*
X57230344Y-75514643D01*
X57402401Y-75629607D01*
X57593579Y-75708796D01*
X57741233Y-75738166D01*
X57796529Y-75749165D01*
X57796533Y-75749166D01*
X57796534Y-75749166D01*
X58003465Y-75749166D01*
X58003466Y-75749165D01*
X58206419Y-75708796D01*
X58397597Y-75629607D01*
X58569654Y-75514643D01*
X58715976Y-75368321D01*
X58830940Y-75196264D01*
X58910129Y-75005086D01*
X58950499Y-74802131D01*
X58950499Y-74595201D01*
X58910129Y-74392246D01*
X58830940Y-74201068D01*
X58715976Y-74029011D01*
X58715974Y-74029008D01*
X58606785Y-73919819D01*
X65699499Y-73919819D01*
X65699499Y-74077512D01*
X65730260Y-74232155D01*
X65730263Y-74232167D01*
X65790601Y-74377838D01*
X65790608Y-74377851D01*
X65878209Y-74508954D01*
X65878212Y-74508958D01*
X65989706Y-74620452D01*
X65989710Y-74620455D01*
X66120813Y-74708056D01*
X66120826Y-74708063D01*
X66266497Y-74768401D01*
X66266502Y-74768403D01*
X66421152Y-74799165D01*
X66421155Y-74799166D01*
X66421157Y-74799166D01*
X67378843Y-74799166D01*
X67378844Y-74799165D01*
X67533496Y-74768403D01*
X67679178Y-74708060D01*
X67810288Y-74620455D01*
X67921788Y-74508955D01*
X68009393Y-74377845D01*
X68010275Y-74375717D01*
X68026939Y-74335485D01*
X68069736Y-74232163D01*
X68100499Y-74077508D01*
X68100499Y-73919824D01*
X68100499Y-73919821D01*
X68100498Y-73919819D01*
X68096578Y-73900110D01*
X68069736Y-73765169D01*
X68050465Y-73718645D01*
X68009396Y-73619493D01*
X68009389Y-73619480D01*
X67921788Y-73488377D01*
X67921785Y-73488373D01*
X67810291Y-73376879D01*
X67810287Y-73376876D01*
X67679184Y-73289275D01*
X67679171Y-73289268D01*
X67533500Y-73228930D01*
X67533488Y-73228927D01*
X67378844Y-73198166D01*
X67378841Y-73198166D01*
X66421157Y-73198166D01*
X66421154Y-73198166D01*
X66266509Y-73228927D01*
X66266497Y-73228930D01*
X66120826Y-73289268D01*
X66120813Y-73289275D01*
X65989710Y-73376876D01*
X65989706Y-73376879D01*
X65878212Y-73488373D01*
X65878209Y-73488377D01*
X65790608Y-73619480D01*
X65790601Y-73619493D01*
X65730263Y-73765164D01*
X65730260Y-73765176D01*
X65699499Y-73919819D01*
X58606785Y-73919819D01*
X58569656Y-73882690D01*
X58402615Y-73771078D01*
X58397597Y-73767725D01*
X58397592Y-73767723D01*
X58269497Y-73714664D01*
X58232889Y-73699500D01*
X58178487Y-73655660D01*
X58156422Y-73589366D01*
X58173701Y-73521667D01*
X58224838Y-73474056D01*
X58242025Y-73467009D01*
X58418216Y-73409761D01*
X58607553Y-73313288D01*
X58661715Y-73273936D01*
X58661716Y-73273936D01*
X58029407Y-72641628D01*
X58092992Y-72624591D01*
X58207006Y-72558765D01*
X58300098Y-72465673D01*
X58365924Y-72351659D01*
X58382961Y-72288074D01*
X59015269Y-72920383D01*
X59015269Y-72920382D01*
X59054621Y-72866220D01*
X59151094Y-72676883D01*
X59216756Y-72474796D01*
X59216756Y-72474793D01*
X59249999Y-72264912D01*
X59249999Y-72052419D01*
X59216756Y-71842538D01*
X59216756Y-71842535D01*
X59151094Y-71640448D01*
X59054622Y-71451113D01*
X59051357Y-71446619D01*
X59051355Y-71446617D01*
X59015268Y-71396948D01*
X58382961Y-72029256D01*
X58365924Y-71965673D01*
X58300098Y-71851659D01*
X58207006Y-71758567D01*
X58092992Y-71692741D01*
X58029408Y-71675703D01*
X58325291Y-71379819D01*
X65699499Y-71379819D01*
X65699499Y-71537512D01*
X65730260Y-71692155D01*
X65730263Y-71692167D01*
X65790601Y-71837838D01*
X65790608Y-71837851D01*
X65878209Y-71968954D01*
X65878212Y-71968958D01*
X65989706Y-72080452D01*
X65989710Y-72080455D01*
X66120813Y-72168056D01*
X66120826Y-72168063D01*
X66257060Y-72224492D01*
X66266502Y-72228403D01*
X66421152Y-72259165D01*
X66421155Y-72259166D01*
X66421157Y-72259166D01*
X67378843Y-72259166D01*
X67378844Y-72259165D01*
X67533496Y-72228403D01*
X67679178Y-72168060D01*
X67810288Y-72080455D01*
X67921788Y-71968955D01*
X68009393Y-71837845D01*
X68069736Y-71692163D01*
X68100499Y-71537508D01*
X68100499Y-71379824D01*
X68100499Y-71379821D01*
X68100498Y-71379819D01*
X68096578Y-71360110D01*
X68069736Y-71225169D01*
X68061771Y-71205939D01*
X68009396Y-71079493D01*
X68009389Y-71079480D01*
X67921788Y-70948377D01*
X67921785Y-70948373D01*
X67810291Y-70836879D01*
X67810287Y-70836876D01*
X67679184Y-70749275D01*
X67679171Y-70749268D01*
X67533500Y-70688930D01*
X67533488Y-70688927D01*
X67378844Y-70658166D01*
X67378841Y-70658166D01*
X66421157Y-70658166D01*
X66421154Y-70658166D01*
X66266509Y-70688927D01*
X66266497Y-70688930D01*
X66120826Y-70749268D01*
X66120813Y-70749275D01*
X65989710Y-70836876D01*
X65989706Y-70836879D01*
X65878212Y-70948373D01*
X65878209Y-70948377D01*
X65790608Y-71079480D01*
X65790601Y-71079493D01*
X65730263Y-71225164D01*
X65730260Y-71225176D01*
X65699499Y-71379819D01*
X58325291Y-71379819D01*
X58661715Y-71043394D01*
X58607549Y-71004041D01*
X58418215Y-70907570D01*
X58242025Y-70850322D01*
X58184349Y-70810884D01*
X58157151Y-70746526D01*
X58169066Y-70677679D01*
X58216310Y-70626204D01*
X58232881Y-70617834D01*
X58397597Y-70549607D01*
X58569654Y-70434643D01*
X58715976Y-70288321D01*
X58830940Y-70116264D01*
X58910129Y-69925086D01*
X58950499Y-69722131D01*
X58950499Y-69515201D01*
X58910129Y-69312246D01*
X58830940Y-69121068D01*
X58715976Y-68949011D01*
X58715974Y-68949008D01*
X58569656Y-68802690D01*
X58402615Y-68691078D01*
X58397597Y-68687725D01*
X58397592Y-68687723D01*
X58269497Y-68634664D01*
X58232889Y-68619500D01*
X58178487Y-68575660D01*
X58156422Y-68509366D01*
X58173701Y-68441667D01*
X58224838Y-68394056D01*
X58242025Y-68387009D01*
X58418216Y-68329761D01*
X58607553Y-68233288D01*
X58661715Y-68193936D01*
X58661716Y-68193936D01*
X58029407Y-67561628D01*
X58092992Y-67544591D01*
X58207006Y-67478765D01*
X58300098Y-67385673D01*
X58365924Y-67271659D01*
X58382961Y-67208074D01*
X59015269Y-67840383D01*
X59015269Y-67840382D01*
X59054621Y-67786220D01*
X59151094Y-67596883D01*
X59216756Y-67394796D01*
X59216756Y-67394793D01*
X59249999Y-67184912D01*
X59249999Y-66972419D01*
X59216756Y-66762538D01*
X59216756Y-66762535D01*
X59151094Y-66560448D01*
X59054622Y-66371113D01*
X59051357Y-66366619D01*
X59051355Y-66366617D01*
X59015268Y-66316948D01*
X58382961Y-66949256D01*
X58365924Y-66885673D01*
X58300098Y-66771659D01*
X58207006Y-66678567D01*
X58092992Y-66612741D01*
X58029408Y-66595703D01*
X58325291Y-66299819D01*
X65699499Y-66299819D01*
X65699499Y-66457512D01*
X65730260Y-66612155D01*
X65730263Y-66612167D01*
X65790601Y-66757838D01*
X65790608Y-66757851D01*
X65878209Y-66888954D01*
X65878212Y-66888958D01*
X65989706Y-67000452D01*
X65989710Y-67000455D01*
X66120813Y-67088056D01*
X66120826Y-67088063D01*
X66221532Y-67129776D01*
X66266502Y-67148403D01*
X66421152Y-67179165D01*
X66421155Y-67179166D01*
X66421157Y-67179166D01*
X67378843Y-67179166D01*
X67378844Y-67179165D01*
X67533496Y-67148403D01*
X67646165Y-67101733D01*
X67679171Y-67088063D01*
X67679171Y-67088062D01*
X67679178Y-67088060D01*
X67810288Y-67000455D01*
X67921788Y-66888955D01*
X68009393Y-66757845D01*
X68010275Y-66755717D01*
X68023066Y-66724832D01*
X68069736Y-66612163D01*
X68100499Y-66457508D01*
X68100499Y-66299824D01*
X68100499Y-66299821D01*
X68100498Y-66299819D01*
X68069736Y-66145169D01*
X68037993Y-66068534D01*
X68009396Y-65999493D01*
X68009389Y-65999480D01*
X67921788Y-65868377D01*
X67921785Y-65868373D01*
X67810291Y-65756879D01*
X67810287Y-65756876D01*
X67679184Y-65669275D01*
X67679171Y-65669268D01*
X67533500Y-65608930D01*
X67533488Y-65608927D01*
X67378844Y-65578166D01*
X67378841Y-65578166D01*
X66421157Y-65578166D01*
X66421154Y-65578166D01*
X66266509Y-65608927D01*
X66266497Y-65608930D01*
X66120826Y-65669268D01*
X66120813Y-65669275D01*
X65989710Y-65756876D01*
X65989706Y-65756879D01*
X65878212Y-65868373D01*
X65878209Y-65868377D01*
X65790608Y-65999480D01*
X65790601Y-65999493D01*
X65730263Y-66145164D01*
X65730260Y-66145176D01*
X65699499Y-66299819D01*
X58325291Y-66299819D01*
X58661715Y-65963394D01*
X58607549Y-65924041D01*
X58418216Y-65827570D01*
X58216127Y-65761908D01*
X58157410Y-65752608D01*
X58094275Y-65722678D01*
X58057344Y-65663367D01*
X58058342Y-65593504D01*
X58096952Y-65535272D01*
X58152614Y-65508518D01*
X58191834Y-65500717D01*
X58373913Y-65425298D01*
X58537781Y-65315805D01*
X58677138Y-65176448D01*
X58786631Y-65012580D01*
X58862050Y-64830501D01*
X58899519Y-64642135D01*
X58900499Y-64637209D01*
X58900499Y-64440122D01*
X58862051Y-64246836D01*
X58862050Y-64246835D01*
X58862050Y-64246831D01*
X58848771Y-64214772D01*
X58786634Y-64064758D01*
X58786627Y-64064745D01*
X58677138Y-63900884D01*
X58677135Y-63900880D01*
X58537784Y-63761529D01*
X58537780Y-63761526D01*
X58373919Y-63652037D01*
X58373906Y-63652030D01*
X58191838Y-63576616D01*
X58191829Y-63576613D01*
X58152615Y-63568813D01*
X58090704Y-63536427D01*
X58056131Y-63475711D01*
X58059872Y-63405941D01*
X58100739Y-63349270D01*
X58157411Y-63324722D01*
X58216133Y-63315421D01*
X58418216Y-63249761D01*
X58607553Y-63153288D01*
X58661715Y-63113936D01*
X58661716Y-63113936D01*
X58029407Y-62481628D01*
X58092992Y-62464591D01*
X58207006Y-62398765D01*
X58300098Y-62305673D01*
X58365924Y-62191659D01*
X58382961Y-62128074D01*
X59015269Y-62760383D01*
X59015269Y-62760382D01*
X59054621Y-62706220D01*
X59151094Y-62516883D01*
X59216756Y-62314796D01*
X59216756Y-62314793D01*
X59249999Y-62104912D01*
X59249999Y-61892419D01*
X59216756Y-61682538D01*
X59216756Y-61682535D01*
X59151094Y-61480448D01*
X59054623Y-61291115D01*
X59015269Y-61236948D01*
X59015268Y-61236948D01*
X58382961Y-61869256D01*
X58365924Y-61805673D01*
X58300098Y-61691659D01*
X58207006Y-61598567D01*
X58092992Y-61532741D01*
X58029408Y-61515703D01*
X58661715Y-60883394D01*
X58607549Y-60844041D01*
X58418215Y-60747570D01*
X58242025Y-60690322D01*
X58184349Y-60650884D01*
X58157151Y-60586526D01*
X58169066Y-60517679D01*
X58216310Y-60466204D01*
X58232881Y-60457834D01*
X58397597Y-60389607D01*
X58569654Y-60274643D01*
X58715976Y-60128321D01*
X58830940Y-59956264D01*
X58910129Y-59765086D01*
X58950499Y-59562131D01*
X58950499Y-59355201D01*
X58910129Y-59152246D01*
X58830940Y-58961068D01*
X58715976Y-58789011D01*
X58715974Y-58789008D01*
X58606785Y-58679819D01*
X65699499Y-58679819D01*
X65699499Y-58837512D01*
X65730260Y-58992155D01*
X65730263Y-58992167D01*
X65790601Y-59137838D01*
X65790608Y-59137851D01*
X65878209Y-59268954D01*
X65878212Y-59268958D01*
X65989706Y-59380452D01*
X65989710Y-59380455D01*
X66120813Y-59468056D01*
X66120826Y-59468063D01*
X66257060Y-59524492D01*
X66266502Y-59528403D01*
X66421152Y-59559165D01*
X66421155Y-59559166D01*
X66421157Y-59559166D01*
X67378843Y-59559166D01*
X67378844Y-59559165D01*
X67533496Y-59528403D01*
X67679178Y-59468060D01*
X67810288Y-59380455D01*
X67921788Y-59268955D01*
X68009393Y-59137845D01*
X68069736Y-58992163D01*
X68100499Y-58837508D01*
X68100499Y-58679824D01*
X68100499Y-58679821D01*
X68100498Y-58679819D01*
X91099499Y-58679819D01*
X91099499Y-58837512D01*
X91130260Y-58992155D01*
X91130263Y-58992167D01*
X91190601Y-59137838D01*
X91190608Y-59137851D01*
X91278209Y-59268954D01*
X91278212Y-59268958D01*
X91389706Y-59380452D01*
X91389710Y-59380455D01*
X91520813Y-59468056D01*
X91520826Y-59468063D01*
X91657060Y-59524492D01*
X91666502Y-59528403D01*
X91821152Y-59559165D01*
X91821155Y-59559166D01*
X91821157Y-59559166D01*
X92778843Y-59559166D01*
X92778844Y-59559165D01*
X92933496Y-59528403D01*
X93079178Y-59468060D01*
X93210288Y-59380455D01*
X93321788Y-59268955D01*
X93409393Y-59137845D01*
X93469736Y-58992163D01*
X93500499Y-58837508D01*
X93500499Y-58679824D01*
X93500499Y-58679821D01*
X93500498Y-58679819D01*
X93469736Y-58525169D01*
X93437993Y-58448534D01*
X93409396Y-58379493D01*
X93409389Y-58379480D01*
X93321788Y-58248377D01*
X93321785Y-58248373D01*
X93210291Y-58136879D01*
X93210287Y-58136876D01*
X93079184Y-58049275D01*
X93079171Y-58049268D01*
X92933500Y-57988930D01*
X92933488Y-57988927D01*
X92778844Y-57958166D01*
X92778841Y-57958166D01*
X91821157Y-57958166D01*
X91821154Y-57958166D01*
X91666509Y-57988927D01*
X91666497Y-57988930D01*
X91520826Y-58049268D01*
X91520813Y-58049275D01*
X91389710Y-58136876D01*
X91389706Y-58136879D01*
X91278212Y-58248373D01*
X91278209Y-58248377D01*
X91190608Y-58379480D01*
X91190601Y-58379493D01*
X91130263Y-58525164D01*
X91130260Y-58525176D01*
X91099499Y-58679819D01*
X68100498Y-58679819D01*
X68069736Y-58525169D01*
X68037993Y-58448534D01*
X68009396Y-58379493D01*
X68009389Y-58379480D01*
X67921788Y-58248377D01*
X67921785Y-58248373D01*
X67810291Y-58136879D01*
X67810287Y-58136876D01*
X67679184Y-58049275D01*
X67679171Y-58049268D01*
X67533500Y-57988930D01*
X67533488Y-57988927D01*
X67378844Y-57958166D01*
X67378841Y-57958166D01*
X66421157Y-57958166D01*
X66421154Y-57958166D01*
X66266509Y-57988927D01*
X66266497Y-57988930D01*
X66120826Y-58049268D01*
X66120813Y-58049275D01*
X65989710Y-58136876D01*
X65989706Y-58136879D01*
X65878212Y-58248373D01*
X65878209Y-58248377D01*
X65790608Y-58379480D01*
X65790601Y-58379493D01*
X65730263Y-58525164D01*
X65730260Y-58525176D01*
X65699499Y-58679819D01*
X58606785Y-58679819D01*
X58569656Y-58642690D01*
X58483625Y-58585207D01*
X58397597Y-58527725D01*
X58391443Y-58525176D01*
X58206419Y-58448536D01*
X58206411Y-58448534D01*
X58003468Y-58408166D01*
X58003464Y-58408166D01*
X57796534Y-58408166D01*
X57796529Y-58408166D01*
X57593586Y-58448534D01*
X57593578Y-58448536D01*
X57402402Y-58527724D01*
X57230341Y-58642690D01*
X57084023Y-58789008D01*
X56969057Y-58961069D01*
X56889869Y-59152245D01*
X56889867Y-59152253D01*
X56849499Y-59355196D01*
X56849499Y-59562135D01*
X56889867Y-59765078D01*
X56889869Y-59765086D01*
X56955938Y-59924591D01*
X56969058Y-59956264D01*
X57026540Y-60042292D01*
X57084023Y-60128323D01*
X57230341Y-60274641D01*
X57402404Y-60389609D01*
X57505042Y-60432122D01*
X57567107Y-60457830D01*
X57621510Y-60501671D01*
X57643575Y-60567965D01*
X57626296Y-60635664D01*
X57575159Y-60683275D01*
X57557973Y-60690322D01*
X57381780Y-60747571D01*
X57192438Y-60844046D01*
X57138281Y-60883393D01*
X57138281Y-60883394D01*
X57770590Y-61515703D01*
X57707006Y-61532741D01*
X57592992Y-61598567D01*
X57499900Y-61691659D01*
X57434074Y-61805673D01*
X57417036Y-61869257D01*
X56784727Y-61236948D01*
X56784726Y-61236948D01*
X56745379Y-61291105D01*
X56648903Y-61480448D01*
X56583241Y-61682535D01*
X56583241Y-61682538D01*
X56549999Y-61892419D01*
X50500500Y-61892419D01*
X50500500Y-56048913D01*
X56849499Y-56048913D01*
X56849499Y-57788418D01*
X56861130Y-57846895D01*
X56861131Y-57846896D01*
X56905446Y-57913218D01*
X56971768Y-57957533D01*
X56971769Y-57957534D01*
X57030246Y-57969165D01*
X57030249Y-57969166D01*
X57030251Y-57969166D01*
X58769749Y-57969166D01*
X58769750Y-57969165D01*
X58784567Y-57966218D01*
X58828228Y-57957534D01*
X58828228Y-57957533D01*
X58828230Y-57957533D01*
X58894551Y-57913218D01*
X58938866Y-57846897D01*
X58938866Y-57846895D01*
X58938867Y-57846895D01*
X58950498Y-57788418D01*
X58950499Y-57788416D01*
X58950499Y-56048915D01*
X58950498Y-56048913D01*
X58938867Y-55990436D01*
X58938866Y-55990435D01*
X58894551Y-55924113D01*
X58828229Y-55879798D01*
X58828228Y-55879797D01*
X58769751Y-55868166D01*
X58769747Y-55868166D01*
X57030251Y-55868166D01*
X57030246Y-55868166D01*
X56971769Y-55879797D01*
X56971768Y-55879798D01*
X56905446Y-55924113D01*
X56861131Y-55990435D01*
X56861130Y-55990436D01*
X56849499Y-56048913D01*
X50500500Y-56048913D01*
X50500500Y-55598913D01*
X65699499Y-55598913D01*
X65699499Y-56838418D01*
X65711130Y-56896895D01*
X65711131Y-56896896D01*
X65755446Y-56963218D01*
X65821768Y-57007533D01*
X65821769Y-57007534D01*
X65880246Y-57019165D01*
X65880249Y-57019166D01*
X65880251Y-57019166D01*
X67919749Y-57019166D01*
X67919750Y-57019165D01*
X67934567Y-57016218D01*
X67978228Y-57007534D01*
X67978228Y-57007533D01*
X67978230Y-57007533D01*
X68044551Y-56963218D01*
X68088866Y-56896897D01*
X68088866Y-56896895D01*
X68088867Y-56896895D01*
X68100498Y-56838418D01*
X68100499Y-56838416D01*
X68100499Y-55968665D01*
X90825883Y-55968665D01*
X90825884Y-55968666D01*
X91984313Y-55968666D01*
X91979919Y-55973060D01*
X91927258Y-56064272D01*
X91899999Y-56166005D01*
X91899999Y-56271327D01*
X91927258Y-56373060D01*
X91979919Y-56464272D01*
X91984313Y-56468666D01*
X90825884Y-56468666D01*
X90827084Y-56476250D01*
X90880590Y-56640921D01*
X90959194Y-56795190D01*
X91060966Y-56935268D01*
X91183396Y-57057698D01*
X91323474Y-57159470D01*
X91477741Y-57238074D01*
X91642414Y-57291580D01*
X91813428Y-57318666D01*
X92049999Y-57318666D01*
X92049999Y-56534352D01*
X92054393Y-56538746D01*
X92145605Y-56591407D01*
X92247338Y-56618666D01*
X92352660Y-56618666D01*
X92454393Y-56591407D01*
X92545605Y-56538746D01*
X92549999Y-56534352D01*
X92549999Y-57318666D01*
X92786570Y-57318666D01*
X92957583Y-57291580D01*
X93122256Y-57238074D01*
X93276523Y-57159470D01*
X93416601Y-57057698D01*
X93539031Y-56935268D01*
X93640803Y-56795190D01*
X93719407Y-56640921D01*
X93772913Y-56476250D01*
X93774114Y-56468666D01*
X92615685Y-56468666D01*
X92620079Y-56464272D01*
X92672740Y-56373060D01*
X92699999Y-56271327D01*
X92699999Y-56166005D01*
X92672740Y-56064272D01*
X92620079Y-55973060D01*
X92615685Y-55968666D01*
X93774114Y-55968666D01*
X93774114Y-55968665D01*
X93772913Y-55961081D01*
X93719407Y-55796410D01*
X93640803Y-55642141D01*
X93539031Y-55502063D01*
X93416601Y-55379633D01*
X93276523Y-55277861D01*
X93122256Y-55199257D01*
X92957583Y-55145751D01*
X92786570Y-55118666D01*
X92549999Y-55118666D01*
X92549999Y-55902980D01*
X92545605Y-55898586D01*
X92454393Y-55845925D01*
X92352660Y-55818666D01*
X92247338Y-55818666D01*
X92145605Y-55845925D01*
X92054393Y-55898586D01*
X92049999Y-55902980D01*
X92049999Y-55118666D01*
X91813428Y-55118666D01*
X91642414Y-55145751D01*
X91477741Y-55199257D01*
X91323474Y-55277861D01*
X91183396Y-55379633D01*
X91060966Y-55502063D01*
X90959194Y-55642141D01*
X90880590Y-55796410D01*
X90827084Y-55961081D01*
X90825883Y-55968665D01*
X68100499Y-55968665D01*
X68100499Y-55598915D01*
X68100498Y-55598913D01*
X68088867Y-55540436D01*
X68088866Y-55540435D01*
X68044551Y-55474113D01*
X67978229Y-55429798D01*
X67978228Y-55429797D01*
X67919751Y-55418166D01*
X67919747Y-55418166D01*
X65880251Y-55418166D01*
X65880246Y-55418166D01*
X65821769Y-55429797D01*
X65821768Y-55429798D01*
X65755446Y-55474113D01*
X65711131Y-55540435D01*
X65711130Y-55540436D01*
X65699499Y-55598913D01*
X50500500Y-55598913D01*
X50500500Y-53003750D01*
X50500726Y-52996263D01*
X50518271Y-52706205D01*
X50520076Y-52691340D01*
X50571780Y-52409202D01*
X50575364Y-52394664D01*
X50660699Y-52120812D01*
X50665997Y-52106842D01*
X50783727Y-51845258D01*
X50790680Y-51832012D01*
X50830959Y-51765381D01*
X50939075Y-51586534D01*
X50947567Y-51574230D01*
X51124481Y-51348417D01*
X51134396Y-51337226D01*
X51337226Y-51134396D01*
X51348417Y-51124481D01*
X51574230Y-50947567D01*
X51586534Y-50939075D01*
X51832012Y-50790680D01*
X51845258Y-50783727D01*
X52106842Y-50665997D01*
X52120812Y-50660699D01*
X52394668Y-50575362D01*
X52409198Y-50571780D01*
X52691344Y-50520075D01*
X52706201Y-50518271D01*
X52996264Y-50500726D01*
X53003751Y-50500500D01*
X53065892Y-50500500D01*
X105934108Y-50500500D01*
X105996249Y-50500500D01*
X106003736Y-50500726D01*
G37*
%TD.AperFunction*%
%TD*%
M02*
