%TF.GenerationSoftware,KiCad,Pcbnew,10.0.3*%
%TF.CreationDate,2026-06-07T10:57:43-04:00*%
%TF.ProjectId,openchess-controller,6f70656e-6368-4657-9373-2d636f6e7472,0.1*%
%TF.SameCoordinates,Original*%
%TF.FileFunction,Paste,Top*%
%TF.FilePolarity,Positive*%
%FSLAX46Y46*%
G04 Gerber Fmt 4.6, Leading zero omitted, Abs format (unit mm)*
G04 Created by KiCad (PCBNEW 10.0.3) date 2026-06-07 10:57:43*
%MOMM*%
%LPD*%
G01*
G04 APERTURE LIST*
G04 Aperture macros list*
%AMRoundRect*
0 Rectangle with rounded corners*
0 $1 Rounding radius*
0 $2 $3 $4 $5 $6 $7 $8 $9 X,Y pos of 4 corners*
0 Add a 4 corners polygon primitive as box body*
4,1,4,$2,$3,$4,$5,$6,$7,$8,$9,$2,$3,0*
0 Add four circle primitives for the rounded corners*
1,1,$1+$1,$2,$3*
1,1,$1+$1,$4,$5*
1,1,$1+$1,$6,$7*
1,1,$1+$1,$8,$9*
0 Add four rect primitives between the rounded corners*
20,1,$1+$1,$2,$3,$4,$5,0*
20,1,$1+$1,$4,$5,$6,$7,0*
20,1,$1+$1,$6,$7,$8,$9,0*
20,1,$1+$1,$8,$9,$2,$3,0*%
G04 Aperture macros list end*
%ADD10RoundRect,0.150000X-0.825000X-0.150000X0.825000X-0.150000X0.825000X0.150000X-0.825000X0.150000X0*%
%ADD11RoundRect,0.250000X0.250000X0.475000X-0.250000X0.475000X-0.250000X-0.475000X0.250000X-0.475000X0*%
%ADD12RoundRect,0.250000X0.262500X0.450000X-0.262500X0.450000X-0.262500X-0.450000X0.262500X-0.450000X0*%
%ADD13RoundRect,0.225000X-0.225000X-0.250000X0.225000X-0.250000X0.225000X0.250000X-0.225000X0.250000X0*%
%ADD14RoundRect,0.200000X-0.200000X-0.275000X0.200000X-0.275000X0.200000X0.275000X-0.200000X0.275000X0*%
%ADD15RoundRect,0.250000X0.650000X-1.000000X0.650000X1.000000X-0.650000X1.000000X-0.650000X-1.000000X0*%
%ADD16RoundRect,0.200000X-0.275000X0.200000X-0.275000X-0.200000X0.275000X-0.200000X0.275000X0.200000X0*%
%ADD17RoundRect,0.200000X0.200000X0.275000X-0.200000X0.275000X-0.200000X-0.275000X0.200000X-0.275000X0*%
%ADD18RoundRect,0.250000X-0.475000X0.250000X-0.475000X-0.250000X0.475000X-0.250000X0.475000X0.250000X0*%
%ADD19RoundRect,0.225000X0.225000X0.250000X-0.225000X0.250000X-0.225000X-0.250000X0.225000X-0.250000X0*%
G04 APERTURE END LIST*
D10*
%TO.C,U3*%
X62574999Y-108536166D03*
X62574999Y-109806166D03*
X62574999Y-111076166D03*
X62574999Y-112346166D03*
X62574999Y-113616166D03*
X62574999Y-114886166D03*
X62574999Y-116156166D03*
X57624999Y-116156166D03*
X57624999Y-114886166D03*
X57624999Y-113616166D03*
X57624999Y-112346166D03*
X57624999Y-111076166D03*
X57624999Y-109806166D03*
X57624999Y-108536166D03*
%TD*%
D11*
%TO.C,C1*%
X52399999Y-64538666D03*
X54299999Y-64538666D03*
%TD*%
D12*
%TO.C,R8*%
X95374999Y-58858666D03*
X97199999Y-58858666D03*
%TD*%
D13*
%TO.C,C11*%
X97475000Y-115898666D03*
X95925000Y-115898666D03*
%TD*%
D14*
%TO.C,R14*%
X63699999Y-68918666D03*
X62049999Y-68918666D03*
%TD*%
D12*
%TO.C,R5*%
X95374999Y-74098666D03*
X97199999Y-74098666D03*
%TD*%
D15*
%TO.C,D2*%
X62749999Y-97618666D03*
X62749999Y-101618666D03*
%TD*%
D14*
%TO.C,R36*%
X63699999Y-61298666D03*
X62049999Y-61298666D03*
%TD*%
D12*
%TO.C,R1*%
X95374999Y-86798666D03*
X97199999Y-86798666D03*
%TD*%
%TO.C,R7*%
X95374999Y-61398666D03*
X97199999Y-61398666D03*
%TD*%
%TO.C,R2*%
X95374999Y-84258666D03*
X97199999Y-84258666D03*
%TD*%
D14*
%TO.C,R37*%
X63724999Y-63838666D03*
X62074999Y-63838666D03*
%TD*%
D16*
%TO.C,R11*%
X54849999Y-111193666D03*
X54849999Y-112843666D03*
%TD*%
D11*
%TO.C,C2*%
X52399999Y-68418666D03*
X54299999Y-68418666D03*
%TD*%
D12*
%TO.C,R3*%
X95374999Y-81718666D03*
X97199999Y-81718666D03*
%TD*%
%TO.C,R4*%
X95374999Y-76638666D03*
X97199999Y-76638666D03*
%TD*%
D17*
%TO.C,R15*%
X62049999Y-71518666D03*
X63699999Y-71518666D03*
%TD*%
D18*
%TO.C,C5*%
X65899999Y-110418666D03*
X65899999Y-108518666D03*
%TD*%
D12*
%TO.C,R6*%
X95374999Y-69018666D03*
X97199999Y-69018666D03*
%TD*%
D19*
%TO.C,C12*%
X62099999Y-66418666D03*
X63649999Y-66418666D03*
%TD*%
M02*
