%TF.GenerationSoftware,KiCad,Pcbnew,10.0.3*%
%TF.CreationDate,2026-06-09T17:40:53-04:00*%
%TF.ProjectId,openchess-controller,6f70656e-6368-4657-9373-2d636f6e7472,0.1*%
%TF.SameCoordinates,Original*%
%TF.FileFunction,Soldermask,Top*%
%TF.FilePolarity,Negative*%
%FSLAX46Y46*%
G04 Gerber Fmt 4.6, Leading zero omitted, Abs format (unit mm)*
G04 Created by KiCad (PCBNEW 10.0.3) date 2026-06-09 17:40:53*
%MOMM*%
%LPD*%
G01*
G04 APERTURE LIST*
G04 Aperture macros list*
%AMRoundRect*
0 Rectangle with rounded corners*
0 $1 Rounding radius*
0 $2 $3 $4 $5 $6 $7 $8 $9 X,Y pos of 4 corners*
0 Add a 4 corners polygon primitive as box body*
4,1,4,$2,$3,$4,$5,$6,$7,$8,$9,$2,$3,0*
0 Add four circle primitives for the rounded corners*
1,1,$1+$1,$2,$3*
1,1,$1+$1,$4,$5*
1,1,$1+$1,$6,$7*
1,1,$1+$1,$8,$9*
0 Add four rect primitives between the rounded corners*
20,1,$1+$1,$2,$3,$4,$5,0*
20,1,$1+$1,$4,$5,$6,$7,0*
20,1,$1+$1,$6,$7,$8,$9,0*
20,1,$1+$1,$8,$9,$2,$3,0*%
G04 Aperture macros list end*
%ADD10RoundRect,0.200000X-0.200000X-0.275000X0.200000X-0.275000X0.200000X0.275000X-0.200000X0.275000X0*%
%ADD11R,1.700000X1.700000*%
%ADD12C,1.700000*%
%ADD13RoundRect,0.250000X0.262500X0.450000X-0.262500X0.450000X-0.262500X-0.450000X0.262500X-0.450000X0*%
%ADD14RoundRect,0.250000X0.650000X-1.000000X0.650000X1.000000X-0.650000X1.000000X-0.650000X-1.000000X0*%
%ADD15RoundRect,0.250000X0.250000X0.475000X-0.250000X0.475000X-0.250000X-0.475000X0.250000X-0.475000X0*%
%ADD16RoundRect,0.250000X0.550000X-0.550000X0.550000X0.550000X-0.550000X0.550000X-0.550000X-0.550000X0*%
%ADD17C,1.600000*%
%ADD18R,2.000000X1.200000*%
%ADD19O,2.000000X1.200000*%
%ADD20RoundRect,0.225000X-0.225000X-0.250000X0.225000X-0.250000X0.225000X0.250000X-0.225000X0.250000X0*%
%ADD21RoundRect,0.150000X-0.825000X-0.150000X0.825000X-0.150000X0.825000X0.150000X-0.825000X0.150000X0*%
%ADD22C,2.000000*%
%ADD23RoundRect,0.225000X0.225000X0.250000X-0.225000X0.250000X-0.225000X-0.250000X0.225000X-0.250000X0*%
%ADD24RoundRect,0.250000X-0.475000X0.250000X-0.475000X-0.250000X0.475000X-0.250000X0.475000X0.250000X0*%
%ADD25RoundRect,0.200000X0.200000X0.275000X-0.200000X0.275000X-0.200000X-0.275000X0.200000X-0.275000X0*%
%ADD26RoundRect,0.200000X-0.275000X0.200000X-0.275000X-0.200000X0.275000X-0.200000X0.275000X0.200000X0*%
G04 APERTURE END LIST*
D10*
%TO.C,R14*%
X61262500Y-68918666D03*
X62912500Y-68918666D03*
%TD*%
D11*
%TO.C,M1*%
X57112500Y-56918666D03*
D12*
X57112500Y-59458666D03*
X57112500Y-61998666D03*
X57112500Y-64538666D03*
X57112500Y-67078666D03*
X57112500Y-69618666D03*
X57112500Y-72158666D03*
X57112500Y-74698666D03*
%TD*%
D13*
%TO.C,R1*%
X96412500Y-86798666D03*
X94587500Y-86798666D03*
%TD*%
%TO.C,R7*%
X96412500Y-61398666D03*
X94587500Y-61398666D03*
%TD*%
D14*
%TO.C,D2*%
X61962500Y-101618666D03*
X61962500Y-97618666D03*
%TD*%
D10*
%TO.C,R36*%
X61262500Y-61298666D03*
X62912500Y-61298666D03*
%TD*%
D13*
%TO.C,R5*%
X96412500Y-74098666D03*
X94587500Y-74098666D03*
%TD*%
%TO.C,R2*%
X96412500Y-84258666D03*
X94587500Y-84258666D03*
%TD*%
D15*
%TO.C,C1*%
X53512500Y-64538666D03*
X51612500Y-64538666D03*
%TD*%
D16*
%TO.C,U6*%
X71272500Y-115898666D03*
D17*
X73812500Y-115898666D03*
X76352500Y-115898666D03*
X78892500Y-115898666D03*
X81432500Y-115898666D03*
X83972500Y-115898666D03*
X86512500Y-115898666D03*
X89052500Y-115898666D03*
X91592500Y-115898666D03*
X91592500Y-108278666D03*
X89052500Y-108278666D03*
X86512500Y-108278666D03*
X83972500Y-108278666D03*
X81432500Y-108278666D03*
X78892500Y-108278666D03*
X76352500Y-108278666D03*
X73812500Y-108278666D03*
X71272500Y-108278666D03*
%TD*%
D18*
%TO.C,U2*%
X66112500Y-56218666D03*
D19*
X66112500Y-58758666D03*
X66112500Y-61298666D03*
X66112500Y-63838666D03*
X66112500Y-66378666D03*
X66112500Y-68918666D03*
X66112500Y-71458666D03*
X66112500Y-73998666D03*
X66112500Y-76538666D03*
X66112500Y-79078666D03*
X66112500Y-81618666D03*
X66112500Y-84158666D03*
X66112500Y-86698666D03*
X66112500Y-89238666D03*
X66112500Y-91778666D03*
X66112500Y-94318666D03*
X66112500Y-96858666D03*
X66112500Y-99398666D03*
X66112500Y-101938666D03*
X91508820Y-101935946D03*
X91508820Y-99395946D03*
X91512500Y-96858666D03*
X91512500Y-94318666D03*
X91512500Y-91778666D03*
X91512500Y-89238666D03*
X91512500Y-86698666D03*
X91512500Y-84158666D03*
X91512500Y-81618666D03*
X91512500Y-79078666D03*
X91512500Y-76538666D03*
X91512500Y-73998666D03*
X91512500Y-71458666D03*
X91512500Y-68918666D03*
X91512500Y-66378666D03*
X91512500Y-63838666D03*
X91512500Y-61298666D03*
X91512500Y-58758666D03*
X91512500Y-56218666D03*
%TD*%
D11*
%TO.C,J3*%
X103612500Y-56918666D03*
D12*
X103612500Y-59458666D03*
X103612500Y-61998666D03*
X103612500Y-64538666D03*
X103612500Y-67078666D03*
X103612500Y-69618666D03*
X103612500Y-72158666D03*
X103612500Y-74698666D03*
X103612500Y-77238666D03*
X103612500Y-79778666D03*
%TD*%
D20*
%TO.C,C11*%
X95137501Y-115898666D03*
X96687501Y-115898666D03*
%TD*%
D21*
%TO.C,U3*%
X56837500Y-108536166D03*
X56837500Y-109806166D03*
X56837500Y-111076166D03*
X56837500Y-112346166D03*
X56837500Y-113616166D03*
X56837500Y-114886166D03*
X56837500Y-116156166D03*
X61787500Y-116156166D03*
X61787500Y-114886166D03*
X61787500Y-113616166D03*
X61787500Y-112346166D03*
X61787500Y-111076166D03*
X61787500Y-109806166D03*
X61787500Y-108536166D03*
%TD*%
D13*
%TO.C,R8*%
X96412500Y-58858666D03*
X94587500Y-58858666D03*
%TD*%
%TO.C,R3*%
X96412500Y-81718666D03*
X94587500Y-81718666D03*
%TD*%
%TO.C,R4*%
X96412500Y-76638666D03*
X94587500Y-76638666D03*
%TD*%
D22*
%TO.C,FID2*%
X99062501Y-53150000D03*
%TD*%
%TO.C,FID1*%
X60312501Y-53150000D03*
%TD*%
D13*
%TO.C,R6*%
X96412500Y-69018666D03*
X94587500Y-69018666D03*
%TD*%
D23*
%TO.C,C12*%
X62862500Y-66418666D03*
X61312500Y-66418666D03*
%TD*%
D24*
%TO.C,C5*%
X65112500Y-108518666D03*
X65112500Y-110418666D03*
%TD*%
D22*
%TO.C,FID3*%
X95964200Y-111122817D03*
%TD*%
D25*
%TO.C,R15*%
X62912500Y-71518666D03*
X61262500Y-71518666D03*
%TD*%
D10*
%TO.C,R37*%
X61287500Y-63838666D03*
X62937500Y-63838666D03*
%TD*%
D26*
%TO.C,R11*%
X54062500Y-111193666D03*
X54062500Y-112843666D03*
%TD*%
D15*
%TO.C,C2*%
X53512500Y-68418666D03*
X51612500Y-68418666D03*
%TD*%
D11*
%TO.C,J1*%
X103612500Y-85418666D03*
D12*
X101072500Y-85418666D03*
X103612500Y-87958666D03*
X101072500Y-87958666D03*
X103612500Y-90498666D03*
X101072500Y-90498666D03*
X103612500Y-93038666D03*
X101072500Y-93038666D03*
X103612500Y-95578666D03*
X101072500Y-95578666D03*
X103612500Y-98118666D03*
X101072500Y-98118666D03*
X103612500Y-100658666D03*
X101072500Y-100658666D03*
X103612500Y-103198666D03*
X101072500Y-103198666D03*
X103612500Y-105738666D03*
X101072500Y-105738666D03*
X103612500Y-108278666D03*
X101072500Y-108278666D03*
X103612500Y-110818666D03*
X101072500Y-110818666D03*
X103612500Y-113358666D03*
X101072500Y-113358666D03*
X103612500Y-115898666D03*
X101072500Y-115898666D03*
%TD*%
M02*
