%TF.GenerationSoftware,KiCad,Pcbnew,10.0.3*%
%TF.CreationDate,2026-06-09T17:40:53-04:00*%
%TF.ProjectId,openchess-controller,6f70656e-6368-4657-9373-2d636f6e7472,0.1*%
%TF.SameCoordinates,Original*%
%TF.FileFunction,Legend,Bot*%
%TF.FilePolarity,Positive*%
%FSLAX46Y46*%
G04 Gerber Fmt 4.6, Leading zero omitted, Abs format (unit mm)*
G04 Created by KiCad (PCBNEW 10.0.3) date 2026-06-09 17:40:53*
%MOMM*%
%LPD*%
G01*
G04 APERTURE LIST*
G04 Aperture macros list*
%AMRoundRect*
0 Rectangle with rounded corners*
0 $1 Rounding radius*
0 $2 $3 $4 $5 $6 $7 $8 $9 X,Y pos of 4 corners*
0 Add a 4 corners polygon primitive as box body*
4,1,4,$2,$3,$4,$5,$6,$7,$8,$9,$2,$3,0*
0 Add four circle primitives for the rounded corners*
1,1,$1+$1,$2,$3*
1,1,$1+$1,$4,$5*
1,1,$1+$1,$6,$7*
1,1,$1+$1,$8,$9*
0 Add four rect primitives between the rounded corners*
20,1,$1+$1,$2,$3,$4,$5,0*
20,1,$1+$1,$4,$5,$6,$7,0*
20,1,$1+$1,$6,$7,$8,$9,0*
20,1,$1+$1,$8,$9,$2,$3,0*%
G04 Aperture macros list end*
%ADD10C,0.150000*%
%ADD11C,0.120000*%
%ADD12R,1.700000X1.700000*%
%ADD13C,1.700000*%
%ADD14RoundRect,0.250000X0.550000X-0.550000X0.550000X0.550000X-0.550000X0.550000X-0.550000X-0.550000X0*%
%ADD15C,1.600000*%
%ADD16R,2.000000X1.200000*%
%ADD17O,2.000000X1.200000*%
G04 APERTURE END LIST*
D10*
X102675833Y-82493485D02*
X102675833Y-83207770D01*
X102675833Y-83207770D02*
X102723452Y-83350627D01*
X102723452Y-83350627D02*
X102818690Y-83445866D01*
X102818690Y-83445866D02*
X102961547Y-83493485D01*
X102961547Y-83493485D02*
X103056785Y-83493485D01*
X101675833Y-83493485D02*
X102247261Y-83493485D01*
X101961547Y-83493485D02*
X101961547Y-82493485D01*
X101961547Y-82493485D02*
X102056785Y-82636342D01*
X102056785Y-82636342D02*
X102152023Y-82731580D01*
X102152023Y-82731580D02*
X102247261Y-82779199D01*
%TO.C,J1*%
D11*
X99692500Y-84038666D02*
X99692500Y-117278666D01*
X102342500Y-84038666D02*
X99692500Y-84038666D01*
X102342500Y-86688666D02*
X102342500Y-84038666D01*
X104992500Y-84038666D02*
X103612500Y-84038666D01*
X104992500Y-85418666D02*
X104992500Y-84038666D01*
X104992500Y-86688666D02*
X102342500Y-86688666D01*
X104992500Y-86688666D02*
X104992500Y-117278666D01*
X104992500Y-117278666D02*
X99692500Y-117278666D01*
%TD*%
%LPC*%
D12*
%TO.C,M1*%
X57112500Y-56918666D03*
D13*
X57112500Y-59458666D03*
X57112500Y-61998666D03*
X57112500Y-64538666D03*
X57112500Y-67078666D03*
X57112500Y-69618666D03*
X57112500Y-72158666D03*
X57112500Y-74698666D03*
%TD*%
D14*
%TO.C,U6*%
X71272500Y-115898666D03*
D15*
X73812500Y-115898666D03*
X76352500Y-115898666D03*
X78892500Y-115898666D03*
X81432500Y-115898666D03*
X83972500Y-115898666D03*
X86512500Y-115898666D03*
X89052500Y-115898666D03*
X91592500Y-115898666D03*
X91592500Y-108278666D03*
X89052500Y-108278666D03*
X86512500Y-108278666D03*
X83972500Y-108278666D03*
X81432500Y-108278666D03*
X78892500Y-108278666D03*
X76352500Y-108278666D03*
X73812500Y-108278666D03*
X71272500Y-108278666D03*
%TD*%
D16*
%TO.C,U2*%
X66112500Y-56218666D03*
D17*
X66112500Y-58758666D03*
X66112500Y-61298666D03*
X66112500Y-63838666D03*
X66112500Y-66378666D03*
X66112500Y-68918666D03*
X66112500Y-71458666D03*
X66112500Y-73998666D03*
X66112500Y-76538666D03*
X66112500Y-79078666D03*
X66112500Y-81618666D03*
X66112500Y-84158666D03*
X66112500Y-86698666D03*
X66112500Y-89238666D03*
X66112500Y-91778666D03*
X66112500Y-94318666D03*
X66112500Y-96858666D03*
X66112500Y-99398666D03*
X66112500Y-101938666D03*
X91508820Y-101935946D03*
X91508820Y-99395946D03*
X91512500Y-96858666D03*
X91512500Y-94318666D03*
X91512500Y-91778666D03*
X91512500Y-89238666D03*
X91512500Y-86698666D03*
X91512500Y-84158666D03*
X91512500Y-81618666D03*
X91512500Y-79078666D03*
X91512500Y-76538666D03*
X91512500Y-73998666D03*
X91512500Y-71458666D03*
X91512500Y-68918666D03*
X91512500Y-66378666D03*
X91512500Y-63838666D03*
X91512500Y-61298666D03*
X91512500Y-58758666D03*
X91512500Y-56218666D03*
%TD*%
D12*
%TO.C,J3*%
X103612500Y-56918666D03*
D13*
X103612500Y-59458666D03*
X103612500Y-61998666D03*
X103612500Y-64538666D03*
X103612500Y-67078666D03*
X103612500Y-69618666D03*
X103612500Y-72158666D03*
X103612500Y-74698666D03*
X103612500Y-77238666D03*
X103612500Y-79778666D03*
%TD*%
D12*
%TO.C,J1*%
X103612500Y-85418666D03*
D13*
X101072500Y-85418666D03*
X103612500Y-87958666D03*
X101072500Y-87958666D03*
X103612500Y-90498666D03*
X101072500Y-90498666D03*
X103612500Y-93038666D03*
X101072500Y-93038666D03*
X103612500Y-95578666D03*
X101072500Y-95578666D03*
X103612500Y-98118666D03*
X101072500Y-98118666D03*
X103612500Y-100658666D03*
X101072500Y-100658666D03*
X103612500Y-103198666D03*
X101072500Y-103198666D03*
X103612500Y-105738666D03*
X101072500Y-105738666D03*
X103612500Y-108278666D03*
X101072500Y-108278666D03*
X103612500Y-110818666D03*
X101072500Y-110818666D03*
X103612500Y-113358666D03*
X101072500Y-113358666D03*
X103612500Y-115898666D03*
X101072500Y-115898666D03*
%TD*%
%LPD*%
M02*
