%TF.GenerationSoftware,KiCad,Pcbnew,10.0.3*%
%TF.CreationDate,2026-06-09T17:40:53-04:00*%
%TF.ProjectId,openchess-controller,6f70656e-6368-4657-9373-2d636f6e7472,0.1*%
%TF.SameCoordinates,Original*%
%TF.FileFunction,Copper,L2,Bot*%
%TF.FilePolarity,Positive*%
%FSLAX46Y46*%
G04 Gerber Fmt 4.6, Leading zero omitted, Abs format (unit mm)*
G04 Created by KiCad (PCBNEW 10.0.3) date 2026-06-09 17:40:53*
%MOMM*%
%LPD*%
G01*
G04 APERTURE LIST*
G04 Aperture macros list*
%AMRoundRect*
0 Rectangle with rounded corners*
0 $1 Rounding radius*
0 $2 $3 $4 $5 $6 $7 $8 $9 X,Y pos of 4 corners*
0 Add a 4 corners polygon primitive as box body*
4,1,4,$2,$3,$4,$5,$6,$7,$8,$9,$2,$3,0*
0 Add four circle primitives for the rounded corners*
1,1,$1+$1,$2,$3*
1,1,$1+$1,$4,$5*
1,1,$1+$1,$6,$7*
1,1,$1+$1,$8,$9*
0 Add four rect primitives between the rounded corners*
20,1,$1+$1,$2,$3,$4,$5,0*
20,1,$1+$1,$4,$5,$6,$7,0*
20,1,$1+$1,$6,$7,$8,$9,0*
20,1,$1+$1,$8,$9,$2,$3,0*%
G04 Aperture macros list end*
%TA.AperFunction,ComponentPad*%
%ADD10R,1.700000X1.700000*%
%TD*%
%TA.AperFunction,ComponentPad*%
%ADD11C,1.700000*%
%TD*%
%TA.AperFunction,ComponentPad*%
%ADD12RoundRect,0.250000X0.550000X-0.550000X0.550000X0.550000X-0.550000X0.550000X-0.550000X-0.550000X0*%
%TD*%
%TA.AperFunction,ComponentPad*%
%ADD13C,1.600000*%
%TD*%
%TA.AperFunction,ComponentPad*%
%ADD14R,2.000000X1.200000*%
%TD*%
%TA.AperFunction,ComponentPad*%
%ADD15O,2.000000X1.200000*%
%TD*%
%TA.AperFunction,ViaPad*%
%ADD16C,0.600000*%
%TD*%
%TA.AperFunction,Conductor*%
%ADD17C,0.750000*%
%TD*%
%TA.AperFunction,Conductor*%
%ADD18C,0.200000*%
%TD*%
G04 APERTURE END LIST*
D10*
%TO.P,M1,1,Pin_1_1*%
%TO.N,+3.3V*%
X57112500Y-56918666D03*
D11*
%TO.P,M1,2,Pin_2_2*%
%TO.N,unconnected-(M1-Pin_2-Pad2)*%
X57112500Y-59458666D03*
%TO.P,M1,3,Pin_3_3*%
%TO.N,GND*%
X57112500Y-61998666D03*
%TO.P,M1,4,Pin_4_4*%
%TO.N,+5V_LED*%
X57112500Y-64538666D03*
%TO.P,M1,5,Pin_5_5*%
%TO.N,GND*%
X57112500Y-67078666D03*
%TO.P,M1,6,Pin_6_6*%
%TO.N,/BAT*%
X57112500Y-69618666D03*
%TO.P,M1,7,Pin_7_7*%
%TO.N,GND*%
X57112500Y-72158666D03*
%TO.P,M1,8,Pin_8_8*%
%TO.N,unconnected-(M1-Pin_8-Pad8)*%
X57112500Y-74698666D03*
%TD*%
D12*
%TO.P,U6,1,I1_1*%
%TO.N,/COL_DRV_A*%
X71272500Y-115898666D03*
D13*
%TO.P,U6,2,I2_2*%
%TO.N,/COL_DRV_B*%
X73812500Y-115898666D03*
%TO.P,U6,3,I3_3*%
%TO.N,/COL_DRV_C*%
X76352500Y-115898666D03*
%TO.P,U6,4,I4_4*%
%TO.N,/COL_DRV_D*%
X78892500Y-115898666D03*
%TO.P,U6,5,I5_5*%
%TO.N,/COL_DRV_E*%
X81432500Y-115898666D03*
%TO.P,U6,6,I6_6*%
%TO.N,/COL_DRV_F*%
X83972500Y-115898666D03*
%TO.P,U6,7,I7_7*%
%TO.N,/COL_DRV_G*%
X86512500Y-115898666D03*
%TO.P,U6,8,I8_8*%
%TO.N,/COL_DRV_H*%
X89052500Y-115898666D03*
%TO.P,U6,9,VCC_9*%
%TO.N,+5V_LED*%
X91592500Y-115898666D03*
%TO.P,U6,10,GND_10*%
%TO.N,GND*%
X91592500Y-108278666D03*
%TO.P,U6,11,O8_11*%
%TO.N,/CH_PWR*%
X89052500Y-108278666D03*
%TO.P,U6,12,O7_12*%
%TO.N,/CG_PWR*%
X86512500Y-108278666D03*
%TO.P,U6,13,O6_13*%
%TO.N,/CF_PWR*%
X83972500Y-108278666D03*
%TO.P,U6,14,O5_14*%
%TO.N,/CE_PWR*%
X81432500Y-108278666D03*
%TO.P,U6,15,O4_15*%
%TO.N,/CD_PWR*%
X78892500Y-108278666D03*
%TO.P,U6,16,O3_16*%
%TO.N,/CC_PWR*%
X76352500Y-108278666D03*
%TO.P,U6,17,O2_17*%
%TO.N,/CB_PWR*%
X73812500Y-108278666D03*
%TO.P,U6,18,O1_18*%
%TO.N,/CA_PWR*%
X71272500Y-108278666D03*
%TD*%
D14*
%TO.P,U2,1,3V3_1*%
%TO.N,unconnected-(U2-3V3-Pad1)*%
X66112500Y-56218666D03*
D15*
%TO.P,U2,2,CHIP_PU_2*%
%TO.N,unconnected-(U2-CHIP_PU-Pad2)*%
X66112500Y-58758666D03*
%TO.P,U2,3,SENSOR_VP/GPIO36/ADC1_CH0_3*%
%TO.N,/BTN_POWER*%
X66112500Y-61298666D03*
%TO.P,U2,4,SENSOR_VN/GPIO39/ADC1_CH3_4*%
%TO.N,/BTN_MODE*%
X66112500Y-63838666D03*
%TO.P,U2,5,VDET_1/GPIO34/ADC1_CH6_5*%
%TO.N,/VBAT_MON*%
X66112500Y-66378666D03*
%TO.P,U2,6,VDET_2/GPIO35/ADC1_CH7_6*%
%TO.N,/PANEL_SPARE*%
X66112500Y-68918666D03*
%TO.P,U2,7,32K_XP/GPIO32/ADC1_CH4_7*%
%TO.N,/LED_DATA*%
X66112500Y-71458666D03*
%TO.P,U2,8,32K_XN/GPIO33/ADC1_CH5_8*%
%TO.N,/COL_DRV_F*%
X66112500Y-73998666D03*
%TO.P,U2,9,DAC_1/ADC2_CH8/GPIO25_9*%
%TO.N,/COL_DRV_E*%
X66112500Y-76538666D03*
%TO.P,U2,10,DAC_2/ADC2_CH9/GPIO26_10*%
%TO.N,/COL_DRV_D*%
X66112500Y-79078666D03*
%TO.P,U2,11,ADC2_CH7/GPIO27_11*%
%TO.N,/COL_DRV_C*%
X66112500Y-81618666D03*
%TO.P,U2,12,MTMS/GPIO14/ADC2_CH6_12*%
%TO.N,/COL_DRV_B*%
X66112500Y-84158666D03*
%TO.P,U2,13,MTDI/GPIO12/ADC2_CH5_13*%
%TO.N,unconnected-(U2-MTDI{slash}GPIO12{slash}ADC2_CH5-Pad13)*%
X66112500Y-86698666D03*
%TO.P,U2,14,GND_14*%
%TO.N,GND*%
X66112500Y-89238666D03*
%TO.P,U2,15,MTCK/GPIO13/ADC2_CH4_15*%
%TO.N,/COL_DRV_A*%
X66112500Y-91778666D03*
%TO.P,U2,16,SD_DATA2/GPIO9_16*%
%TO.N,unconnected-(U2-SD_DATA2{slash}GPIO9-Pad16)*%
X66112500Y-94318666D03*
%TO.P,U2,17,SD_DATA3/GPIO10_17*%
%TO.N,unconnected-(U2-SD_DATA3{slash}GPIO10-Pad17)*%
X66112500Y-96858666D03*
%TO.P,U2,18,CMD_18*%
%TO.N,unconnected-(U2-CMD-Pad18)*%
X66112500Y-99398666D03*
%TO.P,U2,19,5V_19*%
%TO.N,Net-(D2-K)*%
X66112500Y-101938666D03*
%TO.P,U2,20,SD_CLK/GPIO6_20*%
%TO.N,unconnected-(U2-SD_CLK{slash}GPIO6-Pad20)*%
X91508820Y-101935946D03*
%TO.P,U2,21,SD_DATA0/GPIO7_21*%
%TO.N,unconnected-(U2-SD_DATA0{slash}GPIO7-Pad21)*%
X91508820Y-99395946D03*
%TO.P,U2,22,SD_DATA1/GPIO8_22*%
%TO.N,unconnected-(U2-SD_DATA1{slash}GPIO8-Pad22)*%
X91512500Y-96858666D03*
%TO.P,U2,23,MTDO/GPIO15/ADC2_CH3_23*%
%TO.N,/COL_DRV_H*%
X91512500Y-94318666D03*
%TO.P,U2,24,ADC2_CH2/GPIO2_24*%
%TO.N,/BTN_SELECT*%
X91512500Y-91778666D03*
%TO.P,U2,25,GPIO0/BOOT/ADC2_CH1_25*%
%TO.N,unconnected-(U2-GPIO0{slash}BOOT{slash}ADC2_CH1-Pad25)*%
X91512500Y-89238666D03*
%TO.P,U2,26,ADC2_CH0/GPIO4_26*%
%TO.N,/S0*%
X91512500Y-86698666D03*
%TO.P,U2,27,GPIO16_27*%
%TO.N,/S1*%
X91512500Y-84158666D03*
%TO.P,U2,28,GPIO17_28*%
%TO.N,/S2*%
X91512500Y-81618666D03*
%TO.P,U2,29,GPIO5_29*%
%TO.N,/COL_DRV_G*%
X91512500Y-79078666D03*
%TO.P,U2,30,GPIO18_30*%
%TO.N,/S3*%
X91512500Y-76538666D03*
%TO.P,U2,31,GPIO19_31*%
%TO.N,/S4*%
X91512500Y-73998666D03*
%TO.P,U2,32,GND_32*%
%TO.N,GND*%
X91512500Y-71458666D03*
%TO.P,U2,33,GPIO21_33*%
%TO.N,/S5*%
X91512500Y-68918666D03*
%TO.P,U2,34,U0RXD/GPIO3_34*%
%TO.N,/I2C_SCL*%
X91512500Y-66378666D03*
%TO.P,U2,35,U0TXD/GPIO1_35*%
%TO.N,/I2C_SDA*%
X91512500Y-63838666D03*
%TO.P,U2,36,GPIO22_36*%
%TO.N,/S6*%
X91512500Y-61298666D03*
%TO.P,U2,37,GPIO23_37*%
%TO.N,/S7*%
X91512500Y-58758666D03*
%TO.P,U2,38,GND_38*%
%TO.N,GND*%
X91512500Y-56218666D03*
%TD*%
D10*
%TO.P,J3,1,Pin_1_1*%
%TO.N,+3.3V*%
X103612500Y-56918666D03*
D11*
%TO.P,J3,2,Pin_2_2*%
%TO.N,GND*%
X103612500Y-59458666D03*
%TO.P,J3,3,Pin_3_3*%
%TO.N,/I2C_SDA*%
X103612500Y-61998666D03*
%TO.P,J3,4,Pin_4_4*%
%TO.N,/I2C_SCL*%
X103612500Y-64538666D03*
%TO.P,J3,5,Pin_5_5*%
%TO.N,/BTN_SELECT*%
X103612500Y-67078666D03*
%TO.P,J3,6,Pin_6_6*%
%TO.N,/BTN_POWER*%
X103612500Y-69618666D03*
%TO.P,J3,7,Pin_7_7*%
%TO.N,/BTN_MODE*%
X103612500Y-72158666D03*
%TO.P,J3,8,Pin_8_8*%
%TO.N,/PANEL_SPARE*%
X103612500Y-74698666D03*
%TO.P,J3,9,Pin_9_9*%
%TO.N,/PANEL_SPARE2*%
X103612500Y-77238666D03*
%TO.P,J3,10,Pin_10_10*%
%TO.N,GND*%
X103612500Y-79778666D03*
%TD*%
D10*
%TO.P,J1,1,Pin_1_1*%
%TO.N,+5V_LED*%
X103612500Y-85418666D03*
D11*
%TO.P,J1,2,Pin_2_2*%
%TO.N,GND*%
X101072500Y-85418666D03*
%TO.P,J1,3,Pin_3_3*%
%TO.N,+5V_LED*%
X103612500Y-87958666D03*
%TO.P,J1,4,Pin_4_4*%
%TO.N,GND*%
X101072500Y-87958666D03*
%TO.P,J1,5,Pin_5_5*%
%TO.N,+5V_LED*%
X103612500Y-90498666D03*
%TO.P,J1,6,Pin_6_6*%
%TO.N,GND*%
X101072500Y-90498666D03*
%TO.P,J1,7,Pin_7_7*%
%TO.N,/LED_DATA_5V*%
X103612500Y-93038666D03*
%TO.P,J1,8,Pin_8_8*%
%TO.N,GND*%
X101072500Y-93038666D03*
%TO.P,J1,9,Pin_9_9*%
%TO.N,/S0*%
X103612500Y-95578666D03*
%TO.P,J1,10,Pin_10_10*%
%TO.N,/S1*%
X101072500Y-95578666D03*
%TO.P,J1,11,Pin_11_11*%
%TO.N,/S2*%
X103612500Y-98118666D03*
%TO.P,J1,12,Pin_12_12*%
%TO.N,/S3*%
X101072500Y-98118666D03*
%TO.P,J1,13,Pin_13_13*%
%TO.N,/S4*%
X103612500Y-100658666D03*
%TO.P,J1,14,Pin_14_14*%
%TO.N,/S5*%
X101072500Y-100658666D03*
%TO.P,J1,15,Pin_15_15*%
%TO.N,/S6*%
X103612500Y-103198666D03*
%TO.P,J1,16,Pin_16_16*%
%TO.N,/S7*%
X101072500Y-103198666D03*
%TO.P,J1,17,Pin_17_17*%
%TO.N,/CA_PWR*%
X103612500Y-105738666D03*
%TO.P,J1,18,Pin_18_18*%
%TO.N,/CB_PWR*%
X101072500Y-105738666D03*
%TO.P,J1,19,Pin_19_19*%
%TO.N,/CC_PWR*%
X103612500Y-108278666D03*
%TO.P,J1,20,Pin_20_20*%
%TO.N,/CD_PWR*%
X101072500Y-108278666D03*
%TO.P,J1,21,Pin_21_21*%
%TO.N,/CE_PWR*%
X103612500Y-110818666D03*
%TO.P,J1,22,Pin_22_22*%
%TO.N,/CF_PWR*%
X101072500Y-110818666D03*
%TO.P,J1,23,Pin_23_23*%
%TO.N,/CG_PWR*%
X103612500Y-113358666D03*
%TO.P,J1,24,Pin_24_24*%
%TO.N,/CH_PWR*%
X101072500Y-113358666D03*
%TO.P,J1,25,Pin_25_25*%
%TO.N,+5V_LED*%
X103612500Y-115898666D03*
%TO.P,J1,26,Pin_26_26*%
%TO.N,GND*%
X101072500Y-115898666D03*
%TD*%
D16*
%TO.N,GND*%
X94112501Y-71468666D03*
X93812501Y-108268666D03*
%TO.N,/S6*%
X106212501Y-90268666D03*
X98835000Y-61480666D03*
%TO.N,/S4*%
X98835000Y-75093666D03*
%TO.N,/LED_DATA*%
X63612500Y-93968666D03*
X60662500Y-93968666D03*
%TO.N,/S3*%
X98835000Y-80337066D03*
%TO.N,/LED_DATA_5V*%
X55212501Y-112018666D03*
%TD*%
%TO.N,GND*%
D17*
X93802501Y-108278666D02*
X93812501Y-108268666D01*
X91512500Y-71458666D02*
X94102501Y-71458666D01*
X91592500Y-108278666D02*
X93802501Y-108278666D01*
X94102501Y-71458666D02*
X94112501Y-71468666D01*
%TO.N,/S0*%
D18*
X102342500Y-94308666D02*
X103612500Y-95578666D01*
X99512000Y-91768666D02*
X101457900Y-91768666D01*
X101457900Y-91768666D02*
X102342500Y-92653266D01*
X91512500Y-86698666D02*
X94442000Y-86698666D01*
X102342500Y-92653266D02*
X102342500Y-94308666D01*
X94442000Y-86698666D02*
X99512000Y-91768666D01*
%TO.N,/S6*%
X92996200Y-61480666D02*
X92814200Y-61298666D01*
X98835000Y-61480666D02*
X92996200Y-61480666D01*
X106212501Y-100598665D02*
X103612500Y-103198666D01*
X106212501Y-90268666D02*
X106212501Y-100598665D01*
X91512500Y-61298666D02*
X92814200Y-61298666D01*
%TO.N,/BTN_POWER*%
X67414200Y-61298666D02*
X73719300Y-67603766D01*
X66112500Y-61298666D02*
X67414200Y-61298666D01*
X101597600Y-67603766D02*
X103612500Y-69618666D01*
X73719300Y-67603766D02*
X101597600Y-67603766D01*
%TO.N,/S4*%
X91512500Y-73998666D02*
X97740000Y-73998666D01*
X97740000Y-73998666D02*
X98835000Y-75093666D01*
%TO.N,/S1*%
X91512500Y-84158666D02*
X90210800Y-84158666D01*
X91079400Y-87968666D02*
X90210800Y-87100066D01*
X90210800Y-87100066D02*
X90210800Y-84158666D01*
X101072500Y-95578666D02*
X93462500Y-87968666D01*
X93462500Y-87968666D02*
X91079400Y-87968666D01*
%TO.N,/CH_PWR*%
X101072500Y-113358666D02*
X94132500Y-113358666D01*
X94132500Y-113358666D02*
X89052500Y-108278666D01*
%TO.N,/CG_PWR*%
X92783100Y-114549266D02*
X86512500Y-108278666D01*
X102421900Y-114549266D02*
X92783100Y-114549266D01*
X103612500Y-113358666D02*
X102421900Y-114549266D01*
%TO.N,/CF_PWR*%
X85112100Y-107139066D02*
X97392900Y-107139066D01*
X97392900Y-107139066D02*
X101072500Y-110818666D01*
X83972500Y-108278666D02*
X85112100Y-107139066D01*
%TO.N,/CE_PWR*%
X97720600Y-106618666D02*
X100532300Y-109430366D01*
X100532300Y-109430366D02*
X102224200Y-109430366D01*
X81432500Y-108278666D02*
X83092500Y-106618666D01*
X83092500Y-106618666D02*
X97720600Y-106618666D01*
X102224200Y-109430366D02*
X103612500Y-110818666D01*
%TO.N,/CD_PWR*%
X98862500Y-106068666D02*
X101072500Y-108278666D01*
X78892500Y-108278666D02*
X81102500Y-106068666D01*
X81102500Y-106068666D02*
X98862500Y-106068666D01*
%TO.N,/CC_PWR*%
X100424000Y-106890366D02*
X102224200Y-106890366D01*
X102224200Y-106890366D02*
X103612500Y-108278666D01*
X76352500Y-108278666D02*
X79112500Y-105518666D01*
X99052300Y-105518666D02*
X100424000Y-106890366D01*
X79112500Y-105518666D02*
X99052300Y-105518666D01*
%TO.N,/CB_PWR*%
X100252500Y-104918666D02*
X77172500Y-104918666D01*
X101072500Y-105738666D02*
X100252500Y-104918666D01*
X77172500Y-104918666D02*
X73812500Y-108278666D01*
%TO.N,/CA_PWR*%
X102292500Y-104418666D02*
X103612500Y-105738666D01*
X71272500Y-108278666D02*
X75132500Y-104418666D01*
X75132500Y-104418666D02*
X102292500Y-104418666D01*
%TO.N,/BTN_MODE*%
X101642500Y-70188666D02*
X103612500Y-72158666D01*
X73764200Y-70188666D02*
X101642500Y-70188666D01*
X67414200Y-63838666D02*
X73764200Y-70188666D01*
X66112500Y-63838666D02*
X67414200Y-63838666D01*
%TO.N,/PANEL_SPARE*%
X101642500Y-72728666D02*
X73672501Y-72728666D01*
X103612500Y-74698666D02*
X101642500Y-72728666D01*
X69862501Y-68918666D02*
X66112500Y-68918666D01*
X73672501Y-72728666D02*
X69862501Y-68918666D01*
%TO.N,/LED_DATA*%
X60662500Y-93968666D02*
X63612500Y-93968666D01*
%TO.N,/BTN_SELECT*%
X98467800Y-80951466D02*
X98233200Y-80716866D01*
X104832400Y-68298566D02*
X104832400Y-75186466D01*
X102362501Y-75968666D02*
X99464700Y-78866467D01*
X90210800Y-91778666D02*
X91512500Y-91778666D01*
X90509100Y-80716866D02*
X88762501Y-82463465D01*
X104832400Y-75186466D02*
X104050200Y-75968666D01*
X98233200Y-80716866D02*
X90509100Y-80716866D01*
X103612500Y-67078666D02*
X104832400Y-68298566D01*
X88762501Y-90330367D02*
X90210800Y-91778666D01*
X88762501Y-82463465D02*
X88762501Y-90330367D01*
X99464700Y-80565166D02*
X99078400Y-80951466D01*
X104050200Y-75968666D02*
X102362501Y-75968666D01*
X99078400Y-80951466D02*
X98467800Y-80951466D01*
X99464700Y-78866467D02*
X99464700Y-80565166D01*
%TO.N,/S2*%
X102224200Y-96730366D02*
X99324300Y-96730366D01*
X103612500Y-98118666D02*
X102224200Y-96730366D01*
X93102600Y-90508666D02*
X91075700Y-90508666D01*
X89781000Y-82048466D02*
X90210800Y-81618666D01*
X89781000Y-89213966D02*
X89781000Y-82048466D01*
X99324300Y-96730366D02*
X93102600Y-90508666D01*
X91075700Y-90508666D02*
X89781000Y-89213966D01*
X91512500Y-81618666D02*
X90210800Y-81618666D01*
%TO.N,/S3*%
X91512500Y-76538666D02*
X95036600Y-76538666D01*
X95036600Y-76538666D02*
X98835000Y-80337066D01*
%TO.N,/I2C_SCL*%
X94654200Y-64538666D02*
X92814200Y-66378666D01*
X91512500Y-66378666D02*
X92814200Y-66378666D01*
X103612500Y-64538666D02*
X94654200Y-64538666D01*
%TO.N,/I2C_SDA*%
X90788200Y-60347766D02*
X90210800Y-60925166D01*
X101961600Y-60347766D02*
X90788200Y-60347766D01*
X90210800Y-60925166D02*
X90210800Y-61672166D01*
X91512500Y-63838666D02*
X92814200Y-63838666D01*
X92814200Y-63428866D02*
X92814200Y-63838666D01*
X90739200Y-62200566D02*
X91585900Y-62200566D01*
X103612500Y-61998666D02*
X101961600Y-60347766D01*
X91585900Y-62200566D02*
X92814200Y-63428866D01*
X90210800Y-61672166D02*
X90739200Y-62200566D01*
%TO.N,/LED_DATA_5V*%
X104818200Y-94244366D02*
X103612500Y-93038666D01*
X74008600Y-103868666D02*
X95362501Y-103868666D01*
X65858600Y-112018666D02*
X74008600Y-103868666D01*
X104818200Y-98590766D02*
X104818200Y-94244366D01*
X99842501Y-99388666D02*
X104020300Y-99388666D01*
X55212501Y-112018666D02*
X65858600Y-112018666D01*
X104020300Y-99388666D02*
X104818200Y-98590766D01*
X95362501Y-103868666D02*
X99842501Y-99388666D01*
%TD*%
%TA.AperFunction,Conductor*%
%TO.N,GND*%
G36*
X101554271Y-92305854D02*
G01*
X101598618Y-92334355D01*
X101776810Y-92512547D01*
X101810295Y-92573870D01*
X101805311Y-92643562D01*
X101776810Y-92687909D01*
X101555462Y-92909256D01*
X101538425Y-92845673D01*
X101472599Y-92731659D01*
X101379507Y-92638567D01*
X101265493Y-92572741D01*
X101201907Y-92555702D01*
X101423256Y-92334355D01*
X101484579Y-92300870D01*
X101554271Y-92305854D01*
G37*
%TD.AperFunction*%
%TA.AperFunction,Conductor*%
G36*
X101533706Y-70508851D02*
G01*
X101554348Y-70525485D01*
X102625424Y-71596561D01*
X102658909Y-71657884D01*
X102653925Y-71727576D01*
X102652304Y-71731695D01*
X102602370Y-71852245D01*
X102602368Y-71852253D01*
X102562000Y-72055196D01*
X102562000Y-72262135D01*
X102602368Y-72465078D01*
X102602370Y-72465086D01*
X102681558Y-72656262D01*
X102796524Y-72828323D01*
X102942842Y-72974641D01*
X102942845Y-72974643D01*
X103114902Y-73089607D01*
X103306080Y-73168796D01*
X103453734Y-73198166D01*
X103509030Y-73209165D01*
X103509034Y-73209166D01*
X103509035Y-73209166D01*
X103715966Y-73209166D01*
X103715967Y-73209165D01*
X103918920Y-73168796D01*
X104110098Y-73089607D01*
X104282155Y-72974643D01*
X104287675Y-72969123D01*
X104320219Y-72936580D01*
X104381542Y-72903095D01*
X104451234Y-72908079D01*
X104507167Y-72949951D01*
X104531584Y-73015415D01*
X104531900Y-73024261D01*
X104531900Y-73833071D01*
X104512215Y-73900110D01*
X104459411Y-73945865D01*
X104390253Y-73955809D01*
X104326697Y-73926784D01*
X104320219Y-73920752D01*
X104282157Y-73882690D01*
X104115116Y-73771078D01*
X104110098Y-73767725D01*
X104110093Y-73767723D01*
X103918920Y-73688536D01*
X103918912Y-73688534D01*
X103715969Y-73648166D01*
X103715965Y-73648166D01*
X103509035Y-73648166D01*
X103509030Y-73648166D01*
X103306087Y-73688534D01*
X103306079Y-73688536D01*
X103185529Y-73738470D01*
X103116059Y-73745939D01*
X103053580Y-73714664D01*
X103050395Y-73711590D01*
X101827012Y-72488207D01*
X101827004Y-72488201D01*
X101758495Y-72448648D01*
X101758490Y-72448645D01*
X101733013Y-72441818D01*
X101682062Y-72428166D01*
X101682060Y-72428166D01*
X92797997Y-72428166D01*
X92730958Y-72408481D01*
X92685203Y-72355677D01*
X92675259Y-72286519D01*
X92704284Y-72222963D01*
X92710316Y-72216485D01*
X92751532Y-72175268D01*
X92853304Y-72035190D01*
X92931908Y-71880921D01*
X92985414Y-71716250D01*
X92986615Y-71708666D01*
X91828186Y-71708666D01*
X91832580Y-71704272D01*
X91885241Y-71613060D01*
X91912500Y-71511327D01*
X91912500Y-71406005D01*
X91885241Y-71304272D01*
X91832580Y-71213060D01*
X91828186Y-71208666D01*
X92986615Y-71208666D01*
X92986615Y-71208665D01*
X92985414Y-71201081D01*
X92931908Y-71036410D01*
X92853304Y-70882141D01*
X92751532Y-70742063D01*
X92710316Y-70700847D01*
X92676831Y-70639524D01*
X92681815Y-70569832D01*
X92723687Y-70513899D01*
X92789151Y-70489482D01*
X92797997Y-70489166D01*
X101466667Y-70489166D01*
X101533706Y-70508851D01*
G37*
%TD.AperFunction*%
%TA.AperFunction,Conductor*%
G36*
X107442539Y-50520185D02*
G01*
X107488294Y-50572989D01*
X107499500Y-50624500D01*
X107499500Y-120375500D01*
X107479815Y-120442539D01*
X107427011Y-120488294D01*
X107375500Y-120499500D01*
X50624500Y-120499500D01*
X50557461Y-120479815D01*
X50511706Y-120427011D01*
X50500500Y-120375500D01*
X50500500Y-115294396D01*
X70272000Y-115294396D01*
X70272000Y-116502935D01*
X70274853Y-116533365D01*
X70274853Y-116533367D01*
X70311105Y-116636965D01*
X70319707Y-116661548D01*
X70400350Y-116770816D01*
X70509618Y-116851459D01*
X70536076Y-116860717D01*
X70637799Y-116896312D01*
X70668230Y-116899166D01*
X70668234Y-116899166D01*
X71876770Y-116899166D01*
X71907199Y-116896312D01*
X71907201Y-116896312D01*
X71971290Y-116873885D01*
X72035382Y-116851459D01*
X72144650Y-116770816D01*
X72225293Y-116661548D01*
X72247719Y-116597456D01*
X72270146Y-116533367D01*
X72270146Y-116533365D01*
X72273000Y-116502935D01*
X72273000Y-115997209D01*
X72811999Y-115997209D01*
X72850447Y-116190495D01*
X72850450Y-116190505D01*
X72925864Y-116372573D01*
X72925871Y-116372586D01*
X73035360Y-116536447D01*
X73035363Y-116536451D01*
X73174714Y-116675802D01*
X73174718Y-116675805D01*
X73338579Y-116785294D01*
X73338592Y-116785301D01*
X73498314Y-116851459D01*
X73520665Y-116860717D01*
X73520669Y-116860717D01*
X73520670Y-116860718D01*
X73713956Y-116899166D01*
X73713959Y-116899166D01*
X73911043Y-116899166D01*
X74041082Y-116873298D01*
X74104335Y-116860717D01*
X74286414Y-116785298D01*
X74450282Y-116675805D01*
X74589639Y-116536448D01*
X74699132Y-116372580D01*
X74774551Y-116190501D01*
X74801303Y-116056012D01*
X74813000Y-115997209D01*
X75351999Y-115997209D01*
X75390447Y-116190495D01*
X75390450Y-116190505D01*
X75465864Y-116372573D01*
X75465871Y-116372586D01*
X75575360Y-116536447D01*
X75575363Y-116536451D01*
X75714714Y-116675802D01*
X75714718Y-116675805D01*
X75878579Y-116785294D01*
X75878592Y-116785301D01*
X76038314Y-116851459D01*
X76060665Y-116860717D01*
X76060669Y-116860717D01*
X76060670Y-116860718D01*
X76253956Y-116899166D01*
X76253959Y-116899166D01*
X76451043Y-116899166D01*
X76581082Y-116873298D01*
X76644335Y-116860717D01*
X76826414Y-116785298D01*
X76990282Y-116675805D01*
X77129639Y-116536448D01*
X77239132Y-116372580D01*
X77314551Y-116190501D01*
X77341303Y-116056012D01*
X77353000Y-115997209D01*
X77891999Y-115997209D01*
X77930447Y-116190495D01*
X77930450Y-116190505D01*
X78005864Y-116372573D01*
X78005871Y-116372586D01*
X78115360Y-116536447D01*
X78115363Y-116536451D01*
X78254714Y-116675802D01*
X78254718Y-116675805D01*
X78418579Y-116785294D01*
X78418592Y-116785301D01*
X78578314Y-116851459D01*
X78600665Y-116860717D01*
X78600669Y-116860717D01*
X78600670Y-116860718D01*
X78793956Y-116899166D01*
X78793959Y-116899166D01*
X78991043Y-116899166D01*
X79121082Y-116873298D01*
X79184335Y-116860717D01*
X79366414Y-116785298D01*
X79530282Y-116675805D01*
X79669639Y-116536448D01*
X79779132Y-116372580D01*
X79854551Y-116190501D01*
X79881303Y-116056012D01*
X79893000Y-115997209D01*
X80431999Y-115997209D01*
X80470447Y-116190495D01*
X80470450Y-116190505D01*
X80545864Y-116372573D01*
X80545871Y-116372586D01*
X80655360Y-116536447D01*
X80655363Y-116536451D01*
X80794714Y-116675802D01*
X80794718Y-116675805D01*
X80958579Y-116785294D01*
X80958592Y-116785301D01*
X81118314Y-116851459D01*
X81140665Y-116860717D01*
X81140669Y-116860717D01*
X81140670Y-116860718D01*
X81333956Y-116899166D01*
X81333959Y-116899166D01*
X81531043Y-116899166D01*
X81661082Y-116873298D01*
X81724335Y-116860717D01*
X81906414Y-116785298D01*
X82070282Y-116675805D01*
X82209639Y-116536448D01*
X82319132Y-116372580D01*
X82394551Y-116190501D01*
X82421303Y-116056012D01*
X82433000Y-115997209D01*
X82971999Y-115997209D01*
X83010447Y-116190495D01*
X83010450Y-116190505D01*
X83085864Y-116372573D01*
X83085871Y-116372586D01*
X83195360Y-116536447D01*
X83195363Y-116536451D01*
X83334714Y-116675802D01*
X83334718Y-116675805D01*
X83498579Y-116785294D01*
X83498592Y-116785301D01*
X83658314Y-116851459D01*
X83680665Y-116860717D01*
X83680669Y-116860717D01*
X83680670Y-116860718D01*
X83873956Y-116899166D01*
X83873959Y-116899166D01*
X84071043Y-116899166D01*
X84201082Y-116873298D01*
X84264335Y-116860717D01*
X84446414Y-116785298D01*
X84610282Y-116675805D01*
X84749639Y-116536448D01*
X84859132Y-116372580D01*
X84934551Y-116190501D01*
X84961303Y-116056012D01*
X84973000Y-115997209D01*
X85511999Y-115997209D01*
X85550447Y-116190495D01*
X85550450Y-116190505D01*
X85625864Y-116372573D01*
X85625871Y-116372586D01*
X85735360Y-116536447D01*
X85735363Y-116536451D01*
X85874714Y-116675802D01*
X85874718Y-116675805D01*
X86038579Y-116785294D01*
X86038592Y-116785301D01*
X86198314Y-116851459D01*
X86220665Y-116860717D01*
X86220669Y-116860717D01*
X86220670Y-116860718D01*
X86413956Y-116899166D01*
X86413959Y-116899166D01*
X86611043Y-116899166D01*
X86741082Y-116873298D01*
X86804335Y-116860717D01*
X86986414Y-116785298D01*
X87150282Y-116675805D01*
X87289639Y-116536448D01*
X87399132Y-116372580D01*
X87474551Y-116190501D01*
X87501303Y-116056012D01*
X87513000Y-115997209D01*
X88051999Y-115997209D01*
X88090447Y-116190495D01*
X88090450Y-116190505D01*
X88165864Y-116372573D01*
X88165871Y-116372586D01*
X88275360Y-116536447D01*
X88275363Y-116536451D01*
X88414714Y-116675802D01*
X88414718Y-116675805D01*
X88578579Y-116785294D01*
X88578592Y-116785301D01*
X88738314Y-116851459D01*
X88760665Y-116860717D01*
X88760669Y-116860717D01*
X88760670Y-116860718D01*
X88953956Y-116899166D01*
X88953959Y-116899166D01*
X89151043Y-116899166D01*
X89281082Y-116873298D01*
X89344335Y-116860717D01*
X89526414Y-116785298D01*
X89690282Y-116675805D01*
X89829639Y-116536448D01*
X89939132Y-116372580D01*
X90014551Y-116190501D01*
X90041303Y-116056012D01*
X90053000Y-115997209D01*
X90053000Y-115805045D01*
X90642000Y-115805045D01*
X90642000Y-115992286D01*
X90678525Y-116175909D01*
X90678527Y-116175917D01*
X90750176Y-116348894D01*
X90750181Y-116348903D01*
X90854197Y-116504573D01*
X90854200Y-116504577D01*
X90986588Y-116636965D01*
X90986592Y-116636968D01*
X91142262Y-116740984D01*
X91142268Y-116740987D01*
X91142269Y-116740988D01*
X91315249Y-116812639D01*
X91478242Y-116845060D01*
X91498879Y-116849165D01*
X91498883Y-116849166D01*
X91498884Y-116849166D01*
X91686117Y-116849166D01*
X91686118Y-116849165D01*
X91691982Y-116847999D01*
X91706761Y-116845060D01*
X91782646Y-116829964D01*
X91869751Y-116812639D01*
X92042731Y-116740988D01*
X92198408Y-116636968D01*
X92330802Y-116504574D01*
X92434822Y-116348897D01*
X92506473Y-116175917D01*
X92543000Y-115992282D01*
X92543000Y-115805050D01*
X92506473Y-115621415D01*
X92434822Y-115448435D01*
X92434821Y-115448434D01*
X92434818Y-115448428D01*
X92330802Y-115292758D01*
X92330799Y-115292754D01*
X92198411Y-115160366D01*
X92198407Y-115160363D01*
X92042737Y-115056347D01*
X92042728Y-115056342D01*
X91869751Y-114984693D01*
X91869743Y-114984691D01*
X91686120Y-114948166D01*
X91686116Y-114948166D01*
X91498884Y-114948166D01*
X91498879Y-114948166D01*
X91315256Y-114984691D01*
X91315248Y-114984693D01*
X91142271Y-115056342D01*
X91142262Y-115056347D01*
X90986592Y-115160363D01*
X90986588Y-115160366D01*
X90854200Y-115292754D01*
X90854197Y-115292758D01*
X90750181Y-115448428D01*
X90750176Y-115448437D01*
X90678527Y-115621414D01*
X90678525Y-115621422D01*
X90642000Y-115805045D01*
X90053000Y-115805045D01*
X90053000Y-115800122D01*
X90014552Y-115606836D01*
X90014551Y-115606833D01*
X90014551Y-115606831D01*
X89948939Y-115448428D01*
X89939135Y-115424758D01*
X89939128Y-115424745D01*
X89829639Y-115260884D01*
X89829636Y-115260880D01*
X89690285Y-115121529D01*
X89690281Y-115121526D01*
X89526420Y-115012037D01*
X89526407Y-115012030D01*
X89344339Y-114936616D01*
X89344329Y-114936613D01*
X89151043Y-114898166D01*
X89151041Y-114898166D01*
X88953959Y-114898166D01*
X88953957Y-114898166D01*
X88760670Y-114936613D01*
X88760660Y-114936616D01*
X88578592Y-115012030D01*
X88578579Y-115012037D01*
X88414718Y-115121526D01*
X88414714Y-115121529D01*
X88275363Y-115260880D01*
X88275360Y-115260884D01*
X88165871Y-115424745D01*
X88165864Y-115424758D01*
X88090450Y-115606826D01*
X88090447Y-115606836D01*
X88052000Y-115800122D01*
X88052000Y-115800125D01*
X88052000Y-115997207D01*
X88052000Y-115997209D01*
X88051999Y-115997209D01*
X87513000Y-115997209D01*
X87513000Y-115800122D01*
X87474552Y-115606836D01*
X87474551Y-115606833D01*
X87474551Y-115606831D01*
X87408939Y-115448428D01*
X87399135Y-115424758D01*
X87399128Y-115424745D01*
X87289639Y-115260884D01*
X87289636Y-115260880D01*
X87150285Y-115121529D01*
X87150281Y-115121526D01*
X86986420Y-115012037D01*
X86986407Y-115012030D01*
X86804339Y-114936616D01*
X86804329Y-114936613D01*
X86611043Y-114898166D01*
X86611041Y-114898166D01*
X86413959Y-114898166D01*
X86413957Y-114898166D01*
X86220670Y-114936613D01*
X86220660Y-114936616D01*
X86038592Y-115012030D01*
X86038579Y-115012037D01*
X85874718Y-115121526D01*
X85874714Y-115121529D01*
X85735363Y-115260880D01*
X85735360Y-115260884D01*
X85625871Y-115424745D01*
X85625864Y-115424758D01*
X85550450Y-115606826D01*
X85550447Y-115606836D01*
X85512000Y-115800122D01*
X85512000Y-115800125D01*
X85512000Y-115997207D01*
X85512000Y-115997209D01*
X85511999Y-115997209D01*
X84973000Y-115997209D01*
X84973000Y-115800122D01*
X84934552Y-115606836D01*
X84934551Y-115606833D01*
X84934551Y-115606831D01*
X84868939Y-115448428D01*
X84859135Y-115424758D01*
X84859128Y-115424745D01*
X84749639Y-115260884D01*
X84749636Y-115260880D01*
X84610285Y-115121529D01*
X84610281Y-115121526D01*
X84446420Y-115012037D01*
X84446407Y-115012030D01*
X84264339Y-114936616D01*
X84264329Y-114936613D01*
X84071043Y-114898166D01*
X84071041Y-114898166D01*
X83873959Y-114898166D01*
X83873957Y-114898166D01*
X83680670Y-114936613D01*
X83680660Y-114936616D01*
X83498592Y-115012030D01*
X83498579Y-115012037D01*
X83334718Y-115121526D01*
X83334714Y-115121529D01*
X83195363Y-115260880D01*
X83195360Y-115260884D01*
X83085871Y-115424745D01*
X83085864Y-115424758D01*
X83010450Y-115606826D01*
X83010447Y-115606836D01*
X82972000Y-115800122D01*
X82972000Y-115800125D01*
X82972000Y-115997207D01*
X82972000Y-115997209D01*
X82971999Y-115997209D01*
X82433000Y-115997209D01*
X82433000Y-115800122D01*
X82394552Y-115606836D01*
X82394551Y-115606833D01*
X82394551Y-115606831D01*
X82328939Y-115448428D01*
X82319135Y-115424758D01*
X82319128Y-115424745D01*
X82209639Y-115260884D01*
X82209636Y-115260880D01*
X82070285Y-115121529D01*
X82070281Y-115121526D01*
X81906420Y-115012037D01*
X81906407Y-115012030D01*
X81724339Y-114936616D01*
X81724329Y-114936613D01*
X81531043Y-114898166D01*
X81531041Y-114898166D01*
X81333959Y-114898166D01*
X81333957Y-114898166D01*
X81140670Y-114936613D01*
X81140660Y-114936616D01*
X80958592Y-115012030D01*
X80958579Y-115012037D01*
X80794718Y-115121526D01*
X80794714Y-115121529D01*
X80655363Y-115260880D01*
X80655360Y-115260884D01*
X80545871Y-115424745D01*
X80545864Y-115424758D01*
X80470450Y-115606826D01*
X80470447Y-115606836D01*
X80432000Y-115800122D01*
X80432000Y-115800125D01*
X80432000Y-115997207D01*
X80432000Y-115997209D01*
X80431999Y-115997209D01*
X79893000Y-115997209D01*
X79893000Y-115800122D01*
X79854552Y-115606836D01*
X79854551Y-115606833D01*
X79854551Y-115606831D01*
X79788939Y-115448428D01*
X79779135Y-115424758D01*
X79779128Y-115424745D01*
X79669639Y-115260884D01*
X79669636Y-115260880D01*
X79530285Y-115121529D01*
X79530281Y-115121526D01*
X79366420Y-115012037D01*
X79366407Y-115012030D01*
X79184339Y-114936616D01*
X79184329Y-114936613D01*
X78991043Y-114898166D01*
X78991041Y-114898166D01*
X78793959Y-114898166D01*
X78793957Y-114898166D01*
X78600670Y-114936613D01*
X78600660Y-114936616D01*
X78418592Y-115012030D01*
X78418579Y-115012037D01*
X78254718Y-115121526D01*
X78254714Y-115121529D01*
X78115363Y-115260880D01*
X78115360Y-115260884D01*
X78005871Y-115424745D01*
X78005864Y-115424758D01*
X77930450Y-115606826D01*
X77930447Y-115606836D01*
X77892000Y-115800122D01*
X77892000Y-115800125D01*
X77892000Y-115997207D01*
X77892000Y-115997209D01*
X77891999Y-115997209D01*
X77353000Y-115997209D01*
X77353000Y-115800122D01*
X77314552Y-115606836D01*
X77314551Y-115606833D01*
X77314551Y-115606831D01*
X77248939Y-115448428D01*
X77239135Y-115424758D01*
X77239128Y-115424745D01*
X77129639Y-115260884D01*
X77129636Y-115260880D01*
X76990285Y-115121529D01*
X76990281Y-115121526D01*
X76826420Y-115012037D01*
X76826407Y-115012030D01*
X76644339Y-114936616D01*
X76644329Y-114936613D01*
X76451043Y-114898166D01*
X76451041Y-114898166D01*
X76253959Y-114898166D01*
X76253957Y-114898166D01*
X76060670Y-114936613D01*
X76060660Y-114936616D01*
X75878592Y-115012030D01*
X75878579Y-115012037D01*
X75714718Y-115121526D01*
X75714714Y-115121529D01*
X75575363Y-115260880D01*
X75575360Y-115260884D01*
X75465871Y-115424745D01*
X75465864Y-115424758D01*
X75390450Y-115606826D01*
X75390447Y-115606836D01*
X75352000Y-115800122D01*
X75352000Y-115800125D01*
X75352000Y-115997207D01*
X75352000Y-115997209D01*
X75351999Y-115997209D01*
X74813000Y-115997209D01*
X74813000Y-115800122D01*
X74774552Y-115606836D01*
X74774551Y-115606833D01*
X74774551Y-115606831D01*
X74708939Y-115448428D01*
X74699135Y-115424758D01*
X74699128Y-115424745D01*
X74589639Y-115260884D01*
X74589636Y-115260880D01*
X74450285Y-115121529D01*
X74450281Y-115121526D01*
X74286420Y-115012037D01*
X74286407Y-115012030D01*
X74104339Y-114936616D01*
X74104329Y-114936613D01*
X73911043Y-114898166D01*
X73911041Y-114898166D01*
X73713959Y-114898166D01*
X73713957Y-114898166D01*
X73520670Y-114936613D01*
X73520660Y-114936616D01*
X73338592Y-115012030D01*
X73338579Y-115012037D01*
X73174718Y-115121526D01*
X73174714Y-115121529D01*
X73035363Y-115260880D01*
X73035360Y-115260884D01*
X72925871Y-115424745D01*
X72925864Y-115424758D01*
X72850450Y-115606826D01*
X72850447Y-115606836D01*
X72812000Y-115800122D01*
X72812000Y-115800125D01*
X72812000Y-115997207D01*
X72812000Y-115997209D01*
X72811999Y-115997209D01*
X72273000Y-115997209D01*
X72273000Y-115294396D01*
X72270146Y-115263966D01*
X72270146Y-115263964D01*
X72236506Y-115167829D01*
X72225293Y-115135784D01*
X72144650Y-115026516D01*
X72035382Y-114945873D01*
X72035380Y-114945872D01*
X71907200Y-114901019D01*
X71876770Y-114898166D01*
X71876766Y-114898166D01*
X70668234Y-114898166D01*
X70668230Y-114898166D01*
X70637800Y-114901019D01*
X70637798Y-114901019D01*
X70509619Y-114945872D01*
X70509617Y-114945873D01*
X70400350Y-115026516D01*
X70319707Y-115135783D01*
X70319706Y-115135785D01*
X70274853Y-115263964D01*
X70274853Y-115263966D01*
X70272000Y-115294396D01*
X50500500Y-115294396D01*
X50500500Y-111952774D01*
X54712001Y-111952774D01*
X54712001Y-112084557D01*
X54746109Y-112211853D01*
X54773403Y-112259126D01*
X54812001Y-112325980D01*
X54905187Y-112419166D01*
X55019315Y-112485058D01*
X55146609Y-112519166D01*
X55146611Y-112519166D01*
X55278391Y-112519166D01*
X55278393Y-112519166D01*
X55405687Y-112485058D01*
X55519815Y-112419166D01*
X55583496Y-112355485D01*
X55644819Y-112322000D01*
X55671177Y-112319166D01*
X65898160Y-112319166D01*
X65898162Y-112319166D01*
X65974589Y-112298687D01*
X66043111Y-112259126D01*
X66099060Y-112203177D01*
X70060319Y-108241916D01*
X70121642Y-108208432D01*
X70191334Y-108213416D01*
X70247267Y-108255288D01*
X70271684Y-108320752D01*
X70272000Y-108329598D01*
X70272000Y-108377207D01*
X70272000Y-108377209D01*
X70271999Y-108377209D01*
X70310447Y-108570495D01*
X70310450Y-108570505D01*
X70385864Y-108752573D01*
X70385871Y-108752586D01*
X70495360Y-108916447D01*
X70495363Y-108916451D01*
X70634714Y-109055802D01*
X70634718Y-109055805D01*
X70798579Y-109165294D01*
X70798592Y-109165301D01*
X70948688Y-109227472D01*
X70980665Y-109240717D01*
X70980669Y-109240717D01*
X70980670Y-109240718D01*
X71173956Y-109279166D01*
X71173959Y-109279166D01*
X71371043Y-109279166D01*
X71501082Y-109253298D01*
X71564335Y-109240717D01*
X71746414Y-109165298D01*
X71910282Y-109055805D01*
X72049639Y-108916448D01*
X72159132Y-108752580D01*
X72234551Y-108570501D01*
X72261890Y-108433060D01*
X72273000Y-108377209D01*
X72273000Y-108180122D01*
X72234552Y-107986836D01*
X72234551Y-107986835D01*
X72234551Y-107986831D01*
X72194425Y-107889960D01*
X72186957Y-107820494D01*
X72218232Y-107758015D01*
X72221278Y-107754857D01*
X75220652Y-104755485D01*
X75281975Y-104722000D01*
X75308333Y-104719166D01*
X76647667Y-104719166D01*
X76714706Y-104738851D01*
X76760461Y-104791655D01*
X76770405Y-104860813D01*
X76741380Y-104924369D01*
X76735348Y-104930847D01*
X74336335Y-107329858D01*
X74275012Y-107363343D01*
X74205320Y-107358359D01*
X74201202Y-107356738D01*
X74104339Y-107316616D01*
X74104329Y-107316613D01*
X73911043Y-107278166D01*
X73911041Y-107278166D01*
X73713959Y-107278166D01*
X73713957Y-107278166D01*
X73520670Y-107316613D01*
X73520660Y-107316616D01*
X73338592Y-107392030D01*
X73338579Y-107392037D01*
X73174718Y-107501526D01*
X73174714Y-107501529D01*
X73035363Y-107640880D01*
X73035360Y-107640884D01*
X72925871Y-107804745D01*
X72925864Y-107804758D01*
X72850450Y-107986826D01*
X72850447Y-107986836D01*
X72812000Y-108180122D01*
X72812000Y-108180125D01*
X72812000Y-108377207D01*
X72812000Y-108377209D01*
X72811999Y-108377209D01*
X72850447Y-108570495D01*
X72850450Y-108570505D01*
X72925864Y-108752573D01*
X72925871Y-108752586D01*
X73035360Y-108916447D01*
X73035363Y-108916451D01*
X73174714Y-109055802D01*
X73174718Y-109055805D01*
X73338579Y-109165294D01*
X73338592Y-109165301D01*
X73488688Y-109227472D01*
X73520665Y-109240717D01*
X73520669Y-109240717D01*
X73520670Y-109240718D01*
X73713956Y-109279166D01*
X73713959Y-109279166D01*
X73911043Y-109279166D01*
X74041082Y-109253298D01*
X74104335Y-109240717D01*
X74286414Y-109165298D01*
X74450282Y-109055805D01*
X74589639Y-108916448D01*
X74699132Y-108752580D01*
X74774551Y-108570501D01*
X74801890Y-108433060D01*
X74813000Y-108377209D01*
X74813000Y-108180122D01*
X74774552Y-107986836D01*
X74774551Y-107986835D01*
X74774551Y-107986831D01*
X74734425Y-107889960D01*
X74726957Y-107820494D01*
X74758232Y-107758015D01*
X74761277Y-107754858D01*
X77260652Y-105255485D01*
X77321975Y-105222000D01*
X77348333Y-105219166D01*
X78687667Y-105219166D01*
X78754706Y-105238851D01*
X78800461Y-105291655D01*
X78810405Y-105360813D01*
X78781380Y-105424369D01*
X78775348Y-105430847D01*
X76876335Y-107329858D01*
X76815012Y-107363343D01*
X76745320Y-107358359D01*
X76741202Y-107356738D01*
X76644339Y-107316616D01*
X76644329Y-107316613D01*
X76451043Y-107278166D01*
X76451041Y-107278166D01*
X76253959Y-107278166D01*
X76253957Y-107278166D01*
X76060670Y-107316613D01*
X76060660Y-107316616D01*
X75878592Y-107392030D01*
X75878579Y-107392037D01*
X75714718Y-107501526D01*
X75714714Y-107501529D01*
X75575363Y-107640880D01*
X75575360Y-107640884D01*
X75465871Y-107804745D01*
X75465864Y-107804758D01*
X75390450Y-107986826D01*
X75390447Y-107986836D01*
X75352000Y-108180122D01*
X75352000Y-108180125D01*
X75352000Y-108377207D01*
X75352000Y-108377209D01*
X75351999Y-108377209D01*
X75390447Y-108570495D01*
X75390450Y-108570505D01*
X75465864Y-108752573D01*
X75465871Y-108752586D01*
X75575360Y-108916447D01*
X75575363Y-108916451D01*
X75714714Y-109055802D01*
X75714718Y-109055805D01*
X75878579Y-109165294D01*
X75878592Y-109165301D01*
X76028688Y-109227472D01*
X76060665Y-109240717D01*
X76060669Y-109240717D01*
X76060670Y-109240718D01*
X76253956Y-109279166D01*
X76253959Y-109279166D01*
X76451043Y-109279166D01*
X76581082Y-109253298D01*
X76644335Y-109240717D01*
X76826414Y-109165298D01*
X76990282Y-109055805D01*
X77129639Y-108916448D01*
X77239132Y-108752580D01*
X77314551Y-108570501D01*
X77341890Y-108433060D01*
X77353000Y-108377209D01*
X77353000Y-108180122D01*
X77314552Y-107986836D01*
X77314551Y-107986835D01*
X77314551Y-107986831D01*
X77274425Y-107889960D01*
X77266957Y-107820494D01*
X77298232Y-107758015D01*
X77301277Y-107754858D01*
X79200652Y-105855485D01*
X79261975Y-105822000D01*
X79288333Y-105819166D01*
X80627667Y-105819166D01*
X80694706Y-105838851D01*
X80740461Y-105891655D01*
X80750405Y-105960813D01*
X80721380Y-106024369D01*
X80715348Y-106030847D01*
X79416335Y-107329858D01*
X79355012Y-107363343D01*
X79285320Y-107358359D01*
X79281202Y-107356738D01*
X79184339Y-107316616D01*
X79184329Y-107316613D01*
X78991043Y-107278166D01*
X78991041Y-107278166D01*
X78793959Y-107278166D01*
X78793957Y-107278166D01*
X78600670Y-107316613D01*
X78600660Y-107316616D01*
X78418592Y-107392030D01*
X78418579Y-107392037D01*
X78254718Y-107501526D01*
X78254714Y-107501529D01*
X78115363Y-107640880D01*
X78115360Y-107640884D01*
X78005871Y-107804745D01*
X78005864Y-107804758D01*
X77930450Y-107986826D01*
X77930447Y-107986836D01*
X77892000Y-108180122D01*
X77892000Y-108180125D01*
X77892000Y-108377207D01*
X77892000Y-108377209D01*
X77891999Y-108377209D01*
X77930447Y-108570495D01*
X77930450Y-108570505D01*
X78005864Y-108752573D01*
X78005871Y-108752586D01*
X78115360Y-108916447D01*
X78115363Y-108916451D01*
X78254714Y-109055802D01*
X78254718Y-109055805D01*
X78418579Y-109165294D01*
X78418592Y-109165301D01*
X78568688Y-109227472D01*
X78600665Y-109240717D01*
X78600669Y-109240717D01*
X78600670Y-109240718D01*
X78793956Y-109279166D01*
X78793959Y-109279166D01*
X78991043Y-109279166D01*
X79121082Y-109253298D01*
X79184335Y-109240717D01*
X79366414Y-109165298D01*
X79530282Y-109055805D01*
X79669639Y-108916448D01*
X79779132Y-108752580D01*
X79854551Y-108570501D01*
X79881890Y-108433060D01*
X79893000Y-108377209D01*
X79893000Y-108180122D01*
X79854552Y-107986836D01*
X79854551Y-107986835D01*
X79854551Y-107986831D01*
X79814425Y-107889960D01*
X79806957Y-107820494D01*
X79838232Y-107758015D01*
X79841277Y-107754858D01*
X81190652Y-106405485D01*
X81251975Y-106372000D01*
X81278333Y-106369166D01*
X82617667Y-106369166D01*
X82684706Y-106388851D01*
X82730461Y-106441655D01*
X82740405Y-106510813D01*
X82711380Y-106574369D01*
X82705348Y-106580847D01*
X81956335Y-107329858D01*
X81895012Y-107363343D01*
X81825320Y-107358359D01*
X81821202Y-107356738D01*
X81724339Y-107316616D01*
X81724329Y-107316613D01*
X81531043Y-107278166D01*
X81531041Y-107278166D01*
X81333959Y-107278166D01*
X81333957Y-107278166D01*
X81140670Y-107316613D01*
X81140660Y-107316616D01*
X80958592Y-107392030D01*
X80958579Y-107392037D01*
X80794718Y-107501526D01*
X80794714Y-107501529D01*
X80655363Y-107640880D01*
X80655360Y-107640884D01*
X80545871Y-107804745D01*
X80545864Y-107804758D01*
X80470450Y-107986826D01*
X80470447Y-107986836D01*
X80432000Y-108180122D01*
X80432000Y-108180125D01*
X80432000Y-108377207D01*
X80432000Y-108377209D01*
X80431999Y-108377209D01*
X80470447Y-108570495D01*
X80470450Y-108570505D01*
X80545864Y-108752573D01*
X80545871Y-108752586D01*
X80655360Y-108916447D01*
X80655363Y-108916451D01*
X80794714Y-109055802D01*
X80794718Y-109055805D01*
X80958579Y-109165294D01*
X80958592Y-109165301D01*
X81108688Y-109227472D01*
X81140665Y-109240717D01*
X81140669Y-109240717D01*
X81140670Y-109240718D01*
X81333956Y-109279166D01*
X81333959Y-109279166D01*
X81531043Y-109279166D01*
X81661082Y-109253298D01*
X81724335Y-109240717D01*
X81906414Y-109165298D01*
X82070282Y-109055805D01*
X82209639Y-108916448D01*
X82319132Y-108752580D01*
X82394551Y-108570501D01*
X82421890Y-108433060D01*
X82433000Y-108377209D01*
X82433000Y-108180122D01*
X82394552Y-107986836D01*
X82394551Y-107986835D01*
X82394551Y-107986831D01*
X82354425Y-107889960D01*
X82346957Y-107820494D01*
X82378232Y-107758015D01*
X82381276Y-107754859D01*
X83180652Y-106955485D01*
X83241975Y-106922000D01*
X83268333Y-106919166D01*
X84607667Y-106919166D01*
X84674706Y-106938851D01*
X84720461Y-106991655D01*
X84730405Y-107060813D01*
X84701380Y-107124369D01*
X84695367Y-107130826D01*
X84534604Y-107291590D01*
X84496335Y-107329859D01*
X84435011Y-107363343D01*
X84365320Y-107358359D01*
X84361202Y-107356738D01*
X84264339Y-107316616D01*
X84264329Y-107316613D01*
X84071043Y-107278166D01*
X84071041Y-107278166D01*
X83873959Y-107278166D01*
X83873957Y-107278166D01*
X83680670Y-107316613D01*
X83680660Y-107316616D01*
X83498592Y-107392030D01*
X83498579Y-107392037D01*
X83334718Y-107501526D01*
X83334714Y-107501529D01*
X83195363Y-107640880D01*
X83195360Y-107640884D01*
X83085871Y-107804745D01*
X83085864Y-107804758D01*
X83010450Y-107986826D01*
X83010447Y-107986836D01*
X82972000Y-108180122D01*
X82972000Y-108180125D01*
X82972000Y-108377207D01*
X82972000Y-108377209D01*
X82971999Y-108377209D01*
X83010447Y-108570495D01*
X83010450Y-108570505D01*
X83085864Y-108752573D01*
X83085871Y-108752586D01*
X83195360Y-108916447D01*
X83195363Y-108916451D01*
X83334714Y-109055802D01*
X83334718Y-109055805D01*
X83498579Y-109165294D01*
X83498592Y-109165301D01*
X83648688Y-109227472D01*
X83680665Y-109240717D01*
X83680669Y-109240717D01*
X83680670Y-109240718D01*
X83873956Y-109279166D01*
X83873959Y-109279166D01*
X84071043Y-109279166D01*
X84201082Y-109253298D01*
X84264335Y-109240717D01*
X84446414Y-109165298D01*
X84610282Y-109055805D01*
X84749639Y-108916448D01*
X84859132Y-108752580D01*
X84934551Y-108570501D01*
X84961890Y-108433060D01*
X84973000Y-108377209D01*
X84973000Y-108180122D01*
X84934552Y-107986836D01*
X84934551Y-107986835D01*
X84934551Y-107986831D01*
X84894425Y-107889960D01*
X84886957Y-107820494D01*
X84918232Y-107758015D01*
X84921247Y-107754888D01*
X85200253Y-107475882D01*
X85261575Y-107442400D01*
X85287933Y-107439566D01*
X85638402Y-107439566D01*
X85705441Y-107459251D01*
X85751196Y-107512055D01*
X85761140Y-107581213D01*
X85737459Y-107634960D01*
X85738745Y-107635819D01*
X85625871Y-107804745D01*
X85625864Y-107804758D01*
X85550450Y-107986826D01*
X85550447Y-107986836D01*
X85512000Y-108180122D01*
X85512000Y-108180125D01*
X85512000Y-108377207D01*
X85512000Y-108377209D01*
X85511999Y-108377209D01*
X85550447Y-108570495D01*
X85550450Y-108570505D01*
X85625864Y-108752573D01*
X85625871Y-108752586D01*
X85735360Y-108916447D01*
X85735363Y-108916451D01*
X85874714Y-109055802D01*
X85874718Y-109055805D01*
X86038579Y-109165294D01*
X86038592Y-109165301D01*
X86188688Y-109227472D01*
X86220665Y-109240717D01*
X86220669Y-109240717D01*
X86220670Y-109240718D01*
X86413956Y-109279166D01*
X86413959Y-109279166D01*
X86611043Y-109279166D01*
X86741082Y-109253298D01*
X86804335Y-109240717D01*
X86901202Y-109200592D01*
X86970669Y-109193123D01*
X87033149Y-109224397D01*
X87036335Y-109227472D01*
X92598589Y-114789726D01*
X92657929Y-114823986D01*
X92667108Y-114829286D01*
X92667112Y-114829288D01*
X92743538Y-114849766D01*
X92743540Y-114849766D01*
X99922515Y-114849766D01*
X99989554Y-114869451D01*
X100035309Y-114922255D01*
X100045253Y-114991413D01*
X100022833Y-115046651D01*
X99917879Y-115191108D01*
X99821404Y-115380448D01*
X99755742Y-115582535D01*
X99755742Y-115582538D01*
X99722500Y-115792419D01*
X99722500Y-116004912D01*
X99755742Y-116214793D01*
X99755742Y-116214796D01*
X99821404Y-116416883D01*
X99917875Y-116606216D01*
X99957228Y-116660382D01*
X100589536Y-116028073D01*
X100606575Y-116091659D01*
X100672401Y-116205673D01*
X100765493Y-116298765D01*
X100879507Y-116364591D01*
X100943090Y-116381628D01*
X100310782Y-117013935D01*
X100310782Y-117013936D01*
X100364949Y-117053290D01*
X100554282Y-117149761D01*
X100756370Y-117215423D01*
X100966254Y-117248666D01*
X101178746Y-117248666D01*
X101388627Y-117215423D01*
X101388630Y-117215423D01*
X101590717Y-117149761D01*
X101780054Y-117053288D01*
X101834216Y-117013936D01*
X101834217Y-117013936D01*
X101201908Y-116381628D01*
X101265493Y-116364591D01*
X101379507Y-116298765D01*
X101472599Y-116205673D01*
X101538425Y-116091659D01*
X101555462Y-116028075D01*
X102187770Y-116660383D01*
X102187770Y-116660382D01*
X102227122Y-116606220D01*
X102323595Y-116416883D01*
X102389255Y-116214800D01*
X102398556Y-116156078D01*
X102428485Y-116092943D01*
X102487796Y-116056012D01*
X102557659Y-116057008D01*
X102615892Y-116095618D01*
X102642647Y-116151282D01*
X102650447Y-116190496D01*
X102650450Y-116190505D01*
X102725864Y-116372573D01*
X102725871Y-116372586D01*
X102835360Y-116536447D01*
X102835363Y-116536451D01*
X102974714Y-116675802D01*
X102974718Y-116675805D01*
X103138579Y-116785294D01*
X103138592Y-116785301D01*
X103298314Y-116851459D01*
X103320665Y-116860717D01*
X103320669Y-116860717D01*
X103320670Y-116860718D01*
X103513956Y-116899166D01*
X103513959Y-116899166D01*
X103711043Y-116899166D01*
X103841082Y-116873298D01*
X103904335Y-116860717D01*
X104086414Y-116785298D01*
X104250282Y-116675805D01*
X104389639Y-116536448D01*
X104499132Y-116372580D01*
X104574551Y-116190501D01*
X104601303Y-116056012D01*
X104613000Y-115997209D01*
X104613000Y-115800122D01*
X104574552Y-115606836D01*
X104574551Y-115606833D01*
X104574551Y-115606831D01*
X104508939Y-115448428D01*
X104499135Y-115424758D01*
X104499128Y-115424745D01*
X104389639Y-115260884D01*
X104389636Y-115260880D01*
X104250285Y-115121529D01*
X104250281Y-115121526D01*
X104086420Y-115012037D01*
X104086407Y-115012030D01*
X103904339Y-114936616D01*
X103904329Y-114936613D01*
X103711043Y-114898166D01*
X103711041Y-114898166D01*
X103513959Y-114898166D01*
X103513957Y-114898166D01*
X103320670Y-114936613D01*
X103320660Y-114936616D01*
X103138592Y-115012030D01*
X103138579Y-115012037D01*
X102974718Y-115121526D01*
X102974714Y-115121529D01*
X102835363Y-115260880D01*
X102835360Y-115260884D01*
X102725871Y-115424745D01*
X102725864Y-115424758D01*
X102650450Y-115606826D01*
X102650448Y-115606833D01*
X102642647Y-115646050D01*
X102610261Y-115707960D01*
X102549544Y-115742533D01*
X102479775Y-115738792D01*
X102423104Y-115697924D01*
X102398556Y-115641253D01*
X102389255Y-115582531D01*
X102323595Y-115380448D01*
X102227120Y-115191108D01*
X102122167Y-115046651D01*
X102098687Y-114980845D01*
X102114513Y-114912791D01*
X102164618Y-114864096D01*
X102222485Y-114849766D01*
X102461460Y-114849766D01*
X102461462Y-114849766D01*
X102537889Y-114829287D01*
X102606411Y-114789726D01*
X102662360Y-114733777D01*
X103050396Y-114345739D01*
X103111717Y-114312256D01*
X103181408Y-114317240D01*
X103185507Y-114318852D01*
X103306080Y-114368796D01*
X103509030Y-114409165D01*
X103509034Y-114409166D01*
X103509035Y-114409166D01*
X103715966Y-114409166D01*
X103715967Y-114409165D01*
X103918920Y-114368796D01*
X104110098Y-114289607D01*
X104282155Y-114174643D01*
X104428477Y-114028321D01*
X104543441Y-113856264D01*
X104622630Y-113665086D01*
X104663000Y-113462131D01*
X104663000Y-113255201D01*
X104622630Y-113052246D01*
X104543441Y-112861068D01*
X104428477Y-112689011D01*
X104428475Y-112689008D01*
X104282157Y-112542690D01*
X104195902Y-112485057D01*
X104110098Y-112427725D01*
X104089432Y-112419165D01*
X103918920Y-112348536D01*
X103918912Y-112348534D01*
X103715969Y-112308166D01*
X103715965Y-112308166D01*
X103509035Y-112308166D01*
X103509030Y-112308166D01*
X103306087Y-112348534D01*
X103306079Y-112348536D01*
X103114903Y-112427724D01*
X102942842Y-112542690D01*
X102796524Y-112689008D01*
X102681558Y-112861069D01*
X102602370Y-113052245D01*
X102602368Y-113052253D01*
X102562000Y-113255196D01*
X102562000Y-113462135D01*
X102602368Y-113665078D01*
X102602371Y-113665090D01*
X102652303Y-113785637D01*
X102659772Y-113855106D01*
X102628497Y-113917585D01*
X102625424Y-113920770D01*
X102333746Y-114212448D01*
X102272426Y-114245932D01*
X102246067Y-114248766D01*
X101967395Y-114248766D01*
X101900356Y-114229081D01*
X101854601Y-114176277D01*
X101844657Y-114107119D01*
X101873682Y-114043563D01*
X101879714Y-114037085D01*
X101888474Y-114028324D01*
X101888475Y-114028323D01*
X101888477Y-114028321D01*
X102003441Y-113856264D01*
X102082630Y-113665086D01*
X102123000Y-113462131D01*
X102123000Y-113255201D01*
X102082630Y-113052246D01*
X102003441Y-112861068D01*
X101888477Y-112689011D01*
X101888475Y-112689008D01*
X101742157Y-112542690D01*
X101655902Y-112485057D01*
X101570098Y-112427725D01*
X101549432Y-112419165D01*
X101378920Y-112348536D01*
X101378912Y-112348534D01*
X101175969Y-112308166D01*
X101175965Y-112308166D01*
X100969035Y-112308166D01*
X100969030Y-112308166D01*
X100766087Y-112348534D01*
X100766079Y-112348536D01*
X100574903Y-112427724D01*
X100402842Y-112542690D01*
X100256524Y-112689008D01*
X100141558Y-112861069D01*
X100091625Y-112981619D01*
X100047784Y-113036022D01*
X99981490Y-113058087D01*
X99977064Y-113058166D01*
X94308333Y-113058166D01*
X94241294Y-113038481D01*
X94220652Y-113021847D01*
X90808607Y-109609802D01*
X90775122Y-109548479D01*
X90780106Y-109478787D01*
X90821978Y-109422854D01*
X90887442Y-109398437D01*
X90952583Y-109411636D01*
X91093468Y-109483421D01*
X91288082Y-109546656D01*
X91490183Y-109578666D01*
X91694817Y-109578666D01*
X91896917Y-109546656D01*
X92091531Y-109483421D01*
X92273849Y-109390525D01*
X92318421Y-109358140D01*
X91638947Y-108678666D01*
X91645161Y-108678666D01*
X91746894Y-108651407D01*
X91838106Y-108598746D01*
X91912580Y-108524272D01*
X91965241Y-108433060D01*
X91992500Y-108331327D01*
X91992500Y-108325113D01*
X92671974Y-109004587D01*
X92704359Y-108960015D01*
X92797255Y-108777697D01*
X92860490Y-108583083D01*
X92892500Y-108380983D01*
X92892500Y-108176348D01*
X92860490Y-107974248D01*
X92797254Y-107779631D01*
X92715847Y-107619860D01*
X92702951Y-107551191D01*
X92729228Y-107486451D01*
X92786334Y-107446194D01*
X92826332Y-107439566D01*
X97217067Y-107439566D01*
X97284106Y-107459251D01*
X97304748Y-107475885D01*
X100085424Y-110256561D01*
X100118909Y-110317884D01*
X100113925Y-110387576D01*
X100112304Y-110391695D01*
X100062370Y-110512245D01*
X100062368Y-110512253D01*
X100022000Y-110715196D01*
X100022000Y-110922135D01*
X100062368Y-111125078D01*
X100062370Y-111125086D01*
X100141558Y-111316262D01*
X100256524Y-111488323D01*
X100402842Y-111634641D01*
X100402845Y-111634643D01*
X100574902Y-111749607D01*
X100766080Y-111828796D01*
X100969030Y-111869165D01*
X100969034Y-111869166D01*
X100969035Y-111869166D01*
X101175966Y-111869166D01*
X101175967Y-111869165D01*
X101378920Y-111828796D01*
X101570098Y-111749607D01*
X101742155Y-111634643D01*
X101888477Y-111488321D01*
X102003441Y-111316264D01*
X102082630Y-111125086D01*
X102123000Y-110922131D01*
X102123000Y-110715201D01*
X102082630Y-110512246D01*
X102003441Y-110321068D01*
X101888477Y-110149011D01*
X101888475Y-110149008D01*
X101742157Y-110002690D01*
X101675226Y-109957969D01*
X101630420Y-109904357D01*
X101621713Y-109835032D01*
X101651867Y-109772004D01*
X101711310Y-109735284D01*
X101744116Y-109730866D01*
X102048367Y-109730866D01*
X102115406Y-109750551D01*
X102136048Y-109767185D01*
X102625424Y-110256561D01*
X102658909Y-110317884D01*
X102653925Y-110387576D01*
X102652304Y-110391695D01*
X102602370Y-110512245D01*
X102602368Y-110512253D01*
X102562000Y-110715196D01*
X102562000Y-110922135D01*
X102602368Y-111125078D01*
X102602370Y-111125086D01*
X102681558Y-111316262D01*
X102796524Y-111488323D01*
X102942842Y-111634641D01*
X102942845Y-111634643D01*
X103114902Y-111749607D01*
X103306080Y-111828796D01*
X103509030Y-111869165D01*
X103509034Y-111869166D01*
X103509035Y-111869166D01*
X103715966Y-111869166D01*
X103715967Y-111869165D01*
X103918920Y-111828796D01*
X104110098Y-111749607D01*
X104282155Y-111634643D01*
X104428477Y-111488321D01*
X104543441Y-111316264D01*
X104622630Y-111125086D01*
X104663000Y-110922131D01*
X104663000Y-110715201D01*
X104622630Y-110512246D01*
X104543441Y-110321068D01*
X104428477Y-110149011D01*
X104428475Y-110149008D01*
X104282157Y-110002690D01*
X104196126Y-109945207D01*
X104110098Y-109887725D01*
X104057502Y-109865939D01*
X103918920Y-109808536D01*
X103918912Y-109808534D01*
X103715969Y-109768166D01*
X103715965Y-109768166D01*
X103509035Y-109768166D01*
X103509030Y-109768166D01*
X103306087Y-109808534D01*
X103306079Y-109808536D01*
X103185529Y-109858470D01*
X103116059Y-109865939D01*
X103053580Y-109834664D01*
X103050395Y-109831590D01*
X102408712Y-109189907D01*
X102408704Y-109189901D01*
X102366088Y-109165297D01*
X102366086Y-109165297D01*
X102340189Y-109150345D01*
X102263762Y-109129866D01*
X102263760Y-109129866D01*
X101999160Y-109129866D01*
X101932121Y-109110181D01*
X101886366Y-109057377D01*
X101876422Y-108988219D01*
X101896058Y-108936976D01*
X101992253Y-108793008D01*
X102003441Y-108776264D01*
X102082630Y-108585086D01*
X102123000Y-108382131D01*
X102123000Y-108175201D01*
X102082630Y-107972246D01*
X102003441Y-107781068D01*
X101888477Y-107609011D01*
X101888475Y-107609008D01*
X101742157Y-107462690D01*
X101675226Y-107417969D01*
X101630420Y-107364357D01*
X101621713Y-107295032D01*
X101651867Y-107232004D01*
X101711310Y-107195284D01*
X101744116Y-107190866D01*
X102048367Y-107190866D01*
X102115406Y-107210551D01*
X102136048Y-107227185D01*
X102625424Y-107716561D01*
X102658909Y-107777884D01*
X102653925Y-107847576D01*
X102652304Y-107851695D01*
X102602370Y-107972245D01*
X102602368Y-107972253D01*
X102562000Y-108175196D01*
X102562000Y-108382135D01*
X102602368Y-108585078D01*
X102602370Y-108585086D01*
X102668159Y-108743915D01*
X102681559Y-108776264D01*
X102692747Y-108793008D01*
X102796524Y-108948323D01*
X102942842Y-109094641D01*
X102942845Y-109094643D01*
X103114902Y-109209607D01*
X103306080Y-109288796D01*
X103509030Y-109329165D01*
X103509034Y-109329166D01*
X103509035Y-109329166D01*
X103715966Y-109329166D01*
X103715967Y-109329165D01*
X103918920Y-109288796D01*
X104110098Y-109209607D01*
X104282155Y-109094643D01*
X104428477Y-108948321D01*
X104543441Y-108776264D01*
X104622630Y-108585086D01*
X104663000Y-108382131D01*
X104663000Y-108175201D01*
X104622630Y-107972246D01*
X104543441Y-107781068D01*
X104428477Y-107609011D01*
X104428475Y-107609008D01*
X104282157Y-107462690D01*
X104176416Y-107392037D01*
X104110098Y-107347725D01*
X104057502Y-107325939D01*
X103918920Y-107268536D01*
X103918912Y-107268534D01*
X103715969Y-107228166D01*
X103715965Y-107228166D01*
X103509035Y-107228166D01*
X103509030Y-107228166D01*
X103306087Y-107268534D01*
X103306079Y-107268536D01*
X103185529Y-107318470D01*
X103116059Y-107325939D01*
X103053580Y-107294664D01*
X103050395Y-107291590D01*
X102408712Y-106649907D01*
X102408704Y-106649901D01*
X102340195Y-106610348D01*
X102340190Y-106610345D01*
X102314713Y-106603518D01*
X102263762Y-106589866D01*
X102263760Y-106589866D01*
X101999160Y-106589866D01*
X101932121Y-106570181D01*
X101886366Y-106517377D01*
X101876422Y-106448219D01*
X101896058Y-106396976D01*
X102003440Y-106236265D01*
X102003441Y-106236264D01*
X102082630Y-106045086D01*
X102123000Y-105842131D01*
X102123000Y-105635201D01*
X102082630Y-105432246D01*
X102003441Y-105241068D01*
X101888477Y-105069011D01*
X101888475Y-105069008D01*
X101750314Y-104930847D01*
X101716829Y-104869524D01*
X101721813Y-104799832D01*
X101763685Y-104743899D01*
X101829149Y-104719482D01*
X101837995Y-104719166D01*
X102116667Y-104719166D01*
X102183706Y-104738851D01*
X102204348Y-104755485D01*
X102625424Y-105176561D01*
X102658909Y-105237884D01*
X102653925Y-105307576D01*
X102652304Y-105311695D01*
X102602370Y-105432245D01*
X102602368Y-105432253D01*
X102562000Y-105635196D01*
X102562000Y-105842135D01*
X102602368Y-106045078D01*
X102602370Y-106045086D01*
X102681558Y-106236262D01*
X102796524Y-106408323D01*
X102942842Y-106554641D01*
X102942845Y-106554643D01*
X103114902Y-106669607D01*
X103306080Y-106748796D01*
X103509030Y-106789165D01*
X103509034Y-106789166D01*
X103509035Y-106789166D01*
X103715966Y-106789166D01*
X103715967Y-106789165D01*
X103918920Y-106748796D01*
X104110098Y-106669607D01*
X104282155Y-106554643D01*
X104428477Y-106408321D01*
X104543441Y-106236264D01*
X104622630Y-106045086D01*
X104663000Y-105842131D01*
X104663000Y-105635201D01*
X104622630Y-105432246D01*
X104543441Y-105241068D01*
X104428477Y-105069011D01*
X104428475Y-105069008D01*
X104282157Y-104922690D01*
X104115116Y-104811078D01*
X104110098Y-104807725D01*
X104057502Y-104785939D01*
X103918920Y-104728536D01*
X103918912Y-104728534D01*
X103715969Y-104688166D01*
X103715965Y-104688166D01*
X103509035Y-104688166D01*
X103509030Y-104688166D01*
X103306087Y-104728534D01*
X103306079Y-104728536D01*
X103185529Y-104778470D01*
X103116059Y-104785939D01*
X103053580Y-104754664D01*
X103050395Y-104751590D01*
X102477010Y-104178205D01*
X102451446Y-104163446D01*
X102425882Y-104148687D01*
X102408489Y-104138645D01*
X102332062Y-104118166D01*
X102332060Y-104118166D01*
X101937995Y-104118166D01*
X101870956Y-104098481D01*
X101825201Y-104045677D01*
X101815257Y-103976519D01*
X101844282Y-103912963D01*
X101850314Y-103906485D01*
X101888474Y-103868324D01*
X101888475Y-103868323D01*
X101888477Y-103868321D01*
X102003441Y-103696264D01*
X102082630Y-103505086D01*
X102123000Y-103302131D01*
X102123000Y-103095201D01*
X102122999Y-103095196D01*
X102562000Y-103095196D01*
X102562000Y-103302135D01*
X102602368Y-103505078D01*
X102602370Y-103505086D01*
X102681558Y-103696262D01*
X102796524Y-103868323D01*
X102942842Y-104014641D01*
X102942845Y-104014643D01*
X103114902Y-104129607D01*
X103306080Y-104208796D01*
X103509030Y-104249165D01*
X103509034Y-104249166D01*
X103509035Y-104249166D01*
X103715966Y-104249166D01*
X103715967Y-104249165D01*
X103918920Y-104208796D01*
X104110098Y-104129607D01*
X104282155Y-104014643D01*
X104428477Y-103868321D01*
X104543441Y-103696264D01*
X104622630Y-103505086D01*
X104663000Y-103302131D01*
X104663000Y-103095201D01*
X104622630Y-102892246D01*
X104572694Y-102771692D01*
X104565226Y-102702225D01*
X104596501Y-102639746D01*
X104599546Y-102636589D01*
X106452961Y-100783176D01*
X106492523Y-100714653D01*
X106513001Y-100638227D01*
X106513001Y-100559103D01*
X106513001Y-90727342D01*
X106532686Y-90660303D01*
X106549320Y-90639661D01*
X106613001Y-90575980D01*
X106678893Y-90461852D01*
X106713001Y-90334558D01*
X106713001Y-90202774D01*
X106678893Y-90075480D01*
X106613001Y-89961352D01*
X106519815Y-89868166D01*
X106462751Y-89835220D01*
X106405688Y-89802274D01*
X106342040Y-89785220D01*
X106278393Y-89768166D01*
X106146609Y-89768166D01*
X106019313Y-89802274D01*
X105905187Y-89868166D01*
X105905184Y-89868168D01*
X105812003Y-89961349D01*
X105812001Y-89961352D01*
X105746109Y-90075478D01*
X105729979Y-90135677D01*
X105712001Y-90202774D01*
X105712001Y-90334558D01*
X105714138Y-90342533D01*
X105746109Y-90461853D01*
X105776527Y-90514538D01*
X105812001Y-90575980D01*
X105812003Y-90575982D01*
X105875682Y-90639661D01*
X105909167Y-90700984D01*
X105912001Y-90727342D01*
X105912001Y-100422831D01*
X105892316Y-100489870D01*
X105875682Y-100510512D01*
X104174604Y-102211589D01*
X104113281Y-102245074D01*
X104043589Y-102240090D01*
X104039471Y-102238469D01*
X103918924Y-102188537D01*
X103918912Y-102188534D01*
X103715969Y-102148166D01*
X103715965Y-102148166D01*
X103509035Y-102148166D01*
X103509030Y-102148166D01*
X103306087Y-102188534D01*
X103306079Y-102188536D01*
X103114903Y-102267724D01*
X102942842Y-102382690D01*
X102796524Y-102529008D01*
X102681558Y-102701069D01*
X102602370Y-102892245D01*
X102602368Y-102892253D01*
X102562000Y-103095196D01*
X102122999Y-103095196D01*
X102082630Y-102892246D01*
X102003441Y-102701068D01*
X101888477Y-102529011D01*
X101888475Y-102529008D01*
X101742157Y-102382690D01*
X101575116Y-102271078D01*
X101570098Y-102267725D01*
X101378920Y-102188536D01*
X101378912Y-102188534D01*
X101175969Y-102148166D01*
X101175965Y-102148166D01*
X100969035Y-102148166D01*
X100969030Y-102148166D01*
X100766087Y-102188534D01*
X100766079Y-102188536D01*
X100574903Y-102267724D01*
X100402842Y-102382690D01*
X100256524Y-102529008D01*
X100141558Y-102701069D01*
X100062370Y-102892245D01*
X100062368Y-102892253D01*
X100022000Y-103095196D01*
X100022000Y-103302135D01*
X100062368Y-103505078D01*
X100062370Y-103505086D01*
X100141558Y-103696262D01*
X100256524Y-103868323D01*
X100294686Y-103906485D01*
X100328171Y-103967808D01*
X100323187Y-104037500D01*
X100281315Y-104093433D01*
X100215851Y-104117850D01*
X100207005Y-104118166D01*
X95837334Y-104118166D01*
X95770295Y-104098481D01*
X95724540Y-104045677D01*
X95714596Y-103976519D01*
X95743621Y-103912963D01*
X95749653Y-103906485D01*
X99930653Y-99725485D01*
X99957580Y-99710781D01*
X99983399Y-99694189D01*
X99989599Y-99693297D01*
X99991976Y-99692000D01*
X100018334Y-99689166D01*
X100257005Y-99689166D01*
X100324044Y-99708851D01*
X100369799Y-99761655D01*
X100379743Y-99830813D01*
X100350718Y-99894369D01*
X100344686Y-99900847D01*
X100256525Y-99989007D01*
X100256524Y-99989008D01*
X100141558Y-100161069D01*
X100062370Y-100352245D01*
X100062368Y-100352253D01*
X100022000Y-100555196D01*
X100022000Y-100762135D01*
X100062368Y-100965078D01*
X100062370Y-100965086D01*
X100134062Y-101138166D01*
X100141559Y-101156264D01*
X100150022Y-101168930D01*
X100256524Y-101328323D01*
X100402842Y-101474641D01*
X100402845Y-101474643D01*
X100574902Y-101589607D01*
X100766080Y-101668796D01*
X100948941Y-101705169D01*
X100969030Y-101709165D01*
X100969034Y-101709166D01*
X100969035Y-101709166D01*
X101175966Y-101709166D01*
X101175967Y-101709165D01*
X101378920Y-101668796D01*
X101570098Y-101589607D01*
X101742155Y-101474643D01*
X101888477Y-101328321D01*
X102003441Y-101156264D01*
X102082630Y-100965086D01*
X102123000Y-100762131D01*
X102123000Y-100555201D01*
X102082630Y-100352246D01*
X102003441Y-100161068D01*
X101888477Y-99989011D01*
X101888475Y-99989008D01*
X101800314Y-99900847D01*
X101766829Y-99839524D01*
X101771813Y-99769832D01*
X101813685Y-99713899D01*
X101879149Y-99689482D01*
X101887995Y-99689166D01*
X102797005Y-99689166D01*
X102864044Y-99708851D01*
X102909799Y-99761655D01*
X102919743Y-99830813D01*
X102890718Y-99894369D01*
X102884686Y-99900847D01*
X102796525Y-99989007D01*
X102796524Y-99989008D01*
X102681558Y-100161069D01*
X102602370Y-100352245D01*
X102602368Y-100352253D01*
X102562000Y-100555196D01*
X102562000Y-100762135D01*
X102602368Y-100965078D01*
X102602370Y-100965086D01*
X102674062Y-101138166D01*
X102681559Y-101156264D01*
X102690022Y-101168930D01*
X102796524Y-101328323D01*
X102942842Y-101474641D01*
X102942845Y-101474643D01*
X103114902Y-101589607D01*
X103306080Y-101668796D01*
X103488941Y-101705169D01*
X103509030Y-101709165D01*
X103509034Y-101709166D01*
X103509035Y-101709166D01*
X103715966Y-101709166D01*
X103715967Y-101709165D01*
X103918920Y-101668796D01*
X104110098Y-101589607D01*
X104282155Y-101474643D01*
X104428477Y-101328321D01*
X104543441Y-101156264D01*
X104622630Y-100965086D01*
X104663000Y-100762131D01*
X104663000Y-100555201D01*
X104622630Y-100352246D01*
X104543441Y-100161068D01*
X104428477Y-99989011D01*
X104428475Y-99989008D01*
X104282157Y-99842690D01*
X104262253Y-99829391D01*
X104233398Y-99810110D01*
X104188594Y-99756500D01*
X104179885Y-99687175D01*
X104210040Y-99624147D01*
X104214590Y-99619346D01*
X104260760Y-99573177D01*
X105058660Y-98775277D01*
X105075883Y-98745446D01*
X105098221Y-98706755D01*
X105118700Y-98630328D01*
X105118700Y-94204804D01*
X105098221Y-94128377D01*
X105073272Y-94085164D01*
X105058664Y-94059861D01*
X105058658Y-94059853D01*
X104599575Y-93600770D01*
X104566090Y-93539447D01*
X104571074Y-93469755D01*
X104572663Y-93465715D01*
X104622630Y-93345086D01*
X104663000Y-93142131D01*
X104663000Y-92935201D01*
X104622630Y-92732246D01*
X104543441Y-92541068D01*
X104428477Y-92369011D01*
X104428475Y-92369008D01*
X104282157Y-92222690D01*
X104160878Y-92141655D01*
X104110098Y-92107725D01*
X104088674Y-92098851D01*
X103918920Y-92028536D01*
X103918912Y-92028534D01*
X103715969Y-91988166D01*
X103715965Y-91988166D01*
X103509035Y-91988166D01*
X103509030Y-91988166D01*
X103306087Y-92028534D01*
X103306079Y-92028536D01*
X103114903Y-92107724D01*
X102942842Y-92222690D01*
X102796525Y-92369007D01*
X102796519Y-92369015D01*
X102754973Y-92431194D01*
X102701361Y-92476000D01*
X102632036Y-92484707D01*
X102569009Y-92454553D01*
X102564190Y-92449985D01*
X101866899Y-91752694D01*
X101833414Y-91691371D01*
X101830962Y-91655283D01*
X101834216Y-91613935D01*
X101201908Y-90981628D01*
X101265493Y-90964591D01*
X101379507Y-90898765D01*
X101472599Y-90805673D01*
X101538425Y-90691659D01*
X101555462Y-90628074D01*
X102187770Y-91260383D01*
X102187770Y-91260382D01*
X102227122Y-91206220D01*
X102323595Y-91016883D01*
X102389255Y-90814800D01*
X102398556Y-90756078D01*
X102428485Y-90692943D01*
X102487796Y-90656012D01*
X102557659Y-90657008D01*
X102615892Y-90695618D01*
X102642647Y-90751282D01*
X102650447Y-90790496D01*
X102650450Y-90790505D01*
X102725864Y-90972573D01*
X102725871Y-90972586D01*
X102835360Y-91136447D01*
X102835363Y-91136451D01*
X102974714Y-91275802D01*
X102974718Y-91275805D01*
X103138579Y-91385294D01*
X103138592Y-91385301D01*
X103320660Y-91460715D01*
X103320665Y-91460717D01*
X103320669Y-91460717D01*
X103320670Y-91460718D01*
X103513956Y-91499166D01*
X103513959Y-91499166D01*
X103711043Y-91499166D01*
X103841082Y-91473298D01*
X103904335Y-91460717D01*
X104086414Y-91385298D01*
X104250282Y-91275805D01*
X104389639Y-91136448D01*
X104499132Y-90972580D01*
X104574551Y-90790501D01*
X104601303Y-90656012D01*
X104613000Y-90597209D01*
X104613000Y-90400122D01*
X104574552Y-90206836D01*
X104574551Y-90206833D01*
X104574551Y-90206831D01*
X104552889Y-90154534D01*
X104499135Y-90024758D01*
X104499128Y-90024745D01*
X104389639Y-89860884D01*
X104389636Y-89860880D01*
X104250285Y-89721529D01*
X104250281Y-89721526D01*
X104086420Y-89612037D01*
X104086407Y-89612030D01*
X103904339Y-89536616D01*
X103904329Y-89536613D01*
X103711043Y-89498166D01*
X103711041Y-89498166D01*
X103513959Y-89498166D01*
X103513957Y-89498166D01*
X103320670Y-89536613D01*
X103320660Y-89536616D01*
X103138592Y-89612030D01*
X103138579Y-89612037D01*
X102974718Y-89721526D01*
X102974714Y-89721529D01*
X102835363Y-89860880D01*
X102835360Y-89860884D01*
X102725871Y-90024745D01*
X102725864Y-90024758D01*
X102650450Y-90206826D01*
X102650448Y-90206833D01*
X102642647Y-90246050D01*
X102610261Y-90307960D01*
X102549544Y-90342533D01*
X102479775Y-90338792D01*
X102423104Y-90297924D01*
X102398556Y-90241253D01*
X102389255Y-90182531D01*
X102323595Y-89980448D01*
X102227124Y-89791115D01*
X102187770Y-89736948D01*
X102187769Y-89736948D01*
X101555462Y-90369256D01*
X101538425Y-90305673D01*
X101472599Y-90191659D01*
X101379507Y-90098567D01*
X101265493Y-90032741D01*
X101201909Y-90015703D01*
X101834216Y-89383394D01*
X101780050Y-89344041D01*
X101770454Y-89339152D01*
X101719657Y-89291178D01*
X101702861Y-89223358D01*
X101725397Y-89157222D01*
X101770454Y-89118180D01*
X101780054Y-89113288D01*
X101834216Y-89073936D01*
X101834217Y-89073936D01*
X101201908Y-88441628D01*
X101265493Y-88424591D01*
X101379507Y-88358765D01*
X101472599Y-88265673D01*
X101538425Y-88151659D01*
X101555462Y-88088074D01*
X102187770Y-88720383D01*
X102187770Y-88720382D01*
X102227122Y-88666220D01*
X102323595Y-88476883D01*
X102389255Y-88274800D01*
X102398556Y-88216078D01*
X102428485Y-88152943D01*
X102487796Y-88116012D01*
X102557659Y-88117008D01*
X102615892Y-88155618D01*
X102642647Y-88211282D01*
X102650447Y-88250496D01*
X102650450Y-88250505D01*
X102725864Y-88432573D01*
X102725871Y-88432586D01*
X102835360Y-88596447D01*
X102835363Y-88596451D01*
X102974714Y-88735802D01*
X102974718Y-88735805D01*
X103138579Y-88845294D01*
X103138592Y-88845301D01*
X103315520Y-88918586D01*
X103320665Y-88920717D01*
X103320669Y-88920717D01*
X103320670Y-88920718D01*
X103513956Y-88959166D01*
X103513959Y-88959166D01*
X103711043Y-88959166D01*
X103841082Y-88933298D01*
X103904335Y-88920717D01*
X104086414Y-88845298D01*
X104250282Y-88735805D01*
X104389639Y-88596448D01*
X104499132Y-88432580D01*
X104574551Y-88250501D01*
X104601303Y-88116012D01*
X104613000Y-88057209D01*
X104613000Y-87860122D01*
X104574552Y-87666836D01*
X104574551Y-87666833D01*
X104574551Y-87666831D01*
X104549942Y-87607418D01*
X104499135Y-87484758D01*
X104499128Y-87484745D01*
X104389639Y-87320884D01*
X104389636Y-87320880D01*
X104250285Y-87181529D01*
X104250281Y-87181526D01*
X104086420Y-87072037D01*
X104086407Y-87072030D01*
X103904339Y-86996616D01*
X103904329Y-86996613D01*
X103711043Y-86958166D01*
X103711041Y-86958166D01*
X103513959Y-86958166D01*
X103513957Y-86958166D01*
X103320670Y-86996613D01*
X103320660Y-86996616D01*
X103138592Y-87072030D01*
X103138579Y-87072037D01*
X102974718Y-87181526D01*
X102974714Y-87181529D01*
X102835363Y-87320880D01*
X102835360Y-87320884D01*
X102725871Y-87484745D01*
X102725864Y-87484758D01*
X102650450Y-87666826D01*
X102650448Y-87666833D01*
X102642647Y-87706050D01*
X102610261Y-87767960D01*
X102549544Y-87802533D01*
X102479775Y-87798792D01*
X102423104Y-87757924D01*
X102398556Y-87701253D01*
X102389255Y-87642531D01*
X102323595Y-87440448D01*
X102227124Y-87251115D01*
X102187770Y-87196948D01*
X102187769Y-87196948D01*
X101555462Y-87829256D01*
X101538425Y-87765673D01*
X101472599Y-87651659D01*
X101379507Y-87558567D01*
X101265493Y-87492741D01*
X101201909Y-87475703D01*
X101834216Y-86843394D01*
X101780050Y-86804041D01*
X101770454Y-86799152D01*
X101719657Y-86751178D01*
X101702861Y-86683358D01*
X101725397Y-86617222D01*
X101770454Y-86578180D01*
X101780054Y-86573288D01*
X101834216Y-86533936D01*
X101834217Y-86533936D01*
X101201908Y-85901628D01*
X101265493Y-85884591D01*
X101379507Y-85818765D01*
X101472599Y-85725673D01*
X101538425Y-85611659D01*
X101555462Y-85548074D01*
X102187770Y-86180383D01*
X102187770Y-86180382D01*
X102227122Y-86126220D01*
X102323595Y-85936883D01*
X102370069Y-85793851D01*
X102409506Y-85736176D01*
X102473865Y-85708977D01*
X102542711Y-85720891D01*
X102594187Y-85768135D01*
X102612000Y-85832169D01*
X102612000Y-86283486D01*
X102612000Y-86283488D01*
X102611999Y-86283488D01*
X102620731Y-86327383D01*
X102620732Y-86327387D01*
X102620733Y-86327388D01*
X102653996Y-86377170D01*
X102703778Y-86410433D01*
X102703781Y-86410433D01*
X102703782Y-86410434D01*
X102747677Y-86419166D01*
X102747680Y-86419166D01*
X104477322Y-86419166D01*
X104521217Y-86410434D01*
X104521217Y-86410433D01*
X104521222Y-86410433D01*
X104571004Y-86377170D01*
X104604267Y-86327388D01*
X104605415Y-86321615D01*
X104613000Y-86283488D01*
X104613000Y-84553843D01*
X104604268Y-84509948D01*
X104604267Y-84509947D01*
X104604267Y-84509944D01*
X104571004Y-84460162D01*
X104571003Y-84460161D01*
X104521224Y-84426900D01*
X104521217Y-84426897D01*
X104477322Y-84418166D01*
X104477320Y-84418166D01*
X102747680Y-84418166D01*
X102747678Y-84418166D01*
X102703782Y-84426897D01*
X102703775Y-84426900D01*
X102653996Y-84460161D01*
X102653995Y-84460162D01*
X102620734Y-84509941D01*
X102620731Y-84509948D01*
X102612000Y-84553843D01*
X102612000Y-85005162D01*
X102592315Y-85072201D01*
X102539511Y-85117956D01*
X102470353Y-85127900D01*
X102406797Y-85098875D01*
X102370069Y-85043480D01*
X102323595Y-84900448D01*
X102227124Y-84711115D01*
X102187770Y-84656948D01*
X102187769Y-84656948D01*
X101555462Y-85289256D01*
X101538425Y-85225673D01*
X101472599Y-85111659D01*
X101379507Y-85018567D01*
X101265493Y-84952741D01*
X101201909Y-84935703D01*
X101834216Y-84303394D01*
X101780050Y-84264041D01*
X101590717Y-84167570D01*
X101388629Y-84101908D01*
X101178746Y-84068666D01*
X100966254Y-84068666D01*
X100756372Y-84101908D01*
X100756369Y-84101908D01*
X100554282Y-84167570D01*
X100364939Y-84264046D01*
X100310782Y-84303393D01*
X100310782Y-84303394D01*
X100943091Y-84935703D01*
X100879507Y-84952741D01*
X100765493Y-85018567D01*
X100672401Y-85111659D01*
X100606575Y-85225673D01*
X100589537Y-85289257D01*
X99957228Y-84656948D01*
X99957227Y-84656948D01*
X99917880Y-84711105D01*
X99821404Y-84900448D01*
X99755742Y-85102535D01*
X99755742Y-85102538D01*
X99722500Y-85312419D01*
X99722500Y-85524912D01*
X99755742Y-85734793D01*
X99755742Y-85734796D01*
X99821404Y-85936883D01*
X99917875Y-86126216D01*
X99957228Y-86180382D01*
X100589537Y-85548074D01*
X100606575Y-85611659D01*
X100672401Y-85725673D01*
X100765493Y-85818765D01*
X100879507Y-85884591D01*
X100943091Y-85901628D01*
X100342471Y-86502247D01*
X100421211Y-86619561D01*
X100422420Y-86623395D01*
X100425344Y-86626157D01*
X100432843Y-86656444D01*
X100442227Y-86686195D01*
X100441171Y-86690074D01*
X100442138Y-86693978D01*
X100432073Y-86723510D01*
X100423883Y-86753613D01*
X100420897Y-86756306D01*
X100419600Y-86760113D01*
X100374551Y-86799149D01*
X100364940Y-86804046D01*
X100310782Y-86843393D01*
X100310782Y-86843394D01*
X100943091Y-87475703D01*
X100879507Y-87492741D01*
X100765493Y-87558567D01*
X100672401Y-87651659D01*
X100606575Y-87765673D01*
X100589537Y-87829257D01*
X99957228Y-87196948D01*
X99957227Y-87196948D01*
X99917880Y-87251105D01*
X99821404Y-87440448D01*
X99755742Y-87642535D01*
X99755742Y-87642538D01*
X99722500Y-87852419D01*
X99722500Y-88064912D01*
X99755742Y-88274793D01*
X99755742Y-88274796D01*
X99821404Y-88476883D01*
X99917875Y-88666216D01*
X99957228Y-88720382D01*
X100589537Y-88088074D01*
X100606575Y-88151659D01*
X100672401Y-88265673D01*
X100765493Y-88358765D01*
X100879507Y-88424591D01*
X100943090Y-88441628D01*
X100310782Y-89073935D01*
X100310782Y-89073936D01*
X100364952Y-89113292D01*
X100374548Y-89118182D01*
X100425344Y-89166157D01*
X100442138Y-89233978D01*
X100419600Y-89300113D01*
X100374551Y-89339149D01*
X100364940Y-89344046D01*
X100310782Y-89383393D01*
X100310782Y-89383394D01*
X100943091Y-90015703D01*
X100879507Y-90032741D01*
X100765493Y-90098567D01*
X100672401Y-90191659D01*
X100606575Y-90305673D01*
X100589537Y-90369257D01*
X99957228Y-89736948D01*
X99957227Y-89736948D01*
X99917880Y-89791105D01*
X99821404Y-89980448D01*
X99755742Y-90182535D01*
X99755742Y-90182538D01*
X99722500Y-90392419D01*
X99722500Y-90604912D01*
X99755742Y-90814793D01*
X99755742Y-90814796D01*
X99821404Y-91016883D01*
X99917879Y-91206223D01*
X99965146Y-91271281D01*
X99969377Y-91283140D01*
X99977622Y-91292655D01*
X99980895Y-91315421D01*
X99988626Y-91337087D01*
X99985774Y-91349351D01*
X99987566Y-91361813D01*
X99978011Y-91382735D01*
X99972801Y-91405141D01*
X99963771Y-91413916D01*
X99958541Y-91425369D01*
X99939191Y-91437804D01*
X99922695Y-91453836D01*
X99908947Y-91457240D01*
X99899763Y-91463143D01*
X99864828Y-91468166D01*
X99687833Y-91468166D01*
X99620794Y-91448481D01*
X99600152Y-91431847D01*
X94626512Y-86458207D01*
X94626504Y-86458201D01*
X94557995Y-86418648D01*
X94557990Y-86418645D01*
X94527342Y-86410433D01*
X94481562Y-86398166D01*
X94481560Y-86398166D01*
X92737338Y-86398166D01*
X92670299Y-86378481D01*
X92624544Y-86325677D01*
X92622775Y-86321615D01*
X92621894Y-86319487D01*
X92621891Y-86319482D01*
X92621890Y-86319480D01*
X92534289Y-86188377D01*
X92534286Y-86188373D01*
X92422792Y-86076879D01*
X92422788Y-86076876D01*
X92291685Y-85989275D01*
X92291672Y-85989268D01*
X92146001Y-85928930D01*
X92145989Y-85928927D01*
X91991345Y-85898166D01*
X91991342Y-85898166D01*
X91033658Y-85898166D01*
X91033655Y-85898166D01*
X90879010Y-85928927D01*
X90878998Y-85928930D01*
X90733327Y-85989268D01*
X90733316Y-85989274D01*
X90704190Y-86008736D01*
X90637512Y-86029613D01*
X90570132Y-86011128D01*
X90523443Y-85959149D01*
X90511300Y-85905633D01*
X90511300Y-84951698D01*
X90530985Y-84884659D01*
X90583789Y-84838904D01*
X90652947Y-84828960D01*
X90704192Y-84848597D01*
X90733312Y-84868055D01*
X90733327Y-84868063D01*
X90878998Y-84928401D01*
X90879003Y-84928403D01*
X91001358Y-84952741D01*
X91033653Y-84959165D01*
X91033656Y-84959166D01*
X91033658Y-84959166D01*
X91991344Y-84959166D01*
X91991345Y-84959165D01*
X92145997Y-84928403D01*
X92291679Y-84868060D01*
X92422789Y-84780455D01*
X92534289Y-84668955D01*
X92621894Y-84537845D01*
X92682237Y-84392163D01*
X92707722Y-84264041D01*
X92713000Y-84237510D01*
X92713000Y-84079821D01*
X92712999Y-84079819D01*
X92682237Y-83925169D01*
X92682235Y-83925164D01*
X92621897Y-83779493D01*
X92621890Y-83779480D01*
X92534289Y-83648377D01*
X92534286Y-83648373D01*
X92422792Y-83536879D01*
X92422788Y-83536876D01*
X92291685Y-83449275D01*
X92291672Y-83449268D01*
X92146001Y-83388930D01*
X92145989Y-83388927D01*
X91991345Y-83358166D01*
X91991342Y-83358166D01*
X91033658Y-83358166D01*
X91033655Y-83358166D01*
X90879010Y-83388927D01*
X90878998Y-83388930D01*
X90733327Y-83449268D01*
X90733314Y-83449275D01*
X90602211Y-83536876D01*
X90602207Y-83536879D01*
X90490713Y-83648373D01*
X90490710Y-83648377D01*
X90403109Y-83779480D01*
X90403107Y-83779485D01*
X90402225Y-83781615D01*
X90401464Y-83782559D01*
X90400236Y-83784857D01*
X90399800Y-83784624D01*
X90389680Y-83797182D01*
X90381375Y-83815369D01*
X90368206Y-83823832D01*
X90358385Y-83836020D01*
X90339415Y-83842334D01*
X90322597Y-83853143D01*
X90295042Y-83857104D01*
X90292092Y-83858087D01*
X90287662Y-83858166D01*
X90205500Y-83858166D01*
X90138461Y-83838481D01*
X90092706Y-83785677D01*
X90081500Y-83734166D01*
X90081500Y-82224299D01*
X90101185Y-82157260D01*
X90117813Y-82136623D01*
X90237583Y-82016853D01*
X90298902Y-81983371D01*
X90368594Y-81988355D01*
X90424528Y-82030226D01*
X90428363Y-82035646D01*
X90490710Y-82128954D01*
X90490713Y-82128958D01*
X90602207Y-82240452D01*
X90602211Y-82240455D01*
X90733314Y-82328056D01*
X90733327Y-82328063D01*
X90878998Y-82388401D01*
X90879003Y-82388403D01*
X91033653Y-82419165D01*
X91033656Y-82419166D01*
X91033658Y-82419166D01*
X91991344Y-82419166D01*
X91991345Y-82419165D01*
X92145997Y-82388403D01*
X92291679Y-82328060D01*
X92422789Y-82240455D01*
X92534289Y-82128955D01*
X92621894Y-81997845D01*
X92682237Y-81852163D01*
X92713000Y-81697508D01*
X92713000Y-81539824D01*
X92713000Y-81539821D01*
X92712999Y-81539819D01*
X92682238Y-81385176D01*
X92682237Y-81385169D01*
X92627063Y-81251965D01*
X92621897Y-81239493D01*
X92621887Y-81239475D01*
X92602364Y-81210256D01*
X92581486Y-81143579D01*
X92599971Y-81076199D01*
X92651950Y-81029509D01*
X92705466Y-81017366D01*
X98057367Y-81017366D01*
X98124406Y-81037051D01*
X98145048Y-81053685D01*
X98283289Y-81191926D01*
X98342629Y-81226186D01*
X98351808Y-81231486D01*
X98351812Y-81231488D01*
X98428238Y-81251966D01*
X98428240Y-81251966D01*
X99117960Y-81251966D01*
X99117962Y-81251966D01*
X99194389Y-81231487D01*
X99262911Y-81191926D01*
X99318860Y-81135977D01*
X99705160Y-80749677D01*
X99744722Y-80681154D01*
X99765200Y-80604728D01*
X99765200Y-80525604D01*
X99765200Y-79042300D01*
X99784885Y-78975261D01*
X99801519Y-78954619D01*
X102450653Y-76305485D01*
X102511976Y-76272000D01*
X102538334Y-76269166D01*
X102797005Y-76269166D01*
X102864044Y-76288851D01*
X102909799Y-76341655D01*
X102919743Y-76410813D01*
X102890718Y-76474369D01*
X102884686Y-76480847D01*
X102796525Y-76569007D01*
X102796524Y-76569008D01*
X102681558Y-76741069D01*
X102602370Y-76932245D01*
X102602368Y-76932253D01*
X102562000Y-77135196D01*
X102562000Y-77342135D01*
X102602368Y-77545078D01*
X102602370Y-77545086D01*
X102681558Y-77736262D01*
X102796524Y-77908323D01*
X102942842Y-78054641D01*
X103114905Y-78169609D01*
X103217543Y-78212122D01*
X103279608Y-78237830D01*
X103334011Y-78281671D01*
X103356076Y-78347965D01*
X103338797Y-78415664D01*
X103287660Y-78463275D01*
X103270474Y-78470322D01*
X103094281Y-78527571D01*
X102904939Y-78624046D01*
X102850782Y-78663393D01*
X102850782Y-78663394D01*
X103483091Y-79295703D01*
X103419507Y-79312741D01*
X103305493Y-79378567D01*
X103212401Y-79471659D01*
X103146575Y-79585673D01*
X103129537Y-79649257D01*
X102497228Y-79016948D01*
X102497227Y-79016948D01*
X102457880Y-79071105D01*
X102361404Y-79260448D01*
X102295742Y-79462535D01*
X102295742Y-79462538D01*
X102262500Y-79672419D01*
X102262500Y-79884912D01*
X102295742Y-80094793D01*
X102295742Y-80094796D01*
X102361404Y-80296883D01*
X102457875Y-80486216D01*
X102497228Y-80540382D01*
X103129537Y-79908074D01*
X103146575Y-79971659D01*
X103212401Y-80085673D01*
X103305493Y-80178765D01*
X103419507Y-80244591D01*
X103483090Y-80261628D01*
X102850782Y-80893935D01*
X102850782Y-80893936D01*
X102904949Y-80933290D01*
X103094282Y-81029761D01*
X103296370Y-81095423D01*
X103506254Y-81128666D01*
X103718746Y-81128666D01*
X103928627Y-81095423D01*
X103928630Y-81095423D01*
X104130717Y-81029761D01*
X104320054Y-80933288D01*
X104374216Y-80893936D01*
X104374217Y-80893936D01*
X103741908Y-80261628D01*
X103805493Y-80244591D01*
X103919507Y-80178765D01*
X104012599Y-80085673D01*
X104078425Y-79971659D01*
X104095462Y-79908075D01*
X104727770Y-80540383D01*
X104727770Y-80540382D01*
X104767122Y-80486220D01*
X104863595Y-80296883D01*
X104929257Y-80094796D01*
X104929257Y-80094793D01*
X104962500Y-79884912D01*
X104962500Y-79672419D01*
X104929257Y-79462538D01*
X104929257Y-79462535D01*
X104863595Y-79260448D01*
X104767124Y-79071115D01*
X104727770Y-79016948D01*
X104727769Y-79016948D01*
X104095462Y-79649256D01*
X104078425Y-79585673D01*
X104012599Y-79471659D01*
X103919507Y-79378567D01*
X103805493Y-79312741D01*
X103741909Y-79295703D01*
X104374216Y-78663394D01*
X104320050Y-78624041D01*
X104130716Y-78527570D01*
X103954526Y-78470322D01*
X103896850Y-78430884D01*
X103869652Y-78366526D01*
X103881567Y-78297679D01*
X103928811Y-78246204D01*
X103945382Y-78237834D01*
X104110098Y-78169607D01*
X104282155Y-78054643D01*
X104428477Y-77908321D01*
X104543441Y-77736264D01*
X104622630Y-77545086D01*
X104663000Y-77342131D01*
X104663000Y-77135201D01*
X104622630Y-76932246D01*
X104543441Y-76741068D01*
X104428477Y-76569011D01*
X104428475Y-76569008D01*
X104282157Y-76422690D01*
X104251323Y-76402088D01*
X104206517Y-76348476D01*
X104197810Y-76279151D01*
X104227964Y-76216123D01*
X104232533Y-76211303D01*
X104234708Y-76209127D01*
X104234711Y-76209126D01*
X104290660Y-76153177D01*
X105072860Y-75370977D01*
X105077032Y-75363750D01*
X105112421Y-75302455D01*
X105132900Y-75226028D01*
X105132900Y-68259004D01*
X105112421Y-68182577D01*
X105092995Y-68148930D01*
X105072864Y-68114061D01*
X105072858Y-68114053D01*
X104599575Y-67640770D01*
X104566090Y-67579447D01*
X104571074Y-67509755D01*
X104572663Y-67505715D01*
X104622630Y-67385086D01*
X104663000Y-67182131D01*
X104663000Y-66975201D01*
X104622630Y-66772246D01*
X104543441Y-66581068D01*
X104428477Y-66409011D01*
X104428475Y-66409008D01*
X104282157Y-66262690D01*
X104196126Y-66205207D01*
X104110098Y-66147725D01*
X104103944Y-66145176D01*
X103918920Y-66068536D01*
X103918912Y-66068534D01*
X103715969Y-66028166D01*
X103715965Y-66028166D01*
X103509035Y-66028166D01*
X103509030Y-66028166D01*
X103306087Y-66068534D01*
X103306079Y-66068536D01*
X103114903Y-66147724D01*
X102942842Y-66262690D01*
X102796524Y-66409008D01*
X102681558Y-66581069D01*
X102602370Y-66772245D01*
X102602368Y-66772253D01*
X102562000Y-66975196D01*
X102562000Y-67182135D01*
X102602368Y-67385078D01*
X102602370Y-67385086D01*
X102681558Y-67576262D01*
X102796524Y-67748323D01*
X102942842Y-67894641D01*
X102942845Y-67894643D01*
X103114902Y-68009607D01*
X103306080Y-68088796D01*
X103453734Y-68118166D01*
X103509030Y-68129165D01*
X103509034Y-68129166D01*
X103509035Y-68129166D01*
X103715966Y-68129166D01*
X103715967Y-68129165D01*
X103918920Y-68088796D01*
X104039474Y-68038860D01*
X104108938Y-68031392D01*
X104171418Y-68062666D01*
X104174604Y-68065741D01*
X104495581Y-68386718D01*
X104529066Y-68448041D01*
X104531900Y-68474399D01*
X104531900Y-68753071D01*
X104512215Y-68820110D01*
X104459411Y-68865865D01*
X104390253Y-68875809D01*
X104326697Y-68846784D01*
X104320219Y-68840752D01*
X104282157Y-68802690D01*
X104115116Y-68691078D01*
X104110098Y-68687725D01*
X104110093Y-68687723D01*
X103918920Y-68608536D01*
X103918912Y-68608534D01*
X103715969Y-68568166D01*
X103715965Y-68568166D01*
X103509035Y-68568166D01*
X103509030Y-68568166D01*
X103306087Y-68608534D01*
X103306079Y-68608536D01*
X103185529Y-68658470D01*
X103116059Y-68665939D01*
X103053580Y-68634664D01*
X103050395Y-68631590D01*
X101782112Y-67363307D01*
X101782104Y-67363301D01*
X101713595Y-67323748D01*
X101713590Y-67323745D01*
X101688113Y-67316918D01*
X101637162Y-67303266D01*
X101637160Y-67303266D01*
X92378375Y-67303266D01*
X92311336Y-67283581D01*
X92265581Y-67230777D01*
X92255637Y-67161619D01*
X92284662Y-67098063D01*
X92309484Y-67076164D01*
X92375537Y-67032027D01*
X92422789Y-67000455D01*
X92534289Y-66888955D01*
X92621894Y-66757845D01*
X92622775Y-66755715D01*
X92623535Y-66754772D01*
X92624764Y-66752475D01*
X92625199Y-66752707D01*
X92666615Y-66701312D01*
X92732908Y-66679245D01*
X92737338Y-66679166D01*
X92853760Y-66679166D01*
X92853762Y-66679166D01*
X92930189Y-66658687D01*
X92998711Y-66619126D01*
X93054660Y-66563177D01*
X94742352Y-64875485D01*
X94803675Y-64842000D01*
X94830033Y-64839166D01*
X102517064Y-64839166D01*
X102584103Y-64858851D01*
X102629858Y-64911655D01*
X102631625Y-64915713D01*
X102681558Y-65036262D01*
X102796524Y-65208323D01*
X102942842Y-65354641D01*
X102942845Y-65354643D01*
X103114902Y-65469607D01*
X103306080Y-65548796D01*
X103453734Y-65578166D01*
X103509030Y-65589165D01*
X103509034Y-65589166D01*
X103509035Y-65589166D01*
X103715966Y-65589166D01*
X103715967Y-65589165D01*
X103918920Y-65548796D01*
X104110098Y-65469607D01*
X104282155Y-65354643D01*
X104428477Y-65208321D01*
X104543441Y-65036264D01*
X104622630Y-64845086D01*
X104663000Y-64642131D01*
X104663000Y-64435201D01*
X104622630Y-64232246D01*
X104543441Y-64041068D01*
X104428477Y-63869011D01*
X104428475Y-63869008D01*
X104282157Y-63722690D01*
X104176416Y-63652037D01*
X104110098Y-63607725D01*
X104103944Y-63605176D01*
X103918920Y-63528536D01*
X103918912Y-63528534D01*
X103715969Y-63488166D01*
X103715965Y-63488166D01*
X103509035Y-63488166D01*
X103509030Y-63488166D01*
X103306087Y-63528534D01*
X103306079Y-63528536D01*
X103114903Y-63607724D01*
X102942842Y-63722690D01*
X102796524Y-63869008D01*
X102681558Y-64041069D01*
X102631625Y-64161619D01*
X102587784Y-64216022D01*
X102521490Y-64238087D01*
X102517064Y-64238166D01*
X94614638Y-64238166D01*
X94582282Y-64246836D01*
X94538209Y-64258645D01*
X94538204Y-64258648D01*
X94469695Y-64298201D01*
X94469687Y-64298207D01*
X92787419Y-65980475D01*
X92726096Y-66013960D01*
X92656404Y-66008976D01*
X92600471Y-65967104D01*
X92596636Y-65961685D01*
X92534289Y-65868377D01*
X92534286Y-65868373D01*
X92422792Y-65756879D01*
X92422788Y-65756876D01*
X92291685Y-65669275D01*
X92291672Y-65669268D01*
X92146001Y-65608930D01*
X92145989Y-65608927D01*
X91991345Y-65578166D01*
X91991342Y-65578166D01*
X91033658Y-65578166D01*
X91033655Y-65578166D01*
X90879010Y-65608927D01*
X90878998Y-65608930D01*
X90733327Y-65669268D01*
X90733314Y-65669275D01*
X90602211Y-65756876D01*
X90602207Y-65756879D01*
X90490713Y-65868373D01*
X90490710Y-65868377D01*
X90403109Y-65999480D01*
X90403102Y-65999493D01*
X90342764Y-66145164D01*
X90342761Y-66145176D01*
X90312000Y-66299819D01*
X90312000Y-66457512D01*
X90342761Y-66612155D01*
X90342764Y-66612167D01*
X90403102Y-66757838D01*
X90403109Y-66757851D01*
X90490710Y-66888954D01*
X90490713Y-66888958D01*
X90602207Y-67000452D01*
X90602211Y-67000455D01*
X90715516Y-67076164D01*
X90760321Y-67129776D01*
X90769028Y-67199101D01*
X90738873Y-67262129D01*
X90679430Y-67298848D01*
X90646625Y-67303266D01*
X73895133Y-67303266D01*
X73828094Y-67283581D01*
X73807452Y-67266947D01*
X67598712Y-61058207D01*
X67598704Y-61058201D01*
X67530195Y-61018648D01*
X67530190Y-61018645D01*
X67487288Y-61007149D01*
X67453762Y-60998166D01*
X67335913Y-60998166D01*
X67334510Y-60998134D01*
X67302506Y-60987938D01*
X67270299Y-60978481D01*
X67269337Y-60977371D01*
X67267937Y-60976925D01*
X67246514Y-60951032D01*
X67224544Y-60925677D01*
X67223440Y-60923143D01*
X67223398Y-60923092D01*
X67223390Y-60923027D01*
X67222775Y-60921615D01*
X67221894Y-60919487D01*
X67221891Y-60919482D01*
X67221890Y-60919480D01*
X67199255Y-60885604D01*
X89910300Y-60885604D01*
X89910300Y-61711728D01*
X89921274Y-61752684D01*
X89930732Y-61787982D01*
X89930779Y-61788155D01*
X89939892Y-61803939D01*
X89939893Y-61803942D01*
X89939894Y-61803942D01*
X89970340Y-61856677D01*
X90498740Y-62385077D01*
X90554689Y-62441026D01*
X90554691Y-62441027D01*
X90554695Y-62441030D01*
X90595505Y-62464591D01*
X90623211Y-62480587D01*
X90699638Y-62501066D01*
X90778762Y-62501066D01*
X91410067Y-62501066D01*
X91477106Y-62520751D01*
X91497748Y-62537385D01*
X91786848Y-62826485D01*
X91820333Y-62887808D01*
X91815349Y-62957500D01*
X91773477Y-63013433D01*
X91708013Y-63037850D01*
X91699167Y-63038166D01*
X91033655Y-63038166D01*
X90879010Y-63068927D01*
X90878998Y-63068930D01*
X90733327Y-63129268D01*
X90733314Y-63129275D01*
X90602211Y-63216876D01*
X90602207Y-63216879D01*
X90490713Y-63328373D01*
X90490710Y-63328377D01*
X90403109Y-63459480D01*
X90403102Y-63459493D01*
X90342764Y-63605164D01*
X90342761Y-63605176D01*
X90312000Y-63759819D01*
X90312000Y-63917512D01*
X90342761Y-64072155D01*
X90342764Y-64072167D01*
X90403102Y-64217838D01*
X90403109Y-64217851D01*
X90490710Y-64348954D01*
X90490713Y-64348958D01*
X90602207Y-64460452D01*
X90602211Y-64460455D01*
X90733314Y-64548056D01*
X90733327Y-64548063D01*
X90878998Y-64608401D01*
X90879003Y-64608403D01*
X91023810Y-64637207D01*
X91033653Y-64639165D01*
X91033656Y-64639166D01*
X91033658Y-64639166D01*
X91991344Y-64639166D01*
X91991345Y-64639165D01*
X92145997Y-64608403D01*
X92291679Y-64548060D01*
X92422789Y-64460455D01*
X92534289Y-64348955D01*
X92621894Y-64217845D01*
X92622775Y-64215715D01*
X92623535Y-64214772D01*
X92624764Y-64212475D01*
X92625199Y-64212707D01*
X92666615Y-64161312D01*
X92732908Y-64139245D01*
X92737338Y-64139166D01*
X92853760Y-64139166D01*
X92853762Y-64139166D01*
X92930189Y-64118687D01*
X92998711Y-64079126D01*
X93054660Y-64023177D01*
X93094221Y-63954655D01*
X93114700Y-63878228D01*
X93114700Y-63389304D01*
X93099718Y-63333390D01*
X93099718Y-63333388D01*
X93094223Y-63312881D01*
X93094222Y-63312879D01*
X93094222Y-63312878D01*
X93054660Y-63244355D01*
X92087094Y-62276789D01*
X92053609Y-62215466D01*
X92058593Y-62145774D01*
X92100465Y-62089841D01*
X92140690Y-62071903D01*
X92140165Y-62070172D01*
X92145989Y-62068404D01*
X92145997Y-62068403D01*
X92291679Y-62008060D01*
X92422789Y-61920455D01*
X92534289Y-61808955D01*
X92592976Y-61721124D01*
X92596636Y-61715647D01*
X92650248Y-61670841D01*
X92719573Y-61662134D01*
X92782600Y-61692288D01*
X92787419Y-61696856D01*
X92811689Y-61721126D01*
X92811691Y-61721127D01*
X92811695Y-61721130D01*
X92880204Y-61760683D01*
X92880211Y-61760687D01*
X92956638Y-61781166D01*
X98376324Y-61781166D01*
X98443363Y-61800851D01*
X98464005Y-61817485D01*
X98527686Y-61881166D01*
X98641814Y-61947058D01*
X98769108Y-61981166D01*
X98769110Y-61981166D01*
X98900890Y-61981166D01*
X98900892Y-61981166D01*
X99028186Y-61947058D01*
X99142314Y-61881166D01*
X99235500Y-61787980D01*
X99301392Y-61673852D01*
X99335500Y-61546558D01*
X99335500Y-61414774D01*
X99301392Y-61287480D01*
X99235500Y-61173352D01*
X99142314Y-61080166D01*
X99085250Y-61047220D01*
X99028187Y-61014274D01*
X98964539Y-60997220D01*
X98900892Y-60980166D01*
X98769108Y-60980166D01*
X98641812Y-61014274D01*
X98527686Y-61080166D01*
X98527683Y-61080168D01*
X98464005Y-61143847D01*
X98402682Y-61177332D01*
X98376324Y-61180166D01*
X93172033Y-61180166D01*
X93104994Y-61160481D01*
X93084352Y-61143847D01*
X92998712Y-61058207D01*
X92998704Y-61058201D01*
X92930195Y-61018648D01*
X92930190Y-61018645D01*
X92904713Y-61011818D01*
X92853762Y-60998166D01*
X92853760Y-60998166D01*
X92737338Y-60998166D01*
X92670299Y-60978481D01*
X92632647Y-60940618D01*
X92626889Y-60931547D01*
X92621894Y-60919487D01*
X92568748Y-60839949D01*
X92567967Y-60838718D01*
X92558698Y-60806481D01*
X92548678Y-60774480D01*
X92549078Y-60773021D01*
X92548660Y-60771568D01*
X92558290Y-60739439D01*
X92567162Y-60707099D01*
X92568287Y-60706088D01*
X92568721Y-60704641D01*
X92594172Y-60682836D01*
X92619141Y-60660409D01*
X92620788Y-60660035D01*
X92621782Y-60659184D01*
X92628825Y-60658211D01*
X92672658Y-60648266D01*
X101785767Y-60648266D01*
X101852806Y-60667951D01*
X101873448Y-60684585D01*
X102625424Y-61436561D01*
X102658909Y-61497884D01*
X102653925Y-61567576D01*
X102652304Y-61571695D01*
X102602370Y-61692245D01*
X102602368Y-61692253D01*
X102562000Y-61895196D01*
X102562000Y-62102135D01*
X102602368Y-62305078D01*
X102602370Y-62305086D01*
X102681558Y-62496262D01*
X102796524Y-62668323D01*
X102942842Y-62814641D01*
X102942845Y-62814643D01*
X103114902Y-62929607D01*
X103306080Y-63008796D01*
X103453734Y-63038166D01*
X103509030Y-63049165D01*
X103509034Y-63049166D01*
X103509035Y-63049166D01*
X103715966Y-63049166D01*
X103715967Y-63049165D01*
X103918920Y-63008796D01*
X104110098Y-62929607D01*
X104282155Y-62814643D01*
X104428477Y-62668321D01*
X104543441Y-62496264D01*
X104622630Y-62305086D01*
X104663000Y-62102131D01*
X104663000Y-61895201D01*
X104622630Y-61692246D01*
X104543441Y-61501068D01*
X104428477Y-61329011D01*
X104428475Y-61329008D01*
X104282157Y-61182690D01*
X104115116Y-61071078D01*
X104110098Y-61067725D01*
X104103944Y-61065176D01*
X103991609Y-61018645D01*
X103945390Y-60999500D01*
X103890988Y-60955660D01*
X103868923Y-60889366D01*
X103886202Y-60821667D01*
X103937339Y-60774056D01*
X103954526Y-60767009D01*
X104130717Y-60709761D01*
X104320054Y-60613288D01*
X104374216Y-60573936D01*
X104374217Y-60573936D01*
X103741908Y-59941628D01*
X103805493Y-59924591D01*
X103919507Y-59858765D01*
X104012599Y-59765673D01*
X104078425Y-59651659D01*
X104095462Y-59588075D01*
X104727770Y-60220383D01*
X104727770Y-60220382D01*
X104767122Y-60166220D01*
X104863595Y-59976883D01*
X104929257Y-59774796D01*
X104929257Y-59774793D01*
X104962500Y-59564912D01*
X104962500Y-59352419D01*
X104929257Y-59142538D01*
X104929257Y-59142535D01*
X104863595Y-58940448D01*
X104767124Y-58751115D01*
X104727770Y-58696948D01*
X104727769Y-58696948D01*
X104095462Y-59329256D01*
X104078425Y-59265673D01*
X104012599Y-59151659D01*
X103919507Y-59058567D01*
X103805493Y-58992741D01*
X103741909Y-58975703D01*
X104374216Y-58343394D01*
X104320050Y-58304041D01*
X104126379Y-58205360D01*
X104126896Y-58204344D01*
X104076692Y-58163887D01*
X104054627Y-58097593D01*
X104071906Y-58029894D01*
X104123042Y-57982283D01*
X104178548Y-57969166D01*
X104482250Y-57969166D01*
X104482251Y-57969165D01*
X104497068Y-57966218D01*
X104540729Y-57957534D01*
X104540729Y-57957533D01*
X104540731Y-57957533D01*
X104607052Y-57913218D01*
X104651367Y-57846897D01*
X104651367Y-57846895D01*
X104651368Y-57846895D01*
X104662999Y-57788418D01*
X104663000Y-57788416D01*
X104663000Y-56048915D01*
X104662999Y-56048913D01*
X104651368Y-55990436D01*
X104651367Y-55990435D01*
X104607052Y-55924113D01*
X104540730Y-55879798D01*
X104540729Y-55879797D01*
X104482252Y-55868166D01*
X104482248Y-55868166D01*
X102742752Y-55868166D01*
X102742747Y-55868166D01*
X102684270Y-55879797D01*
X102684269Y-55879798D01*
X102617947Y-55924113D01*
X102573632Y-55990435D01*
X102573631Y-55990436D01*
X102562000Y-56048913D01*
X102562000Y-57788418D01*
X102573631Y-57846895D01*
X102573632Y-57846896D01*
X102617947Y-57913218D01*
X102684269Y-57957533D01*
X102684270Y-57957534D01*
X102742747Y-57969165D01*
X102742750Y-57969166D01*
X103046452Y-57969166D01*
X103113491Y-57988851D01*
X103159246Y-58041655D01*
X103169190Y-58110813D01*
X103140165Y-58174369D01*
X103098235Y-58204604D01*
X103098621Y-58205360D01*
X102904939Y-58304046D01*
X102850782Y-58343393D01*
X102850782Y-58343394D01*
X103483091Y-58975703D01*
X103419507Y-58992741D01*
X103305493Y-59058567D01*
X103212401Y-59151659D01*
X103146575Y-59265673D01*
X103129537Y-59329257D01*
X102497228Y-58696948D01*
X102497227Y-58696948D01*
X102457880Y-58751105D01*
X102361404Y-58940448D01*
X102295742Y-59142535D01*
X102295742Y-59142538D01*
X102262500Y-59352419D01*
X102262500Y-59564912D01*
X102295742Y-59774793D01*
X102295742Y-59774796D01*
X102361404Y-59976883D01*
X102365118Y-59984172D01*
X102378013Y-60052841D01*
X102351735Y-60117581D01*
X102294628Y-60157837D01*
X102224823Y-60160829D01*
X102166951Y-60128146D01*
X102146112Y-60107307D01*
X102146104Y-60107301D01*
X102077595Y-60067748D01*
X102077590Y-60067745D01*
X102052113Y-60060918D01*
X102001162Y-60047266D01*
X90748638Y-60047266D01*
X90710424Y-60057505D01*
X90672209Y-60067745D01*
X90672204Y-60067748D01*
X90603695Y-60107301D01*
X90603687Y-60107307D01*
X89970341Y-60740653D01*
X89970335Y-60740661D01*
X89930782Y-60809170D01*
X89930779Y-60809175D01*
X89927432Y-60821667D01*
X89910300Y-60885604D01*
X67199255Y-60885604D01*
X67134289Y-60788377D01*
X67134286Y-60788373D01*
X67022792Y-60676879D01*
X67022788Y-60676876D01*
X66891685Y-60589275D01*
X66891672Y-60589268D01*
X66746001Y-60528930D01*
X66745989Y-60528927D01*
X66591345Y-60498166D01*
X66591342Y-60498166D01*
X65633658Y-60498166D01*
X65633655Y-60498166D01*
X65479010Y-60528927D01*
X65478998Y-60528930D01*
X65333327Y-60589268D01*
X65333314Y-60589275D01*
X65202211Y-60676876D01*
X65202207Y-60676879D01*
X65090713Y-60788373D01*
X65090710Y-60788377D01*
X65003109Y-60919480D01*
X65003102Y-60919493D01*
X64942764Y-61065164D01*
X64942761Y-61065176D01*
X64912000Y-61219819D01*
X64912000Y-61377512D01*
X64942761Y-61532155D01*
X64942764Y-61532167D01*
X65003102Y-61677838D01*
X65003109Y-61677851D01*
X65090710Y-61808954D01*
X65090713Y-61808958D01*
X65202207Y-61920452D01*
X65202211Y-61920455D01*
X65333314Y-62008056D01*
X65333327Y-62008063D01*
X65469561Y-62064492D01*
X65479003Y-62068403D01*
X65633653Y-62099165D01*
X65633656Y-62099166D01*
X65633658Y-62099166D01*
X66591344Y-62099166D01*
X66591345Y-62099165D01*
X66745997Y-62068403D01*
X66891679Y-62008060D01*
X67022789Y-61920455D01*
X67134289Y-61808955D01*
X67192976Y-61721124D01*
X67196636Y-61715647D01*
X67250248Y-61670841D01*
X67319573Y-61662134D01*
X67382600Y-61692288D01*
X67387419Y-61696856D01*
X73478840Y-67788277D01*
X73534789Y-67844226D01*
X73534791Y-67844227D01*
X73534795Y-67844230D01*
X73603304Y-67883783D01*
X73603311Y-67883787D01*
X73679738Y-67904266D01*
X90850013Y-67904266D01*
X90917052Y-67923951D01*
X90962807Y-67976755D01*
X90972751Y-68045913D01*
X90943726Y-68109469D01*
X90884948Y-68147243D01*
X90882910Y-68147743D01*
X90878998Y-68148930D01*
X90733327Y-68209268D01*
X90733314Y-68209275D01*
X90602211Y-68296876D01*
X90602207Y-68296879D01*
X90490713Y-68408373D01*
X90490710Y-68408377D01*
X90403109Y-68539480D01*
X90403102Y-68539493D01*
X90342764Y-68685164D01*
X90342761Y-68685176D01*
X90312000Y-68839819D01*
X90312000Y-68997512D01*
X90342761Y-69152155D01*
X90342764Y-69152167D01*
X90403102Y-69297838D01*
X90403109Y-69297851D01*
X90490710Y-69428954D01*
X90490713Y-69428958D01*
X90602207Y-69540452D01*
X90602211Y-69540455D01*
X90733314Y-69628056D01*
X90733327Y-69628063D01*
X90785335Y-69649605D01*
X90839739Y-69693445D01*
X90861804Y-69759739D01*
X90844525Y-69827439D01*
X90793388Y-69875050D01*
X90737883Y-69888166D01*
X73940033Y-69888166D01*
X73872994Y-69868481D01*
X73852352Y-69851847D01*
X67598710Y-63598205D01*
X67580012Y-63587410D01*
X67561314Y-63576615D01*
X67561313Y-63576614D01*
X67530194Y-63558647D01*
X67530193Y-63558646D01*
X67521160Y-63556225D01*
X67453762Y-63538166D01*
X67453760Y-63538166D01*
X67337338Y-63538166D01*
X67270299Y-63518481D01*
X67224544Y-63465677D01*
X67222775Y-63461615D01*
X67221894Y-63459487D01*
X67221891Y-63459482D01*
X67221890Y-63459480D01*
X67134289Y-63328377D01*
X67134286Y-63328373D01*
X67022792Y-63216879D01*
X67022788Y-63216876D01*
X66891685Y-63129275D01*
X66891672Y-63129268D01*
X66746001Y-63068930D01*
X66745989Y-63068927D01*
X66591345Y-63038166D01*
X66591342Y-63038166D01*
X65633658Y-63038166D01*
X65633655Y-63038166D01*
X65479010Y-63068927D01*
X65478998Y-63068930D01*
X65333327Y-63129268D01*
X65333314Y-63129275D01*
X65202211Y-63216876D01*
X65202207Y-63216879D01*
X65090713Y-63328373D01*
X65090710Y-63328377D01*
X65003109Y-63459480D01*
X65003102Y-63459493D01*
X64942764Y-63605164D01*
X64942761Y-63605176D01*
X64912000Y-63759819D01*
X64912000Y-63917512D01*
X64942761Y-64072155D01*
X64942764Y-64072167D01*
X65003102Y-64217838D01*
X65003109Y-64217851D01*
X65090710Y-64348954D01*
X65090713Y-64348958D01*
X65202207Y-64460452D01*
X65202211Y-64460455D01*
X65333314Y-64548056D01*
X65333327Y-64548063D01*
X65478998Y-64608401D01*
X65479003Y-64608403D01*
X65623810Y-64637207D01*
X65633653Y-64639165D01*
X65633656Y-64639166D01*
X65633658Y-64639166D01*
X66591344Y-64639166D01*
X66591345Y-64639165D01*
X66745997Y-64608403D01*
X66891679Y-64548060D01*
X67022789Y-64460455D01*
X67134289Y-64348955D01*
X67168198Y-64298207D01*
X67196636Y-64255647D01*
X67250248Y-64210841D01*
X67319573Y-64202134D01*
X67382600Y-64232288D01*
X67387419Y-64236856D01*
X73523740Y-70373177D01*
X73579689Y-70429126D01*
X73579691Y-70429127D01*
X73579695Y-70429130D01*
X73648204Y-70468683D01*
X73648211Y-70468687D01*
X73724638Y-70489166D01*
X73803762Y-70489166D01*
X90227003Y-70489166D01*
X90294042Y-70508851D01*
X90339797Y-70561655D01*
X90349741Y-70630813D01*
X90320716Y-70694369D01*
X90314684Y-70700847D01*
X90273467Y-70742063D01*
X90171695Y-70882141D01*
X90093091Y-71036410D01*
X90039585Y-71201081D01*
X90038384Y-71208665D01*
X90038385Y-71208666D01*
X91196814Y-71208666D01*
X91192420Y-71213060D01*
X91139759Y-71304272D01*
X91112500Y-71406005D01*
X91112500Y-71511327D01*
X91139759Y-71613060D01*
X91192420Y-71704272D01*
X91196814Y-71708666D01*
X90038385Y-71708666D01*
X90039585Y-71716250D01*
X90093091Y-71880921D01*
X90171695Y-72035190D01*
X90273467Y-72175268D01*
X90314684Y-72216485D01*
X90348169Y-72277808D01*
X90343185Y-72347500D01*
X90301313Y-72403433D01*
X90235849Y-72427850D01*
X90227003Y-72428166D01*
X73848334Y-72428166D01*
X73781295Y-72408481D01*
X73760653Y-72391847D01*
X70047013Y-68678207D01*
X70047005Y-68678201D01*
X69978496Y-68638648D01*
X69978491Y-68638645D01*
X69952161Y-68631590D01*
X69902063Y-68618166D01*
X69902061Y-68618166D01*
X67337338Y-68618166D01*
X67270299Y-68598481D01*
X67224544Y-68545677D01*
X67222775Y-68541615D01*
X67221894Y-68539487D01*
X67221891Y-68539482D01*
X67221890Y-68539480D01*
X67134289Y-68408377D01*
X67134286Y-68408373D01*
X67022792Y-68296879D01*
X67022788Y-68296876D01*
X66891685Y-68209275D01*
X66891672Y-68209268D01*
X66746001Y-68148930D01*
X66745989Y-68148927D01*
X66591345Y-68118166D01*
X66591342Y-68118166D01*
X65633658Y-68118166D01*
X65633655Y-68118166D01*
X65479010Y-68148927D01*
X65478998Y-68148930D01*
X65333327Y-68209268D01*
X65333314Y-68209275D01*
X65202211Y-68296876D01*
X65202207Y-68296879D01*
X65090713Y-68408373D01*
X65090710Y-68408377D01*
X65003109Y-68539480D01*
X65003102Y-68539493D01*
X64942764Y-68685164D01*
X64942761Y-68685176D01*
X64912000Y-68839819D01*
X64912000Y-68997512D01*
X64942761Y-69152155D01*
X64942764Y-69152167D01*
X65003102Y-69297838D01*
X65003109Y-69297851D01*
X65090710Y-69428954D01*
X65090713Y-69428958D01*
X65202207Y-69540452D01*
X65202211Y-69540455D01*
X65333314Y-69628056D01*
X65333327Y-69628063D01*
X65478998Y-69688401D01*
X65479003Y-69688403D01*
X65633653Y-69719165D01*
X65633656Y-69719166D01*
X65633658Y-69719166D01*
X66591344Y-69719166D01*
X66591345Y-69719165D01*
X66745997Y-69688403D01*
X66891679Y-69628060D01*
X67022789Y-69540455D01*
X67134289Y-69428955D01*
X67221894Y-69297845D01*
X67222775Y-69295715D01*
X67223535Y-69294772D01*
X67224764Y-69292475D01*
X67225199Y-69292707D01*
X67266615Y-69241312D01*
X67332908Y-69219245D01*
X67337338Y-69219166D01*
X69686668Y-69219166D01*
X69753707Y-69238851D01*
X69774349Y-69255485D01*
X73487990Y-72969126D01*
X73556513Y-73008688D01*
X73632939Y-73029166D01*
X73712063Y-73029166D01*
X90737883Y-73029166D01*
X90804922Y-73048851D01*
X90850677Y-73101655D01*
X90860621Y-73170813D01*
X90831596Y-73234369D01*
X90785335Y-73267727D01*
X90733327Y-73289268D01*
X90733314Y-73289275D01*
X90602211Y-73376876D01*
X90602207Y-73376879D01*
X90490713Y-73488373D01*
X90490710Y-73488377D01*
X90403109Y-73619480D01*
X90403102Y-73619493D01*
X90342764Y-73765164D01*
X90342761Y-73765176D01*
X90312000Y-73919819D01*
X90312000Y-74077512D01*
X90342761Y-74232155D01*
X90342764Y-74232167D01*
X90403102Y-74377838D01*
X90403109Y-74377851D01*
X90490710Y-74508954D01*
X90490713Y-74508958D01*
X90602207Y-74620452D01*
X90602211Y-74620455D01*
X90733314Y-74708056D01*
X90733327Y-74708063D01*
X90878998Y-74768401D01*
X90879003Y-74768403D01*
X91033653Y-74799165D01*
X91033656Y-74799166D01*
X91033658Y-74799166D01*
X91991344Y-74799166D01*
X91991345Y-74799165D01*
X92145997Y-74768403D01*
X92291679Y-74708060D01*
X92422789Y-74620455D01*
X92534289Y-74508955D01*
X92621894Y-74377845D01*
X92622775Y-74375715D01*
X92623535Y-74374772D01*
X92624764Y-74372475D01*
X92625199Y-74372707D01*
X92666615Y-74321312D01*
X92732908Y-74299245D01*
X92737338Y-74299166D01*
X97564167Y-74299166D01*
X97631206Y-74318851D01*
X97651848Y-74335485D01*
X98298181Y-74981818D01*
X98331666Y-75043141D01*
X98334500Y-75069499D01*
X98334500Y-75159557D01*
X98368608Y-75286853D01*
X98377616Y-75302455D01*
X98434500Y-75400980D01*
X98527686Y-75494166D01*
X98641814Y-75560058D01*
X98769108Y-75594166D01*
X98769110Y-75594166D01*
X98900890Y-75594166D01*
X98900892Y-75594166D01*
X99028186Y-75560058D01*
X99142314Y-75494166D01*
X99235500Y-75400980D01*
X99301392Y-75286852D01*
X99335500Y-75159558D01*
X99335500Y-75027774D01*
X99301392Y-74900480D01*
X99235500Y-74786352D01*
X99142314Y-74693166D01*
X99085250Y-74660220D01*
X99028187Y-74627274D01*
X98964539Y-74610220D01*
X98900892Y-74593166D01*
X98810833Y-74593166D01*
X98743794Y-74573481D01*
X98723152Y-74556847D01*
X97924512Y-73758207D01*
X97924504Y-73758201D01*
X97855995Y-73718648D01*
X97855990Y-73718645D01*
X97829660Y-73711590D01*
X97779562Y-73698166D01*
X97779560Y-73698166D01*
X92737338Y-73698166D01*
X92670299Y-73678481D01*
X92624544Y-73625677D01*
X92622775Y-73621615D01*
X92621894Y-73619487D01*
X92621891Y-73619482D01*
X92621890Y-73619480D01*
X92534289Y-73488377D01*
X92534286Y-73488373D01*
X92422792Y-73376879D01*
X92422788Y-73376876D01*
X92291685Y-73289275D01*
X92291672Y-73289268D01*
X92239665Y-73267727D01*
X92185261Y-73223887D01*
X92163196Y-73157593D01*
X92180475Y-73089893D01*
X92231612Y-73042282D01*
X92287117Y-73029166D01*
X101466667Y-73029166D01*
X101533706Y-73048851D01*
X101554348Y-73065485D01*
X102625424Y-74136561D01*
X102658909Y-74197884D01*
X102653925Y-74267576D01*
X102652304Y-74271695D01*
X102602370Y-74392245D01*
X102602368Y-74392253D01*
X102562000Y-74595196D01*
X102562000Y-74802135D01*
X102602368Y-75005078D01*
X102602370Y-75005086D01*
X102681558Y-75196262D01*
X102796524Y-75368323D01*
X102884686Y-75456485D01*
X102918171Y-75517808D01*
X102913187Y-75587500D01*
X102871315Y-75643433D01*
X102805851Y-75667850D01*
X102797005Y-75668166D01*
X102322939Y-75668166D01*
X102284725Y-75678405D01*
X102246510Y-75688645D01*
X102246505Y-75688648D01*
X102177996Y-75728201D01*
X102177988Y-75728207D01*
X99224241Y-78681954D01*
X99224235Y-78681962D01*
X99184682Y-78750471D01*
X99184679Y-78750476D01*
X99164200Y-78826906D01*
X99164200Y-79745519D01*
X99159178Y-79762618D01*
X99159181Y-79780441D01*
X99149539Y-79795447D01*
X99144515Y-79812558D01*
X99131047Y-79824227D01*
X99121413Y-79839223D01*
X99105188Y-79846634D01*
X99091711Y-79858313D01*
X99074068Y-79860850D01*
X99057860Y-79868255D01*
X99032914Y-79866770D01*
X99022566Y-79868259D01*
X99015250Y-79867207D01*
X98900892Y-79836566D01*
X98801969Y-79836566D01*
X98793199Y-79835306D01*
X98769150Y-79824326D01*
X98743794Y-79816881D01*
X98731966Y-79807350D01*
X98729640Y-79806288D01*
X98728556Y-79804601D01*
X98723152Y-79800247D01*
X95221112Y-76298207D01*
X95221104Y-76298201D01*
X95152595Y-76258648D01*
X95152590Y-76258645D01*
X95115426Y-76248687D01*
X95076162Y-76238166D01*
X95076160Y-76238166D01*
X92737338Y-76238166D01*
X92670299Y-76218481D01*
X92624544Y-76165677D01*
X92622775Y-76161615D01*
X92621894Y-76159487D01*
X92621891Y-76159482D01*
X92621890Y-76159480D01*
X92534289Y-76028377D01*
X92534286Y-76028373D01*
X92422792Y-75916879D01*
X92422788Y-75916876D01*
X92291685Y-75829275D01*
X92291672Y-75829268D01*
X92146001Y-75768930D01*
X92145989Y-75768927D01*
X91991345Y-75738166D01*
X91991342Y-75738166D01*
X91033658Y-75738166D01*
X91033655Y-75738166D01*
X90879010Y-75768927D01*
X90878998Y-75768930D01*
X90733327Y-75829268D01*
X90733314Y-75829275D01*
X90602211Y-75916876D01*
X90602207Y-75916879D01*
X90490713Y-76028373D01*
X90490710Y-76028377D01*
X90403109Y-76159480D01*
X90403102Y-76159493D01*
X90342764Y-76305164D01*
X90342761Y-76305176D01*
X90312000Y-76459819D01*
X90312000Y-76617512D01*
X90342761Y-76772155D01*
X90342764Y-76772167D01*
X90403102Y-76917838D01*
X90403109Y-76917851D01*
X90490710Y-77048954D01*
X90490713Y-77048958D01*
X90602207Y-77160452D01*
X90602211Y-77160455D01*
X90733314Y-77248056D01*
X90733327Y-77248063D01*
X90878998Y-77308401D01*
X90879003Y-77308403D01*
X91033653Y-77339165D01*
X91033656Y-77339166D01*
X91033658Y-77339166D01*
X91991344Y-77339166D01*
X91991345Y-77339165D01*
X92145997Y-77308403D01*
X92291679Y-77248060D01*
X92422789Y-77160455D01*
X92534289Y-77048955D01*
X92621894Y-76917845D01*
X92622775Y-76915715D01*
X92623535Y-76914772D01*
X92624764Y-76912475D01*
X92625199Y-76912707D01*
X92666615Y-76861312D01*
X92732908Y-76839245D01*
X92737338Y-76839166D01*
X94860767Y-76839166D01*
X94927806Y-76858851D01*
X94948448Y-76875485D01*
X98277648Y-80204685D01*
X98311133Y-80266008D01*
X98306149Y-80335700D01*
X98264277Y-80391633D01*
X98198813Y-80416050D01*
X98189967Y-80416366D01*
X90469538Y-80416366D01*
X90431324Y-80426605D01*
X90393109Y-80436845D01*
X90393104Y-80436848D01*
X90324595Y-80476401D01*
X90324587Y-80476407D01*
X88522042Y-82278952D01*
X88522036Y-82278960D01*
X88482483Y-82347469D01*
X88482480Y-82347474D01*
X88471514Y-82388401D01*
X88462001Y-82423903D01*
X88462001Y-90369929D01*
X88470092Y-90400125D01*
X88482480Y-90446357D01*
X88482481Y-90446358D01*
X88512680Y-90498666D01*
X88521868Y-90514579D01*
X88522041Y-90514878D01*
X88522043Y-90514881D01*
X89267545Y-91260382D01*
X89970340Y-91963177D01*
X90026289Y-92019126D01*
X90026291Y-92019127D01*
X90026295Y-92019130D01*
X90077490Y-92048687D01*
X90094811Y-92058687D01*
X90171238Y-92079166D01*
X90250362Y-92079166D01*
X90287662Y-92079166D01*
X90354701Y-92098851D01*
X90400456Y-92151655D01*
X90402215Y-92155695D01*
X90403106Y-92157845D01*
X90403107Y-92157846D01*
X90403109Y-92157851D01*
X90490710Y-92288954D01*
X90490713Y-92288958D01*
X90602207Y-92400452D01*
X90602211Y-92400455D01*
X90733314Y-92488056D01*
X90733327Y-92488063D01*
X90861297Y-92541069D01*
X90879003Y-92548403D01*
X91033653Y-92579165D01*
X91033656Y-92579166D01*
X91033658Y-92579166D01*
X91991344Y-92579166D01*
X91991345Y-92579165D01*
X92145997Y-92548403D01*
X92291679Y-92488060D01*
X92422789Y-92400455D01*
X92534289Y-92288955D01*
X92621894Y-92157845D01*
X92622776Y-92155717D01*
X92662966Y-92058687D01*
X92682237Y-92012163D01*
X92713000Y-91857508D01*
X92713000Y-91699824D01*
X92713000Y-91699821D01*
X92712999Y-91699819D01*
X92704140Y-91655283D01*
X92682237Y-91545169D01*
X92647256Y-91460717D01*
X92621897Y-91399493D01*
X92621890Y-91399480D01*
X92534289Y-91268377D01*
X92534286Y-91268373D01*
X92422792Y-91156879D01*
X92422788Y-91156876D01*
X92291685Y-91069275D01*
X92291672Y-91069268D01*
X92239665Y-91047727D01*
X92185261Y-91003887D01*
X92163196Y-90937593D01*
X92180475Y-90869893D01*
X92231612Y-90822282D01*
X92287117Y-90809166D01*
X92926767Y-90809166D01*
X92993806Y-90828851D01*
X93014448Y-90845485D01*
X99139789Y-96970826D01*
X99208312Y-97010388D01*
X99284738Y-97030866D01*
X99363862Y-97030866D01*
X100400884Y-97030866D01*
X100467923Y-97050551D01*
X100513678Y-97103355D01*
X100523622Y-97172513D01*
X100494597Y-97236069D01*
X100469774Y-97257969D01*
X100402842Y-97302690D01*
X100256524Y-97449008D01*
X100141558Y-97621069D01*
X100062370Y-97812245D01*
X100062368Y-97812253D01*
X100022000Y-98015196D01*
X100022000Y-98222135D01*
X100062368Y-98425078D01*
X100062370Y-98425086D01*
X100134062Y-98598166D01*
X100141559Y-98616264D01*
X100150022Y-98628930D01*
X100256524Y-98788323D01*
X100344686Y-98876485D01*
X100378171Y-98937808D01*
X100373187Y-99007500D01*
X100331315Y-99063433D01*
X100265851Y-99087850D01*
X100257005Y-99088166D01*
X99802939Y-99088166D01*
X99726511Y-99108644D01*
X99657990Y-99148206D01*
X99657987Y-99148208D01*
X95274349Y-103531847D01*
X95213026Y-103565332D01*
X95186668Y-103568166D01*
X73969038Y-103568166D01*
X73892610Y-103588644D01*
X73824089Y-103628206D01*
X73824086Y-103628208D01*
X65770448Y-111681847D01*
X65709125Y-111715332D01*
X65682767Y-111718166D01*
X55671177Y-111718166D01*
X55604138Y-111698481D01*
X55583496Y-111681847D01*
X55519817Y-111618168D01*
X55519815Y-111618166D01*
X55462751Y-111585220D01*
X55405688Y-111552274D01*
X55342040Y-111535220D01*
X55278393Y-111518166D01*
X55146609Y-111518166D01*
X55019313Y-111552274D01*
X54905187Y-111618166D01*
X54905184Y-111618168D01*
X54812003Y-111711349D01*
X54812001Y-111711352D01*
X54746109Y-111825478D01*
X54712001Y-111952774D01*
X50500500Y-111952774D01*
X50500500Y-101859819D01*
X64912000Y-101859819D01*
X64912000Y-102017512D01*
X64942761Y-102172155D01*
X64942764Y-102172167D01*
X65003102Y-102317838D01*
X65003109Y-102317851D01*
X65090710Y-102448954D01*
X65090713Y-102448958D01*
X65202207Y-102560452D01*
X65202211Y-102560455D01*
X65333314Y-102648056D01*
X65333327Y-102648063D01*
X65478998Y-102708401D01*
X65479003Y-102708403D01*
X65619979Y-102736445D01*
X65633653Y-102739165D01*
X65633656Y-102739166D01*
X65633658Y-102739166D01*
X66591344Y-102739166D01*
X66591345Y-102739165D01*
X66745997Y-102708403D01*
X66891679Y-102648060D01*
X67022789Y-102560455D01*
X67134289Y-102448955D01*
X67221894Y-102317845D01*
X67282237Y-102172163D01*
X67313000Y-102017508D01*
X67313000Y-101859824D01*
X67313000Y-101859820D01*
X67312459Y-101857099D01*
X90308320Y-101857099D01*
X90308320Y-102014792D01*
X90339081Y-102169435D01*
X90339084Y-102169447D01*
X90399422Y-102315118D01*
X90399429Y-102315131D01*
X90487030Y-102446234D01*
X90487033Y-102446238D01*
X90598527Y-102557732D01*
X90598531Y-102557735D01*
X90729634Y-102645336D01*
X90729647Y-102645343D01*
X90875318Y-102705681D01*
X90875323Y-102705683D01*
X91029973Y-102736445D01*
X91029976Y-102736446D01*
X91029978Y-102736446D01*
X91987664Y-102736446D01*
X91987665Y-102736445D01*
X92142317Y-102705683D01*
X92287999Y-102645340D01*
X92419109Y-102557735D01*
X92530609Y-102446235D01*
X92618214Y-102315125D01*
X92678557Y-102169443D01*
X92709320Y-102014788D01*
X92709320Y-101857104D01*
X92709320Y-101857101D01*
X92709319Y-101857099D01*
X92678558Y-101702456D01*
X92678557Y-101702449D01*
X92631817Y-101589607D01*
X92618217Y-101556773D01*
X92618210Y-101556760D01*
X92530609Y-101425657D01*
X92530606Y-101425653D01*
X92419112Y-101314159D01*
X92419108Y-101314156D01*
X92288005Y-101226555D01*
X92287992Y-101226548D01*
X92142321Y-101166210D01*
X92142309Y-101166207D01*
X91987665Y-101135446D01*
X91987662Y-101135446D01*
X91029978Y-101135446D01*
X91029975Y-101135446D01*
X90875330Y-101166207D01*
X90875318Y-101166210D01*
X90729647Y-101226548D01*
X90729634Y-101226555D01*
X90598531Y-101314156D01*
X90598527Y-101314159D01*
X90487033Y-101425653D01*
X90487030Y-101425657D01*
X90399429Y-101556760D01*
X90399422Y-101556773D01*
X90339084Y-101702444D01*
X90339081Y-101702456D01*
X90308320Y-101857099D01*
X67312459Y-101857099D01*
X67283032Y-101709166D01*
X67282237Y-101705169D01*
X67281108Y-101702444D01*
X67221897Y-101559493D01*
X67221890Y-101559480D01*
X67134289Y-101428377D01*
X67134286Y-101428373D01*
X67022792Y-101316879D01*
X67022788Y-101316876D01*
X66891685Y-101229275D01*
X66891672Y-101229268D01*
X66746001Y-101168930D01*
X66745989Y-101168927D01*
X66591345Y-101138166D01*
X66591342Y-101138166D01*
X65633658Y-101138166D01*
X65633655Y-101138166D01*
X65479010Y-101168927D01*
X65478998Y-101168930D01*
X65333327Y-101229268D01*
X65333314Y-101229275D01*
X65202211Y-101316876D01*
X65202207Y-101316879D01*
X65090713Y-101428373D01*
X65090710Y-101428377D01*
X65003109Y-101559480D01*
X65003102Y-101559493D01*
X64942764Y-101705164D01*
X64942761Y-101705176D01*
X64912000Y-101859819D01*
X50500500Y-101859819D01*
X50500500Y-99319819D01*
X64912000Y-99319819D01*
X64912000Y-99477512D01*
X64942761Y-99632155D01*
X64942764Y-99632167D01*
X65003102Y-99777838D01*
X65003109Y-99777851D01*
X65090710Y-99908954D01*
X65090713Y-99908958D01*
X65202207Y-100020452D01*
X65202211Y-100020455D01*
X65333314Y-100108056D01*
X65333327Y-100108063D01*
X65478998Y-100168401D01*
X65479003Y-100168403D01*
X65619979Y-100196445D01*
X65633653Y-100199165D01*
X65633656Y-100199166D01*
X65633658Y-100199166D01*
X66591344Y-100199166D01*
X66591345Y-100199165D01*
X66745997Y-100168403D01*
X66891679Y-100108060D01*
X67022789Y-100020455D01*
X67134289Y-99908955D01*
X67221894Y-99777845D01*
X67282237Y-99632163D01*
X67313000Y-99477508D01*
X67313000Y-99319824D01*
X67313000Y-99319820D01*
X67312459Y-99317099D01*
X90308320Y-99317099D01*
X90308320Y-99474792D01*
X90339081Y-99629435D01*
X90339084Y-99629447D01*
X90399422Y-99775118D01*
X90399429Y-99775131D01*
X90487030Y-99906234D01*
X90487033Y-99906238D01*
X90598527Y-100017732D01*
X90598531Y-100017735D01*
X90729634Y-100105336D01*
X90729647Y-100105343D01*
X90875318Y-100165681D01*
X90875323Y-100165683D01*
X91029973Y-100196445D01*
X91029976Y-100196446D01*
X91029978Y-100196446D01*
X91987664Y-100196446D01*
X91987665Y-100196445D01*
X92142317Y-100165683D01*
X92287999Y-100105340D01*
X92419109Y-100017735D01*
X92530609Y-99906235D01*
X92618214Y-99775125D01*
X92620407Y-99769832D01*
X92645665Y-99708851D01*
X92678557Y-99629443D01*
X92709320Y-99474788D01*
X92709320Y-99317104D01*
X92709320Y-99317101D01*
X92709319Y-99317099D01*
X92678558Y-99162456D01*
X92678557Y-99162449D01*
X92672658Y-99148208D01*
X92618217Y-99016773D01*
X92618210Y-99016760D01*
X92530609Y-98885657D01*
X92530606Y-98885653D01*
X92419112Y-98774159D01*
X92419108Y-98774156D01*
X92288005Y-98686555D01*
X92287992Y-98686548D01*
X92142321Y-98626210D01*
X92142309Y-98626207D01*
X91987665Y-98595446D01*
X91987662Y-98595446D01*
X91029978Y-98595446D01*
X91029975Y-98595446D01*
X90875330Y-98626207D01*
X90875318Y-98626210D01*
X90729647Y-98686548D01*
X90729634Y-98686555D01*
X90598531Y-98774156D01*
X90598527Y-98774159D01*
X90487033Y-98885653D01*
X90487030Y-98885657D01*
X90399429Y-99016760D01*
X90399422Y-99016773D01*
X90339084Y-99162444D01*
X90339081Y-99162456D01*
X90308320Y-99317099D01*
X67312459Y-99317099D01*
X67282238Y-99165176D01*
X67282237Y-99165169D01*
X67234370Y-99049607D01*
X67221897Y-99019493D01*
X67221890Y-99019480D01*
X67134289Y-98888377D01*
X67134286Y-98888373D01*
X67022792Y-98776879D01*
X67022788Y-98776876D01*
X66891685Y-98689275D01*
X66891672Y-98689268D01*
X66746001Y-98628930D01*
X66745989Y-98628927D01*
X66591345Y-98598166D01*
X66591342Y-98598166D01*
X65633658Y-98598166D01*
X65633655Y-98598166D01*
X65479010Y-98628927D01*
X65478998Y-98628930D01*
X65333327Y-98689268D01*
X65333314Y-98689275D01*
X65202211Y-98776876D01*
X65202207Y-98776879D01*
X65090713Y-98888373D01*
X65090710Y-98888377D01*
X65003109Y-99019480D01*
X65003102Y-99019493D01*
X64942764Y-99165164D01*
X64942761Y-99165176D01*
X64912000Y-99319819D01*
X50500500Y-99319819D01*
X50500500Y-96779819D01*
X64912000Y-96779819D01*
X64912000Y-96937512D01*
X64942761Y-97092155D01*
X64942764Y-97092167D01*
X65003102Y-97237838D01*
X65003109Y-97237851D01*
X65090710Y-97368954D01*
X65090713Y-97368958D01*
X65202207Y-97480452D01*
X65202211Y-97480455D01*
X65333314Y-97568056D01*
X65333327Y-97568063D01*
X65461297Y-97621069D01*
X65479003Y-97628403D01*
X65633653Y-97659165D01*
X65633656Y-97659166D01*
X65633658Y-97659166D01*
X66591344Y-97659166D01*
X66591345Y-97659165D01*
X66745997Y-97628403D01*
X66891679Y-97568060D01*
X67022789Y-97480455D01*
X67134289Y-97368955D01*
X67221894Y-97237845D01*
X67282237Y-97092163D01*
X67313000Y-96937508D01*
X67313000Y-96779824D01*
X67313000Y-96779821D01*
X67312999Y-96779819D01*
X90312000Y-96779819D01*
X90312000Y-96937512D01*
X90342761Y-97092155D01*
X90342764Y-97092167D01*
X90403102Y-97237838D01*
X90403109Y-97237851D01*
X90490710Y-97368954D01*
X90490713Y-97368958D01*
X90602207Y-97480452D01*
X90602211Y-97480455D01*
X90733314Y-97568056D01*
X90733327Y-97568063D01*
X90861297Y-97621069D01*
X90879003Y-97628403D01*
X91033653Y-97659165D01*
X91033656Y-97659166D01*
X91033658Y-97659166D01*
X91991344Y-97659166D01*
X91991345Y-97659165D01*
X92145997Y-97628403D01*
X92291679Y-97568060D01*
X92422789Y-97480455D01*
X92534289Y-97368955D01*
X92621894Y-97237845D01*
X92682237Y-97092163D01*
X92713000Y-96937508D01*
X92713000Y-96779824D01*
X92713000Y-96779821D01*
X92712999Y-96779819D01*
X92683032Y-96629166D01*
X92682237Y-96625169D01*
X92682235Y-96625164D01*
X92621897Y-96479493D01*
X92621890Y-96479480D01*
X92534289Y-96348377D01*
X92534286Y-96348373D01*
X92422792Y-96236879D01*
X92422788Y-96236876D01*
X92291685Y-96149275D01*
X92291672Y-96149268D01*
X92146001Y-96088930D01*
X92145989Y-96088927D01*
X91991345Y-96058166D01*
X91991342Y-96058166D01*
X91033658Y-96058166D01*
X91033655Y-96058166D01*
X90879010Y-96088927D01*
X90878998Y-96088930D01*
X90733327Y-96149268D01*
X90733314Y-96149275D01*
X90602211Y-96236876D01*
X90602207Y-96236879D01*
X90490713Y-96348373D01*
X90490710Y-96348377D01*
X90403109Y-96479480D01*
X90403102Y-96479493D01*
X90342764Y-96625164D01*
X90342761Y-96625176D01*
X90312000Y-96779819D01*
X67312999Y-96779819D01*
X67283032Y-96629166D01*
X67282237Y-96625169D01*
X67282235Y-96625164D01*
X67221897Y-96479493D01*
X67221890Y-96479480D01*
X67134289Y-96348377D01*
X67134286Y-96348373D01*
X67022792Y-96236879D01*
X67022788Y-96236876D01*
X66891685Y-96149275D01*
X66891672Y-96149268D01*
X66746001Y-96088930D01*
X66745989Y-96088927D01*
X66591345Y-96058166D01*
X66591342Y-96058166D01*
X65633658Y-96058166D01*
X65633655Y-96058166D01*
X65479010Y-96088927D01*
X65478998Y-96088930D01*
X65333327Y-96149268D01*
X65333314Y-96149275D01*
X65202211Y-96236876D01*
X65202207Y-96236879D01*
X65090713Y-96348373D01*
X65090710Y-96348377D01*
X65003109Y-96479480D01*
X65003102Y-96479493D01*
X64942764Y-96625164D01*
X64942761Y-96625176D01*
X64912000Y-96779819D01*
X50500500Y-96779819D01*
X50500500Y-93902774D01*
X60162000Y-93902774D01*
X60162000Y-94034558D01*
X60168778Y-94059853D01*
X60196108Y-94161853D01*
X60214256Y-94193286D01*
X60262000Y-94275980D01*
X60355186Y-94369166D01*
X60469314Y-94435058D01*
X60596608Y-94469166D01*
X60596610Y-94469166D01*
X60728390Y-94469166D01*
X60728392Y-94469166D01*
X60855686Y-94435058D01*
X60969814Y-94369166D01*
X61033495Y-94305485D01*
X61094818Y-94272000D01*
X61121176Y-94269166D01*
X63153824Y-94269166D01*
X63220863Y-94288851D01*
X63241505Y-94305485D01*
X63305186Y-94369166D01*
X63419314Y-94435058D01*
X63546608Y-94469166D01*
X63546610Y-94469166D01*
X63678390Y-94469166D01*
X63678392Y-94469166D01*
X63805686Y-94435058D01*
X63919814Y-94369166D01*
X64013000Y-94275980D01*
X64033878Y-94239819D01*
X64912000Y-94239819D01*
X64912000Y-94397512D01*
X64942761Y-94552155D01*
X64942764Y-94552167D01*
X65003102Y-94697838D01*
X65003109Y-94697851D01*
X65090710Y-94828954D01*
X65090713Y-94828958D01*
X65202207Y-94940452D01*
X65202211Y-94940455D01*
X65333314Y-95028056D01*
X65333327Y-95028063D01*
X65461297Y-95081069D01*
X65479003Y-95088403D01*
X65633653Y-95119165D01*
X65633656Y-95119166D01*
X65633658Y-95119166D01*
X66591344Y-95119166D01*
X66591345Y-95119165D01*
X66745997Y-95088403D01*
X66891679Y-95028060D01*
X67022789Y-94940455D01*
X67134289Y-94828955D01*
X67221894Y-94697845D01*
X67282237Y-94552163D01*
X67313000Y-94397508D01*
X67313000Y-94239824D01*
X67313000Y-94239821D01*
X67312999Y-94239819D01*
X90312000Y-94239819D01*
X90312000Y-94397512D01*
X90342761Y-94552155D01*
X90342764Y-94552167D01*
X90403102Y-94697838D01*
X90403109Y-94697851D01*
X90490710Y-94828954D01*
X90490713Y-94828958D01*
X90602207Y-94940452D01*
X90602211Y-94940455D01*
X90733314Y-95028056D01*
X90733327Y-95028063D01*
X90861297Y-95081069D01*
X90879003Y-95088403D01*
X91033653Y-95119165D01*
X91033656Y-95119166D01*
X91033658Y-95119166D01*
X91991344Y-95119166D01*
X91991345Y-95119165D01*
X92145997Y-95088403D01*
X92291679Y-95028060D01*
X92422789Y-94940455D01*
X92534289Y-94828955D01*
X92621894Y-94697845D01*
X92682237Y-94552163D01*
X92713000Y-94397508D01*
X92713000Y-94239824D01*
X92713000Y-94239821D01*
X92712999Y-94239819D01*
X92702785Y-94188471D01*
X92682237Y-94085169D01*
X92671751Y-94059853D01*
X92621897Y-93939493D01*
X92621890Y-93939480D01*
X92534289Y-93808377D01*
X92534286Y-93808373D01*
X92422792Y-93696879D01*
X92422788Y-93696876D01*
X92291685Y-93609275D01*
X92291672Y-93609268D01*
X92146001Y-93548930D01*
X92145989Y-93548927D01*
X91991345Y-93518166D01*
X91991342Y-93518166D01*
X91033658Y-93518166D01*
X91033655Y-93518166D01*
X90879010Y-93548927D01*
X90878998Y-93548930D01*
X90733327Y-93609268D01*
X90733314Y-93609275D01*
X90602211Y-93696876D01*
X90602207Y-93696879D01*
X90490713Y-93808373D01*
X90490710Y-93808377D01*
X90403109Y-93939480D01*
X90403102Y-93939493D01*
X90342764Y-94085164D01*
X90342761Y-94085176D01*
X90312000Y-94239819D01*
X67312999Y-94239819D01*
X67302785Y-94188471D01*
X67282237Y-94085169D01*
X67271751Y-94059853D01*
X67221897Y-93939493D01*
X67221890Y-93939480D01*
X67134289Y-93808377D01*
X67134286Y-93808373D01*
X67022792Y-93696879D01*
X67022788Y-93696876D01*
X66891685Y-93609275D01*
X66891672Y-93609268D01*
X66746001Y-93548930D01*
X66745989Y-93548927D01*
X66591345Y-93518166D01*
X66591342Y-93518166D01*
X65633658Y-93518166D01*
X65633655Y-93518166D01*
X65479010Y-93548927D01*
X65478998Y-93548930D01*
X65333327Y-93609268D01*
X65333314Y-93609275D01*
X65202211Y-93696876D01*
X65202207Y-93696879D01*
X65090713Y-93808373D01*
X65090710Y-93808377D01*
X65003109Y-93939480D01*
X65003102Y-93939493D01*
X64942764Y-94085164D01*
X64942761Y-94085176D01*
X64912000Y-94239819D01*
X64033878Y-94239819D01*
X64078892Y-94161852D01*
X64113000Y-94034558D01*
X64113000Y-93902774D01*
X64078892Y-93775480D01*
X64013000Y-93661352D01*
X63919814Y-93568166D01*
X63833212Y-93518166D01*
X63805687Y-93502274D01*
X63742039Y-93485220D01*
X63678392Y-93468166D01*
X63546608Y-93468166D01*
X63419312Y-93502274D01*
X63305186Y-93568166D01*
X63305183Y-93568168D01*
X63241505Y-93631847D01*
X63180182Y-93665332D01*
X63153824Y-93668166D01*
X61121176Y-93668166D01*
X61054137Y-93648481D01*
X61033495Y-93631847D01*
X60969816Y-93568168D01*
X60969814Y-93568166D01*
X60883212Y-93518166D01*
X60855687Y-93502274D01*
X60792039Y-93485220D01*
X60728392Y-93468166D01*
X60596608Y-93468166D01*
X60469312Y-93502274D01*
X60355186Y-93568166D01*
X60355183Y-93568168D01*
X60262002Y-93661349D01*
X60262000Y-93661352D01*
X60196108Y-93775478D01*
X60162000Y-93902774D01*
X50500500Y-93902774D01*
X50500500Y-91699819D01*
X64912000Y-91699819D01*
X64912000Y-91857512D01*
X64942761Y-92012155D01*
X64942764Y-92012167D01*
X65003102Y-92157838D01*
X65003109Y-92157851D01*
X65090710Y-92288954D01*
X65090713Y-92288958D01*
X65202207Y-92400452D01*
X65202211Y-92400455D01*
X65333314Y-92488056D01*
X65333327Y-92488063D01*
X65461297Y-92541069D01*
X65479003Y-92548403D01*
X65633653Y-92579165D01*
X65633656Y-92579166D01*
X65633658Y-92579166D01*
X66591344Y-92579166D01*
X66591345Y-92579165D01*
X66745997Y-92548403D01*
X66891679Y-92488060D01*
X67022789Y-92400455D01*
X67134289Y-92288955D01*
X67221894Y-92157845D01*
X67222776Y-92155717D01*
X67262966Y-92058687D01*
X67282237Y-92012163D01*
X67313000Y-91857508D01*
X67313000Y-91699824D01*
X67313000Y-91699821D01*
X67312999Y-91699819D01*
X67304140Y-91655283D01*
X67282237Y-91545169D01*
X67247256Y-91460717D01*
X67221897Y-91399493D01*
X67221890Y-91399480D01*
X67134289Y-91268377D01*
X67134286Y-91268373D01*
X67022792Y-91156879D01*
X67022788Y-91156876D01*
X66891685Y-91069275D01*
X66891672Y-91069268D01*
X66746001Y-91008930D01*
X66745989Y-91008927D01*
X66591345Y-90978166D01*
X66591342Y-90978166D01*
X65633658Y-90978166D01*
X65633655Y-90978166D01*
X65479010Y-91008927D01*
X65478998Y-91008930D01*
X65333327Y-91069268D01*
X65333314Y-91069275D01*
X65202211Y-91156876D01*
X65202207Y-91156879D01*
X65090713Y-91268373D01*
X65090710Y-91268377D01*
X65003109Y-91399480D01*
X65003102Y-91399493D01*
X64942764Y-91545164D01*
X64942761Y-91545176D01*
X64912000Y-91699819D01*
X50500500Y-91699819D01*
X50500500Y-88988665D01*
X64638384Y-88988665D01*
X64638385Y-88988666D01*
X65796814Y-88988666D01*
X65792420Y-88993060D01*
X65739759Y-89084272D01*
X65712500Y-89186005D01*
X65712500Y-89291327D01*
X65739759Y-89393060D01*
X65792420Y-89484272D01*
X65796814Y-89488666D01*
X64638385Y-89488666D01*
X64639585Y-89496250D01*
X64693091Y-89660921D01*
X64771695Y-89815190D01*
X64873467Y-89955268D01*
X64995897Y-90077698D01*
X65135975Y-90179470D01*
X65290242Y-90258074D01*
X65454915Y-90311580D01*
X65625929Y-90338666D01*
X65862500Y-90338666D01*
X65862500Y-89554352D01*
X65866894Y-89558746D01*
X65958106Y-89611407D01*
X66059839Y-89638666D01*
X66165161Y-89638666D01*
X66266894Y-89611407D01*
X66358106Y-89558746D01*
X66362500Y-89554352D01*
X66362500Y-90338666D01*
X66599071Y-90338666D01*
X66770084Y-90311580D01*
X66934757Y-90258074D01*
X67089024Y-90179470D01*
X67229102Y-90077698D01*
X67351532Y-89955268D01*
X67453304Y-89815190D01*
X67531908Y-89660921D01*
X67585414Y-89496250D01*
X67586615Y-89488666D01*
X66428186Y-89488666D01*
X66432580Y-89484272D01*
X66485241Y-89393060D01*
X66512500Y-89291327D01*
X66512500Y-89186005D01*
X66485241Y-89084272D01*
X66432580Y-88993060D01*
X66428186Y-88988666D01*
X67586615Y-88988666D01*
X67586615Y-88988665D01*
X67585414Y-88981081D01*
X67531908Y-88816410D01*
X67453304Y-88662141D01*
X67351532Y-88522063D01*
X67229102Y-88399633D01*
X67089024Y-88297861D01*
X66934757Y-88219257D01*
X66770084Y-88165751D01*
X66599071Y-88138666D01*
X66362500Y-88138666D01*
X66362500Y-88922980D01*
X66358106Y-88918586D01*
X66266894Y-88865925D01*
X66165161Y-88838666D01*
X66059839Y-88838666D01*
X65958106Y-88865925D01*
X65866894Y-88918586D01*
X65862500Y-88922980D01*
X65862500Y-88138666D01*
X65625929Y-88138666D01*
X65454915Y-88165751D01*
X65290242Y-88219257D01*
X65135975Y-88297861D01*
X64995897Y-88399633D01*
X64873467Y-88522063D01*
X64771695Y-88662141D01*
X64693091Y-88816410D01*
X64639585Y-88981081D01*
X64638384Y-88988665D01*
X50500500Y-88988665D01*
X50500500Y-86619819D01*
X64912000Y-86619819D01*
X64912000Y-86777512D01*
X64942761Y-86932155D01*
X64942764Y-86932167D01*
X65003102Y-87077838D01*
X65003109Y-87077851D01*
X65090710Y-87208954D01*
X65090713Y-87208958D01*
X65202207Y-87320452D01*
X65202211Y-87320455D01*
X65333314Y-87408056D01*
X65333327Y-87408063D01*
X65478998Y-87468401D01*
X65479003Y-87468403D01*
X65601358Y-87492741D01*
X65633653Y-87499165D01*
X65633656Y-87499166D01*
X65633658Y-87499166D01*
X66591344Y-87499166D01*
X66591345Y-87499165D01*
X66745997Y-87468403D01*
X66891679Y-87408060D01*
X67022789Y-87320455D01*
X67134289Y-87208955D01*
X67221894Y-87077845D01*
X67222776Y-87075717D01*
X67239440Y-87035485D01*
X67282237Y-86932163D01*
X67313000Y-86777508D01*
X67313000Y-86619824D01*
X67313000Y-86619821D01*
X67312999Y-86619819D01*
X67303743Y-86573288D01*
X67282237Y-86465169D01*
X67245787Y-86377170D01*
X67221897Y-86319493D01*
X67221890Y-86319480D01*
X67134289Y-86188377D01*
X67134286Y-86188373D01*
X67022792Y-86076879D01*
X67022788Y-86076876D01*
X66891685Y-85989275D01*
X66891672Y-85989268D01*
X66746001Y-85928930D01*
X66745989Y-85928927D01*
X66591345Y-85898166D01*
X66591342Y-85898166D01*
X65633658Y-85898166D01*
X65633655Y-85898166D01*
X65479010Y-85928927D01*
X65478998Y-85928930D01*
X65333327Y-85989268D01*
X65333314Y-85989275D01*
X65202211Y-86076876D01*
X65202207Y-86076879D01*
X65090713Y-86188373D01*
X65090710Y-86188377D01*
X65003109Y-86319480D01*
X65003102Y-86319493D01*
X64942764Y-86465164D01*
X64942761Y-86465176D01*
X64912000Y-86619819D01*
X50500500Y-86619819D01*
X50500500Y-84079819D01*
X64912000Y-84079819D01*
X64912000Y-84237512D01*
X64942761Y-84392155D01*
X64942764Y-84392167D01*
X65003102Y-84537838D01*
X65003109Y-84537851D01*
X65090710Y-84668954D01*
X65090713Y-84668958D01*
X65202207Y-84780452D01*
X65202211Y-84780455D01*
X65333314Y-84868056D01*
X65333327Y-84868063D01*
X65478998Y-84928401D01*
X65479003Y-84928403D01*
X65601358Y-84952741D01*
X65633653Y-84959165D01*
X65633656Y-84959166D01*
X65633658Y-84959166D01*
X66591344Y-84959166D01*
X66591345Y-84959165D01*
X66745997Y-84928403D01*
X66891679Y-84868060D01*
X67022789Y-84780455D01*
X67134289Y-84668955D01*
X67221894Y-84537845D01*
X67282237Y-84392163D01*
X67313000Y-84237508D01*
X67313000Y-84079824D01*
X67313000Y-84079821D01*
X67312999Y-84079819D01*
X67282237Y-83925169D01*
X67282235Y-83925164D01*
X67221897Y-83779493D01*
X67221890Y-83779480D01*
X67134289Y-83648377D01*
X67134286Y-83648373D01*
X67022792Y-83536879D01*
X67022788Y-83536876D01*
X66891685Y-83449275D01*
X66891672Y-83449268D01*
X66746001Y-83388930D01*
X66745989Y-83388927D01*
X66591345Y-83358166D01*
X66591342Y-83358166D01*
X65633658Y-83358166D01*
X65633655Y-83358166D01*
X65479010Y-83388927D01*
X65478998Y-83388930D01*
X65333327Y-83449268D01*
X65333314Y-83449275D01*
X65202211Y-83536876D01*
X65202207Y-83536879D01*
X65090713Y-83648373D01*
X65090710Y-83648377D01*
X65003109Y-83779480D01*
X65003102Y-83779493D01*
X64942764Y-83925164D01*
X64942761Y-83925176D01*
X64912000Y-84079819D01*
X50500500Y-84079819D01*
X50500500Y-81539819D01*
X64912000Y-81539819D01*
X64912000Y-81697512D01*
X64942761Y-81852155D01*
X64942764Y-81852167D01*
X65003102Y-81997838D01*
X65003109Y-81997851D01*
X65090710Y-82128954D01*
X65090713Y-82128958D01*
X65202207Y-82240452D01*
X65202211Y-82240455D01*
X65333314Y-82328056D01*
X65333327Y-82328063D01*
X65478998Y-82388401D01*
X65479003Y-82388403D01*
X65633653Y-82419165D01*
X65633656Y-82419166D01*
X65633658Y-82419166D01*
X66591344Y-82419166D01*
X66591345Y-82419165D01*
X66745997Y-82388403D01*
X66891679Y-82328060D01*
X67022789Y-82240455D01*
X67134289Y-82128955D01*
X67221894Y-81997845D01*
X67282237Y-81852163D01*
X67313000Y-81697508D01*
X67313000Y-81539824D01*
X67313000Y-81539821D01*
X67312999Y-81539819D01*
X67282238Y-81385176D01*
X67282237Y-81385169D01*
X67227063Y-81251965D01*
X67221897Y-81239493D01*
X67221890Y-81239480D01*
X67134289Y-81108377D01*
X67134286Y-81108373D01*
X67022792Y-80996879D01*
X67022788Y-80996876D01*
X66891685Y-80909275D01*
X66891672Y-80909268D01*
X66746001Y-80848930D01*
X66745989Y-80848927D01*
X66591345Y-80818166D01*
X66591342Y-80818166D01*
X65633658Y-80818166D01*
X65633655Y-80818166D01*
X65479010Y-80848927D01*
X65478998Y-80848930D01*
X65333327Y-80909268D01*
X65333314Y-80909275D01*
X65202211Y-80996876D01*
X65202207Y-80996879D01*
X65090713Y-81108373D01*
X65090710Y-81108377D01*
X65003109Y-81239480D01*
X65003102Y-81239493D01*
X64942764Y-81385164D01*
X64942761Y-81385176D01*
X64912000Y-81539819D01*
X50500500Y-81539819D01*
X50500500Y-78999819D01*
X64912000Y-78999819D01*
X64912000Y-79157512D01*
X64942761Y-79312155D01*
X64942764Y-79312167D01*
X65003102Y-79457838D01*
X65003109Y-79457851D01*
X65090710Y-79588954D01*
X65090713Y-79588958D01*
X65202207Y-79700452D01*
X65202211Y-79700455D01*
X65333314Y-79788056D01*
X65333327Y-79788063D01*
X65455341Y-79838602D01*
X65479003Y-79848403D01*
X65633653Y-79879165D01*
X65633656Y-79879166D01*
X65633658Y-79879166D01*
X66591344Y-79879166D01*
X66591345Y-79879165D01*
X66745997Y-79848403D01*
X66891679Y-79788060D01*
X67022789Y-79700455D01*
X67134289Y-79588955D01*
X67221894Y-79457845D01*
X67282237Y-79312163D01*
X67313000Y-79157508D01*
X67313000Y-78999824D01*
X67313000Y-78999821D01*
X67312999Y-78999819D01*
X90312000Y-78999819D01*
X90312000Y-79157512D01*
X90342761Y-79312155D01*
X90342764Y-79312167D01*
X90403102Y-79457838D01*
X90403109Y-79457851D01*
X90490710Y-79588954D01*
X90490713Y-79588958D01*
X90602207Y-79700452D01*
X90602211Y-79700455D01*
X90733314Y-79788056D01*
X90733327Y-79788063D01*
X90855341Y-79838602D01*
X90879003Y-79848403D01*
X91033653Y-79879165D01*
X91033656Y-79879166D01*
X91033658Y-79879166D01*
X91991344Y-79879166D01*
X91991345Y-79879165D01*
X92145997Y-79848403D01*
X92291679Y-79788060D01*
X92422789Y-79700455D01*
X92534289Y-79588955D01*
X92621894Y-79457845D01*
X92682237Y-79312163D01*
X92713000Y-79157508D01*
X92713000Y-78999824D01*
X92713000Y-78999821D01*
X92712999Y-78999819D01*
X92682238Y-78845176D01*
X92682237Y-78845169D01*
X92643015Y-78750478D01*
X92621897Y-78699493D01*
X92621890Y-78699480D01*
X92534289Y-78568377D01*
X92534286Y-78568373D01*
X92422792Y-78456879D01*
X92422788Y-78456876D01*
X92291685Y-78369275D01*
X92291672Y-78369268D01*
X92146001Y-78308930D01*
X92145989Y-78308927D01*
X91991345Y-78278166D01*
X91991342Y-78278166D01*
X91033658Y-78278166D01*
X91033655Y-78278166D01*
X90879010Y-78308927D01*
X90878998Y-78308930D01*
X90733327Y-78369268D01*
X90733314Y-78369275D01*
X90602211Y-78456876D01*
X90602207Y-78456879D01*
X90490713Y-78568373D01*
X90490710Y-78568377D01*
X90403109Y-78699480D01*
X90403102Y-78699493D01*
X90342764Y-78845164D01*
X90342761Y-78845176D01*
X90312000Y-78999819D01*
X67312999Y-78999819D01*
X67282238Y-78845176D01*
X67282237Y-78845169D01*
X67243015Y-78750478D01*
X67221897Y-78699493D01*
X67221890Y-78699480D01*
X67134289Y-78568377D01*
X67134286Y-78568373D01*
X67022792Y-78456879D01*
X67022788Y-78456876D01*
X66891685Y-78369275D01*
X66891672Y-78369268D01*
X66746001Y-78308930D01*
X66745989Y-78308927D01*
X66591345Y-78278166D01*
X66591342Y-78278166D01*
X65633658Y-78278166D01*
X65633655Y-78278166D01*
X65479010Y-78308927D01*
X65478998Y-78308930D01*
X65333327Y-78369268D01*
X65333314Y-78369275D01*
X65202211Y-78456876D01*
X65202207Y-78456879D01*
X65090713Y-78568373D01*
X65090710Y-78568377D01*
X65003109Y-78699480D01*
X65003102Y-78699493D01*
X64942764Y-78845164D01*
X64942761Y-78845176D01*
X64912000Y-78999819D01*
X50500500Y-78999819D01*
X50500500Y-76459819D01*
X64912000Y-76459819D01*
X64912000Y-76617512D01*
X64942761Y-76772155D01*
X64942764Y-76772167D01*
X65003102Y-76917838D01*
X65003109Y-76917851D01*
X65090710Y-77048954D01*
X65090713Y-77048958D01*
X65202207Y-77160452D01*
X65202211Y-77160455D01*
X65333314Y-77248056D01*
X65333327Y-77248063D01*
X65478998Y-77308401D01*
X65479003Y-77308403D01*
X65633653Y-77339165D01*
X65633656Y-77339166D01*
X65633658Y-77339166D01*
X66591344Y-77339166D01*
X66591345Y-77339165D01*
X66745997Y-77308403D01*
X66891679Y-77248060D01*
X67022789Y-77160455D01*
X67134289Y-77048955D01*
X67221894Y-76917845D01*
X67222776Y-76915717D01*
X67239440Y-76875485D01*
X67282237Y-76772163D01*
X67313000Y-76617508D01*
X67313000Y-76459824D01*
X67313000Y-76459821D01*
X67312999Y-76459819D01*
X67282237Y-76305169D01*
X67246330Y-76218481D01*
X67221897Y-76159493D01*
X67221890Y-76159480D01*
X67134289Y-76028377D01*
X67134286Y-76028373D01*
X67022792Y-75916879D01*
X67022788Y-75916876D01*
X66891685Y-75829275D01*
X66891672Y-75829268D01*
X66746001Y-75768930D01*
X66745989Y-75768927D01*
X66591345Y-75738166D01*
X66591342Y-75738166D01*
X65633658Y-75738166D01*
X65633655Y-75738166D01*
X65479010Y-75768927D01*
X65478998Y-75768930D01*
X65333327Y-75829268D01*
X65333314Y-75829275D01*
X65202211Y-75916876D01*
X65202207Y-75916879D01*
X65090713Y-76028373D01*
X65090710Y-76028377D01*
X65003109Y-76159480D01*
X65003102Y-76159493D01*
X64942764Y-76305164D01*
X64942761Y-76305176D01*
X64912000Y-76459819D01*
X50500500Y-76459819D01*
X50500500Y-61892419D01*
X55762500Y-61892419D01*
X55762500Y-62104912D01*
X55795742Y-62314793D01*
X55795742Y-62314796D01*
X55861404Y-62516883D01*
X55957875Y-62706216D01*
X55997228Y-62760382D01*
X56629537Y-62128074D01*
X56646575Y-62191659D01*
X56712401Y-62305673D01*
X56805493Y-62398765D01*
X56919507Y-62464591D01*
X56983090Y-62481628D01*
X56350782Y-63113935D01*
X56350782Y-63113936D01*
X56404949Y-63153290D01*
X56594282Y-63249761D01*
X56796365Y-63315421D01*
X56855087Y-63324722D01*
X56918222Y-63354651D01*
X56955154Y-63413963D01*
X56954156Y-63483825D01*
X56915547Y-63542058D01*
X56859884Y-63568813D01*
X56820667Y-63576614D01*
X56820660Y-63576616D01*
X56638592Y-63652030D01*
X56638579Y-63652037D01*
X56474718Y-63761526D01*
X56474714Y-63761529D01*
X56335363Y-63900880D01*
X56335360Y-63900884D01*
X56225871Y-64064745D01*
X56225864Y-64064758D01*
X56150450Y-64246826D01*
X56150447Y-64246836D01*
X56112000Y-64440122D01*
X56112000Y-64440125D01*
X56112000Y-64637207D01*
X56112000Y-64637209D01*
X56111999Y-64637209D01*
X56150447Y-64830495D01*
X56150450Y-64830505D01*
X56225864Y-65012573D01*
X56225871Y-65012586D01*
X56335360Y-65176447D01*
X56335363Y-65176451D01*
X56474714Y-65315802D01*
X56474718Y-65315805D01*
X56638579Y-65425294D01*
X56638592Y-65425301D01*
X56745558Y-65469607D01*
X56820665Y-65500717D01*
X56840991Y-65504760D01*
X56859881Y-65508518D01*
X56921792Y-65540903D01*
X56956366Y-65601618D01*
X56952627Y-65671388D01*
X56911761Y-65728060D01*
X56855089Y-65752608D01*
X56796370Y-65761908D01*
X56796369Y-65761908D01*
X56594282Y-65827570D01*
X56404939Y-65924046D01*
X56350782Y-65963393D01*
X56350782Y-65963394D01*
X56983091Y-66595703D01*
X56919507Y-66612741D01*
X56805493Y-66678567D01*
X56712401Y-66771659D01*
X56646575Y-66885673D01*
X56629537Y-66949257D01*
X55997228Y-66316948D01*
X55997227Y-66316948D01*
X55957880Y-66371105D01*
X55861404Y-66560448D01*
X55795742Y-66762535D01*
X55795742Y-66762538D01*
X55762500Y-66972419D01*
X55762500Y-67184912D01*
X55795742Y-67394793D01*
X55795742Y-67394796D01*
X55861404Y-67596883D01*
X55957875Y-67786216D01*
X55997228Y-67840382D01*
X56629537Y-67208074D01*
X56646575Y-67271659D01*
X56712401Y-67385673D01*
X56805493Y-67478765D01*
X56919507Y-67544591D01*
X56983090Y-67561628D01*
X56350782Y-68193935D01*
X56350782Y-68193936D01*
X56404949Y-68233290D01*
X56594282Y-68329761D01*
X56770473Y-68387009D01*
X56828148Y-68426446D01*
X56855347Y-68490805D01*
X56843432Y-68559651D01*
X56796188Y-68611127D01*
X56779608Y-68619501D01*
X56614903Y-68687723D01*
X56442842Y-68802690D01*
X56296524Y-68949008D01*
X56181558Y-69121069D01*
X56102370Y-69312245D01*
X56102368Y-69312253D01*
X56062000Y-69515196D01*
X56062000Y-69722135D01*
X56102368Y-69925078D01*
X56102370Y-69925086D01*
X56181558Y-70116262D01*
X56296524Y-70288323D01*
X56442842Y-70434641D01*
X56614905Y-70549609D01*
X56717543Y-70592122D01*
X56779608Y-70617830D01*
X56834011Y-70661671D01*
X56856076Y-70727965D01*
X56838797Y-70795664D01*
X56787660Y-70843275D01*
X56770474Y-70850322D01*
X56594281Y-70907571D01*
X56404939Y-71004046D01*
X56350782Y-71043393D01*
X56350782Y-71043394D01*
X56983091Y-71675703D01*
X56919507Y-71692741D01*
X56805493Y-71758567D01*
X56712401Y-71851659D01*
X56646575Y-71965673D01*
X56629537Y-72029257D01*
X55997228Y-71396948D01*
X55997227Y-71396948D01*
X55957880Y-71451105D01*
X55861404Y-71640448D01*
X55795742Y-71842535D01*
X55795742Y-71842538D01*
X55762500Y-72052419D01*
X55762500Y-72264912D01*
X55795742Y-72474793D01*
X55795742Y-72474796D01*
X55861404Y-72676883D01*
X55957875Y-72866216D01*
X55997228Y-72920382D01*
X56629537Y-72288074D01*
X56646575Y-72351659D01*
X56712401Y-72465673D01*
X56805493Y-72558765D01*
X56919507Y-72624591D01*
X56983090Y-72641628D01*
X56350782Y-73273935D01*
X56350782Y-73273936D01*
X56404949Y-73313290D01*
X56594282Y-73409761D01*
X56770473Y-73467009D01*
X56828148Y-73506446D01*
X56855347Y-73570805D01*
X56843432Y-73639651D01*
X56796188Y-73691127D01*
X56779608Y-73699501D01*
X56614903Y-73767723D01*
X56442842Y-73882690D01*
X56296524Y-74029008D01*
X56181558Y-74201069D01*
X56102370Y-74392245D01*
X56102368Y-74392253D01*
X56062000Y-74595196D01*
X56062000Y-74802135D01*
X56102368Y-75005078D01*
X56102370Y-75005086D01*
X56181558Y-75196262D01*
X56296524Y-75368323D01*
X56442842Y-75514641D01*
X56442845Y-75514643D01*
X56614902Y-75629607D01*
X56806080Y-75708796D01*
X56953734Y-75738166D01*
X57009030Y-75749165D01*
X57009034Y-75749166D01*
X57009035Y-75749166D01*
X57215966Y-75749166D01*
X57215967Y-75749165D01*
X57418920Y-75708796D01*
X57610098Y-75629607D01*
X57782155Y-75514643D01*
X57928477Y-75368321D01*
X58043441Y-75196264D01*
X58122630Y-75005086D01*
X58163000Y-74802131D01*
X58163000Y-74595201D01*
X58122630Y-74392246D01*
X58043441Y-74201068D01*
X57928477Y-74029011D01*
X57928475Y-74029008D01*
X57819286Y-73919819D01*
X64912000Y-73919819D01*
X64912000Y-74077512D01*
X64942761Y-74232155D01*
X64942764Y-74232167D01*
X65003102Y-74377838D01*
X65003109Y-74377851D01*
X65090710Y-74508954D01*
X65090713Y-74508958D01*
X65202207Y-74620452D01*
X65202211Y-74620455D01*
X65333314Y-74708056D01*
X65333327Y-74708063D01*
X65478998Y-74768401D01*
X65479003Y-74768403D01*
X65633653Y-74799165D01*
X65633656Y-74799166D01*
X65633658Y-74799166D01*
X66591344Y-74799166D01*
X66591345Y-74799165D01*
X66745997Y-74768403D01*
X66891679Y-74708060D01*
X67022789Y-74620455D01*
X67134289Y-74508955D01*
X67221894Y-74377845D01*
X67222776Y-74375717D01*
X67239440Y-74335485D01*
X67282237Y-74232163D01*
X67313000Y-74077508D01*
X67313000Y-73919824D01*
X67313000Y-73919821D01*
X67312999Y-73919819D01*
X67309079Y-73900110D01*
X67282237Y-73765169D01*
X67262966Y-73718645D01*
X67221897Y-73619493D01*
X67221890Y-73619480D01*
X67134289Y-73488377D01*
X67134286Y-73488373D01*
X67022792Y-73376879D01*
X67022788Y-73376876D01*
X66891685Y-73289275D01*
X66891672Y-73289268D01*
X66746001Y-73228930D01*
X66745989Y-73228927D01*
X66591345Y-73198166D01*
X66591342Y-73198166D01*
X65633658Y-73198166D01*
X65633655Y-73198166D01*
X65479010Y-73228927D01*
X65478998Y-73228930D01*
X65333327Y-73289268D01*
X65333314Y-73289275D01*
X65202211Y-73376876D01*
X65202207Y-73376879D01*
X65090713Y-73488373D01*
X65090710Y-73488377D01*
X65003109Y-73619480D01*
X65003102Y-73619493D01*
X64942764Y-73765164D01*
X64942761Y-73765176D01*
X64912000Y-73919819D01*
X57819286Y-73919819D01*
X57782157Y-73882690D01*
X57615116Y-73771078D01*
X57610098Y-73767725D01*
X57610093Y-73767723D01*
X57481998Y-73714664D01*
X57445390Y-73699500D01*
X57390988Y-73655660D01*
X57368923Y-73589366D01*
X57386202Y-73521667D01*
X57437339Y-73474056D01*
X57454526Y-73467009D01*
X57630717Y-73409761D01*
X57820054Y-73313288D01*
X57874216Y-73273936D01*
X57874217Y-73273936D01*
X57241908Y-72641628D01*
X57305493Y-72624591D01*
X57419507Y-72558765D01*
X57512599Y-72465673D01*
X57578425Y-72351659D01*
X57595462Y-72288074D01*
X58227770Y-72920383D01*
X58227770Y-72920382D01*
X58267122Y-72866220D01*
X58363595Y-72676883D01*
X58429257Y-72474796D01*
X58429257Y-72474793D01*
X58462500Y-72264912D01*
X58462500Y-72052419D01*
X58429257Y-71842538D01*
X58429257Y-71842535D01*
X58363595Y-71640448D01*
X58267123Y-71451113D01*
X58263858Y-71446619D01*
X58263856Y-71446617D01*
X58227769Y-71396948D01*
X57595462Y-72029256D01*
X57578425Y-71965673D01*
X57512599Y-71851659D01*
X57419507Y-71758567D01*
X57305493Y-71692741D01*
X57241909Y-71675703D01*
X57537792Y-71379819D01*
X64912000Y-71379819D01*
X64912000Y-71537512D01*
X64942761Y-71692155D01*
X64942764Y-71692167D01*
X65003102Y-71837838D01*
X65003109Y-71837851D01*
X65090710Y-71968954D01*
X65090713Y-71968958D01*
X65202207Y-72080452D01*
X65202211Y-72080455D01*
X65333314Y-72168056D01*
X65333327Y-72168063D01*
X65469561Y-72224492D01*
X65479003Y-72228403D01*
X65633653Y-72259165D01*
X65633656Y-72259166D01*
X65633658Y-72259166D01*
X66591344Y-72259166D01*
X66591345Y-72259165D01*
X66745997Y-72228403D01*
X66891679Y-72168060D01*
X67022789Y-72080455D01*
X67134289Y-71968955D01*
X67221894Y-71837845D01*
X67282237Y-71692163D01*
X67313000Y-71537508D01*
X67313000Y-71379824D01*
X67313000Y-71379821D01*
X67312999Y-71379819D01*
X67309079Y-71360110D01*
X67282237Y-71225169D01*
X67274272Y-71205939D01*
X67221897Y-71079493D01*
X67221890Y-71079480D01*
X67134289Y-70948377D01*
X67134286Y-70948373D01*
X67022792Y-70836879D01*
X67022788Y-70836876D01*
X66891685Y-70749275D01*
X66891672Y-70749268D01*
X66746001Y-70688930D01*
X66745989Y-70688927D01*
X66591345Y-70658166D01*
X66591342Y-70658166D01*
X65633658Y-70658166D01*
X65633655Y-70658166D01*
X65479010Y-70688927D01*
X65478998Y-70688930D01*
X65333327Y-70749268D01*
X65333314Y-70749275D01*
X65202211Y-70836876D01*
X65202207Y-70836879D01*
X65090713Y-70948373D01*
X65090710Y-70948377D01*
X65003109Y-71079480D01*
X65003102Y-71079493D01*
X64942764Y-71225164D01*
X64942761Y-71225176D01*
X64912000Y-71379819D01*
X57537792Y-71379819D01*
X57874216Y-71043394D01*
X57820050Y-71004041D01*
X57630716Y-70907570D01*
X57454526Y-70850322D01*
X57396850Y-70810884D01*
X57369652Y-70746526D01*
X57381567Y-70677679D01*
X57428811Y-70626204D01*
X57445382Y-70617834D01*
X57610098Y-70549607D01*
X57782155Y-70434643D01*
X57928477Y-70288321D01*
X58043441Y-70116264D01*
X58122630Y-69925086D01*
X58163000Y-69722131D01*
X58163000Y-69515201D01*
X58122630Y-69312246D01*
X58043441Y-69121068D01*
X57928477Y-68949011D01*
X57928475Y-68949008D01*
X57782157Y-68802690D01*
X57615116Y-68691078D01*
X57610098Y-68687725D01*
X57610093Y-68687723D01*
X57481998Y-68634664D01*
X57445390Y-68619500D01*
X57390988Y-68575660D01*
X57368923Y-68509366D01*
X57386202Y-68441667D01*
X57437339Y-68394056D01*
X57454526Y-68387009D01*
X57630717Y-68329761D01*
X57820054Y-68233288D01*
X57874216Y-68193936D01*
X57874217Y-68193936D01*
X57241908Y-67561628D01*
X57305493Y-67544591D01*
X57419507Y-67478765D01*
X57512599Y-67385673D01*
X57578425Y-67271659D01*
X57595462Y-67208074D01*
X58227770Y-67840383D01*
X58227770Y-67840382D01*
X58267122Y-67786220D01*
X58363595Y-67596883D01*
X58429257Y-67394796D01*
X58429257Y-67394793D01*
X58462500Y-67184912D01*
X58462500Y-66972419D01*
X58429257Y-66762538D01*
X58429257Y-66762535D01*
X58363595Y-66560448D01*
X58267123Y-66371113D01*
X58263858Y-66366619D01*
X58263856Y-66366617D01*
X58227769Y-66316948D01*
X57595462Y-66949256D01*
X57578425Y-66885673D01*
X57512599Y-66771659D01*
X57419507Y-66678567D01*
X57305493Y-66612741D01*
X57241909Y-66595703D01*
X57537792Y-66299819D01*
X64912000Y-66299819D01*
X64912000Y-66457512D01*
X64942761Y-66612155D01*
X64942764Y-66612167D01*
X65003102Y-66757838D01*
X65003109Y-66757851D01*
X65090710Y-66888954D01*
X65090713Y-66888958D01*
X65202207Y-67000452D01*
X65202211Y-67000455D01*
X65333314Y-67088056D01*
X65333327Y-67088063D01*
X65434033Y-67129776D01*
X65479003Y-67148403D01*
X65633653Y-67179165D01*
X65633656Y-67179166D01*
X65633658Y-67179166D01*
X66591344Y-67179166D01*
X66591345Y-67179165D01*
X66745997Y-67148403D01*
X66858666Y-67101733D01*
X66891672Y-67088063D01*
X66891672Y-67088062D01*
X66891679Y-67088060D01*
X67022789Y-67000455D01*
X67134289Y-66888955D01*
X67221894Y-66757845D01*
X67222776Y-66755717D01*
X67235567Y-66724832D01*
X67282237Y-66612163D01*
X67313000Y-66457508D01*
X67313000Y-66299824D01*
X67313000Y-66299821D01*
X67312999Y-66299819D01*
X67282237Y-66145169D01*
X67250494Y-66068534D01*
X67221897Y-65999493D01*
X67221890Y-65999480D01*
X67134289Y-65868377D01*
X67134286Y-65868373D01*
X67022792Y-65756879D01*
X67022788Y-65756876D01*
X66891685Y-65669275D01*
X66891672Y-65669268D01*
X66746001Y-65608930D01*
X66745989Y-65608927D01*
X66591345Y-65578166D01*
X66591342Y-65578166D01*
X65633658Y-65578166D01*
X65633655Y-65578166D01*
X65479010Y-65608927D01*
X65478998Y-65608930D01*
X65333327Y-65669268D01*
X65333314Y-65669275D01*
X65202211Y-65756876D01*
X65202207Y-65756879D01*
X65090713Y-65868373D01*
X65090710Y-65868377D01*
X65003109Y-65999480D01*
X65003102Y-65999493D01*
X64942764Y-66145164D01*
X64942761Y-66145176D01*
X64912000Y-66299819D01*
X57537792Y-66299819D01*
X57874216Y-65963394D01*
X57820050Y-65924041D01*
X57630717Y-65827570D01*
X57428628Y-65761908D01*
X57369911Y-65752608D01*
X57306776Y-65722678D01*
X57269845Y-65663367D01*
X57270843Y-65593504D01*
X57309453Y-65535272D01*
X57365115Y-65508518D01*
X57404335Y-65500717D01*
X57586414Y-65425298D01*
X57750282Y-65315805D01*
X57889639Y-65176448D01*
X57999132Y-65012580D01*
X58074551Y-64830501D01*
X58112020Y-64642135D01*
X58113000Y-64637209D01*
X58113000Y-64440122D01*
X58074552Y-64246836D01*
X58074551Y-64246835D01*
X58074551Y-64246831D01*
X58061272Y-64214772D01*
X57999135Y-64064758D01*
X57999128Y-64064745D01*
X57889639Y-63900884D01*
X57889636Y-63900880D01*
X57750285Y-63761529D01*
X57750281Y-63761526D01*
X57586420Y-63652037D01*
X57586407Y-63652030D01*
X57404339Y-63576616D01*
X57404330Y-63576613D01*
X57365116Y-63568813D01*
X57303205Y-63536427D01*
X57268632Y-63475711D01*
X57272373Y-63405941D01*
X57313240Y-63349270D01*
X57369912Y-63324722D01*
X57428634Y-63315421D01*
X57630717Y-63249761D01*
X57820054Y-63153288D01*
X57874216Y-63113936D01*
X57874217Y-63113936D01*
X57241908Y-62481628D01*
X57305493Y-62464591D01*
X57419507Y-62398765D01*
X57512599Y-62305673D01*
X57578425Y-62191659D01*
X57595462Y-62128075D01*
X58227770Y-62760383D01*
X58227770Y-62760382D01*
X58267122Y-62706220D01*
X58363595Y-62516883D01*
X58429257Y-62314796D01*
X58429257Y-62314793D01*
X58462500Y-62104912D01*
X58462500Y-61892419D01*
X58429257Y-61682538D01*
X58429257Y-61682535D01*
X58363595Y-61480448D01*
X58267124Y-61291115D01*
X58227770Y-61236948D01*
X58227769Y-61236948D01*
X57595462Y-61869256D01*
X57578425Y-61805673D01*
X57512599Y-61691659D01*
X57419507Y-61598567D01*
X57305493Y-61532741D01*
X57241909Y-61515703D01*
X57874216Y-60883394D01*
X57820050Y-60844041D01*
X57630716Y-60747570D01*
X57454526Y-60690322D01*
X57396850Y-60650884D01*
X57369652Y-60586526D01*
X57381567Y-60517679D01*
X57428811Y-60466204D01*
X57445382Y-60457834D01*
X57610098Y-60389607D01*
X57782155Y-60274643D01*
X57928477Y-60128321D01*
X58043441Y-59956264D01*
X58122630Y-59765086D01*
X58163000Y-59562131D01*
X58163000Y-59355201D01*
X58122630Y-59152246D01*
X58043441Y-58961068D01*
X57928477Y-58789011D01*
X57928475Y-58789008D01*
X57819286Y-58679819D01*
X64912000Y-58679819D01*
X64912000Y-58837512D01*
X64942761Y-58992155D01*
X64942764Y-58992167D01*
X65003102Y-59137838D01*
X65003109Y-59137851D01*
X65090710Y-59268954D01*
X65090713Y-59268958D01*
X65202207Y-59380452D01*
X65202211Y-59380455D01*
X65333314Y-59468056D01*
X65333327Y-59468063D01*
X65469561Y-59524492D01*
X65479003Y-59528403D01*
X65633653Y-59559165D01*
X65633656Y-59559166D01*
X65633658Y-59559166D01*
X66591344Y-59559166D01*
X66591345Y-59559165D01*
X66745997Y-59528403D01*
X66891679Y-59468060D01*
X67022789Y-59380455D01*
X67134289Y-59268955D01*
X67221894Y-59137845D01*
X67282237Y-58992163D01*
X67313000Y-58837508D01*
X67313000Y-58679824D01*
X67313000Y-58679821D01*
X67312999Y-58679819D01*
X90312000Y-58679819D01*
X90312000Y-58837512D01*
X90342761Y-58992155D01*
X90342764Y-58992167D01*
X90403102Y-59137838D01*
X90403109Y-59137851D01*
X90490710Y-59268954D01*
X90490713Y-59268958D01*
X90602207Y-59380452D01*
X90602211Y-59380455D01*
X90733314Y-59468056D01*
X90733327Y-59468063D01*
X90869561Y-59524492D01*
X90879003Y-59528403D01*
X91033653Y-59559165D01*
X91033656Y-59559166D01*
X91033658Y-59559166D01*
X91991344Y-59559166D01*
X91991345Y-59559165D01*
X92145997Y-59528403D01*
X92291679Y-59468060D01*
X92422789Y-59380455D01*
X92534289Y-59268955D01*
X92621894Y-59137845D01*
X92682237Y-58992163D01*
X92713000Y-58837508D01*
X92713000Y-58679824D01*
X92713000Y-58679821D01*
X92712999Y-58679819D01*
X92682237Y-58525169D01*
X92650494Y-58448534D01*
X92621897Y-58379493D01*
X92621890Y-58379480D01*
X92534289Y-58248377D01*
X92534286Y-58248373D01*
X92422792Y-58136879D01*
X92422788Y-58136876D01*
X92291685Y-58049275D01*
X92291672Y-58049268D01*
X92146001Y-57988930D01*
X92145989Y-57988927D01*
X91991345Y-57958166D01*
X91991342Y-57958166D01*
X91033658Y-57958166D01*
X91033655Y-57958166D01*
X90879010Y-57988927D01*
X90878998Y-57988930D01*
X90733327Y-58049268D01*
X90733314Y-58049275D01*
X90602211Y-58136876D01*
X90602207Y-58136879D01*
X90490713Y-58248373D01*
X90490710Y-58248377D01*
X90403109Y-58379480D01*
X90403102Y-58379493D01*
X90342764Y-58525164D01*
X90342761Y-58525176D01*
X90312000Y-58679819D01*
X67312999Y-58679819D01*
X67282237Y-58525169D01*
X67250494Y-58448534D01*
X67221897Y-58379493D01*
X67221890Y-58379480D01*
X67134289Y-58248377D01*
X67134286Y-58248373D01*
X67022792Y-58136879D01*
X67022788Y-58136876D01*
X66891685Y-58049275D01*
X66891672Y-58049268D01*
X66746001Y-57988930D01*
X66745989Y-57988927D01*
X66591345Y-57958166D01*
X66591342Y-57958166D01*
X65633658Y-57958166D01*
X65633655Y-57958166D01*
X65479010Y-57988927D01*
X65478998Y-57988930D01*
X65333327Y-58049268D01*
X65333314Y-58049275D01*
X65202211Y-58136876D01*
X65202207Y-58136879D01*
X65090713Y-58248373D01*
X65090710Y-58248377D01*
X65003109Y-58379480D01*
X65003102Y-58379493D01*
X64942764Y-58525164D01*
X64942761Y-58525176D01*
X64912000Y-58679819D01*
X57819286Y-58679819D01*
X57782157Y-58642690D01*
X57696126Y-58585207D01*
X57610098Y-58527725D01*
X57603944Y-58525176D01*
X57418920Y-58448536D01*
X57418912Y-58448534D01*
X57215969Y-58408166D01*
X57215965Y-58408166D01*
X57009035Y-58408166D01*
X57009030Y-58408166D01*
X56806087Y-58448534D01*
X56806079Y-58448536D01*
X56614903Y-58527724D01*
X56442842Y-58642690D01*
X56296524Y-58789008D01*
X56181558Y-58961069D01*
X56102370Y-59152245D01*
X56102368Y-59152253D01*
X56062000Y-59355196D01*
X56062000Y-59562135D01*
X56102368Y-59765078D01*
X56102370Y-59765086D01*
X56168439Y-59924591D01*
X56181559Y-59956264D01*
X56239041Y-60042292D01*
X56296524Y-60128323D01*
X56442842Y-60274641D01*
X56614905Y-60389609D01*
X56717543Y-60432122D01*
X56779608Y-60457830D01*
X56834011Y-60501671D01*
X56856076Y-60567965D01*
X56838797Y-60635664D01*
X56787660Y-60683275D01*
X56770474Y-60690322D01*
X56594281Y-60747571D01*
X56404939Y-60844046D01*
X56350782Y-60883393D01*
X56350782Y-60883394D01*
X56983091Y-61515703D01*
X56919507Y-61532741D01*
X56805493Y-61598567D01*
X56712401Y-61691659D01*
X56646575Y-61805673D01*
X56629537Y-61869257D01*
X55997228Y-61236948D01*
X55997227Y-61236948D01*
X55957880Y-61291105D01*
X55861404Y-61480448D01*
X55795742Y-61682535D01*
X55795742Y-61682538D01*
X55762500Y-61892419D01*
X50500500Y-61892419D01*
X50500500Y-56048913D01*
X56062000Y-56048913D01*
X56062000Y-57788418D01*
X56073631Y-57846895D01*
X56073632Y-57846896D01*
X56117947Y-57913218D01*
X56184269Y-57957533D01*
X56184270Y-57957534D01*
X56242747Y-57969165D01*
X56242750Y-57969166D01*
X56242752Y-57969166D01*
X57982250Y-57969166D01*
X57982251Y-57969165D01*
X57997068Y-57966218D01*
X58040729Y-57957534D01*
X58040729Y-57957533D01*
X58040731Y-57957533D01*
X58107052Y-57913218D01*
X58151367Y-57846897D01*
X58151367Y-57846895D01*
X58151368Y-57846895D01*
X58162999Y-57788418D01*
X58163000Y-57788416D01*
X58163000Y-56048915D01*
X58162999Y-56048913D01*
X58151368Y-55990436D01*
X58151367Y-55990435D01*
X58107052Y-55924113D01*
X58040730Y-55879798D01*
X58040729Y-55879797D01*
X57982252Y-55868166D01*
X57982248Y-55868166D01*
X56242752Y-55868166D01*
X56242747Y-55868166D01*
X56184270Y-55879797D01*
X56184269Y-55879798D01*
X56117947Y-55924113D01*
X56073632Y-55990435D01*
X56073631Y-55990436D01*
X56062000Y-56048913D01*
X50500500Y-56048913D01*
X50500500Y-55598913D01*
X64912000Y-55598913D01*
X64912000Y-56838418D01*
X64923631Y-56896895D01*
X64923632Y-56896896D01*
X64967947Y-56963218D01*
X65034269Y-57007533D01*
X65034270Y-57007534D01*
X65092747Y-57019165D01*
X65092750Y-57019166D01*
X65092752Y-57019166D01*
X67132250Y-57019166D01*
X67132251Y-57019165D01*
X67147068Y-57016218D01*
X67190729Y-57007534D01*
X67190729Y-57007533D01*
X67190731Y-57007533D01*
X67257052Y-56963218D01*
X67301367Y-56896897D01*
X67301367Y-56896895D01*
X67301368Y-56896895D01*
X67312999Y-56838418D01*
X67313000Y-56838416D01*
X67313000Y-55968665D01*
X90038384Y-55968665D01*
X90038385Y-55968666D01*
X91196814Y-55968666D01*
X91192420Y-55973060D01*
X91139759Y-56064272D01*
X91112500Y-56166005D01*
X91112500Y-56271327D01*
X91139759Y-56373060D01*
X91192420Y-56464272D01*
X91196814Y-56468666D01*
X90038385Y-56468666D01*
X90039585Y-56476250D01*
X90093091Y-56640921D01*
X90171695Y-56795190D01*
X90273467Y-56935268D01*
X90395897Y-57057698D01*
X90535975Y-57159470D01*
X90690242Y-57238074D01*
X90854915Y-57291580D01*
X91025929Y-57318666D01*
X91262500Y-57318666D01*
X91262500Y-56534352D01*
X91266894Y-56538746D01*
X91358106Y-56591407D01*
X91459839Y-56618666D01*
X91565161Y-56618666D01*
X91666894Y-56591407D01*
X91758106Y-56538746D01*
X91762500Y-56534352D01*
X91762500Y-57318666D01*
X91999071Y-57318666D01*
X92170084Y-57291580D01*
X92334757Y-57238074D01*
X92489024Y-57159470D01*
X92629102Y-57057698D01*
X92751532Y-56935268D01*
X92853304Y-56795190D01*
X92931908Y-56640921D01*
X92985414Y-56476250D01*
X92986615Y-56468666D01*
X91828186Y-56468666D01*
X91832580Y-56464272D01*
X91885241Y-56373060D01*
X91912500Y-56271327D01*
X91912500Y-56166005D01*
X91885241Y-56064272D01*
X91832580Y-55973060D01*
X91828186Y-55968666D01*
X92986615Y-55968666D01*
X92986615Y-55968665D01*
X92985414Y-55961081D01*
X92931908Y-55796410D01*
X92853304Y-55642141D01*
X92751532Y-55502063D01*
X92629102Y-55379633D01*
X92489024Y-55277861D01*
X92334757Y-55199257D01*
X92170084Y-55145751D01*
X91999071Y-55118666D01*
X91762500Y-55118666D01*
X91762500Y-55902980D01*
X91758106Y-55898586D01*
X91666894Y-55845925D01*
X91565161Y-55818666D01*
X91459839Y-55818666D01*
X91358106Y-55845925D01*
X91266894Y-55898586D01*
X91262500Y-55902980D01*
X91262500Y-55118666D01*
X91025929Y-55118666D01*
X90854915Y-55145751D01*
X90690242Y-55199257D01*
X90535975Y-55277861D01*
X90395897Y-55379633D01*
X90273467Y-55502063D01*
X90171695Y-55642141D01*
X90093091Y-55796410D01*
X90039585Y-55961081D01*
X90038384Y-55968665D01*
X67313000Y-55968665D01*
X67313000Y-55598915D01*
X67312999Y-55598913D01*
X67301368Y-55540436D01*
X67301367Y-55540435D01*
X67257052Y-55474113D01*
X67190730Y-55429798D01*
X67190729Y-55429797D01*
X67132252Y-55418166D01*
X67132248Y-55418166D01*
X65092752Y-55418166D01*
X65092747Y-55418166D01*
X65034270Y-55429797D01*
X65034269Y-55429798D01*
X64967947Y-55474113D01*
X64923632Y-55540435D01*
X64923631Y-55540436D01*
X64912000Y-55598913D01*
X50500500Y-55598913D01*
X50500500Y-50624500D01*
X50520185Y-50557461D01*
X50572989Y-50511706D01*
X50624500Y-50500500D01*
X107375500Y-50500500D01*
X107442539Y-50520185D01*
G37*
%TD.AperFunction*%
%TD*%
M02*
