%TF.GenerationSoftware,KiCad,Pcbnew,10.0.3*%
%TF.CreationDate,2026-06-07T21:11:23-04:00*%
%TF.ProjectId,openchess-board,6f70656e-6368-4657-9373-2d626f617264,rev?*%
%TF.SameCoordinates,Original*%
%TF.FileFunction,Paste,Top*%
%TF.FilePolarity,Positive*%
%FSLAX46Y46*%
G04 Gerber Fmt 4.6, Leading zero omitted, Abs format (unit mm)*
G04 Created by KiCad (PCBNEW 10.0.3) date 2026-06-07 21:11:23*
%MOMM*%
%LPD*%
G01*
G04 APERTURE LIST*
G04 Aperture macros list*
%AMRoundRect*
0 Rectangle with rounded corners*
0 $1 Rounding radius*
0 $2 $3 $4 $5 $6 $7 $8 $9 X,Y pos of 4 corners*
0 Add a 4 corners polygon primitive as box body*
4,1,4,$2,$3,$4,$5,$6,$7,$8,$9,$2,$3,0*
0 Add four circle primitives for the rounded corners*
1,1,$1+$1,$2,$3*
1,1,$1+$1,$4,$5*
1,1,$1+$1,$6,$7*
1,1,$1+$1,$8,$9*
0 Add four rect primitives between the rounded corners*
20,1,$1+$1,$2,$3,$4,$5,0*
20,1,$1+$1,$4,$5,$6,$7,0*
20,1,$1+$1,$6,$7,$8,$9,0*
20,1,$1+$1,$8,$9,$2,$3,0*%
G04 Aperture macros list end*
%ADD10RoundRect,0.250000X-0.337500X-0.475000X0.337500X-0.475000X0.337500X0.475000X-0.337500X0.475000X0*%
%ADD11RoundRect,0.090000X-0.660000X-0.360000X0.660000X-0.360000X0.660000X0.360000X-0.660000X0.360000X0*%
%ADD12RoundRect,0.250000X-0.475000X0.337500X-0.475000X-0.337500X0.475000X-0.337500X0.475000X0.337500X0*%
G04 APERTURE END LIST*
D10*
%TO.C,C57*%
X128462500Y-222000000D03*
X130537500Y-222000000D03*
%TD*%
D11*
%TO.C,D70*%
X251550000Y-284350000D03*
X251550000Y-287650000D03*
X256450000Y-287650000D03*
X256450000Y-284350000D03*
%TD*%
%TO.C,D75*%
X123550000Y-316350000D03*
X123550000Y-319650000D03*
X128450000Y-319650000D03*
X128450000Y-316350000D03*
%TD*%
%TO.C,D64*%
X59550000Y-284350000D03*
X59550000Y-287650000D03*
X64450000Y-287650000D03*
X64450000Y-284350000D03*
%TD*%
D10*
%TO.C,C80*%
X288462500Y-286000000D03*
X290537500Y-286000000D03*
%TD*%
%TO.C,C55*%
X64462500Y-222000000D03*
X66537500Y-222000000D03*
%TD*%
%TO.C,C34*%
X256462500Y-126000000D03*
X258537500Y-126000000D03*
%TD*%
D11*
%TO.C,D56*%
X91550000Y-252350000D03*
X91550000Y-255650000D03*
X96450000Y-255650000D03*
X96450000Y-252350000D03*
%TD*%
%TO.C,D81*%
X315550000Y-316350000D03*
X315550000Y-319650000D03*
X320450000Y-319650000D03*
X320450000Y-316350000D03*
%TD*%
%TO.C,D20*%
X91550000Y-124350000D03*
X91550000Y-127650000D03*
X96450000Y-127650000D03*
X96450000Y-124350000D03*
%TD*%
%TO.C,D5*%
X187550000Y-60350000D03*
X187550000Y-63650000D03*
X192450000Y-63650000D03*
X192450000Y-60350000D03*
%TD*%
%TO.C,D66*%
X123550000Y-284350000D03*
X123550000Y-287650000D03*
X128450000Y-287650000D03*
X128450000Y-284350000D03*
%TD*%
D10*
%TO.C,C14*%
X192462500Y-62000000D03*
X194537500Y-62000000D03*
%TD*%
D11*
%TO.C,D39*%
X123550000Y-188350000D03*
X123550000Y-191650000D03*
X128450000Y-191650000D03*
X128450000Y-188350000D03*
%TD*%
D10*
%TO.C,C84*%
X128462500Y-318000000D03*
X130537500Y-318000000D03*
%TD*%
%TO.C,C58*%
X160462500Y-222000000D03*
X162537500Y-222000000D03*
%TD*%
%TO.C,C10*%
X64462500Y-62000000D03*
X66537500Y-62000000D03*
%TD*%
D11*
%TO.C,D29*%
X91550000Y-156350000D03*
X91550000Y-159650000D03*
X96450000Y-159650000D03*
X96450000Y-156350000D03*
%TD*%
%TO.C,D52*%
X251550000Y-220350000D03*
X251550000Y-223650000D03*
X256450000Y-223650000D03*
X256450000Y-220350000D03*
%TD*%
D10*
%TO.C,C43*%
X256462500Y-158000000D03*
X258537500Y-158000000D03*
%TD*%
D11*
%TO.C,D53*%
X283550000Y-220350000D03*
X283550000Y-223650000D03*
X288450000Y-223650000D03*
X288450000Y-220350000D03*
%TD*%
D10*
%TO.C,C70*%
X256462500Y-254000000D03*
X258537500Y-254000000D03*
%TD*%
%TO.C,C76*%
X160462500Y-286000000D03*
X162537500Y-286000000D03*
%TD*%
%TO.C,C86*%
X192462500Y-318000000D03*
X194537500Y-318000000D03*
%TD*%
D11*
%TO.C,D69*%
X219550000Y-284350000D03*
X219550000Y-287650000D03*
X224450000Y-287650000D03*
X224450000Y-284350000D03*
%TD*%
%TO.C,D62*%
X283550000Y-252350000D03*
X283550000Y-255650000D03*
X288450000Y-255650000D03*
X288450000Y-252350000D03*
%TD*%
D10*
%TO.C,C83*%
X96462500Y-318000000D03*
X98537500Y-318000000D03*
%TD*%
D11*
%TO.C,D35*%
X283550000Y-156350000D03*
X283550000Y-159650000D03*
X288450000Y-159650000D03*
X288450000Y-156350000D03*
%TD*%
%TO.C,D46*%
X59550000Y-220350000D03*
X59550000Y-223650000D03*
X64450000Y-223650000D03*
X64450000Y-220350000D03*
%TD*%
D10*
%TO.C,C44*%
X288462500Y-158000000D03*
X290537500Y-158000000D03*
%TD*%
%TO.C,C24*%
X224462500Y-94000000D03*
X226537500Y-94000000D03*
%TD*%
D11*
%TO.C,D6*%
X219550000Y-60350000D03*
X219550000Y-63650000D03*
X224450000Y-63650000D03*
X224450000Y-60350000D03*
%TD*%
D10*
%TO.C,C59*%
X192462500Y-222000000D03*
X194537500Y-222000000D03*
%TD*%
%TO.C,C25*%
X256462500Y-94000000D03*
X258537500Y-94000000D03*
%TD*%
D11*
%TO.C,D18*%
X315550000Y-92350000D03*
X315550000Y-95650000D03*
X320450000Y-95650000D03*
X320450000Y-92350000D03*
%TD*%
%TO.C,D47*%
X91550000Y-220350000D03*
X91550000Y-223650000D03*
X96450000Y-223650000D03*
X96450000Y-220350000D03*
%TD*%
%TO.C,D50*%
X187550000Y-220350000D03*
X187550000Y-223650000D03*
X192450000Y-223650000D03*
X192450000Y-220350000D03*
%TD*%
%TO.C,D37*%
X59550000Y-188350000D03*
X59550000Y-191650000D03*
X64450000Y-191650000D03*
X64450000Y-188350000D03*
%TD*%
D10*
%TO.C,C61*%
X256462500Y-222000000D03*
X258537500Y-222000000D03*
%TD*%
%TO.C,C47*%
X96462500Y-190000000D03*
X98537500Y-190000000D03*
%TD*%
%TO.C,C52*%
X256462500Y-190000000D03*
X258537500Y-190000000D03*
%TD*%
%TO.C,C48*%
X128462500Y-190000000D03*
X130537500Y-190000000D03*
%TD*%
D11*
%TO.C,D14*%
X187550000Y-92350000D03*
X187550000Y-95650000D03*
X192450000Y-95650000D03*
X192450000Y-92350000D03*
%TD*%
%TO.C,D21*%
X123550000Y-124350000D03*
X123550000Y-127650000D03*
X128450000Y-127650000D03*
X128450000Y-124350000D03*
%TD*%
%TO.C,D61*%
X251550000Y-252350000D03*
X251550000Y-255650000D03*
X256450000Y-255650000D03*
X256450000Y-252350000D03*
%TD*%
%TO.C,D36*%
X315550000Y-156350000D03*
X315550000Y-159650000D03*
X320450000Y-159650000D03*
X320450000Y-156350000D03*
%TD*%
D10*
%TO.C,C15*%
X224462500Y-62000000D03*
X226537500Y-62000000D03*
%TD*%
D11*
%TO.C,D23*%
X187550000Y-124350000D03*
X187550000Y-127650000D03*
X192450000Y-127650000D03*
X192450000Y-124350000D03*
%TD*%
%TO.C,D1*%
X59550000Y-60350000D03*
X59550000Y-63650000D03*
X64450000Y-63650000D03*
X64450000Y-60350000D03*
%TD*%
%TO.C,D72*%
X315550000Y-284350000D03*
X315550000Y-287650000D03*
X320450000Y-287650000D03*
X320450000Y-284350000D03*
%TD*%
D10*
%TO.C,C63*%
X320462500Y-222000000D03*
X322537500Y-222000000D03*
%TD*%
D11*
%TO.C,D49*%
X155550000Y-220350000D03*
X155550000Y-223650000D03*
X160450000Y-223650000D03*
X160450000Y-220350000D03*
%TD*%
%TO.C,D41*%
X187550000Y-188350000D03*
X187550000Y-191650000D03*
X192450000Y-191650000D03*
X192450000Y-188350000D03*
%TD*%
D10*
%TO.C,C32*%
X192462500Y-126000000D03*
X194537500Y-126000000D03*
%TD*%
%TO.C,C79*%
X256462500Y-286000000D03*
X258537500Y-286000000D03*
%TD*%
%TO.C,C50*%
X192462500Y-190000000D03*
X194537500Y-190000000D03*
%TD*%
D11*
%TO.C,D25*%
X251550000Y-124350000D03*
X251550000Y-127650000D03*
X256450000Y-127650000D03*
X256450000Y-124350000D03*
%TD*%
D10*
%TO.C,C18*%
X320462500Y-62000000D03*
X322537500Y-62000000D03*
%TD*%
%TO.C,C26*%
X288462500Y-94000000D03*
X290537500Y-94000000D03*
%TD*%
D12*
%TO.C,C21*%
X133150000Y-92962500D03*
X133150000Y-95037500D03*
%TD*%
D11*
%TO.C,D55*%
X59550000Y-252350000D03*
X59550000Y-255650000D03*
X64450000Y-255650000D03*
X64450000Y-252350000D03*
%TD*%
D10*
%TO.C,C16*%
X256462500Y-62000000D03*
X258537500Y-62000000D03*
%TD*%
%TO.C,C73*%
X64462500Y-286000000D03*
X66537500Y-286000000D03*
%TD*%
D11*
%TO.C,D54*%
X315550000Y-220350000D03*
X315550000Y-223650000D03*
X320450000Y-223650000D03*
X320450000Y-220350000D03*
%TD*%
%TO.C,D4*%
X155550000Y-60350000D03*
X155550000Y-63650000D03*
X160450000Y-63650000D03*
X160450000Y-60350000D03*
%TD*%
%TO.C,D2*%
X91550000Y-60350000D03*
X91550000Y-63650000D03*
X96450000Y-63650000D03*
X96450000Y-60350000D03*
%TD*%
D10*
%TO.C,C60*%
X224462500Y-222000000D03*
X226537500Y-222000000D03*
%TD*%
D11*
%TO.C,D27*%
X315550000Y-124350000D03*
X315550000Y-127650000D03*
X320450000Y-127650000D03*
X320450000Y-124350000D03*
%TD*%
%TO.C,D31*%
X155550000Y-156350000D03*
X155550000Y-159650000D03*
X160450000Y-159650000D03*
X160450000Y-156350000D03*
%TD*%
%TO.C,D80*%
X283550000Y-316350000D03*
X283550000Y-319650000D03*
X288450000Y-319650000D03*
X288450000Y-316350000D03*
%TD*%
%TO.C,D8*%
X283550000Y-60350000D03*
X283550000Y-63650000D03*
X288450000Y-63650000D03*
X288450000Y-60350000D03*
%TD*%
%TO.C,D24*%
X219550000Y-124350000D03*
X219550000Y-127650000D03*
X224450000Y-127650000D03*
X224450000Y-124350000D03*
%TD*%
%TO.C,D65*%
X91550000Y-284350000D03*
X91550000Y-287650000D03*
X96450000Y-287650000D03*
X96450000Y-284350000D03*
%TD*%
%TO.C,D79*%
X251550000Y-316350000D03*
X251550000Y-319650000D03*
X256450000Y-319650000D03*
X256450000Y-316350000D03*
%TD*%
D10*
%TO.C,C89*%
X288462500Y-318000000D03*
X290537500Y-318000000D03*
%TD*%
D11*
%TO.C,D11*%
X91550000Y-92350000D03*
X91550000Y-95650000D03*
X96450000Y-95650000D03*
X96450000Y-92350000D03*
%TD*%
D10*
%TO.C,C87*%
X224462500Y-318000000D03*
X226537500Y-318000000D03*
%TD*%
%TO.C,C90*%
X320462500Y-318000000D03*
X322537500Y-318000000D03*
%TD*%
D11*
%TO.C,D33*%
X219550000Y-156350000D03*
X219550000Y-159650000D03*
X224450000Y-159650000D03*
X224450000Y-156350000D03*
%TD*%
D10*
%TO.C,C68*%
X192462500Y-254000000D03*
X194537500Y-254000000D03*
%TD*%
D11*
%TO.C,D28*%
X59550000Y-156350000D03*
X59550000Y-159650000D03*
X64450000Y-159650000D03*
X64450000Y-156350000D03*
%TD*%
D10*
%TO.C,C19*%
X64462500Y-94000000D03*
X66537500Y-94000000D03*
%TD*%
%TO.C,C13*%
X160462500Y-62000000D03*
X162537500Y-62000000D03*
%TD*%
%TO.C,C53*%
X288462500Y-190000000D03*
X290537500Y-190000000D03*
%TD*%
%TO.C,C38*%
X96462500Y-158000000D03*
X98537500Y-158000000D03*
%TD*%
%TO.C,C27*%
X320462500Y-94000000D03*
X322537500Y-94000000D03*
%TD*%
D11*
%TO.C,D68*%
X187550000Y-284350000D03*
X187550000Y-287650000D03*
X192450000Y-287650000D03*
X192450000Y-284350000D03*
%TD*%
D10*
%TO.C,C71*%
X288462500Y-254000000D03*
X290537500Y-254000000D03*
%TD*%
%TO.C,C77*%
X192462500Y-286000000D03*
X194537500Y-286000000D03*
%TD*%
%TO.C,C82*%
X64462500Y-318000000D03*
X66537500Y-318000000D03*
%TD*%
D11*
%TO.C,D76*%
X155550000Y-316350000D03*
X155550000Y-319650000D03*
X160450000Y-319650000D03*
X160450000Y-316350000D03*
%TD*%
D10*
%TO.C,C39*%
X128462500Y-158000000D03*
X130537500Y-158000000D03*
%TD*%
%TO.C,C23*%
X192462500Y-94000000D03*
X194537500Y-94000000D03*
%TD*%
%TO.C,C45*%
X320462500Y-158000000D03*
X322537500Y-158000000D03*
%TD*%
%TO.C,C56*%
X96462500Y-222000000D03*
X98537500Y-222000000D03*
%TD*%
D11*
%TO.C,D40*%
X155550000Y-188350000D03*
X155550000Y-191650000D03*
X160450000Y-191650000D03*
X160450000Y-188350000D03*
%TD*%
D10*
%TO.C,C81*%
X320462500Y-286000000D03*
X322537500Y-286000000D03*
%TD*%
D11*
%TO.C,D42*%
X219550000Y-188350000D03*
X219550000Y-191650000D03*
X224450000Y-191650000D03*
X224450000Y-188350000D03*
%TD*%
%TO.C,D38*%
X91550000Y-188350000D03*
X91550000Y-191650000D03*
X96450000Y-191650000D03*
X96450000Y-188350000D03*
%TD*%
%TO.C,D60*%
X219550000Y-252350000D03*
X219550000Y-255650000D03*
X224450000Y-255650000D03*
X224450000Y-252350000D03*
%TD*%
D10*
%TO.C,C22*%
X160462500Y-94000000D03*
X162537500Y-94000000D03*
%TD*%
%TO.C,C72*%
X320462500Y-254000000D03*
X322537500Y-254000000D03*
%TD*%
%TO.C,C20*%
X96462500Y-94000000D03*
X98537500Y-94000000D03*
%TD*%
%TO.C,C88*%
X256462500Y-318000000D03*
X258537500Y-318000000D03*
%TD*%
%TO.C,C37*%
X64462500Y-158000000D03*
X66537500Y-158000000D03*
%TD*%
D11*
%TO.C,D9*%
X315550000Y-60350000D03*
X315550000Y-63650000D03*
X320450000Y-63650000D03*
X320450000Y-60350000D03*
%TD*%
D10*
%TO.C,C64*%
X64462500Y-254000000D03*
X66537500Y-254000000D03*
%TD*%
%TO.C,C62*%
X288462500Y-222000000D03*
X290537500Y-222000000D03*
%TD*%
%TO.C,C49*%
X160462500Y-190000000D03*
X162537500Y-190000000D03*
%TD*%
%TO.C,C67*%
X160462500Y-254000000D03*
X162537500Y-254000000D03*
%TD*%
%TO.C,C51*%
X224462500Y-190000000D03*
X226537500Y-190000000D03*
%TD*%
D11*
%TO.C,D78*%
X219550000Y-316350000D03*
X219550000Y-319650000D03*
X224450000Y-319650000D03*
X224450000Y-316350000D03*
%TD*%
%TO.C,D15*%
X219550000Y-92350000D03*
X219550000Y-95650000D03*
X224450000Y-95650000D03*
X224450000Y-92350000D03*
%TD*%
%TO.C,D51*%
X219550000Y-220350000D03*
X219550000Y-223650000D03*
X224450000Y-223650000D03*
X224450000Y-220350000D03*
%TD*%
D10*
%TO.C,C69*%
X224462500Y-254000000D03*
X226537500Y-254000000D03*
%TD*%
%TO.C,C12*%
X128462500Y-62000000D03*
X130537500Y-62000000D03*
%TD*%
D11*
%TO.C,D26*%
X283550000Y-124350000D03*
X283550000Y-127650000D03*
X288450000Y-127650000D03*
X288450000Y-124350000D03*
%TD*%
%TO.C,D32*%
X187550000Y-156350000D03*
X187550000Y-159650000D03*
X192450000Y-159650000D03*
X192450000Y-156350000D03*
%TD*%
%TO.C,D12*%
X123550000Y-92350000D03*
X123550000Y-95650000D03*
X128450000Y-95650000D03*
X128450000Y-92350000D03*
%TD*%
D10*
%TO.C,C74*%
X96462500Y-286000000D03*
X98537500Y-286000000D03*
%TD*%
%TO.C,C42*%
X224462500Y-158000000D03*
X226537500Y-158000000D03*
%TD*%
D11*
%TO.C,D67*%
X155550000Y-284350000D03*
X155550000Y-287650000D03*
X160450000Y-287650000D03*
X160450000Y-284350000D03*
%TD*%
D10*
%TO.C,C29*%
X96462500Y-126000000D03*
X98537500Y-126000000D03*
%TD*%
D11*
%TO.C,D43*%
X251550000Y-188350000D03*
X251550000Y-191650000D03*
X256450000Y-191650000D03*
X256450000Y-188350000D03*
%TD*%
%TO.C,D48*%
X123550000Y-220350000D03*
X123550000Y-223650000D03*
X128450000Y-223650000D03*
X128450000Y-220350000D03*
%TD*%
%TO.C,D7*%
X251550000Y-60350000D03*
X251550000Y-63650000D03*
X256450000Y-63650000D03*
X256450000Y-60350000D03*
%TD*%
D10*
%TO.C,C54*%
X320462500Y-190000000D03*
X322537500Y-190000000D03*
%TD*%
D11*
%TO.C,D30*%
X123550000Y-156350000D03*
X123550000Y-159650000D03*
X128450000Y-159650000D03*
X128450000Y-156350000D03*
%TD*%
%TO.C,D73*%
X59550000Y-316350000D03*
X59550000Y-319650000D03*
X64450000Y-319650000D03*
X64450000Y-316350000D03*
%TD*%
%TO.C,D58*%
X155550000Y-252350000D03*
X155550000Y-255650000D03*
X160450000Y-255650000D03*
X160450000Y-252350000D03*
%TD*%
D10*
%TO.C,C46*%
X64462500Y-190000000D03*
X66537500Y-190000000D03*
%TD*%
%TO.C,C85*%
X160462500Y-318000000D03*
X162537500Y-318000000D03*
%TD*%
%TO.C,C30*%
X128462500Y-126000000D03*
X130537500Y-126000000D03*
%TD*%
D11*
%TO.C,D34*%
X251550000Y-156350000D03*
X251550000Y-159650000D03*
X256450000Y-159650000D03*
X256450000Y-156350000D03*
%TD*%
D10*
%TO.C,C66*%
X128462500Y-254000000D03*
X130537500Y-254000000D03*
%TD*%
D11*
%TO.C,D13*%
X155550000Y-92350000D03*
X155550000Y-95650000D03*
X160450000Y-95650000D03*
X160450000Y-92350000D03*
%TD*%
D10*
%TO.C,C41*%
X192462500Y-158000000D03*
X194537500Y-158000000D03*
%TD*%
%TO.C,C75*%
X128462500Y-286000000D03*
X130537500Y-286000000D03*
%TD*%
D11*
%TO.C,D10*%
X59550000Y-92350000D03*
X59550000Y-95650000D03*
X64450000Y-95650000D03*
X64450000Y-92350000D03*
%TD*%
D10*
%TO.C,C17*%
X288462500Y-62000000D03*
X290537500Y-62000000D03*
%TD*%
D11*
%TO.C,D17*%
X283550000Y-92350000D03*
X283550000Y-95650000D03*
X288450000Y-95650000D03*
X288450000Y-92350000D03*
%TD*%
D10*
%TO.C,C11*%
X96462500Y-62000000D03*
X98537500Y-62000000D03*
%TD*%
D11*
%TO.C,D59*%
X187550000Y-252350000D03*
X187550000Y-255650000D03*
X192450000Y-255650000D03*
X192450000Y-252350000D03*
%TD*%
%TO.C,D74*%
X91550000Y-316350000D03*
X91550000Y-319650000D03*
X96450000Y-319650000D03*
X96450000Y-316350000D03*
%TD*%
%TO.C,D44*%
X283550000Y-188350000D03*
X283550000Y-191650000D03*
X288450000Y-191650000D03*
X288450000Y-188350000D03*
%TD*%
%TO.C,D19*%
X59550000Y-124350000D03*
X59550000Y-127650000D03*
X64450000Y-127650000D03*
X64450000Y-124350000D03*
%TD*%
D10*
%TO.C,C31*%
X160462500Y-126000000D03*
X162537500Y-126000000D03*
%TD*%
D11*
%TO.C,D57*%
X123550000Y-252350000D03*
X123550000Y-255650000D03*
X128450000Y-255650000D03*
X128450000Y-252350000D03*
%TD*%
D10*
%TO.C,C40*%
X160462500Y-158000000D03*
X162537500Y-158000000D03*
%TD*%
%TO.C,C33*%
X224462500Y-126000000D03*
X226537500Y-126000000D03*
%TD*%
%TO.C,C28*%
X64462500Y-126000000D03*
X66537500Y-126000000D03*
%TD*%
D11*
%TO.C,D22*%
X155550000Y-124350000D03*
X155550000Y-127650000D03*
X160450000Y-127650000D03*
X160450000Y-124350000D03*
%TD*%
D10*
%TO.C,C65*%
X96462500Y-254000000D03*
X98537500Y-254000000D03*
%TD*%
D11*
%TO.C,D45*%
X315550000Y-188350000D03*
X315550000Y-191650000D03*
X320450000Y-191650000D03*
X320450000Y-188350000D03*
%TD*%
%TO.C,D16*%
X251550000Y-92350000D03*
X251550000Y-95650000D03*
X256450000Y-95650000D03*
X256450000Y-92350000D03*
%TD*%
%TO.C,D77*%
X187550000Y-316350000D03*
X187550000Y-319650000D03*
X192450000Y-319650000D03*
X192450000Y-316350000D03*
%TD*%
%TO.C,D71*%
X283550000Y-284350000D03*
X283550000Y-287650000D03*
X288450000Y-287650000D03*
X288450000Y-284350000D03*
%TD*%
%TO.C,D3*%
X123550000Y-60350000D03*
X123550000Y-63650000D03*
X128450000Y-63650000D03*
X128450000Y-60350000D03*
%TD*%
%TO.C,D63*%
X315550000Y-252350000D03*
X315550000Y-255650000D03*
X320450000Y-255650000D03*
X320450000Y-252350000D03*
%TD*%
D10*
%TO.C,C35*%
X288462500Y-126000000D03*
X290537500Y-126000000D03*
%TD*%
%TO.C,C78*%
X224462500Y-286000000D03*
X226537500Y-286000000D03*
%TD*%
%TO.C,C36*%
X320462500Y-126000000D03*
X322537500Y-126000000D03*
%TD*%
M02*
