%TF.GenerationSoftware,KiCad,Pcbnew,10.0.3*%
%TF.CreationDate,2026-06-11T19:44:31-04:00*%
%TF.ProjectId,openchess-board,6f70656e-6368-4657-9373-2d626f617264,rev?*%
%TF.SameCoordinates,PX2faf080PY13c9eb00*%
%TF.FileFunction,Soldermask,Top*%
%TF.FilePolarity,Negative*%
%FSLAX46Y46*%
G04 Gerber Fmt 4.6, Leading zero omitted, Abs format (unit mm)*
G04 Created by KiCad (PCBNEW 10.0.3) date 2026-06-11 19:44:31*
%MOMM*%
%LPD*%
G01*
G04 APERTURE LIST*
G04 Aperture macros list*
%AMRoundRect*
0 Rectangle with rounded corners*
0 $1 Rounding radius*
0 $2 $3 $4 $5 $6 $7 $8 $9 X,Y pos of 4 corners*
0 Add a 4 corners polygon primitive as box body*
4,1,4,$2,$3,$4,$5,$6,$7,$8,$9,$2,$3,0*
0 Add four circle primitives for the rounded corners*
1,1,$1+$1,$2,$3*
1,1,$1+$1,$4,$5*
1,1,$1+$1,$6,$7*
1,1,$1+$1,$8,$9*
0 Add four rect primitives between the rounded corners*
20,1,$1+$1,$2,$3,$4,$5,0*
20,1,$1+$1,$4,$5,$6,$7,0*
20,1,$1+$1,$6,$7,$8,$9,0*
20,1,$1+$1,$8,$9,$2,$3,0*%
G04 Aperture macros list end*
%ADD10RoundRect,0.150000X-0.587500X-0.150000X0.587500X-0.150000X0.587500X0.150000X-0.587500X0.150000X0*%
%ADD11RoundRect,0.090000X-0.660000X-0.360000X0.660000X-0.360000X0.660000X0.360000X-0.660000X0.360000X0*%
%ADD12RoundRect,0.250000X-0.337500X-0.475000X0.337500X-0.475000X0.337500X0.475000X-0.337500X0.475000X0*%
%ADD13C,2.000000*%
%ADD14C,3.200000*%
%ADD15RoundRect,0.250000X-0.325000X-0.650000X0.325000X-0.650000X0.325000X0.650000X-0.325000X0.650000X0*%
%ADD16R,1.700000X1.700000*%
%ADD17C,1.700000*%
G04 APERTURE END LIST*
D10*
%TO.C,U52*%
X219462500Y126050000D03*
X219462500Y124150000D03*
X221337500Y125100000D03*
%TD*%
D11*
%TO.C,D19*%
X11550000Y206150000D03*
X11550000Y202850000D03*
X16450000Y202850000D03*
X16450000Y206150000D03*
%TD*%
D12*
%TO.C,C22*%
X114800000Y237287500D03*
X114800000Y235212500D03*
%TD*%
%TO.C,C87*%
X178200000Y15037500D03*
X178200000Y12962500D03*
%TD*%
D13*
%TO.C,FID2*%
X212000000Y276000000D03*
%TD*%
D11*
%TO.C,D6*%
X170350000Y269650000D03*
X170350000Y266350000D03*
X175250000Y266350000D03*
X175250000Y269650000D03*
%TD*%
D12*
%TO.C,C57*%
X83000000Y110237500D03*
X83000000Y108162500D03*
%TD*%
D11*
%TO.C,D68*%
X138550000Y47450000D03*
X138550000Y44150000D03*
X143450000Y44150000D03*
X143450000Y47450000D03*
%TD*%
D10*
%TO.C,U10*%
X60662500Y62550000D03*
X60662500Y60650000D03*
X62537500Y61600000D03*
%TD*%
D12*
%TO.C,C35*%
X241800000Y205537500D03*
X241800000Y203462500D03*
%TD*%
D11*
%TO.C,D60*%
X170350000Y79150000D03*
X170350000Y75850000D03*
X175250000Y75850000D03*
X175250000Y79150000D03*
%TD*%
D14*
%TO.C,H4*%
X276000000Y6000000D03*
%TD*%
D12*
%TO.C,C60*%
X178200000Y110237500D03*
X178200000Y108162500D03*
%TD*%
D15*
%TO.C,C5*%
X11545000Y147700000D03*
X14495000Y147700000D03*
%TD*%
D12*
%TO.C,C33*%
X178200000Y205537500D03*
X178200000Y203462500D03*
%TD*%
D10*
%TO.C,U12*%
X60662500Y126050000D03*
X60662500Y124150000D03*
X62537500Y125100000D03*
%TD*%
%TO.C,U31*%
X124162500Y221350000D03*
X124162500Y219450000D03*
X126037500Y220400000D03*
%TD*%
D12*
%TO.C,C11*%
X51200000Y269037500D03*
X51200000Y266962500D03*
%TD*%
%TO.C,C41*%
X146500000Y173837500D03*
X146500000Y171762500D03*
%TD*%
D11*
%TO.C,D66*%
X75050000Y47450000D03*
X75050000Y44150000D03*
X79950000Y44150000D03*
X79950000Y47450000D03*
%TD*%
%TO.C,D10*%
X11550000Y237900000D03*
X11550000Y234600000D03*
X16450000Y234600000D03*
X16450000Y237900000D03*
%TD*%
D12*
%TO.C,C50*%
X146500000Y142037500D03*
X146500000Y139962500D03*
%TD*%
D10*
%TO.C,U44*%
X187662500Y126050000D03*
X187662500Y124150000D03*
X189537500Y125100000D03*
%TD*%
D11*
%TO.C,D13*%
X106750000Y237900000D03*
X106750000Y234600000D03*
X111650000Y234600000D03*
X111650000Y237900000D03*
%TD*%
%TO.C,D72*%
X265550000Y47450000D03*
X265550000Y44150000D03*
X270450000Y44150000D03*
X270450000Y47450000D03*
%TD*%
%TO.C,D39*%
X75050000Y142650000D03*
X75050000Y139350000D03*
X79950000Y139350000D03*
X79950000Y142650000D03*
%TD*%
%TO.C,D52*%
X202050000Y110850000D03*
X202050000Y107550000D03*
X206950000Y107550000D03*
X206950000Y110850000D03*
%TD*%
%TO.C,D63*%
X265550000Y79150000D03*
X265550000Y75850000D03*
X270450000Y75850000D03*
X270450000Y79150000D03*
%TD*%
%TO.C,D41*%
X138550000Y142650000D03*
X138550000Y139350000D03*
X143450000Y139350000D03*
X143450000Y142650000D03*
%TD*%
D10*
%TO.C,U45*%
X187662500Y157850000D03*
X187662500Y155950000D03*
X189537500Y156900000D03*
%TD*%
%TO.C,U56*%
X219462500Y253070000D03*
X219462500Y251170000D03*
X221337500Y252120000D03*
%TD*%
D12*
%TO.C,C20*%
X51200000Y237287500D03*
X51200000Y235212500D03*
%TD*%
D10*
%TO.C,U59*%
X251162500Y94350000D03*
X251162500Y92450000D03*
X253037500Y93400000D03*
%TD*%
D11*
%TO.C,D43*%
X202050000Y142650000D03*
X202050000Y139350000D03*
X206950000Y139350000D03*
X206950000Y142650000D03*
%TD*%
%TO.C,D59*%
X138550000Y79150000D03*
X138550000Y75850000D03*
X143450000Y75850000D03*
X143450000Y79150000D03*
%TD*%
%TO.C,D47*%
X43300000Y110850000D03*
X43300000Y107550000D03*
X48200000Y107550000D03*
X48200000Y110850000D03*
%TD*%
D12*
%TO.C,C15*%
X178200000Y269037500D03*
X178200000Y266962500D03*
%TD*%
D11*
%TO.C,D9*%
X265550000Y269650000D03*
X265550000Y266350000D03*
X270450000Y266350000D03*
X270450000Y269650000D03*
%TD*%
D10*
%TO.C,U14*%
X60662500Y189550000D03*
X60662500Y187650000D03*
X62537500Y188600000D03*
%TD*%
%TO.C,U47*%
X187662500Y221350000D03*
X187662500Y219450000D03*
X189537500Y220400000D03*
%TD*%
D12*
%TO.C,C12*%
X83000000Y269037500D03*
X83000000Y266962500D03*
%TD*%
D11*
%TO.C,D22*%
X106750000Y206150000D03*
X106750000Y202850000D03*
X111650000Y202850000D03*
X111650000Y206150000D03*
%TD*%
D14*
%TO.C,H2*%
X276000000Y276000000D03*
%TD*%
D11*
%TO.C,D76*%
X106750000Y15650000D03*
X106750000Y12350000D03*
X111650000Y12350000D03*
X111650000Y15650000D03*
%TD*%
D13*
%TO.C,FID1*%
X50000000Y276000000D03*
%TD*%
D10*
%TO.C,U23*%
X92462500Y221350000D03*
X92462500Y219450000D03*
X94337500Y220400000D03*
%TD*%
%TO.C,U8*%
X28942500Y253070000D03*
X28942500Y251170000D03*
X30817500Y252120000D03*
%TD*%
D11*
%TO.C,D32*%
X138550000Y174450000D03*
X138550000Y171150000D03*
X143450000Y171150000D03*
X143450000Y174450000D03*
%TD*%
%TO.C,D23*%
X138550000Y206150000D03*
X138550000Y202850000D03*
X143450000Y202850000D03*
X143450000Y206150000D03*
%TD*%
D10*
%TO.C,U46*%
X187662500Y189550000D03*
X187662500Y187650000D03*
X189537500Y188600000D03*
%TD*%
D12*
%TO.C,C70*%
X210000000Y78537500D03*
X210000000Y76462500D03*
%TD*%
D10*
%TO.C,U7*%
X28942500Y221350000D03*
X28942500Y219450000D03*
X30817500Y220400000D03*
%TD*%
D11*
%TO.C,D35*%
X233750000Y174450000D03*
X233750000Y171150000D03*
X238650000Y171150000D03*
X238650000Y174450000D03*
%TD*%
D12*
%TO.C,C63*%
X273500000Y110237500D03*
X273500000Y108162500D03*
%TD*%
D11*
%TO.C,D37*%
X11550000Y142650000D03*
X11550000Y139350000D03*
X16450000Y139350000D03*
X16450000Y142650000D03*
%TD*%
%TO.C,D56*%
X43300000Y79150000D03*
X43300000Y75850000D03*
X48200000Y75850000D03*
X48200000Y79150000D03*
%TD*%
D10*
%TO.C,U40*%
X155962500Y253070000D03*
X155962500Y251170000D03*
X157837500Y252120000D03*
%TD*%
D11*
%TO.C,D26*%
X233750000Y206150000D03*
X233750000Y202850000D03*
X238650000Y202850000D03*
X238650000Y206150000D03*
%TD*%
D10*
%TO.C,U27*%
X124162500Y94350000D03*
X124162500Y92450000D03*
X126037500Y93400000D03*
%TD*%
D12*
%TO.C,C24*%
X178200000Y237287500D03*
X178200000Y235212500D03*
%TD*%
D10*
%TO.C,U22*%
X92462500Y189550000D03*
X92462500Y187650000D03*
X94337500Y188600000D03*
%TD*%
%TO.C,U51*%
X219462500Y94350000D03*
X219462500Y92450000D03*
X221337500Y93400000D03*
%TD*%
D11*
%TO.C,D21*%
X75050000Y206150000D03*
X75050000Y202850000D03*
X79950000Y202850000D03*
X79950000Y206150000D03*
%TD*%
D10*
%TO.C,U34*%
X155962500Y62550000D03*
X155962500Y60650000D03*
X157837500Y61600000D03*
%TD*%
D11*
%TO.C,D31*%
X106750000Y174450000D03*
X106750000Y171150000D03*
X111650000Y171150000D03*
X111650000Y174450000D03*
%TD*%
D15*
%TO.C,C3*%
X11545000Y211200000D03*
X14495000Y211200000D03*
%TD*%
D11*
%TO.C,D45*%
X265550000Y142650000D03*
X265550000Y139350000D03*
X270450000Y139350000D03*
X270450000Y142650000D03*
%TD*%
D10*
%TO.C,U41*%
X187662500Y30850000D03*
X187662500Y28950000D03*
X189537500Y29900000D03*
%TD*%
D12*
%TO.C,C21*%
X83000000Y237287500D03*
X83000000Y235212500D03*
%TD*%
D10*
%TO.C,U55*%
X219462500Y221350000D03*
X219462500Y219450000D03*
X221337500Y220400000D03*
%TD*%
%TO.C,U5*%
X28942500Y157850000D03*
X28942500Y155950000D03*
X30817500Y156900000D03*
%TD*%
D12*
%TO.C,C85*%
X114800000Y15037500D03*
X114800000Y12962500D03*
%TD*%
D10*
%TO.C,U25*%
X124162500Y30850000D03*
X124162500Y28950000D03*
X126037500Y29900000D03*
%TD*%
D12*
%TO.C,C51*%
X178200000Y142037500D03*
X178200000Y139962500D03*
%TD*%
D11*
%TO.C,D8*%
X233750000Y269650000D03*
X233750000Y266350000D03*
X238650000Y266350000D03*
X238650000Y269650000D03*
%TD*%
%TO.C,D65*%
X43300000Y47450000D03*
X43300000Y44150000D03*
X48200000Y44150000D03*
X48200000Y47450000D03*
%TD*%
D10*
%TO.C,U9*%
X60662500Y30850000D03*
X60662500Y28950000D03*
X62537500Y29900000D03*
%TD*%
D12*
%TO.C,C81*%
X273500000Y46837500D03*
X273500000Y44762500D03*
%TD*%
D10*
%TO.C,U6*%
X28942500Y189550000D03*
X28942500Y187650000D03*
X30817500Y188600000D03*
%TD*%
D11*
%TO.C,D71*%
X233750000Y47450000D03*
X233750000Y44150000D03*
X238650000Y44150000D03*
X238650000Y47450000D03*
%TD*%
D10*
%TO.C,U50*%
X219462500Y62550000D03*
X219462500Y60650000D03*
X221337500Y61600000D03*
%TD*%
D11*
%TO.C,D1*%
X11550000Y269650000D03*
X11550000Y266350000D03*
X16450000Y266350000D03*
X16450000Y269650000D03*
%TD*%
%TO.C,D46*%
X11550000Y110850000D03*
X11550000Y107550000D03*
X16450000Y107550000D03*
X16450000Y110850000D03*
%TD*%
D12*
%TO.C,C27*%
X273500000Y237287500D03*
X273500000Y235212500D03*
%TD*%
D11*
%TO.C,D28*%
X11550000Y174450000D03*
X11550000Y171150000D03*
X16450000Y171150000D03*
X16450000Y174450000D03*
%TD*%
%TO.C,D42*%
X170350000Y142650000D03*
X170350000Y139350000D03*
X175250000Y139350000D03*
X175250000Y142650000D03*
%TD*%
%TO.C,D11*%
X43300000Y237900000D03*
X43300000Y234600000D03*
X48200000Y234600000D03*
X48200000Y237900000D03*
%TD*%
D10*
%TO.C,U64*%
X251162500Y253070000D03*
X251162500Y251170000D03*
X253037500Y252120000D03*
%TD*%
%TO.C,U20*%
X92462500Y126050000D03*
X92462500Y124150000D03*
X94337500Y125100000D03*
%TD*%
D12*
%TO.C,C30*%
X83000000Y205537500D03*
X83000000Y203462500D03*
%TD*%
D10*
%TO.C,U15*%
X60662500Y221350000D03*
X60662500Y219450000D03*
X62537500Y220400000D03*
%TD*%
%TO.C,U26*%
X124162500Y62550000D03*
X124162500Y60650000D03*
X126037500Y61600000D03*
%TD*%
D12*
%TO.C,C55*%
X19500000Y110237500D03*
X19500000Y108162500D03*
%TD*%
%TO.C,C71*%
X241800000Y78537500D03*
X241800000Y76462500D03*
%TD*%
D10*
%TO.C,U53*%
X219462500Y157850000D03*
X219462500Y155950000D03*
X221337500Y156900000D03*
%TD*%
D11*
%TO.C,D40*%
X106750000Y142650000D03*
X106750000Y139350000D03*
X111650000Y139350000D03*
X111650000Y142650000D03*
%TD*%
D10*
%TO.C,U61*%
X251162500Y157850000D03*
X251162500Y155950000D03*
X253037500Y156900000D03*
%TD*%
D12*
%TO.C,C36*%
X273500000Y205537500D03*
X273500000Y203462500D03*
%TD*%
%TO.C,C62*%
X241800000Y110237500D03*
X241800000Y108162500D03*
%TD*%
%TO.C,C64*%
X19500000Y78537500D03*
X19500000Y76462500D03*
%TD*%
D11*
%TO.C,D12*%
X75050000Y237900000D03*
X75050000Y234600000D03*
X79950000Y234600000D03*
X79950000Y237900000D03*
%TD*%
D12*
%TO.C,C25*%
X210000000Y237287500D03*
X210000000Y235212500D03*
%TD*%
D10*
%TO.C,U13*%
X60662500Y157850000D03*
X60662500Y155950000D03*
X62537500Y156900000D03*
%TD*%
D11*
%TO.C,D5*%
X138550000Y269650000D03*
X138550000Y266350000D03*
X143450000Y266350000D03*
X143450000Y269650000D03*
%TD*%
D10*
%TO.C,U48*%
X187662500Y253070000D03*
X187662500Y251170000D03*
X189537500Y252120000D03*
%TD*%
%TO.C,U37*%
X155962500Y157850000D03*
X155962500Y155950000D03*
X157837500Y156900000D03*
%TD*%
D12*
%TO.C,C43*%
X210000000Y173837500D03*
X210000000Y171762500D03*
%TD*%
D11*
%TO.C,D25*%
X202050000Y206150000D03*
X202050000Y202850000D03*
X206950000Y202850000D03*
X206950000Y206150000D03*
%TD*%
D12*
%TO.C,C18*%
X273500000Y269037500D03*
X273500000Y266962500D03*
%TD*%
%TO.C,C82*%
X19500000Y15037500D03*
X19500000Y12962500D03*
%TD*%
%TO.C,C59*%
X146500000Y110237500D03*
X146500000Y108162500D03*
%TD*%
%TO.C,C69*%
X178200000Y78537500D03*
X178200000Y76462500D03*
%TD*%
D10*
%TO.C,U21*%
X92462500Y157850000D03*
X92462500Y155950000D03*
X94337500Y156900000D03*
%TD*%
%TO.C,U2*%
X28942500Y62550000D03*
X28942500Y60650000D03*
X30817500Y61600000D03*
%TD*%
D12*
%TO.C,C45*%
X273500000Y173837500D03*
X273500000Y171762500D03*
%TD*%
D14*
%TO.C,H3*%
X6000000Y6000000D03*
%TD*%
D12*
%TO.C,C79*%
X210000000Y46837500D03*
X210000000Y44762500D03*
%TD*%
D10*
%TO.C,U30*%
X124162500Y189550000D03*
X124162500Y187650000D03*
X126037500Y188600000D03*
%TD*%
D11*
%TO.C,D67*%
X106750000Y47450000D03*
X106750000Y44150000D03*
X111650000Y44150000D03*
X111650000Y47450000D03*
%TD*%
%TO.C,D36*%
X265550000Y174450000D03*
X265550000Y171150000D03*
X270450000Y171150000D03*
X270450000Y174450000D03*
%TD*%
D10*
%TO.C,U58*%
X251162500Y62550000D03*
X251162500Y60650000D03*
X253037500Y61600000D03*
%TD*%
D12*
%TO.C,C48*%
X83000000Y142037500D03*
X83000000Y139962500D03*
%TD*%
D15*
%TO.C,C7*%
X11545000Y84200000D03*
X14495000Y84200000D03*
%TD*%
D10*
%TO.C,U19*%
X92462500Y94350000D03*
X92462500Y92450000D03*
X94337500Y93400000D03*
%TD*%
%TO.C,U32*%
X124162500Y253070000D03*
X124162500Y251170000D03*
X126037500Y252120000D03*
%TD*%
D11*
%TO.C,D30*%
X75050000Y174450000D03*
X75050000Y171150000D03*
X79950000Y171150000D03*
X79950000Y174450000D03*
%TD*%
D10*
%TO.C,U24*%
X92462500Y253070000D03*
X92462500Y251170000D03*
X94337500Y252120000D03*
%TD*%
D12*
%TO.C,C88*%
X210000000Y15037500D03*
X210000000Y12962500D03*
%TD*%
%TO.C,C17*%
X241800000Y269037500D03*
X241800000Y266962500D03*
%TD*%
D13*
%TO.C,FID3*%
X232000000Y6000000D03*
%TD*%
D12*
%TO.C,C65*%
X51200000Y78537500D03*
X51200000Y76462500D03*
%TD*%
%TO.C,C77*%
X146500000Y46837500D03*
X146500000Y44762500D03*
%TD*%
D10*
%TO.C,U11*%
X60662500Y94350000D03*
X60662500Y92450000D03*
X62537500Y93400000D03*
%TD*%
D12*
%TO.C,C13*%
X114800000Y269037500D03*
X114800000Y266962500D03*
%TD*%
D11*
%TO.C,D64*%
X11550000Y47450000D03*
X11550000Y44150000D03*
X16450000Y44150000D03*
X16450000Y47450000D03*
%TD*%
D10*
%TO.C,U54*%
X219462500Y189550000D03*
X219462500Y187650000D03*
X221337500Y188600000D03*
%TD*%
D11*
%TO.C,D75*%
X75050000Y15650000D03*
X75050000Y12350000D03*
X79950000Y12350000D03*
X79950000Y15650000D03*
%TD*%
D12*
%TO.C,C56*%
X51200000Y110237500D03*
X51200000Y108162500D03*
%TD*%
D11*
%TO.C,D58*%
X106750000Y79150000D03*
X106750000Y75850000D03*
X111650000Y75850000D03*
X111650000Y79150000D03*
%TD*%
D12*
%TO.C,C37*%
X19500000Y173837500D03*
X19500000Y171762500D03*
%TD*%
%TO.C,C49*%
X114800000Y142037500D03*
X114800000Y139962500D03*
%TD*%
D14*
%TO.C,H1*%
X6000000Y276000000D03*
%TD*%
D12*
%TO.C,C10*%
X19500000Y269037500D03*
X19500000Y266962500D03*
%TD*%
D11*
%TO.C,D27*%
X265550000Y206150000D03*
X265550000Y202850000D03*
X270450000Y202850000D03*
X270450000Y206150000D03*
%TD*%
D12*
%TO.C,C75*%
X83000000Y46837500D03*
X83000000Y44762500D03*
%TD*%
D10*
%TO.C,U49*%
X219462500Y30850000D03*
X219462500Y28950000D03*
X221337500Y29900000D03*
%TD*%
D15*
%TO.C,C9*%
X11545000Y20600000D03*
X14495000Y20600000D03*
%TD*%
D12*
%TO.C,C90*%
X273500000Y15037500D03*
X273500000Y12962500D03*
%TD*%
%TO.C,C78*%
X178200000Y46837500D03*
X178200000Y44762500D03*
%TD*%
D11*
%TO.C,D51*%
X170350000Y110850000D03*
X170350000Y107550000D03*
X175250000Y107550000D03*
X175250000Y110850000D03*
%TD*%
D10*
%TO.C,U63*%
X251162500Y221350000D03*
X251162500Y219450000D03*
X253037500Y220400000D03*
%TD*%
D11*
%TO.C,D79*%
X202050000Y15650000D03*
X202050000Y12350000D03*
X206950000Y12350000D03*
X206950000Y15650000D03*
%TD*%
D10*
%TO.C,U16*%
X60662500Y253070000D03*
X60662500Y251170000D03*
X62537500Y252120000D03*
%TD*%
D11*
%TO.C,D74*%
X43300000Y15650000D03*
X43300000Y12350000D03*
X48200000Y12350000D03*
X48200000Y15650000D03*
%TD*%
D10*
%TO.C,U4*%
X28942500Y126050000D03*
X28942500Y124150000D03*
X30817500Y125100000D03*
%TD*%
D12*
%TO.C,C53*%
X241800000Y142037500D03*
X241800000Y139962500D03*
%TD*%
D10*
%TO.C,U18*%
X92462500Y62550000D03*
X92462500Y60650000D03*
X94337500Y61600000D03*
%TD*%
D12*
%TO.C,C29*%
X51200000Y205537500D03*
X51200000Y203462500D03*
%TD*%
D11*
%TO.C,D3*%
X75050000Y269650000D03*
X75050000Y266350000D03*
X79950000Y266350000D03*
X79950000Y269650000D03*
%TD*%
D15*
%TO.C,C6*%
X11545000Y115900000D03*
X14495000Y115900000D03*
%TD*%
D10*
%TO.C,U38*%
X155962500Y189550000D03*
X155962500Y187650000D03*
X157837500Y188600000D03*
%TD*%
%TO.C,U36*%
X155962500Y126050000D03*
X155962500Y124150000D03*
X157837500Y125100000D03*
%TD*%
D12*
%TO.C,C68*%
X146500000Y78537500D03*
X146500000Y76462500D03*
%TD*%
%TO.C,C72*%
X273500000Y78537500D03*
X273500000Y76462500D03*
%TD*%
D10*
%TO.C,U17*%
X92462500Y30850000D03*
X92462500Y28950000D03*
X94337500Y29900000D03*
%TD*%
D11*
%TO.C,D73*%
X11550000Y15650000D03*
X11550000Y12350000D03*
X16450000Y12350000D03*
X16450000Y15650000D03*
%TD*%
%TO.C,D2*%
X43300000Y269650000D03*
X43300000Y266350000D03*
X48200000Y266350000D03*
X48200000Y269650000D03*
%TD*%
%TO.C,D4*%
X106750000Y269650000D03*
X106750000Y266350000D03*
X111650000Y266350000D03*
X111650000Y269650000D03*
%TD*%
%TO.C,D14*%
X138550000Y237900000D03*
X138550000Y234600000D03*
X143450000Y234600000D03*
X143450000Y237900000D03*
%TD*%
D12*
%TO.C,C54*%
X273500000Y142037500D03*
X273500000Y139962500D03*
%TD*%
%TO.C,C47*%
X51200000Y142037500D03*
X51200000Y139962500D03*
%TD*%
%TO.C,C32*%
X146500000Y205537500D03*
X146500000Y203462500D03*
%TD*%
D11*
%TO.C,D38*%
X43300000Y142650000D03*
X43300000Y139350000D03*
X48200000Y139350000D03*
X48200000Y142650000D03*
%TD*%
%TO.C,D18*%
X265550000Y237900000D03*
X265550000Y234600000D03*
X270450000Y234600000D03*
X270450000Y237900000D03*
%TD*%
D15*
%TO.C,C4*%
X11545000Y179400000D03*
X14495000Y179400000D03*
%TD*%
D10*
%TO.C,U3*%
X28942500Y94350000D03*
X28942500Y92450000D03*
X30817500Y93400000D03*
%TD*%
D15*
%TO.C,C1*%
X11545000Y274650000D03*
X14495000Y274650000D03*
%TD*%
D11*
%TO.C,D55*%
X11550000Y79150000D03*
X11550000Y75850000D03*
X16450000Y75850000D03*
X16450000Y79150000D03*
%TD*%
%TO.C,D29*%
X43300000Y174450000D03*
X43300000Y171150000D03*
X48200000Y171150000D03*
X48200000Y174450000D03*
%TD*%
D12*
%TO.C,C40*%
X114800000Y173837500D03*
X114800000Y171762500D03*
%TD*%
D11*
%TO.C,D62*%
X233750000Y79150000D03*
X233750000Y75850000D03*
X238650000Y75850000D03*
X238650000Y79150000D03*
%TD*%
%TO.C,D54*%
X265550000Y110850000D03*
X265550000Y107550000D03*
X270450000Y107550000D03*
X270450000Y110850000D03*
%TD*%
D10*
%TO.C,U57*%
X251162500Y30850000D03*
X251162500Y28950000D03*
X253037500Y29900000D03*
%TD*%
D12*
%TO.C,C84*%
X83000000Y15037500D03*
X83000000Y12962500D03*
%TD*%
%TO.C,C80*%
X241800000Y46837500D03*
X241800000Y44762500D03*
%TD*%
D10*
%TO.C,U62*%
X251162500Y189550000D03*
X251162500Y187650000D03*
X253037500Y188600000D03*
%TD*%
D12*
%TO.C,C86*%
X146500000Y15037500D03*
X146500000Y12962500D03*
%TD*%
%TO.C,C61*%
X210000000Y110237500D03*
X210000000Y108162500D03*
%TD*%
D11*
%TO.C,D77*%
X138550000Y15650000D03*
X138550000Y12350000D03*
X143450000Y12350000D03*
X143450000Y15650000D03*
%TD*%
D12*
%TO.C,C14*%
X146500000Y269037500D03*
X146500000Y266962500D03*
%TD*%
D11*
%TO.C,D78*%
X170350000Y15650000D03*
X170350000Y12350000D03*
X175250000Y12350000D03*
X175250000Y15650000D03*
%TD*%
%TO.C,D57*%
X75050000Y79150000D03*
X75050000Y75850000D03*
X79950000Y75850000D03*
X79950000Y79150000D03*
%TD*%
%TO.C,D53*%
X233750000Y110850000D03*
X233750000Y107550000D03*
X238650000Y107550000D03*
X238650000Y110850000D03*
%TD*%
%TO.C,D44*%
X233750000Y142650000D03*
X233750000Y139350000D03*
X238650000Y139350000D03*
X238650000Y142650000D03*
%TD*%
D10*
%TO.C,U43*%
X187662500Y94350000D03*
X187662500Y92450000D03*
X189537500Y93400000D03*
%TD*%
D12*
%TO.C,C58*%
X114800000Y110237500D03*
X114800000Y108162500D03*
%TD*%
D11*
%TO.C,D15*%
X170350000Y237900000D03*
X170350000Y234600000D03*
X175250000Y234600000D03*
X175250000Y237900000D03*
%TD*%
D12*
%TO.C,C66*%
X83000000Y78537500D03*
X83000000Y76462500D03*
%TD*%
%TO.C,C67*%
X114800000Y78537500D03*
X114800000Y76462500D03*
%TD*%
D10*
%TO.C,U29*%
X124162500Y157850000D03*
X124162500Y155950000D03*
X126037500Y156900000D03*
%TD*%
D12*
%TO.C,C19*%
X19500000Y237287500D03*
X19500000Y235212500D03*
%TD*%
D11*
%TO.C,D24*%
X170350000Y206150000D03*
X170350000Y202850000D03*
X175250000Y202850000D03*
X175250000Y206150000D03*
%TD*%
D12*
%TO.C,C26*%
X241800000Y237287500D03*
X241800000Y235212500D03*
%TD*%
%TO.C,C16*%
X210000000Y269037500D03*
X210000000Y266962500D03*
%TD*%
%TO.C,C28*%
X19500000Y205537500D03*
X19500000Y203462500D03*
%TD*%
D10*
%TO.C,U42*%
X187662500Y62550000D03*
X187662500Y60650000D03*
X189537500Y61600000D03*
%TD*%
D11*
%TO.C,D50*%
X138550000Y110850000D03*
X138550000Y107550000D03*
X143450000Y107550000D03*
X143450000Y110850000D03*
%TD*%
D10*
%TO.C,U33*%
X155962500Y30850000D03*
X155962500Y28950000D03*
X157837500Y29900000D03*
%TD*%
D11*
%TO.C,D17*%
X233750000Y237900000D03*
X233750000Y234600000D03*
X238650000Y234600000D03*
X238650000Y237900000D03*
%TD*%
D10*
%TO.C,U39*%
X155962500Y221350000D03*
X155962500Y219450000D03*
X157837500Y220400000D03*
%TD*%
D12*
%TO.C,C89*%
X241800000Y15037500D03*
X241800000Y12962500D03*
%TD*%
D11*
%TO.C,D80*%
X233750000Y15650000D03*
X233750000Y12350000D03*
X238650000Y12350000D03*
X238650000Y15650000D03*
%TD*%
%TO.C,D16*%
X202050000Y237900000D03*
X202050000Y234600000D03*
X206950000Y234600000D03*
X206950000Y237900000D03*
%TD*%
D12*
%TO.C,C39*%
X83000000Y173837500D03*
X83000000Y171762500D03*
%TD*%
%TO.C,C34*%
X210000000Y205537500D03*
X210000000Y203462500D03*
%TD*%
D10*
%TO.C,U28*%
X124162500Y126050000D03*
X124162500Y124150000D03*
X126037500Y125100000D03*
%TD*%
D12*
%TO.C,C83*%
X51200000Y15037500D03*
X51200000Y12962500D03*
%TD*%
D11*
%TO.C,D70*%
X202050000Y47450000D03*
X202050000Y44150000D03*
X206950000Y44150000D03*
X206950000Y47450000D03*
%TD*%
D12*
%TO.C,C42*%
X178200000Y173837500D03*
X178200000Y171762500D03*
%TD*%
D11*
%TO.C,D61*%
X202050000Y79150000D03*
X202050000Y75850000D03*
X206950000Y75850000D03*
X206950000Y79150000D03*
%TD*%
%TO.C,D33*%
X170350000Y174450000D03*
X170350000Y171150000D03*
X175250000Y171150000D03*
X175250000Y174450000D03*
%TD*%
D12*
%TO.C,C23*%
X146500000Y237287500D03*
X146500000Y235212500D03*
%TD*%
D11*
%TO.C,D49*%
X106750000Y110850000D03*
X106750000Y107550000D03*
X111650000Y107550000D03*
X111650000Y110850000D03*
%TD*%
D12*
%TO.C,C74*%
X51200000Y46837500D03*
X51200000Y44762500D03*
%TD*%
%TO.C,C52*%
X210000000Y142037500D03*
X210000000Y139962500D03*
%TD*%
%TO.C,C73*%
X19500000Y46837500D03*
X19500000Y44762500D03*
%TD*%
D11*
%TO.C,D81*%
X265550000Y15650000D03*
X265550000Y12350000D03*
X270450000Y12350000D03*
X270450000Y15650000D03*
%TD*%
D12*
%TO.C,C44*%
X241800000Y173837500D03*
X241800000Y171762500D03*
%TD*%
D11*
%TO.C,D34*%
X202050000Y174450000D03*
X202050000Y171150000D03*
X206950000Y171150000D03*
X206950000Y174450000D03*
%TD*%
%TO.C,D7*%
X202050000Y269650000D03*
X202050000Y266350000D03*
X206950000Y266350000D03*
X206950000Y269650000D03*
%TD*%
%TO.C,D69*%
X170350000Y47450000D03*
X170350000Y44150000D03*
X175250000Y44150000D03*
X175250000Y47450000D03*
%TD*%
%TO.C,D20*%
X43300000Y206150000D03*
X43300000Y202850000D03*
X48200000Y202850000D03*
X48200000Y206150000D03*
%TD*%
D12*
%TO.C,C38*%
X51200000Y173837500D03*
X51200000Y171762500D03*
%TD*%
D10*
%TO.C,U35*%
X155962500Y94350000D03*
X155962500Y92450000D03*
X157837500Y93400000D03*
%TD*%
D12*
%TO.C,C76*%
X114800000Y46837500D03*
X114800000Y44762500D03*
%TD*%
D10*
%TO.C,U1*%
X28942500Y30850000D03*
X28942500Y28950000D03*
X30817500Y29900000D03*
%TD*%
D11*
%TO.C,D48*%
X75050000Y110850000D03*
X75050000Y107550000D03*
X79950000Y107550000D03*
X79950000Y110850000D03*
%TD*%
D15*
%TO.C,C2*%
X11545000Y242900000D03*
X14495000Y242900000D03*
%TD*%
D10*
%TO.C,U60*%
X251162500Y126050000D03*
X251162500Y124150000D03*
X253037500Y125100000D03*
%TD*%
D12*
%TO.C,C31*%
X114800000Y205537500D03*
X114800000Y203462500D03*
%TD*%
%TO.C,C46*%
X19500000Y142037500D03*
X19500000Y139962500D03*
%TD*%
D15*
%TO.C,C8*%
X11545000Y52400000D03*
X14495000Y52400000D03*
%TD*%
D16*
%TO.C,J1*%
X125800000Y3500000D03*
D17*
X125800000Y6040000D03*
X128340000Y3500000D03*
X128340000Y6040000D03*
X130880000Y3500000D03*
X130880000Y6040000D03*
X133420000Y3500000D03*
X133420000Y6040000D03*
X135960000Y3500000D03*
X135960000Y6040000D03*
X138500000Y3500000D03*
X138500000Y6040000D03*
X141040000Y3500000D03*
X141040000Y6040000D03*
X143580000Y3500000D03*
X143580000Y6040000D03*
X146120000Y3500000D03*
X146120000Y6040000D03*
X148660000Y3500000D03*
X148660000Y6040000D03*
X151200000Y3500000D03*
X151200000Y6040000D03*
X153740000Y3500000D03*
X153740000Y6040000D03*
X156280000Y3500000D03*
X156280000Y6040000D03*
%TD*%
M02*
