%TF.GenerationSoftware,KiCad,Pcbnew,10.0.3*%
%TF.CreationDate,2026-06-07T21:11:23-04:00*%
%TF.ProjectId,openchess-board,6f70656e-6368-4657-9373-2d626f617264,rev?*%
%TF.SameCoordinates,Original*%
%TF.FileFunction,Copper,L1,Top*%
%TF.FilePolarity,Positive*%
%FSLAX46Y46*%
G04 Gerber Fmt 4.6, Leading zero omitted, Abs format (unit mm)*
G04 Created by KiCad (PCBNEW 10.0.3) date 2026-06-07 21:11:23*
%MOMM*%
%LPD*%
G01*
G04 APERTURE LIST*
G04 Aperture macros list*
%AMRoundRect*
0 Rectangle with rounded corners*
0 $1 Rounding radius*
0 $2 $3 $4 $5 $6 $7 $8 $9 X,Y pos of 4 corners*
0 Add a 4 corners polygon primitive as box body*
4,1,4,$2,$3,$4,$5,$6,$7,$8,$9,$2,$3,0*
0 Add four circle primitives for the rounded corners*
1,1,$1+$1,$2,$3*
1,1,$1+$1,$4,$5*
1,1,$1+$1,$6,$7*
1,1,$1+$1,$8,$9*
0 Add four rect primitives between the rounded corners*
20,1,$1+$1,$2,$3,$4,$5,0*
20,1,$1+$1,$4,$5,$6,$7,0*
20,1,$1+$1,$6,$7,$8,$9,0*
20,1,$1+$1,$8,$9,$2,$3,0*%
G04 Aperture macros list end*
%TA.AperFunction,ComponentPad*%
%ADD10R,1.050000X1.500000*%
%TD*%
%TA.AperFunction,ComponentPad*%
%ADD11O,1.050000X1.500000*%
%TD*%
%TA.AperFunction,SMDPad,CuDef*%
%ADD12RoundRect,0.250000X-0.337500X-0.475000X0.337500X-0.475000X0.337500X0.475000X-0.337500X0.475000X0*%
%TD*%
%TA.AperFunction,SMDPad,CuDef*%
%ADD13RoundRect,0.090000X-0.660000X-0.360000X0.660000X-0.360000X0.660000X0.360000X-0.660000X0.360000X0*%
%TD*%
%TA.AperFunction,SMDPad,CuDef*%
%ADD14RoundRect,0.250000X-0.475000X0.337500X-0.475000X-0.337500X0.475000X-0.337500X0.475000X0.337500X0*%
%TD*%
G04 APERTURE END LIST*
D10*
%TO.P,U35,1,VCC_1*%
%TO.N,/CE_PWR*%
X206000000Y-238000000D03*
D11*
%TO.P,U35,2,GND_2*%
%TO.N,GND*%
X207270000Y-238000000D03*
%TO.P,U35,3,OUT_3*%
%TO.N,/S2*%
X208540000Y-238000000D03*
%TD*%
D12*
%TO.P,C57,1*%
%TO.N,+5V_LED*%
X128462500Y-222000000D03*
%TO.P,C57,2*%
%TO.N,GND*%
X130537500Y-222000000D03*
%TD*%
D10*
%TO.P,U25,1,VCC_1*%
%TO.N,/CD_PWR*%
X174000000Y-302000000D03*
D11*
%TO.P,U25,2,GND_2*%
%TO.N,GND*%
X175270000Y-302000000D03*
%TO.P,U25,3,OUT_3*%
%TO.N,/S0*%
X176540000Y-302000000D03*
%TD*%
D13*
%TO.P,D70,1,VDD_1*%
%TO.N,+5V_LED*%
X251550000Y-284350000D03*
%TO.P,D70,2,DOUT_2*%
%TO.N,Net-(D70-DOUT)*%
X251550000Y-287650000D03*
%TO.P,D70,3,VSS_3*%
%TO.N,GND*%
X256450000Y-287650000D03*
%TO.P,D70,4,DIN_4*%
%TO.N,Net-(D69-DOUT)*%
X256450000Y-284350000D03*
%TD*%
%TO.P,D75,1,VDD_1*%
%TO.N,+5V_LED*%
X123550000Y-316350000D03*
%TO.P,D75,2,DOUT_2*%
%TO.N,Net-(D75-DOUT)*%
X123550000Y-319650000D03*
%TO.P,D75,3,VSS_3*%
%TO.N,GND*%
X128450000Y-319650000D03*
%TO.P,D75,4,DIN_4*%
%TO.N,Net-(D74-DOUT)*%
X128450000Y-316350000D03*
%TD*%
%TO.P,D64,1,VDD_1*%
%TO.N,+5V_LED*%
X59550000Y-284350000D03*
%TO.P,D64,2,DOUT_2*%
%TO.N,Net-(D64-DOUT)*%
X59550000Y-287650000D03*
%TO.P,D64,3,VSS_3*%
%TO.N,GND*%
X64450000Y-287650000D03*
%TO.P,D64,4,DIN_4*%
%TO.N,/L63*%
X64450000Y-284350000D03*
%TD*%
D12*
%TO.P,C80,1*%
%TO.N,+5V_LED*%
X288462500Y-286000000D03*
%TO.P,C80,2*%
%TO.N,GND*%
X290537500Y-286000000D03*
%TD*%
%TO.P,C55,1*%
%TO.N,+5V_LED*%
X64462500Y-222000000D03*
%TO.P,C55,2*%
%TO.N,GND*%
X66537500Y-222000000D03*
%TD*%
%TO.P,C34,1*%
%TO.N,+5V_LED*%
X256462500Y-126000000D03*
%TO.P,C34,2*%
%TO.N,GND*%
X258537500Y-126000000D03*
%TD*%
D13*
%TO.P,D56,1,VDD_1*%
%TO.N,+5V_LED*%
X91550000Y-252350000D03*
%TO.P,D56,2,DOUT_2*%
%TO.N,Net-(D56-DOUT)*%
X91550000Y-255650000D03*
%TO.P,D56,3,VSS_3*%
%TO.N,GND*%
X96450000Y-255650000D03*
%TO.P,D56,4,DIN_4*%
%TO.N,Net-(D55-DOUT)*%
X96450000Y-252350000D03*
%TD*%
%TO.P,D81,1,VDD_1*%
%TO.N,+5V_LED*%
X315550000Y-316350000D03*
%TO.P,D81,2,DOUT_2*%
%TO.N,/LED_DOUT_END*%
X315550000Y-319650000D03*
%TO.P,D81,3,VSS_3*%
%TO.N,GND*%
X320450000Y-319650000D03*
%TO.P,D81,4,DIN_4*%
%TO.N,Net-(D80-DOUT)*%
X320450000Y-316350000D03*
%TD*%
%TO.P,D20,1,VDD_1*%
%TO.N,+5V_LED*%
X91550000Y-124350000D03*
%TO.P,D20,2,DOUT_2*%
%TO.N,Net-(D20-DOUT)*%
X91550000Y-127650000D03*
%TO.P,D20,3,VSS_3*%
%TO.N,GND*%
X96450000Y-127650000D03*
%TO.P,D20,4,DIN_4*%
%TO.N,Net-(D19-DOUT)*%
X96450000Y-124350000D03*
%TD*%
%TO.P,D5,1,VDD_1*%
%TO.N,+5V_LED*%
X187550000Y-60350000D03*
%TO.P,D5,2,DOUT_2*%
%TO.N,Net-(D5-DOUT)*%
X187550000Y-63650000D03*
%TO.P,D5,3,VSS_3*%
%TO.N,GND*%
X192450000Y-63650000D03*
%TO.P,D5,4,DIN_4*%
%TO.N,Net-(D4-DOUT)*%
X192450000Y-60350000D03*
%TD*%
%TO.P,D66,1,VDD_1*%
%TO.N,+5V_LED*%
X123550000Y-284350000D03*
%TO.P,D66,2,DOUT_2*%
%TO.N,Net-(D66-DOUT)*%
X123550000Y-287650000D03*
%TO.P,D66,3,VSS_3*%
%TO.N,GND*%
X128450000Y-287650000D03*
%TO.P,D66,4,DIN_4*%
%TO.N,Net-(D65-DOUT)*%
X128450000Y-284350000D03*
%TD*%
D12*
%TO.P,C14,1*%
%TO.N,+5V_LED*%
X192462500Y-62000000D03*
%TO.P,C14,2*%
%TO.N,GND*%
X194537500Y-62000000D03*
%TD*%
D13*
%TO.P,D39,1,VDD_1*%
%TO.N,+5V_LED*%
X123550000Y-188350000D03*
%TO.P,D39,2,DOUT_2*%
%TO.N,Net-(D39-DOUT)*%
X123550000Y-191650000D03*
%TO.P,D39,3,VSS_3*%
%TO.N,GND*%
X128450000Y-191650000D03*
%TO.P,D39,4,DIN_4*%
%TO.N,Net-(D38-DOUT)*%
X128450000Y-188350000D03*
%TD*%
D10*
%TO.P,U44,1,VCC_1*%
%TO.N,/CF_PWR*%
X238000000Y-206000000D03*
D11*
%TO.P,U44,2,GND_2*%
%TO.N,GND*%
X239270000Y-206000000D03*
%TO.P,U44,3,OUT_3*%
%TO.N,/S3*%
X240540000Y-206000000D03*
%TD*%
D12*
%TO.P,C84,1*%
%TO.N,+5V_LED*%
X128462500Y-318000000D03*
%TO.P,C84,2*%
%TO.N,GND*%
X130537500Y-318000000D03*
%TD*%
D10*
%TO.P,U12,1,VCC_1*%
%TO.N,/CB_PWR*%
X110000000Y-206000000D03*
D11*
%TO.P,U12,2,GND_2*%
%TO.N,GND*%
X111270000Y-206000000D03*
%TO.P,U12,3,OUT_3*%
%TO.N,/S3*%
X112540000Y-206000000D03*
%TD*%
D10*
%TO.P,U63,1,VCC_1*%
%TO.N,/CH_PWR*%
X302000000Y-110000000D03*
D11*
%TO.P,U63,2,GND_2*%
%TO.N,GND*%
X303270000Y-110000000D03*
%TO.P,U63,3,OUT_3*%
%TO.N,/S6*%
X304540000Y-110000000D03*
%TD*%
D12*
%TO.P,C58,1*%
%TO.N,+5V_LED*%
X160462500Y-222000000D03*
%TO.P,C58,2*%
%TO.N,GND*%
X162537500Y-222000000D03*
%TD*%
%TO.P,C10,1*%
%TO.N,+5V_LED*%
X64462500Y-62000000D03*
%TO.P,C10,2*%
%TO.N,GND*%
X66537500Y-62000000D03*
%TD*%
D13*
%TO.P,D29,1,VDD_1*%
%TO.N,+5V_LED*%
X91550000Y-156350000D03*
%TO.P,D29,2,DOUT_2*%
%TO.N,Net-(D29-DOUT)*%
X91550000Y-159650000D03*
%TO.P,D29,3,VSS_3*%
%TO.N,GND*%
X96450000Y-159650000D03*
%TO.P,D29,4,DIN_4*%
%TO.N,Net-(D28-DOUT)*%
X96450000Y-156350000D03*
%TD*%
D10*
%TO.P,U31,1,VCC_1*%
%TO.N,/CD_PWR*%
X174000000Y-110000000D03*
D11*
%TO.P,U31,2,GND_2*%
%TO.N,GND*%
X175270000Y-110000000D03*
%TO.P,U31,3,OUT_3*%
%TO.N,/S6*%
X176540000Y-110000000D03*
%TD*%
D10*
%TO.P,U57,1,VCC_1*%
%TO.N,/CH_PWR*%
X302000000Y-302000000D03*
D11*
%TO.P,U57,2,GND_2*%
%TO.N,GND*%
X303270000Y-302000000D03*
%TO.P,U57,3,OUT_3*%
%TO.N,/S0*%
X304540000Y-302000000D03*
%TD*%
D10*
%TO.P,U54,1,VCC_1*%
%TO.N,/CG_PWR*%
X270000000Y-142000000D03*
D11*
%TO.P,U54,2,GND_2*%
%TO.N,GND*%
X271270000Y-142000000D03*
%TO.P,U54,3,OUT_3*%
%TO.N,/S5*%
X272540000Y-142000000D03*
%TD*%
D13*
%TO.P,D52,1,VDD_1*%
%TO.N,+5V_LED*%
X251550000Y-220350000D03*
%TO.P,D52,2,DOUT_2*%
%TO.N,Net-(D52-DOUT)*%
X251550000Y-223650000D03*
%TO.P,D52,3,VSS_3*%
%TO.N,GND*%
X256450000Y-223650000D03*
%TO.P,D52,4,DIN_4*%
%TO.N,Net-(D51-DOUT)*%
X256450000Y-220350000D03*
%TD*%
D12*
%TO.P,C43,1*%
%TO.N,+5V_LED*%
X256462500Y-158000000D03*
%TO.P,C43,2*%
%TO.N,GND*%
X258537500Y-158000000D03*
%TD*%
D13*
%TO.P,D53,1,VDD_1*%
%TO.N,+5V_LED*%
X283550000Y-220350000D03*
%TO.P,D53,2,DOUT_2*%
%TO.N,Net-(D53-DOUT)*%
X283550000Y-223650000D03*
%TO.P,D53,3,VSS_3*%
%TO.N,GND*%
X288450000Y-223650000D03*
%TO.P,D53,4,DIN_4*%
%TO.N,Net-(D52-DOUT)*%
X288450000Y-220350000D03*
%TD*%
D12*
%TO.P,C70,1*%
%TO.N,+5V_LED*%
X256462500Y-254000000D03*
%TO.P,C70,2*%
%TO.N,GND*%
X258537500Y-254000000D03*
%TD*%
%TO.P,C76,1*%
%TO.N,+5V_LED*%
X160462500Y-286000000D03*
%TO.P,C76,2*%
%TO.N,GND*%
X162537500Y-286000000D03*
%TD*%
D10*
%TO.P,U42,1,VCC_1*%
%TO.N,/CF_PWR*%
X238000000Y-270000000D03*
D11*
%TO.P,U42,2,GND_2*%
%TO.N,GND*%
X239270000Y-270000000D03*
%TO.P,U42,3,OUT_3*%
%TO.N,/S1*%
X240540000Y-270000000D03*
%TD*%
D10*
%TO.P,U28,1,VCC_1*%
%TO.N,/CD_PWR*%
X174000000Y-206000000D03*
D11*
%TO.P,U28,2,GND_2*%
%TO.N,GND*%
X175270000Y-206000000D03*
%TO.P,U28,3,OUT_3*%
%TO.N,/S3*%
X176540000Y-206000000D03*
%TD*%
D12*
%TO.P,C86,1*%
%TO.N,+5V_LED*%
X192462500Y-318000000D03*
%TO.P,C86,2*%
%TO.N,GND*%
X194537500Y-318000000D03*
%TD*%
D10*
%TO.P,U15,1,VCC_1*%
%TO.N,/CB_PWR*%
X110000000Y-110000000D03*
D11*
%TO.P,U15,2,GND_2*%
%TO.N,GND*%
X111270000Y-110000000D03*
%TO.P,U15,3,OUT_3*%
%TO.N,/S6*%
X112540000Y-110000000D03*
%TD*%
D13*
%TO.P,D69,1,VDD_1*%
%TO.N,+5V_LED*%
X219550000Y-284350000D03*
%TO.P,D69,2,DOUT_2*%
%TO.N,Net-(D69-DOUT)*%
X219550000Y-287650000D03*
%TO.P,D69,3,VSS_3*%
%TO.N,GND*%
X224450000Y-287650000D03*
%TO.P,D69,4,DIN_4*%
%TO.N,Net-(D68-DOUT)*%
X224450000Y-284350000D03*
%TD*%
D10*
%TO.P,U40,1,VCC_1*%
%TO.N,/CE_PWR*%
X206000000Y-78000000D03*
D11*
%TO.P,U40,2,GND_2*%
%TO.N,GND*%
X207270000Y-78000000D03*
%TO.P,U40,3,OUT_3*%
%TO.N,/S7*%
X208540000Y-78000000D03*
%TD*%
D10*
%TO.P,U14,1,VCC_1*%
%TO.N,/CB_PWR*%
X110000000Y-142000000D03*
D11*
%TO.P,U14,2,GND_2*%
%TO.N,GND*%
X111270000Y-142000000D03*
%TO.P,U14,3,OUT_3*%
%TO.N,/S5*%
X112540000Y-142000000D03*
%TD*%
D10*
%TO.P,U43,1,VCC_1*%
%TO.N,/CF_PWR*%
X238000000Y-238000000D03*
D11*
%TO.P,U43,2,GND_2*%
%TO.N,GND*%
X239270000Y-238000000D03*
%TO.P,U43,3,OUT_3*%
%TO.N,/S2*%
X240540000Y-238000000D03*
%TD*%
D13*
%TO.P,D62,1,VDD_1*%
%TO.N,+5V_LED*%
X283550000Y-252350000D03*
%TO.P,D62,2,DOUT_2*%
%TO.N,Net-(D62-DOUT)*%
X283550000Y-255650000D03*
%TO.P,D62,3,VSS_3*%
%TO.N,GND*%
X288450000Y-255650000D03*
%TO.P,D62,4,DIN_4*%
%TO.N,Net-(D61-DOUT)*%
X288450000Y-252350000D03*
%TD*%
D12*
%TO.P,C83,1*%
%TO.N,+5V_LED*%
X96462500Y-318000000D03*
%TO.P,C83,2*%
%TO.N,GND*%
X98537500Y-318000000D03*
%TD*%
D13*
%TO.P,D35,1,VDD_1*%
%TO.N,+5V_LED*%
X283550000Y-156350000D03*
%TO.P,D35,2,DOUT_2*%
%TO.N,Net-(D35-DOUT)*%
X283550000Y-159650000D03*
%TO.P,D35,3,VSS_3*%
%TO.N,GND*%
X288450000Y-159650000D03*
%TO.P,D35,4,DIN_4*%
%TO.N,Net-(D34-DOUT)*%
X288450000Y-156350000D03*
%TD*%
%TO.P,D46,1,VDD_1*%
%TO.N,+5V_LED*%
X59550000Y-220350000D03*
%TO.P,D46,2,DOUT_2*%
%TO.N,Net-(D46-DOUT)*%
X59550000Y-223650000D03*
%TO.P,D46,3,VSS_3*%
%TO.N,GND*%
X64450000Y-223650000D03*
%TO.P,D46,4,DIN_4*%
%TO.N,/L45*%
X64450000Y-220350000D03*
%TD*%
D12*
%TO.P,C44,1*%
%TO.N,+5V_LED*%
X288462500Y-158000000D03*
%TO.P,C44,2*%
%TO.N,GND*%
X290537500Y-158000000D03*
%TD*%
%TO.P,C24,1*%
%TO.N,+5V_LED*%
X224462500Y-94000000D03*
%TO.P,C24,2*%
%TO.N,GND*%
X226537500Y-94000000D03*
%TD*%
D10*
%TO.P,U32,1,VCC_1*%
%TO.N,/CD_PWR*%
X174000000Y-78000000D03*
D11*
%TO.P,U32,2,GND_2*%
%TO.N,GND*%
X175270000Y-78000000D03*
%TO.P,U32,3,OUT_3*%
%TO.N,/S7*%
X176540000Y-78000000D03*
%TD*%
D10*
%TO.P,U58,1,VCC_1*%
%TO.N,/CH_PWR*%
X302000000Y-270000000D03*
D11*
%TO.P,U58,2,GND_2*%
%TO.N,GND*%
X303270000Y-270000000D03*
%TO.P,U58,3,OUT_3*%
%TO.N,/S1*%
X304540000Y-270000000D03*
%TD*%
D13*
%TO.P,D6,1,VDD_1*%
%TO.N,+5V_LED*%
X219550000Y-60350000D03*
%TO.P,D6,2,DOUT_2*%
%TO.N,Net-(D6-DOUT)*%
X219550000Y-63650000D03*
%TO.P,D6,3,VSS_3*%
%TO.N,GND*%
X224450000Y-63650000D03*
%TO.P,D6,4,DIN_4*%
%TO.N,Net-(D5-DOUT)*%
X224450000Y-60350000D03*
%TD*%
D12*
%TO.P,C59,1*%
%TO.N,+5V_LED*%
X192462500Y-222000000D03*
%TO.P,C59,2*%
%TO.N,GND*%
X194537500Y-222000000D03*
%TD*%
%TO.P,C25,1*%
%TO.N,+5V_LED*%
X256462500Y-94000000D03*
%TO.P,C25,2*%
%TO.N,GND*%
X258537500Y-94000000D03*
%TD*%
D13*
%TO.P,D18,1,VDD_1*%
%TO.N,+5V_LED*%
X315550000Y-92350000D03*
%TO.P,D18,2,DOUT_2*%
%TO.N,/L18*%
X315550000Y-95650000D03*
%TO.P,D18,3,VSS_3*%
%TO.N,GND*%
X320450000Y-95650000D03*
%TO.P,D18,4,DIN_4*%
%TO.N,Net-(D17-DOUT)*%
X320450000Y-92350000D03*
%TD*%
%TO.P,D47,1,VDD_1*%
%TO.N,+5V_LED*%
X91550000Y-220350000D03*
%TO.P,D47,2,DOUT_2*%
%TO.N,Net-(D47-DOUT)*%
X91550000Y-223650000D03*
%TO.P,D47,3,VSS_3*%
%TO.N,GND*%
X96450000Y-223650000D03*
%TO.P,D47,4,DIN_4*%
%TO.N,Net-(D46-DOUT)*%
X96450000Y-220350000D03*
%TD*%
D10*
%TO.P,U5,1,VCC_1*%
%TO.N,/CA_PWR*%
X78000000Y-174000000D03*
D11*
%TO.P,U5,2,GND_2*%
%TO.N,GND*%
X79270000Y-174000000D03*
%TO.P,U5,3,OUT_3*%
%TO.N,/S4*%
X80540000Y-174000000D03*
%TD*%
D13*
%TO.P,D50,1,VDD_1*%
%TO.N,+5V_LED*%
X187550000Y-220350000D03*
%TO.P,D50,2,DOUT_2*%
%TO.N,Net-(D50-DOUT)*%
X187550000Y-223650000D03*
%TO.P,D50,3,VSS_3*%
%TO.N,GND*%
X192450000Y-223650000D03*
%TO.P,D50,4,DIN_4*%
%TO.N,Net-(D49-DOUT)*%
X192450000Y-220350000D03*
%TD*%
%TO.P,D37,1,VDD_1*%
%TO.N,+5V_LED*%
X59550000Y-188350000D03*
%TO.P,D37,2,DOUT_2*%
%TO.N,Net-(D37-DOUT)*%
X59550000Y-191650000D03*
%TO.P,D37,3,VSS_3*%
%TO.N,GND*%
X64450000Y-191650000D03*
%TO.P,D37,4,DIN_4*%
%TO.N,/L36*%
X64450000Y-188350000D03*
%TD*%
D12*
%TO.P,C61,1*%
%TO.N,+5V_LED*%
X256462500Y-222000000D03*
%TO.P,C61,2*%
%TO.N,GND*%
X258537500Y-222000000D03*
%TD*%
%TO.P,C47,1*%
%TO.N,+5V_LED*%
X96462500Y-190000000D03*
%TO.P,C47,2*%
%TO.N,GND*%
X98537500Y-190000000D03*
%TD*%
%TO.P,C52,1*%
%TO.N,+5V_LED*%
X256462500Y-190000000D03*
%TO.P,C52,2*%
%TO.N,GND*%
X258537500Y-190000000D03*
%TD*%
%TO.P,C48,1*%
%TO.N,+5V_LED*%
X128462500Y-190000000D03*
%TO.P,C48,2*%
%TO.N,GND*%
X130537500Y-190000000D03*
%TD*%
D13*
%TO.P,D14,1,VDD_1*%
%TO.N,+5V_LED*%
X187550000Y-92350000D03*
%TO.P,D14,2,DOUT_2*%
%TO.N,Net-(D14-DOUT)*%
X187550000Y-95650000D03*
%TO.P,D14,3,VSS_3*%
%TO.N,GND*%
X192450000Y-95650000D03*
%TO.P,D14,4,DIN_4*%
%TO.N,Net-(D13-DOUT)*%
X192450000Y-92350000D03*
%TD*%
%TO.P,D21,1,VDD_1*%
%TO.N,+5V_LED*%
X123550000Y-124350000D03*
%TO.P,D21,2,DOUT_2*%
%TO.N,Net-(D21-DOUT)*%
X123550000Y-127650000D03*
%TO.P,D21,3,VSS_3*%
%TO.N,GND*%
X128450000Y-127650000D03*
%TO.P,D21,4,DIN_4*%
%TO.N,Net-(D20-DOUT)*%
X128450000Y-124350000D03*
%TD*%
%TO.P,D61,1,VDD_1*%
%TO.N,+5V_LED*%
X251550000Y-252350000D03*
%TO.P,D61,2,DOUT_2*%
%TO.N,Net-(D61-DOUT)*%
X251550000Y-255650000D03*
%TO.P,D61,3,VSS_3*%
%TO.N,GND*%
X256450000Y-255650000D03*
%TO.P,D61,4,DIN_4*%
%TO.N,Net-(D60-DOUT)*%
X256450000Y-252350000D03*
%TD*%
D10*
%TO.P,U30,1,VCC_1*%
%TO.N,/CD_PWR*%
X174000000Y-142000000D03*
D11*
%TO.P,U30,2,GND_2*%
%TO.N,GND*%
X175270000Y-142000000D03*
%TO.P,U30,3,OUT_3*%
%TO.N,/S5*%
X176540000Y-142000000D03*
%TD*%
D13*
%TO.P,D36,1,VDD_1*%
%TO.N,+5V_LED*%
X315550000Y-156350000D03*
%TO.P,D36,2,DOUT_2*%
%TO.N,/L36*%
X315550000Y-159650000D03*
%TO.P,D36,3,VSS_3*%
%TO.N,GND*%
X320450000Y-159650000D03*
%TO.P,D36,4,DIN_4*%
%TO.N,Net-(D35-DOUT)*%
X320450000Y-156350000D03*
%TD*%
D12*
%TO.P,C15,1*%
%TO.N,+5V_LED*%
X224462500Y-62000000D03*
%TO.P,C15,2*%
%TO.N,GND*%
X226537500Y-62000000D03*
%TD*%
D13*
%TO.P,D23,1,VDD_1*%
%TO.N,+5V_LED*%
X187550000Y-124350000D03*
%TO.P,D23,2,DOUT_2*%
%TO.N,Net-(D23-DOUT)*%
X187550000Y-127650000D03*
%TO.P,D23,3,VSS_3*%
%TO.N,GND*%
X192450000Y-127650000D03*
%TO.P,D23,4,DIN_4*%
%TO.N,Net-(D22-DOUT)*%
X192450000Y-124350000D03*
%TD*%
D10*
%TO.P,U37,1,VCC_1*%
%TO.N,/CE_PWR*%
X206000000Y-174000000D03*
D11*
%TO.P,U37,2,GND_2*%
%TO.N,GND*%
X207270000Y-174000000D03*
%TO.P,U37,3,OUT_3*%
%TO.N,/S4*%
X208540000Y-174000000D03*
%TD*%
D13*
%TO.P,D1,1,VDD_1*%
%TO.N,+5V_LED*%
X59550000Y-60350000D03*
%TO.P,D1,2,DOUT_2*%
%TO.N,Net-(D1-DOUT)*%
X59550000Y-63650000D03*
%TO.P,D1,3,VSS_3*%
%TO.N,GND*%
X64450000Y-63650000D03*
%TO.P,D1,4,DIN_4*%
%TO.N,/LED_DATA_5V*%
X64450000Y-60350000D03*
%TD*%
D10*
%TO.P,U8,1,VCC_1*%
%TO.N,/CA_PWR*%
X78000000Y-78000000D03*
D11*
%TO.P,U8,2,GND_2*%
%TO.N,GND*%
X79270000Y-78000000D03*
%TO.P,U8,3,OUT_3*%
%TO.N,/S7*%
X80540000Y-78000000D03*
%TD*%
D10*
%TO.P,U11,1,VCC_1*%
%TO.N,/CB_PWR*%
X110000000Y-238000000D03*
D11*
%TO.P,U11,2,GND_2*%
%TO.N,GND*%
X111270000Y-238000000D03*
%TO.P,U11,3,OUT_3*%
%TO.N,/S2*%
X112540000Y-238000000D03*
%TD*%
D13*
%TO.P,D72,1,VDD_1*%
%TO.N,+5V_LED*%
X315550000Y-284350000D03*
%TO.P,D72,2,DOUT_2*%
%TO.N,/L72*%
X315550000Y-287650000D03*
%TO.P,D72,3,VSS_3*%
%TO.N,GND*%
X320450000Y-287650000D03*
%TO.P,D72,4,DIN_4*%
%TO.N,Net-(D71-DOUT)*%
X320450000Y-284350000D03*
%TD*%
D12*
%TO.P,C63,1*%
%TO.N,+5V_LED*%
X320462500Y-222000000D03*
%TO.P,C63,2*%
%TO.N,GND*%
X322537500Y-222000000D03*
%TD*%
D13*
%TO.P,D49,1,VDD_1*%
%TO.N,+5V_LED*%
X155550000Y-220350000D03*
%TO.P,D49,2,DOUT_2*%
%TO.N,Net-(D49-DOUT)*%
X155550000Y-223650000D03*
%TO.P,D49,3,VSS_3*%
%TO.N,GND*%
X160450000Y-223650000D03*
%TO.P,D49,4,DIN_4*%
%TO.N,Net-(D48-DOUT)*%
X160450000Y-220350000D03*
%TD*%
%TO.P,D41,1,VDD_1*%
%TO.N,+5V_LED*%
X187550000Y-188350000D03*
%TO.P,D41,2,DOUT_2*%
%TO.N,Net-(D41-DOUT)*%
X187550000Y-191650000D03*
%TO.P,D41,3,VSS_3*%
%TO.N,GND*%
X192450000Y-191650000D03*
%TO.P,D41,4,DIN_4*%
%TO.N,Net-(D40-DOUT)*%
X192450000Y-188350000D03*
%TD*%
D12*
%TO.P,C32,1*%
%TO.N,+5V_LED*%
X192462500Y-126000000D03*
%TO.P,C32,2*%
%TO.N,GND*%
X194537500Y-126000000D03*
%TD*%
%TO.P,C79,1*%
%TO.N,+5V_LED*%
X256462500Y-286000000D03*
%TO.P,C79,2*%
%TO.N,GND*%
X258537500Y-286000000D03*
%TD*%
%TO.P,C50,1*%
%TO.N,+5V_LED*%
X192462500Y-190000000D03*
%TO.P,C50,2*%
%TO.N,GND*%
X194537500Y-190000000D03*
%TD*%
D10*
%TO.P,U4,1,VCC_1*%
%TO.N,/CA_PWR*%
X78000000Y-206000000D03*
D11*
%TO.P,U4,2,GND_2*%
%TO.N,GND*%
X79270000Y-206000000D03*
%TO.P,U4,3,OUT_3*%
%TO.N,/S3*%
X80540000Y-206000000D03*
%TD*%
D13*
%TO.P,D25,1,VDD_1*%
%TO.N,+5V_LED*%
X251550000Y-124350000D03*
%TO.P,D25,2,DOUT_2*%
%TO.N,Net-(D25-DOUT)*%
X251550000Y-127650000D03*
%TO.P,D25,3,VSS_3*%
%TO.N,GND*%
X256450000Y-127650000D03*
%TO.P,D25,4,DIN_4*%
%TO.N,Net-(D24-DOUT)*%
X256450000Y-124350000D03*
%TD*%
D12*
%TO.P,C18,1*%
%TO.N,+5V_LED*%
X320462500Y-62000000D03*
%TO.P,C18,2*%
%TO.N,GND*%
X322537500Y-62000000D03*
%TD*%
%TO.P,C26,1*%
%TO.N,+5V_LED*%
X288462500Y-94000000D03*
%TO.P,C26,2*%
%TO.N,GND*%
X290537500Y-94000000D03*
%TD*%
D14*
%TO.P,C21,1*%
%TO.N,+5V_LED*%
X133150000Y-92962500D03*
%TO.P,C21,2*%
%TO.N,GND*%
X133150000Y-95037500D03*
%TD*%
D13*
%TO.P,D55,1,VDD_1*%
%TO.N,+5V_LED*%
X59550000Y-252350000D03*
%TO.P,D55,2,DOUT_2*%
%TO.N,Net-(D55-DOUT)*%
X59550000Y-255650000D03*
%TO.P,D55,3,VSS_3*%
%TO.N,GND*%
X64450000Y-255650000D03*
%TO.P,D55,4,DIN_4*%
%TO.N,/L54*%
X64450000Y-252350000D03*
%TD*%
D10*
%TO.P,U46,1,VCC_1*%
%TO.N,/CF_PWR*%
X238000000Y-142000000D03*
D11*
%TO.P,U46,2,GND_2*%
%TO.N,GND*%
X239270000Y-142000000D03*
%TO.P,U46,3,OUT_3*%
%TO.N,/S5*%
X240540000Y-142000000D03*
%TD*%
D12*
%TO.P,C16,1*%
%TO.N,+5V_LED*%
X256462500Y-62000000D03*
%TO.P,C16,2*%
%TO.N,GND*%
X258537500Y-62000000D03*
%TD*%
D10*
%TO.P,U1,1,VCC_1*%
%TO.N,/CA_PWR*%
X78000000Y-302000000D03*
D11*
%TO.P,U1,2,GND_2*%
%TO.N,GND*%
X79270000Y-302000000D03*
%TO.P,U1,3,OUT_3*%
%TO.N,/S0*%
X80540000Y-302000000D03*
%TD*%
D12*
%TO.P,C73,1*%
%TO.N,+5V_LED*%
X64462500Y-286000000D03*
%TO.P,C73,2*%
%TO.N,GND*%
X66537500Y-286000000D03*
%TD*%
D13*
%TO.P,D54,1,VDD_1*%
%TO.N,+5V_LED*%
X315550000Y-220350000D03*
%TO.P,D54,2,DOUT_2*%
%TO.N,/L54*%
X315550000Y-223650000D03*
%TO.P,D54,3,VSS_3*%
%TO.N,GND*%
X320450000Y-223650000D03*
%TO.P,D54,4,DIN_4*%
%TO.N,Net-(D53-DOUT)*%
X320450000Y-220350000D03*
%TD*%
%TO.P,D4,1,VDD_1*%
%TO.N,+5V_LED*%
X155550000Y-60350000D03*
%TO.P,D4,2,DOUT_2*%
%TO.N,Net-(D4-DOUT)*%
X155550000Y-63650000D03*
%TO.P,D4,3,VSS_3*%
%TO.N,GND*%
X160450000Y-63650000D03*
%TO.P,D4,4,DIN_4*%
%TO.N,Net-(D3-DOUT)*%
X160450000Y-60350000D03*
%TD*%
%TO.P,D2,1,VDD_1*%
%TO.N,+5V_LED*%
X91550000Y-60350000D03*
%TO.P,D2,2,DOUT_2*%
%TO.N,Net-(D2-DOUT)*%
X91550000Y-63650000D03*
%TO.P,D2,3,VSS_3*%
%TO.N,GND*%
X96450000Y-63650000D03*
%TO.P,D2,4,DIN_4*%
%TO.N,Net-(D1-DOUT)*%
X96450000Y-60350000D03*
%TD*%
D10*
%TO.P,U23,1,VCC_1*%
%TO.N,/CC_PWR*%
X142000000Y-110000000D03*
D11*
%TO.P,U23,2,GND_2*%
%TO.N,GND*%
X143270000Y-110000000D03*
%TO.P,U23,3,OUT_3*%
%TO.N,/S6*%
X144540000Y-110000000D03*
%TD*%
D12*
%TO.P,C60,1*%
%TO.N,+5V_LED*%
X224462500Y-222000000D03*
%TO.P,C60,2*%
%TO.N,GND*%
X226537500Y-222000000D03*
%TD*%
D10*
%TO.P,U59,1,VCC_1*%
%TO.N,/CH_PWR*%
X302000000Y-238000000D03*
D11*
%TO.P,U59,2,GND_2*%
%TO.N,GND*%
X303270000Y-238000000D03*
%TO.P,U59,3,OUT_3*%
%TO.N,/S2*%
X304540000Y-238000000D03*
%TD*%
D10*
%TO.P,U53,1,VCC_1*%
%TO.N,/CG_PWR*%
X270000000Y-174000000D03*
D11*
%TO.P,U53,2,GND_2*%
%TO.N,GND*%
X271270000Y-174000000D03*
%TO.P,U53,3,OUT_3*%
%TO.N,/S4*%
X272540000Y-174000000D03*
%TD*%
D13*
%TO.P,D27,1,VDD_1*%
%TO.N,+5V_LED*%
X315550000Y-124350000D03*
%TO.P,D27,2,DOUT_2*%
%TO.N,/L27*%
X315550000Y-127650000D03*
%TO.P,D27,3,VSS_3*%
%TO.N,GND*%
X320450000Y-127650000D03*
%TO.P,D27,4,DIN_4*%
%TO.N,Net-(D26-DOUT)*%
X320450000Y-124350000D03*
%TD*%
%TO.P,D31,1,VDD_1*%
%TO.N,+5V_LED*%
X155550000Y-156350000D03*
%TO.P,D31,2,DOUT_2*%
%TO.N,Net-(D31-DOUT)*%
X155550000Y-159650000D03*
%TO.P,D31,3,VSS_3*%
%TO.N,GND*%
X160450000Y-159650000D03*
%TO.P,D31,4,DIN_4*%
%TO.N,Net-(D30-DOUT)*%
X160450000Y-156350000D03*
%TD*%
D10*
%TO.P,U38,1,VCC_1*%
%TO.N,/CE_PWR*%
X206000000Y-142000000D03*
D11*
%TO.P,U38,2,GND_2*%
%TO.N,GND*%
X207270000Y-142000000D03*
%TO.P,U38,3,OUT_3*%
%TO.N,/S5*%
X208540000Y-142000000D03*
%TD*%
D13*
%TO.P,D80,1,VDD_1*%
%TO.N,+5V_LED*%
X283550000Y-316350000D03*
%TO.P,D80,2,DOUT_2*%
%TO.N,Net-(D80-DOUT)*%
X283550000Y-319650000D03*
%TO.P,D80,3,VSS_3*%
%TO.N,GND*%
X288450000Y-319650000D03*
%TO.P,D80,4,DIN_4*%
%TO.N,Net-(D79-DOUT)*%
X288450000Y-316350000D03*
%TD*%
%TO.P,D8,1,VDD_1*%
%TO.N,+5V_LED*%
X283550000Y-60350000D03*
%TO.P,D8,2,DOUT_2*%
%TO.N,Net-(D8-DOUT)*%
X283550000Y-63650000D03*
%TO.P,D8,3,VSS_3*%
%TO.N,GND*%
X288450000Y-63650000D03*
%TO.P,D8,4,DIN_4*%
%TO.N,Net-(D7-DOUT)*%
X288450000Y-60350000D03*
%TD*%
%TO.P,D24,1,VDD_1*%
%TO.N,+5V_LED*%
X219550000Y-124350000D03*
%TO.P,D24,2,DOUT_2*%
%TO.N,Net-(D24-DOUT)*%
X219550000Y-127650000D03*
%TO.P,D24,3,VSS_3*%
%TO.N,GND*%
X224450000Y-127650000D03*
%TO.P,D24,4,DIN_4*%
%TO.N,Net-(D23-DOUT)*%
X224450000Y-124350000D03*
%TD*%
%TO.P,D65,1,VDD_1*%
%TO.N,+5V_LED*%
X91550000Y-284350000D03*
%TO.P,D65,2,DOUT_2*%
%TO.N,Net-(D65-DOUT)*%
X91550000Y-287650000D03*
%TO.P,D65,3,VSS_3*%
%TO.N,GND*%
X96450000Y-287650000D03*
%TO.P,D65,4,DIN_4*%
%TO.N,Net-(D64-DOUT)*%
X96450000Y-284350000D03*
%TD*%
%TO.P,D79,1,VDD_1*%
%TO.N,+5V_LED*%
X251550000Y-316350000D03*
%TO.P,D79,2,DOUT_2*%
%TO.N,Net-(D79-DOUT)*%
X251550000Y-319650000D03*
%TO.P,D79,3,VSS_3*%
%TO.N,GND*%
X256450000Y-319650000D03*
%TO.P,D79,4,DIN_4*%
%TO.N,Net-(D78-DOUT)*%
X256450000Y-316350000D03*
%TD*%
D12*
%TO.P,C89,1*%
%TO.N,+5V_LED*%
X288462500Y-318000000D03*
%TO.P,C89,2*%
%TO.N,GND*%
X290537500Y-318000000D03*
%TD*%
D10*
%TO.P,U51,1,VCC_1*%
%TO.N,/CG_PWR*%
X270000000Y-238000000D03*
D11*
%TO.P,U51,2,GND_2*%
%TO.N,GND*%
X271270000Y-238000000D03*
%TO.P,U51,3,OUT_3*%
%TO.N,/S2*%
X272540000Y-238000000D03*
%TD*%
D13*
%TO.P,D11,1,VDD_1*%
%TO.N,+5V_LED*%
X91550000Y-92350000D03*
%TO.P,D11,2,DOUT_2*%
%TO.N,Net-(D11-DOUT)*%
X91550000Y-95650000D03*
%TO.P,D11,3,VSS_3*%
%TO.N,GND*%
X96450000Y-95650000D03*
%TO.P,D11,4,DIN_4*%
%TO.N,Net-(D10-DOUT)*%
X96450000Y-92350000D03*
%TD*%
D12*
%TO.P,C87,1*%
%TO.N,+5V_LED*%
X224462500Y-318000000D03*
%TO.P,C87,2*%
%TO.N,GND*%
X226537500Y-318000000D03*
%TD*%
%TO.P,C90,1*%
%TO.N,+5V_LED*%
X320462500Y-318000000D03*
%TO.P,C90,2*%
%TO.N,GND*%
X322537500Y-318000000D03*
%TD*%
D10*
%TO.P,U62,1,VCC_1*%
%TO.N,/CH_PWR*%
X302000000Y-142000000D03*
D11*
%TO.P,U62,2,GND_2*%
%TO.N,GND*%
X303270000Y-142000000D03*
%TO.P,U62,3,OUT_3*%
%TO.N,/S5*%
X304540000Y-142000000D03*
%TD*%
D13*
%TO.P,D33,1,VDD_1*%
%TO.N,+5V_LED*%
X219550000Y-156350000D03*
%TO.P,D33,2,DOUT_2*%
%TO.N,Net-(D33-DOUT)*%
X219550000Y-159650000D03*
%TO.P,D33,3,VSS_3*%
%TO.N,GND*%
X224450000Y-159650000D03*
%TO.P,D33,4,DIN_4*%
%TO.N,Net-(D32-DOUT)*%
X224450000Y-156350000D03*
%TD*%
D12*
%TO.P,C68,1*%
%TO.N,+5V_LED*%
X192462500Y-254000000D03*
%TO.P,C68,2*%
%TO.N,GND*%
X194537500Y-254000000D03*
%TD*%
D13*
%TO.P,D28,1,VDD_1*%
%TO.N,+5V_LED*%
X59550000Y-156350000D03*
%TO.P,D28,2,DOUT_2*%
%TO.N,Net-(D28-DOUT)*%
X59550000Y-159650000D03*
%TO.P,D28,3,VSS_3*%
%TO.N,GND*%
X64450000Y-159650000D03*
%TO.P,D28,4,DIN_4*%
%TO.N,/L27*%
X64450000Y-156350000D03*
%TD*%
D12*
%TO.P,C19,1*%
%TO.N,+5V_LED*%
X64462500Y-94000000D03*
%TO.P,C19,2*%
%TO.N,GND*%
X66537500Y-94000000D03*
%TD*%
%TO.P,C13,1*%
%TO.N,+5V_LED*%
X160462500Y-62000000D03*
%TO.P,C13,2*%
%TO.N,GND*%
X162537500Y-62000000D03*
%TD*%
%TO.P,C53,1*%
%TO.N,+5V_LED*%
X288462500Y-190000000D03*
%TO.P,C53,2*%
%TO.N,GND*%
X290537500Y-190000000D03*
%TD*%
%TO.P,C38,1*%
%TO.N,+5V_LED*%
X96462500Y-158000000D03*
%TO.P,C38,2*%
%TO.N,GND*%
X98537500Y-158000000D03*
%TD*%
D10*
%TO.P,U36,1,VCC_1*%
%TO.N,/CE_PWR*%
X206000000Y-206000000D03*
D11*
%TO.P,U36,2,GND_2*%
%TO.N,GND*%
X207270000Y-206000000D03*
%TO.P,U36,3,OUT_3*%
%TO.N,/S3*%
X208540000Y-206000000D03*
%TD*%
D12*
%TO.P,C27,1*%
%TO.N,+5V_LED*%
X320462500Y-94000000D03*
%TO.P,C27,2*%
%TO.N,GND*%
X322537500Y-94000000D03*
%TD*%
D10*
%TO.P,U60,1,VCC_1*%
%TO.N,/CH_PWR*%
X302000000Y-206000000D03*
D11*
%TO.P,U60,2,GND_2*%
%TO.N,GND*%
X303270000Y-206000000D03*
%TO.P,U60,3,OUT_3*%
%TO.N,/S3*%
X304540000Y-206000000D03*
%TD*%
D10*
%TO.P,U7,1,VCC_1*%
%TO.N,/CA_PWR*%
X78000000Y-110000000D03*
D11*
%TO.P,U7,2,GND_2*%
%TO.N,GND*%
X79270000Y-110000000D03*
%TO.P,U7,3,OUT_3*%
%TO.N,/S6*%
X80540000Y-110000000D03*
%TD*%
D10*
%TO.P,U55,1,VCC_1*%
%TO.N,/CG_PWR*%
X270000000Y-110000000D03*
D11*
%TO.P,U55,2,GND_2*%
%TO.N,GND*%
X271270000Y-110000000D03*
%TO.P,U55,3,OUT_3*%
%TO.N,/S6*%
X272540000Y-110000000D03*
%TD*%
D13*
%TO.P,D68,1,VDD_1*%
%TO.N,+5V_LED*%
X187550000Y-284350000D03*
%TO.P,D68,2,DOUT_2*%
%TO.N,Net-(D68-DOUT)*%
X187550000Y-287650000D03*
%TO.P,D68,3,VSS_3*%
%TO.N,GND*%
X192450000Y-287650000D03*
%TO.P,D68,4,DIN_4*%
%TO.N,Net-(D67-DOUT)*%
X192450000Y-284350000D03*
%TD*%
D12*
%TO.P,C71,1*%
%TO.N,+5V_LED*%
X288462500Y-254000000D03*
%TO.P,C71,2*%
%TO.N,GND*%
X290537500Y-254000000D03*
%TD*%
%TO.P,C77,1*%
%TO.N,+5V_LED*%
X192462500Y-286000000D03*
%TO.P,C77,2*%
%TO.N,GND*%
X194537500Y-286000000D03*
%TD*%
D10*
%TO.P,U9,1,VCC_1*%
%TO.N,/CB_PWR*%
X110000000Y-302000000D03*
D11*
%TO.P,U9,2,GND_2*%
%TO.N,GND*%
X111270000Y-302000000D03*
%TO.P,U9,3,OUT_3*%
%TO.N,/S0*%
X112540000Y-302000000D03*
%TD*%
D12*
%TO.P,C82,1*%
%TO.N,+5V_LED*%
X64462500Y-318000000D03*
%TO.P,C82,2*%
%TO.N,GND*%
X66537500Y-318000000D03*
%TD*%
D13*
%TO.P,D76,1,VDD_1*%
%TO.N,+5V_LED*%
X155550000Y-316350000D03*
%TO.P,D76,2,DOUT_2*%
%TO.N,Net-(D76-DOUT)*%
X155550000Y-319650000D03*
%TO.P,D76,3,VSS_3*%
%TO.N,GND*%
X160450000Y-319650000D03*
%TO.P,D76,4,DIN_4*%
%TO.N,Net-(D75-DOUT)*%
X160450000Y-316350000D03*
%TD*%
D12*
%TO.P,C39,1*%
%TO.N,+5V_LED*%
X128462500Y-158000000D03*
%TO.P,C39,2*%
%TO.N,GND*%
X130537500Y-158000000D03*
%TD*%
%TO.P,C23,1*%
%TO.N,+5V_LED*%
X192462500Y-94000000D03*
%TO.P,C23,2*%
%TO.N,GND*%
X194537500Y-94000000D03*
%TD*%
%TO.P,C45,1*%
%TO.N,+5V_LED*%
X320462500Y-158000000D03*
%TO.P,C45,2*%
%TO.N,GND*%
X322537500Y-158000000D03*
%TD*%
D10*
%TO.P,U33,1,VCC_1*%
%TO.N,/CE_PWR*%
X206000000Y-302000000D03*
D11*
%TO.P,U33,2,GND_2*%
%TO.N,GND*%
X207270000Y-302000000D03*
%TO.P,U33,3,OUT_3*%
%TO.N,/S0*%
X208540000Y-302000000D03*
%TD*%
D10*
%TO.P,U6,1,VCC_1*%
%TO.N,/CA_PWR*%
X78000000Y-142000000D03*
D11*
%TO.P,U6,2,GND_2*%
%TO.N,GND*%
X79270000Y-142000000D03*
%TO.P,U6,3,OUT_3*%
%TO.N,/S5*%
X80540000Y-142000000D03*
%TD*%
D12*
%TO.P,C56,1*%
%TO.N,+5V_LED*%
X96462500Y-222000000D03*
%TO.P,C56,2*%
%TO.N,GND*%
X98537500Y-222000000D03*
%TD*%
D10*
%TO.P,U22,1,VCC_1*%
%TO.N,/CC_PWR*%
X142000000Y-142000000D03*
D11*
%TO.P,U22,2,GND_2*%
%TO.N,GND*%
X143270000Y-142000000D03*
%TO.P,U22,3,OUT_3*%
%TO.N,/S5*%
X144540000Y-142000000D03*
%TD*%
D10*
%TO.P,U61,1,VCC_1*%
%TO.N,/CH_PWR*%
X302000000Y-174000000D03*
D11*
%TO.P,U61,2,GND_2*%
%TO.N,GND*%
X303270000Y-174000000D03*
%TO.P,U61,3,OUT_3*%
%TO.N,/S4*%
X304540000Y-174000000D03*
%TD*%
D13*
%TO.P,D40,1,VDD_1*%
%TO.N,+5V_LED*%
X155550000Y-188350000D03*
%TO.P,D40,2,DOUT_2*%
%TO.N,Net-(D40-DOUT)*%
X155550000Y-191650000D03*
%TO.P,D40,3,VSS_3*%
%TO.N,GND*%
X160450000Y-191650000D03*
%TO.P,D40,4,DIN_4*%
%TO.N,Net-(D39-DOUT)*%
X160450000Y-188350000D03*
%TD*%
D12*
%TO.P,C81,1*%
%TO.N,+5V_LED*%
X320462500Y-286000000D03*
%TO.P,C81,2*%
%TO.N,GND*%
X322537500Y-286000000D03*
%TD*%
D13*
%TO.P,D42,1,VDD_1*%
%TO.N,+5V_LED*%
X219550000Y-188350000D03*
%TO.P,D42,2,DOUT_2*%
%TO.N,Net-(D42-DOUT)*%
X219550000Y-191650000D03*
%TO.P,D42,3,VSS_3*%
%TO.N,GND*%
X224450000Y-191650000D03*
%TO.P,D42,4,DIN_4*%
%TO.N,Net-(D41-DOUT)*%
X224450000Y-188350000D03*
%TD*%
D10*
%TO.P,U19,1,VCC_1*%
%TO.N,/CC_PWR*%
X142000000Y-238000000D03*
D11*
%TO.P,U19,2,GND_2*%
%TO.N,GND*%
X143270000Y-238000000D03*
%TO.P,U19,3,OUT_3*%
%TO.N,/S2*%
X144540000Y-238000000D03*
%TD*%
D13*
%TO.P,D38,1,VDD_1*%
%TO.N,+5V_LED*%
X91550000Y-188350000D03*
%TO.P,D38,2,DOUT_2*%
%TO.N,Net-(D38-DOUT)*%
X91550000Y-191650000D03*
%TO.P,D38,3,VSS_3*%
%TO.N,GND*%
X96450000Y-191650000D03*
%TO.P,D38,4,DIN_4*%
%TO.N,Net-(D37-DOUT)*%
X96450000Y-188350000D03*
%TD*%
%TO.P,D60,1,VDD_1*%
%TO.N,+5V_LED*%
X219550000Y-252350000D03*
%TO.P,D60,2,DOUT_2*%
%TO.N,Net-(D60-DOUT)*%
X219550000Y-255650000D03*
%TO.P,D60,3,VSS_3*%
%TO.N,GND*%
X224450000Y-255650000D03*
%TO.P,D60,4,DIN_4*%
%TO.N,Net-(D59-DOUT)*%
X224450000Y-252350000D03*
%TD*%
D12*
%TO.P,C22,1*%
%TO.N,+5V_LED*%
X160462500Y-94000000D03*
%TO.P,C22,2*%
%TO.N,GND*%
X162537500Y-94000000D03*
%TD*%
%TO.P,C72,1*%
%TO.N,+5V_LED*%
X320462500Y-254000000D03*
%TO.P,C72,2*%
%TO.N,GND*%
X322537500Y-254000000D03*
%TD*%
%TO.P,C20,1*%
%TO.N,+5V_LED*%
X96462500Y-94000000D03*
%TO.P,C20,2*%
%TO.N,GND*%
X98537500Y-94000000D03*
%TD*%
%TO.P,C88,1*%
%TO.N,+5V_LED*%
X256462500Y-318000000D03*
%TO.P,C88,2*%
%TO.N,GND*%
X258537500Y-318000000D03*
%TD*%
%TO.P,C37,1*%
%TO.N,+5V_LED*%
X64462500Y-158000000D03*
%TO.P,C37,2*%
%TO.N,GND*%
X66537500Y-158000000D03*
%TD*%
D10*
%TO.P,U52,1,VCC_1*%
%TO.N,/CG_PWR*%
X270000000Y-206000000D03*
D11*
%TO.P,U52,2,GND_2*%
%TO.N,GND*%
X271270000Y-206000000D03*
%TO.P,U52,3,OUT_3*%
%TO.N,/S3*%
X272540000Y-206000000D03*
%TD*%
D10*
%TO.P,U39,1,VCC_1*%
%TO.N,/CE_PWR*%
X206000000Y-110000000D03*
D11*
%TO.P,U39,2,GND_2*%
%TO.N,GND*%
X207270000Y-110000000D03*
%TO.P,U39,3,OUT_3*%
%TO.N,/S6*%
X208540000Y-110000000D03*
%TD*%
D13*
%TO.P,D9,1,VDD_1*%
%TO.N,+5V_LED*%
X315550000Y-60350000D03*
%TO.P,D9,2,DOUT_2*%
%TO.N,/L9*%
X315550000Y-63650000D03*
%TO.P,D9,3,VSS_3*%
%TO.N,GND*%
X320450000Y-63650000D03*
%TO.P,D9,4,DIN_4*%
%TO.N,Net-(D8-DOUT)*%
X320450000Y-60350000D03*
%TD*%
D12*
%TO.P,C64,1*%
%TO.N,+5V_LED*%
X64462500Y-254000000D03*
%TO.P,C64,2*%
%TO.N,GND*%
X66537500Y-254000000D03*
%TD*%
%TO.P,C62,1*%
%TO.N,+5V_LED*%
X288462500Y-222000000D03*
%TO.P,C62,2*%
%TO.N,GND*%
X290537500Y-222000000D03*
%TD*%
D10*
%TO.P,U45,1,VCC_1*%
%TO.N,/CF_PWR*%
X238000000Y-174000000D03*
D11*
%TO.P,U45,2,GND_2*%
%TO.N,GND*%
X239270000Y-174000000D03*
%TO.P,U45,3,OUT_3*%
%TO.N,/S4*%
X240540000Y-174000000D03*
%TD*%
D12*
%TO.P,C49,1*%
%TO.N,+5V_LED*%
X160462500Y-190000000D03*
%TO.P,C49,2*%
%TO.N,GND*%
X162537500Y-190000000D03*
%TD*%
%TO.P,C67,1*%
%TO.N,+5V_LED*%
X160462500Y-254000000D03*
%TO.P,C67,2*%
%TO.N,GND*%
X162537500Y-254000000D03*
%TD*%
D10*
%TO.P,U18,1,VCC_1*%
%TO.N,/CC_PWR*%
X142000000Y-270000000D03*
D11*
%TO.P,U18,2,GND_2*%
%TO.N,GND*%
X143270000Y-270000000D03*
%TO.P,U18,3,OUT_3*%
%TO.N,/S1*%
X144540000Y-270000000D03*
%TD*%
D10*
%TO.P,U64,1,VCC_1*%
%TO.N,/CH_PWR*%
X302000000Y-78000000D03*
D11*
%TO.P,U64,2,GND_2*%
%TO.N,GND*%
X303270000Y-78000000D03*
%TO.P,U64,3,OUT_3*%
%TO.N,/S7*%
X304540000Y-78000000D03*
%TD*%
D12*
%TO.P,C51,1*%
%TO.N,+5V_LED*%
X224462500Y-190000000D03*
%TO.P,C51,2*%
%TO.N,GND*%
X226537500Y-190000000D03*
%TD*%
D13*
%TO.P,D78,1,VDD_1*%
%TO.N,+5V_LED*%
X219550000Y-316350000D03*
%TO.P,D78,2,DOUT_2*%
%TO.N,Net-(D78-DOUT)*%
X219550000Y-319650000D03*
%TO.P,D78,3,VSS_3*%
%TO.N,GND*%
X224450000Y-319650000D03*
%TO.P,D78,4,DIN_4*%
%TO.N,Net-(D77-DOUT)*%
X224450000Y-316350000D03*
%TD*%
%TO.P,D15,1,VDD_1*%
%TO.N,+5V_LED*%
X219550000Y-92350000D03*
%TO.P,D15,2,DOUT_2*%
%TO.N,Net-(D15-DOUT)*%
X219550000Y-95650000D03*
%TO.P,D15,3,VSS_3*%
%TO.N,GND*%
X224450000Y-95650000D03*
%TO.P,D15,4,DIN_4*%
%TO.N,Net-(D14-DOUT)*%
X224450000Y-92350000D03*
%TD*%
D10*
%TO.P,U16,1,VCC_1*%
%TO.N,/CB_PWR*%
X110000000Y-78000000D03*
D11*
%TO.P,U16,2,GND_2*%
%TO.N,GND*%
X111270000Y-78000000D03*
%TO.P,U16,3,OUT_3*%
%TO.N,/S7*%
X112540000Y-78000000D03*
%TD*%
D10*
%TO.P,U34,1,VCC_1*%
%TO.N,/CE_PWR*%
X206000000Y-270000000D03*
D11*
%TO.P,U34,2,GND_2*%
%TO.N,GND*%
X207270000Y-270000000D03*
%TO.P,U34,3,OUT_3*%
%TO.N,/S1*%
X208540000Y-270000000D03*
%TD*%
D13*
%TO.P,D51,1,VDD_1*%
%TO.N,+5V_LED*%
X219550000Y-220350000D03*
%TO.P,D51,2,DOUT_2*%
%TO.N,Net-(D51-DOUT)*%
X219550000Y-223650000D03*
%TO.P,D51,3,VSS_3*%
%TO.N,GND*%
X224450000Y-223650000D03*
%TO.P,D51,4,DIN_4*%
%TO.N,Net-(D50-DOUT)*%
X224450000Y-220350000D03*
%TD*%
D12*
%TO.P,C69,1*%
%TO.N,+5V_LED*%
X224462500Y-254000000D03*
%TO.P,C69,2*%
%TO.N,GND*%
X226537500Y-254000000D03*
%TD*%
%TO.P,C12,1*%
%TO.N,+5V_LED*%
X128462500Y-62000000D03*
%TO.P,C12,2*%
%TO.N,GND*%
X130537500Y-62000000D03*
%TD*%
D13*
%TO.P,D26,1,VDD_1*%
%TO.N,+5V_LED*%
X283550000Y-124350000D03*
%TO.P,D26,2,DOUT_2*%
%TO.N,Net-(D26-DOUT)*%
X283550000Y-127650000D03*
%TO.P,D26,3,VSS_3*%
%TO.N,GND*%
X288450000Y-127650000D03*
%TO.P,D26,4,DIN_4*%
%TO.N,Net-(D25-DOUT)*%
X288450000Y-124350000D03*
%TD*%
%TO.P,D32,1,VDD_1*%
%TO.N,+5V_LED*%
X187550000Y-156350000D03*
%TO.P,D32,2,DOUT_2*%
%TO.N,Net-(D32-DOUT)*%
X187550000Y-159650000D03*
%TO.P,D32,3,VSS_3*%
%TO.N,GND*%
X192450000Y-159650000D03*
%TO.P,D32,4,DIN_4*%
%TO.N,Net-(D31-DOUT)*%
X192450000Y-156350000D03*
%TD*%
%TO.P,D12,1,VDD_1*%
%TO.N,+5V_LED*%
X123550000Y-92350000D03*
%TO.P,D12,2,DOUT_2*%
%TO.N,Net-(D12-DOUT)*%
X123550000Y-95650000D03*
%TO.P,D12,3,VSS_3*%
%TO.N,GND*%
X128450000Y-95650000D03*
%TO.P,D12,4,DIN_4*%
%TO.N,Net-(D11-DOUT)*%
X128450000Y-92350000D03*
%TD*%
D10*
%TO.P,U13,1,VCC_1*%
%TO.N,/CB_PWR*%
X110000000Y-174000000D03*
D11*
%TO.P,U13,2,GND_2*%
%TO.N,GND*%
X111270000Y-174000000D03*
%TO.P,U13,3,OUT_3*%
%TO.N,/S4*%
X112540000Y-174000000D03*
%TD*%
D12*
%TO.P,C74,1*%
%TO.N,+5V_LED*%
X96462500Y-286000000D03*
%TO.P,C74,2*%
%TO.N,GND*%
X98537500Y-286000000D03*
%TD*%
D10*
%TO.P,U47,1,VCC_1*%
%TO.N,/CF_PWR*%
X238000000Y-110000000D03*
D11*
%TO.P,U47,2,GND_2*%
%TO.N,GND*%
X239270000Y-110000000D03*
%TO.P,U47,3,OUT_3*%
%TO.N,/S6*%
X240540000Y-110000000D03*
%TD*%
D12*
%TO.P,C42,1*%
%TO.N,+5V_LED*%
X224462500Y-158000000D03*
%TO.P,C42,2*%
%TO.N,GND*%
X226537500Y-158000000D03*
%TD*%
D13*
%TO.P,D67,1,VDD_1*%
%TO.N,+5V_LED*%
X155550000Y-284350000D03*
%TO.P,D67,2,DOUT_2*%
%TO.N,Net-(D67-DOUT)*%
X155550000Y-287650000D03*
%TO.P,D67,3,VSS_3*%
%TO.N,GND*%
X160450000Y-287650000D03*
%TO.P,D67,4,DIN_4*%
%TO.N,Net-(D66-DOUT)*%
X160450000Y-284350000D03*
%TD*%
D10*
%TO.P,U26,1,VCC_1*%
%TO.N,/CD_PWR*%
X174000000Y-270000000D03*
D11*
%TO.P,U26,2,GND_2*%
%TO.N,GND*%
X175270000Y-270000000D03*
%TO.P,U26,3,OUT_3*%
%TO.N,/S1*%
X176540000Y-270000000D03*
%TD*%
D12*
%TO.P,C29,1*%
%TO.N,+5V_LED*%
X96462500Y-126000000D03*
%TO.P,C29,2*%
%TO.N,GND*%
X98537500Y-126000000D03*
%TD*%
D13*
%TO.P,D43,1,VDD_1*%
%TO.N,+5V_LED*%
X251550000Y-188350000D03*
%TO.P,D43,2,DOUT_2*%
%TO.N,Net-(D43-DOUT)*%
X251550000Y-191650000D03*
%TO.P,D43,3,VSS_3*%
%TO.N,GND*%
X256450000Y-191650000D03*
%TO.P,D43,4,DIN_4*%
%TO.N,Net-(D42-DOUT)*%
X256450000Y-188350000D03*
%TD*%
%TO.P,D48,1,VDD_1*%
%TO.N,+5V_LED*%
X123550000Y-220350000D03*
%TO.P,D48,2,DOUT_2*%
%TO.N,Net-(D48-DOUT)*%
X123550000Y-223650000D03*
%TO.P,D48,3,VSS_3*%
%TO.N,GND*%
X128450000Y-223650000D03*
%TO.P,D48,4,DIN_4*%
%TO.N,Net-(D47-DOUT)*%
X128450000Y-220350000D03*
%TD*%
%TO.P,D7,1,VDD_1*%
%TO.N,+5V_LED*%
X251550000Y-60350000D03*
%TO.P,D7,2,DOUT_2*%
%TO.N,Net-(D7-DOUT)*%
X251550000Y-63650000D03*
%TO.P,D7,3,VSS_3*%
%TO.N,GND*%
X256450000Y-63650000D03*
%TO.P,D7,4,DIN_4*%
%TO.N,Net-(D6-DOUT)*%
X256450000Y-60350000D03*
%TD*%
D12*
%TO.P,C54,1*%
%TO.N,+5V_LED*%
X320462500Y-190000000D03*
%TO.P,C54,2*%
%TO.N,GND*%
X322537500Y-190000000D03*
%TD*%
D13*
%TO.P,D30,1,VDD_1*%
%TO.N,+5V_LED*%
X123550000Y-156350000D03*
%TO.P,D30,2,DOUT_2*%
%TO.N,Net-(D30-DOUT)*%
X123550000Y-159650000D03*
%TO.P,D30,3,VSS_3*%
%TO.N,GND*%
X128450000Y-159650000D03*
%TO.P,D30,4,DIN_4*%
%TO.N,Net-(D29-DOUT)*%
X128450000Y-156350000D03*
%TD*%
%TO.P,D73,1,VDD_1*%
%TO.N,+5V_LED*%
X59550000Y-316350000D03*
%TO.P,D73,2,DOUT_2*%
%TO.N,Net-(D73-DOUT)*%
X59550000Y-319650000D03*
%TO.P,D73,3,VSS_3*%
%TO.N,GND*%
X64450000Y-319650000D03*
%TO.P,D73,4,DIN_4*%
%TO.N,/L72*%
X64450000Y-316350000D03*
%TD*%
%TO.P,D58,1,VDD_1*%
%TO.N,+5V_LED*%
X155550000Y-252350000D03*
%TO.P,D58,2,DOUT_2*%
%TO.N,Net-(D58-DOUT)*%
X155550000Y-255650000D03*
%TO.P,D58,3,VSS_3*%
%TO.N,GND*%
X160450000Y-255650000D03*
%TO.P,D58,4,DIN_4*%
%TO.N,Net-(D57-DOUT)*%
X160450000Y-252350000D03*
%TD*%
D12*
%TO.P,C46,1*%
%TO.N,+5V_LED*%
X64462500Y-190000000D03*
%TO.P,C46,2*%
%TO.N,GND*%
X66537500Y-190000000D03*
%TD*%
%TO.P,C85,1*%
%TO.N,+5V_LED*%
X160462500Y-318000000D03*
%TO.P,C85,2*%
%TO.N,GND*%
X162537500Y-318000000D03*
%TD*%
D10*
%TO.P,U50,1,VCC_1*%
%TO.N,/CG_PWR*%
X270000000Y-270000000D03*
D11*
%TO.P,U50,2,GND_2*%
%TO.N,GND*%
X271270000Y-270000000D03*
%TO.P,U50,3,OUT_3*%
%TO.N,/S1*%
X272540000Y-270000000D03*
%TD*%
D12*
%TO.P,C30,1*%
%TO.N,+5V_LED*%
X128462500Y-126000000D03*
%TO.P,C30,2*%
%TO.N,GND*%
X130537500Y-126000000D03*
%TD*%
D13*
%TO.P,D34,1,VDD_1*%
%TO.N,+5V_LED*%
X251550000Y-156350000D03*
%TO.P,D34,2,DOUT_2*%
%TO.N,Net-(D34-DOUT)*%
X251550000Y-159650000D03*
%TO.P,D34,3,VSS_3*%
%TO.N,GND*%
X256450000Y-159650000D03*
%TO.P,D34,4,DIN_4*%
%TO.N,Net-(D33-DOUT)*%
X256450000Y-156350000D03*
%TD*%
D12*
%TO.P,C66,1*%
%TO.N,+5V_LED*%
X128462500Y-254000000D03*
%TO.P,C66,2*%
%TO.N,GND*%
X130537500Y-254000000D03*
%TD*%
D13*
%TO.P,D13,1,VDD_1*%
%TO.N,+5V_LED*%
X155550000Y-92350000D03*
%TO.P,D13,2,DOUT_2*%
%TO.N,Net-(D13-DOUT)*%
X155550000Y-95650000D03*
%TO.P,D13,3,VSS_3*%
%TO.N,GND*%
X160450000Y-95650000D03*
%TO.P,D13,4,DIN_4*%
%TO.N,Net-(D12-DOUT)*%
X160450000Y-92350000D03*
%TD*%
D10*
%TO.P,U24,1,VCC_1*%
%TO.N,/CC_PWR*%
X142000000Y-78000000D03*
D11*
%TO.P,U24,2,GND_2*%
%TO.N,GND*%
X143270000Y-78000000D03*
%TO.P,U24,3,OUT_3*%
%TO.N,/S7*%
X144540000Y-78000000D03*
%TD*%
D12*
%TO.P,C41,1*%
%TO.N,+5V_LED*%
X192462500Y-158000000D03*
%TO.P,C41,2*%
%TO.N,GND*%
X194537500Y-158000000D03*
%TD*%
%TO.P,C75,1*%
%TO.N,+5V_LED*%
X128462500Y-286000000D03*
%TO.P,C75,2*%
%TO.N,GND*%
X130537500Y-286000000D03*
%TD*%
D13*
%TO.P,D10,1,VDD_1*%
%TO.N,+5V_LED*%
X59550000Y-92350000D03*
%TO.P,D10,2,DOUT_2*%
%TO.N,Net-(D10-DOUT)*%
X59550000Y-95650000D03*
%TO.P,D10,3,VSS_3*%
%TO.N,GND*%
X64450000Y-95650000D03*
%TO.P,D10,4,DIN_4*%
%TO.N,/L9*%
X64450000Y-92350000D03*
%TD*%
D10*
%TO.P,U41,1,VCC_1*%
%TO.N,/CF_PWR*%
X238000000Y-302000000D03*
D11*
%TO.P,U41,2,GND_2*%
%TO.N,GND*%
X239270000Y-302000000D03*
%TO.P,U41,3,OUT_3*%
%TO.N,/S0*%
X240540000Y-302000000D03*
%TD*%
D12*
%TO.P,C17,1*%
%TO.N,+5V_LED*%
X288462500Y-62000000D03*
%TO.P,C17,2*%
%TO.N,GND*%
X290537500Y-62000000D03*
%TD*%
D13*
%TO.P,D17,1,VDD_1*%
%TO.N,+5V_LED*%
X283550000Y-92350000D03*
%TO.P,D17,2,DOUT_2*%
%TO.N,Net-(D17-DOUT)*%
X283550000Y-95650000D03*
%TO.P,D17,3,VSS_3*%
%TO.N,GND*%
X288450000Y-95650000D03*
%TO.P,D17,4,DIN_4*%
%TO.N,Net-(D16-DOUT)*%
X288450000Y-92350000D03*
%TD*%
D12*
%TO.P,C11,1*%
%TO.N,+5V_LED*%
X96462500Y-62000000D03*
%TO.P,C11,2*%
%TO.N,GND*%
X98537500Y-62000000D03*
%TD*%
D10*
%TO.P,U17,1,VCC_1*%
%TO.N,/CC_PWR*%
X142000000Y-302000000D03*
D11*
%TO.P,U17,2,GND_2*%
%TO.N,GND*%
X143270000Y-302000000D03*
%TO.P,U17,3,OUT_3*%
%TO.N,/S0*%
X144540000Y-302000000D03*
%TD*%
D10*
%TO.P,U3,1,VCC_1*%
%TO.N,/CA_PWR*%
X78000000Y-238000000D03*
D11*
%TO.P,U3,2,GND_2*%
%TO.N,GND*%
X79270000Y-238000000D03*
%TO.P,U3,3,OUT_3*%
%TO.N,/S2*%
X80540000Y-238000000D03*
%TD*%
D13*
%TO.P,D59,1,VDD_1*%
%TO.N,+5V_LED*%
X187550000Y-252350000D03*
%TO.P,D59,2,DOUT_2*%
%TO.N,Net-(D59-DOUT)*%
X187550000Y-255650000D03*
%TO.P,D59,3,VSS_3*%
%TO.N,GND*%
X192450000Y-255650000D03*
%TO.P,D59,4,DIN_4*%
%TO.N,Net-(D58-DOUT)*%
X192450000Y-252350000D03*
%TD*%
%TO.P,D74,1,VDD_1*%
%TO.N,+5V_LED*%
X91550000Y-316350000D03*
%TO.P,D74,2,DOUT_2*%
%TO.N,Net-(D74-DOUT)*%
X91550000Y-319650000D03*
%TO.P,D74,3,VSS_3*%
%TO.N,GND*%
X96450000Y-319650000D03*
%TO.P,D74,4,DIN_4*%
%TO.N,Net-(D73-DOUT)*%
X96450000Y-316350000D03*
%TD*%
%TO.P,D44,1,VDD_1*%
%TO.N,+5V_LED*%
X283550000Y-188350000D03*
%TO.P,D44,2,DOUT_2*%
%TO.N,Net-(D44-DOUT)*%
X283550000Y-191650000D03*
%TO.P,D44,3,VSS_3*%
%TO.N,GND*%
X288450000Y-191650000D03*
%TO.P,D44,4,DIN_4*%
%TO.N,Net-(D43-DOUT)*%
X288450000Y-188350000D03*
%TD*%
%TO.P,D19,1,VDD_1*%
%TO.N,+5V_LED*%
X59550000Y-124350000D03*
%TO.P,D19,2,DOUT_2*%
%TO.N,Net-(D19-DOUT)*%
X59550000Y-127650000D03*
%TO.P,D19,3,VSS_3*%
%TO.N,GND*%
X64450000Y-127650000D03*
%TO.P,D19,4,DIN_4*%
%TO.N,/L18*%
X64450000Y-124350000D03*
%TD*%
D12*
%TO.P,C31,1*%
%TO.N,+5V_LED*%
X160462500Y-126000000D03*
%TO.P,C31,2*%
%TO.N,GND*%
X162537500Y-126000000D03*
%TD*%
D10*
%TO.P,U10,1,VCC_1*%
%TO.N,/CB_PWR*%
X110000000Y-270000000D03*
D11*
%TO.P,U10,2,GND_2*%
%TO.N,GND*%
X111270000Y-270000000D03*
%TO.P,U10,3,OUT_3*%
%TO.N,/S1*%
X112540000Y-270000000D03*
%TD*%
D10*
%TO.P,U49,1,VCC_1*%
%TO.N,/CG_PWR*%
X270000000Y-302000000D03*
D11*
%TO.P,U49,2,GND_2*%
%TO.N,GND*%
X271270000Y-302000000D03*
%TO.P,U49,3,OUT_3*%
%TO.N,/S0*%
X272540000Y-302000000D03*
%TD*%
D13*
%TO.P,D57,1,VDD_1*%
%TO.N,+5V_LED*%
X123550000Y-252350000D03*
%TO.P,D57,2,DOUT_2*%
%TO.N,Net-(D57-DOUT)*%
X123550000Y-255650000D03*
%TO.P,D57,3,VSS_3*%
%TO.N,GND*%
X128450000Y-255650000D03*
%TO.P,D57,4,DIN_4*%
%TO.N,Net-(D56-DOUT)*%
X128450000Y-252350000D03*
%TD*%
D10*
%TO.P,U21,1,VCC_1*%
%TO.N,/CC_PWR*%
X142000000Y-174000000D03*
D11*
%TO.P,U21,2,GND_2*%
%TO.N,GND*%
X143270000Y-174000000D03*
%TO.P,U21,3,OUT_3*%
%TO.N,/S4*%
X144540000Y-174000000D03*
%TD*%
D12*
%TO.P,C40,1*%
%TO.N,+5V_LED*%
X160462500Y-158000000D03*
%TO.P,C40,2*%
%TO.N,GND*%
X162537500Y-158000000D03*
%TD*%
%TO.P,C33,1*%
%TO.N,+5V_LED*%
X224462500Y-126000000D03*
%TO.P,C33,2*%
%TO.N,GND*%
X226537500Y-126000000D03*
%TD*%
D10*
%TO.P,U56,1,VCC_1*%
%TO.N,/CG_PWR*%
X270000000Y-78000000D03*
D11*
%TO.P,U56,2,GND_2*%
%TO.N,GND*%
X271270000Y-78000000D03*
%TO.P,U56,3,OUT_3*%
%TO.N,/S7*%
X272540000Y-78000000D03*
%TD*%
D12*
%TO.P,C28,1*%
%TO.N,+5V_LED*%
X64462500Y-126000000D03*
%TO.P,C28,2*%
%TO.N,GND*%
X66537500Y-126000000D03*
%TD*%
D10*
%TO.P,U2,1,VCC_1*%
%TO.N,/CA_PWR*%
X78000000Y-270000000D03*
D11*
%TO.P,U2,2,GND_2*%
%TO.N,GND*%
X79270000Y-270000000D03*
%TO.P,U2,3,OUT_3*%
%TO.N,/S1*%
X80540000Y-270000000D03*
%TD*%
D10*
%TO.P,U29,1,VCC_1*%
%TO.N,/CD_PWR*%
X174000000Y-174000000D03*
D11*
%TO.P,U29,2,GND_2*%
%TO.N,GND*%
X175270000Y-174000000D03*
%TO.P,U29,3,OUT_3*%
%TO.N,/S4*%
X176540000Y-174000000D03*
%TD*%
D10*
%TO.P,U20,1,VCC_1*%
%TO.N,/CC_PWR*%
X142000000Y-206000000D03*
D11*
%TO.P,U20,2,GND_2*%
%TO.N,GND*%
X143270000Y-206000000D03*
%TO.P,U20,3,OUT_3*%
%TO.N,/S3*%
X144540000Y-206000000D03*
%TD*%
D13*
%TO.P,D22,1,VDD_1*%
%TO.N,+5V_LED*%
X155550000Y-124350000D03*
%TO.P,D22,2,DOUT_2*%
%TO.N,Net-(D22-DOUT)*%
X155550000Y-127650000D03*
%TO.P,D22,3,VSS_3*%
%TO.N,GND*%
X160450000Y-127650000D03*
%TO.P,D22,4,DIN_4*%
%TO.N,Net-(D21-DOUT)*%
X160450000Y-124350000D03*
%TD*%
D12*
%TO.P,C65,1*%
%TO.N,+5V_LED*%
X96462500Y-254000000D03*
%TO.P,C65,2*%
%TO.N,GND*%
X98537500Y-254000000D03*
%TD*%
D13*
%TO.P,D45,1,VDD_1*%
%TO.N,+5V_LED*%
X315550000Y-188350000D03*
%TO.P,D45,2,DOUT_2*%
%TO.N,/L45*%
X315550000Y-191650000D03*
%TO.P,D45,3,VSS_3*%
%TO.N,GND*%
X320450000Y-191650000D03*
%TO.P,D45,4,DIN_4*%
%TO.N,Net-(D44-DOUT)*%
X320450000Y-188350000D03*
%TD*%
%TO.P,D16,1,VDD_1*%
%TO.N,+5V_LED*%
X251550000Y-92350000D03*
%TO.P,D16,2,DOUT_2*%
%TO.N,Net-(D16-DOUT)*%
X251550000Y-95650000D03*
%TO.P,D16,3,VSS_3*%
%TO.N,GND*%
X256450000Y-95650000D03*
%TO.P,D16,4,DIN_4*%
%TO.N,Net-(D15-DOUT)*%
X256450000Y-92350000D03*
%TD*%
D10*
%TO.P,U48,1,VCC_1*%
%TO.N,/CF_PWR*%
X238000000Y-78000000D03*
D11*
%TO.P,U48,2,GND_2*%
%TO.N,GND*%
X239270000Y-78000000D03*
%TO.P,U48,3,OUT_3*%
%TO.N,/S7*%
X240540000Y-78000000D03*
%TD*%
D13*
%TO.P,D77,1,VDD_1*%
%TO.N,+5V_LED*%
X187550000Y-316350000D03*
%TO.P,D77,2,DOUT_2*%
%TO.N,Net-(D77-DOUT)*%
X187550000Y-319650000D03*
%TO.P,D77,3,VSS_3*%
%TO.N,GND*%
X192450000Y-319650000D03*
%TO.P,D77,4,DIN_4*%
%TO.N,Net-(D76-DOUT)*%
X192450000Y-316350000D03*
%TD*%
%TO.P,D71,1,VDD_1*%
%TO.N,+5V_LED*%
X283550000Y-284350000D03*
%TO.P,D71,2,DOUT_2*%
%TO.N,Net-(D71-DOUT)*%
X283550000Y-287650000D03*
%TO.P,D71,3,VSS_3*%
%TO.N,GND*%
X288450000Y-287650000D03*
%TO.P,D71,4,DIN_4*%
%TO.N,Net-(D70-DOUT)*%
X288450000Y-284350000D03*
%TD*%
%TO.P,D3,1,VDD_1*%
%TO.N,+5V_LED*%
X123550000Y-60350000D03*
%TO.P,D3,2,DOUT_2*%
%TO.N,Net-(D3-DOUT)*%
X123550000Y-63650000D03*
%TO.P,D3,3,VSS_3*%
%TO.N,GND*%
X128450000Y-63650000D03*
%TO.P,D3,4,DIN_4*%
%TO.N,Net-(D2-DOUT)*%
X128450000Y-60350000D03*
%TD*%
%TO.P,D63,1,VDD_1*%
%TO.N,+5V_LED*%
X315550000Y-252350000D03*
%TO.P,D63,2,DOUT_2*%
%TO.N,/L63*%
X315550000Y-255650000D03*
%TO.P,D63,3,VSS_3*%
%TO.N,GND*%
X320450000Y-255650000D03*
%TO.P,D63,4,DIN_4*%
%TO.N,Net-(D62-DOUT)*%
X320450000Y-252350000D03*
%TD*%
D12*
%TO.P,C35,1*%
%TO.N,+5V_LED*%
X288462500Y-126000000D03*
%TO.P,C35,2*%
%TO.N,GND*%
X290537500Y-126000000D03*
%TD*%
%TO.P,C78,1*%
%TO.N,+5V_LED*%
X224462500Y-286000000D03*
%TO.P,C78,2*%
%TO.N,GND*%
X226537500Y-286000000D03*
%TD*%
%TO.P,C36,1*%
%TO.N,+5V_LED*%
X320462500Y-126000000D03*
%TO.P,C36,2*%
%TO.N,GND*%
X322537500Y-126000000D03*
%TD*%
D10*
%TO.P,U27,1,VCC_1*%
%TO.N,/CD_PWR*%
X174000000Y-238000000D03*
D11*
%TO.P,U27,2,GND_2*%
%TO.N,GND*%
X175270000Y-238000000D03*
%TO.P,U27,3,OUT_3*%
%TO.N,/S2*%
X176540000Y-238000000D03*
%TD*%
M02*
