%TF.GenerationSoftware,KiCad,Pcbnew,10.0.3*%
%TF.CreationDate,2026-06-07T21:11:23-04:00*%
%TF.ProjectId,openchess-board,6f70656e-6368-4657-9373-2d626f617264,rev?*%
%TF.SameCoordinates,Original*%
%TF.FileFunction,Copper,L2,Bot*%
%TF.FilePolarity,Positive*%
%FSLAX46Y46*%
G04 Gerber Fmt 4.6, Leading zero omitted, Abs format (unit mm)*
G04 Created by KiCad (PCBNEW 10.0.3) date 2026-06-07 21:11:23*
%MOMM*%
%LPD*%
G01*
G04 APERTURE LIST*
%TA.AperFunction,ComponentPad*%
%ADD10R,1.050000X1.500000*%
%TD*%
%TA.AperFunction,ComponentPad*%
%ADD11O,1.050000X1.500000*%
%TD*%
G04 APERTURE END LIST*
D10*
%TO.P,U35,1,VCC_1*%
%TO.N,/CE_PWR*%
X206000000Y-238000000D03*
D11*
%TO.P,U35,2,GND_2*%
%TO.N,GND*%
X207270000Y-238000000D03*
%TO.P,U35,3,OUT_3*%
%TO.N,/S2*%
X208540000Y-238000000D03*
%TD*%
D10*
%TO.P,U25,1,VCC_1*%
%TO.N,/CD_PWR*%
X174000000Y-302000000D03*
D11*
%TO.P,U25,2,GND_2*%
%TO.N,GND*%
X175270000Y-302000000D03*
%TO.P,U25,3,OUT_3*%
%TO.N,/S0*%
X176540000Y-302000000D03*
%TD*%
D10*
%TO.P,U44,1,VCC_1*%
%TO.N,/CF_PWR*%
X238000000Y-206000000D03*
D11*
%TO.P,U44,2,GND_2*%
%TO.N,GND*%
X239270000Y-206000000D03*
%TO.P,U44,3,OUT_3*%
%TO.N,/S3*%
X240540000Y-206000000D03*
%TD*%
D10*
%TO.P,U12,1,VCC_1*%
%TO.N,/CB_PWR*%
X110000000Y-206000000D03*
D11*
%TO.P,U12,2,GND_2*%
%TO.N,GND*%
X111270000Y-206000000D03*
%TO.P,U12,3,OUT_3*%
%TO.N,/S3*%
X112540000Y-206000000D03*
%TD*%
D10*
%TO.P,U63,1,VCC_1*%
%TO.N,/CH_PWR*%
X302000000Y-110000000D03*
D11*
%TO.P,U63,2,GND_2*%
%TO.N,GND*%
X303270000Y-110000000D03*
%TO.P,U63,3,OUT_3*%
%TO.N,/S6*%
X304540000Y-110000000D03*
%TD*%
D10*
%TO.P,U31,1,VCC_1*%
%TO.N,/CD_PWR*%
X174000000Y-110000000D03*
D11*
%TO.P,U31,2,GND_2*%
%TO.N,GND*%
X175270000Y-110000000D03*
%TO.P,U31,3,OUT_3*%
%TO.N,/S6*%
X176540000Y-110000000D03*
%TD*%
D10*
%TO.P,U57,1,VCC_1*%
%TO.N,/CH_PWR*%
X302000000Y-302000000D03*
D11*
%TO.P,U57,2,GND_2*%
%TO.N,GND*%
X303270000Y-302000000D03*
%TO.P,U57,3,OUT_3*%
%TO.N,/S0*%
X304540000Y-302000000D03*
%TD*%
D10*
%TO.P,U54,1,VCC_1*%
%TO.N,/CG_PWR*%
X270000000Y-142000000D03*
D11*
%TO.P,U54,2,GND_2*%
%TO.N,GND*%
X271270000Y-142000000D03*
%TO.P,U54,3,OUT_3*%
%TO.N,/S5*%
X272540000Y-142000000D03*
%TD*%
D10*
%TO.P,U42,1,VCC_1*%
%TO.N,/CF_PWR*%
X238000000Y-270000000D03*
D11*
%TO.P,U42,2,GND_2*%
%TO.N,GND*%
X239270000Y-270000000D03*
%TO.P,U42,3,OUT_3*%
%TO.N,/S1*%
X240540000Y-270000000D03*
%TD*%
D10*
%TO.P,U28,1,VCC_1*%
%TO.N,/CD_PWR*%
X174000000Y-206000000D03*
D11*
%TO.P,U28,2,GND_2*%
%TO.N,GND*%
X175270000Y-206000000D03*
%TO.P,U28,3,OUT_3*%
%TO.N,/S3*%
X176540000Y-206000000D03*
%TD*%
D10*
%TO.P,U15,1,VCC_1*%
%TO.N,/CB_PWR*%
X110000000Y-110000000D03*
D11*
%TO.P,U15,2,GND_2*%
%TO.N,GND*%
X111270000Y-110000000D03*
%TO.P,U15,3,OUT_3*%
%TO.N,/S6*%
X112540000Y-110000000D03*
%TD*%
D10*
%TO.P,U40,1,VCC_1*%
%TO.N,/CE_PWR*%
X206000000Y-78000000D03*
D11*
%TO.P,U40,2,GND_2*%
%TO.N,GND*%
X207270000Y-78000000D03*
%TO.P,U40,3,OUT_3*%
%TO.N,/S7*%
X208540000Y-78000000D03*
%TD*%
D10*
%TO.P,U14,1,VCC_1*%
%TO.N,/CB_PWR*%
X110000000Y-142000000D03*
D11*
%TO.P,U14,2,GND_2*%
%TO.N,GND*%
X111270000Y-142000000D03*
%TO.P,U14,3,OUT_3*%
%TO.N,/S5*%
X112540000Y-142000000D03*
%TD*%
D10*
%TO.P,U43,1,VCC_1*%
%TO.N,/CF_PWR*%
X238000000Y-238000000D03*
D11*
%TO.P,U43,2,GND_2*%
%TO.N,GND*%
X239270000Y-238000000D03*
%TO.P,U43,3,OUT_3*%
%TO.N,/S2*%
X240540000Y-238000000D03*
%TD*%
D10*
%TO.P,U32,1,VCC_1*%
%TO.N,/CD_PWR*%
X174000000Y-78000000D03*
D11*
%TO.P,U32,2,GND_2*%
%TO.N,GND*%
X175270000Y-78000000D03*
%TO.P,U32,3,OUT_3*%
%TO.N,/S7*%
X176540000Y-78000000D03*
%TD*%
D10*
%TO.P,U58,1,VCC_1*%
%TO.N,/CH_PWR*%
X302000000Y-270000000D03*
D11*
%TO.P,U58,2,GND_2*%
%TO.N,GND*%
X303270000Y-270000000D03*
%TO.P,U58,3,OUT_3*%
%TO.N,/S1*%
X304540000Y-270000000D03*
%TD*%
D10*
%TO.P,U5,1,VCC_1*%
%TO.N,/CA_PWR*%
X78000000Y-174000000D03*
D11*
%TO.P,U5,2,GND_2*%
%TO.N,GND*%
X79270000Y-174000000D03*
%TO.P,U5,3,OUT_3*%
%TO.N,/S4*%
X80540000Y-174000000D03*
%TD*%
D10*
%TO.P,U30,1,VCC_1*%
%TO.N,/CD_PWR*%
X174000000Y-142000000D03*
D11*
%TO.P,U30,2,GND_2*%
%TO.N,GND*%
X175270000Y-142000000D03*
%TO.P,U30,3,OUT_3*%
%TO.N,/S5*%
X176540000Y-142000000D03*
%TD*%
D10*
%TO.P,U37,1,VCC_1*%
%TO.N,/CE_PWR*%
X206000000Y-174000000D03*
D11*
%TO.P,U37,2,GND_2*%
%TO.N,GND*%
X207270000Y-174000000D03*
%TO.P,U37,3,OUT_3*%
%TO.N,/S4*%
X208540000Y-174000000D03*
%TD*%
D10*
%TO.P,U8,1,VCC_1*%
%TO.N,/CA_PWR*%
X78000000Y-78000000D03*
D11*
%TO.P,U8,2,GND_2*%
%TO.N,GND*%
X79270000Y-78000000D03*
%TO.P,U8,3,OUT_3*%
%TO.N,/S7*%
X80540000Y-78000000D03*
%TD*%
D10*
%TO.P,U11,1,VCC_1*%
%TO.N,/CB_PWR*%
X110000000Y-238000000D03*
D11*
%TO.P,U11,2,GND_2*%
%TO.N,GND*%
X111270000Y-238000000D03*
%TO.P,U11,3,OUT_3*%
%TO.N,/S2*%
X112540000Y-238000000D03*
%TD*%
D10*
%TO.P,U4,1,VCC_1*%
%TO.N,/CA_PWR*%
X78000000Y-206000000D03*
D11*
%TO.P,U4,2,GND_2*%
%TO.N,GND*%
X79270000Y-206000000D03*
%TO.P,U4,3,OUT_3*%
%TO.N,/S3*%
X80540000Y-206000000D03*
%TD*%
D10*
%TO.P,U46,1,VCC_1*%
%TO.N,/CF_PWR*%
X238000000Y-142000000D03*
D11*
%TO.P,U46,2,GND_2*%
%TO.N,GND*%
X239270000Y-142000000D03*
%TO.P,U46,3,OUT_3*%
%TO.N,/S5*%
X240540000Y-142000000D03*
%TD*%
D10*
%TO.P,U1,1,VCC_1*%
%TO.N,/CA_PWR*%
X78000000Y-302000000D03*
D11*
%TO.P,U1,2,GND_2*%
%TO.N,GND*%
X79270000Y-302000000D03*
%TO.P,U1,3,OUT_3*%
%TO.N,/S0*%
X80540000Y-302000000D03*
%TD*%
D10*
%TO.P,U23,1,VCC_1*%
%TO.N,/CC_PWR*%
X142000000Y-110000000D03*
D11*
%TO.P,U23,2,GND_2*%
%TO.N,GND*%
X143270000Y-110000000D03*
%TO.P,U23,3,OUT_3*%
%TO.N,/S6*%
X144540000Y-110000000D03*
%TD*%
D10*
%TO.P,U59,1,VCC_1*%
%TO.N,/CH_PWR*%
X302000000Y-238000000D03*
D11*
%TO.P,U59,2,GND_2*%
%TO.N,GND*%
X303270000Y-238000000D03*
%TO.P,U59,3,OUT_3*%
%TO.N,/S2*%
X304540000Y-238000000D03*
%TD*%
D10*
%TO.P,U53,1,VCC_1*%
%TO.N,/CG_PWR*%
X270000000Y-174000000D03*
D11*
%TO.P,U53,2,GND_2*%
%TO.N,GND*%
X271270000Y-174000000D03*
%TO.P,U53,3,OUT_3*%
%TO.N,/S4*%
X272540000Y-174000000D03*
%TD*%
D10*
%TO.P,U38,1,VCC_1*%
%TO.N,/CE_PWR*%
X206000000Y-142000000D03*
D11*
%TO.P,U38,2,GND_2*%
%TO.N,GND*%
X207270000Y-142000000D03*
%TO.P,U38,3,OUT_3*%
%TO.N,/S5*%
X208540000Y-142000000D03*
%TD*%
D10*
%TO.P,U51,1,VCC_1*%
%TO.N,/CG_PWR*%
X270000000Y-238000000D03*
D11*
%TO.P,U51,2,GND_2*%
%TO.N,GND*%
X271270000Y-238000000D03*
%TO.P,U51,3,OUT_3*%
%TO.N,/S2*%
X272540000Y-238000000D03*
%TD*%
D10*
%TO.P,U62,1,VCC_1*%
%TO.N,/CH_PWR*%
X302000000Y-142000000D03*
D11*
%TO.P,U62,2,GND_2*%
%TO.N,GND*%
X303270000Y-142000000D03*
%TO.P,U62,3,OUT_3*%
%TO.N,/S5*%
X304540000Y-142000000D03*
%TD*%
D10*
%TO.P,U36,1,VCC_1*%
%TO.N,/CE_PWR*%
X206000000Y-206000000D03*
D11*
%TO.P,U36,2,GND_2*%
%TO.N,GND*%
X207270000Y-206000000D03*
%TO.P,U36,3,OUT_3*%
%TO.N,/S3*%
X208540000Y-206000000D03*
%TD*%
D10*
%TO.P,U60,1,VCC_1*%
%TO.N,/CH_PWR*%
X302000000Y-206000000D03*
D11*
%TO.P,U60,2,GND_2*%
%TO.N,GND*%
X303270000Y-206000000D03*
%TO.P,U60,3,OUT_3*%
%TO.N,/S3*%
X304540000Y-206000000D03*
%TD*%
D10*
%TO.P,U7,1,VCC_1*%
%TO.N,/CA_PWR*%
X78000000Y-110000000D03*
D11*
%TO.P,U7,2,GND_2*%
%TO.N,GND*%
X79270000Y-110000000D03*
%TO.P,U7,3,OUT_3*%
%TO.N,/S6*%
X80540000Y-110000000D03*
%TD*%
D10*
%TO.P,U55,1,VCC_1*%
%TO.N,/CG_PWR*%
X270000000Y-110000000D03*
D11*
%TO.P,U55,2,GND_2*%
%TO.N,GND*%
X271270000Y-110000000D03*
%TO.P,U55,3,OUT_3*%
%TO.N,/S6*%
X272540000Y-110000000D03*
%TD*%
D10*
%TO.P,U9,1,VCC_1*%
%TO.N,/CB_PWR*%
X110000000Y-302000000D03*
D11*
%TO.P,U9,2,GND_2*%
%TO.N,GND*%
X111270000Y-302000000D03*
%TO.P,U9,3,OUT_3*%
%TO.N,/S0*%
X112540000Y-302000000D03*
%TD*%
D10*
%TO.P,U33,1,VCC_1*%
%TO.N,/CE_PWR*%
X206000000Y-302000000D03*
D11*
%TO.P,U33,2,GND_2*%
%TO.N,GND*%
X207270000Y-302000000D03*
%TO.P,U33,3,OUT_3*%
%TO.N,/S0*%
X208540000Y-302000000D03*
%TD*%
D10*
%TO.P,U6,1,VCC_1*%
%TO.N,/CA_PWR*%
X78000000Y-142000000D03*
D11*
%TO.P,U6,2,GND_2*%
%TO.N,GND*%
X79270000Y-142000000D03*
%TO.P,U6,3,OUT_3*%
%TO.N,/S5*%
X80540000Y-142000000D03*
%TD*%
D10*
%TO.P,U22,1,VCC_1*%
%TO.N,/CC_PWR*%
X142000000Y-142000000D03*
D11*
%TO.P,U22,2,GND_2*%
%TO.N,GND*%
X143270000Y-142000000D03*
%TO.P,U22,3,OUT_3*%
%TO.N,/S5*%
X144540000Y-142000000D03*
%TD*%
D10*
%TO.P,U61,1,VCC_1*%
%TO.N,/CH_PWR*%
X302000000Y-174000000D03*
D11*
%TO.P,U61,2,GND_2*%
%TO.N,GND*%
X303270000Y-174000000D03*
%TO.P,U61,3,OUT_3*%
%TO.N,/S4*%
X304540000Y-174000000D03*
%TD*%
D10*
%TO.P,U19,1,VCC_1*%
%TO.N,/CC_PWR*%
X142000000Y-238000000D03*
D11*
%TO.P,U19,2,GND_2*%
%TO.N,GND*%
X143270000Y-238000000D03*
%TO.P,U19,3,OUT_3*%
%TO.N,/S2*%
X144540000Y-238000000D03*
%TD*%
D10*
%TO.P,U52,1,VCC_1*%
%TO.N,/CG_PWR*%
X270000000Y-206000000D03*
D11*
%TO.P,U52,2,GND_2*%
%TO.N,GND*%
X271270000Y-206000000D03*
%TO.P,U52,3,OUT_3*%
%TO.N,/S3*%
X272540000Y-206000000D03*
%TD*%
D10*
%TO.P,U39,1,VCC_1*%
%TO.N,/CE_PWR*%
X206000000Y-110000000D03*
D11*
%TO.P,U39,2,GND_2*%
%TO.N,GND*%
X207270000Y-110000000D03*
%TO.P,U39,3,OUT_3*%
%TO.N,/S6*%
X208540000Y-110000000D03*
%TD*%
D10*
%TO.P,U45,1,VCC_1*%
%TO.N,/CF_PWR*%
X238000000Y-174000000D03*
D11*
%TO.P,U45,2,GND_2*%
%TO.N,GND*%
X239270000Y-174000000D03*
%TO.P,U45,3,OUT_3*%
%TO.N,/S4*%
X240540000Y-174000000D03*
%TD*%
D10*
%TO.P,U18,1,VCC_1*%
%TO.N,/CC_PWR*%
X142000000Y-270000000D03*
D11*
%TO.P,U18,2,GND_2*%
%TO.N,GND*%
X143270000Y-270000000D03*
%TO.P,U18,3,OUT_3*%
%TO.N,/S1*%
X144540000Y-270000000D03*
%TD*%
D10*
%TO.P,U64,1,VCC_1*%
%TO.N,/CH_PWR*%
X302000000Y-78000000D03*
D11*
%TO.P,U64,2,GND_2*%
%TO.N,GND*%
X303270000Y-78000000D03*
%TO.P,U64,3,OUT_3*%
%TO.N,/S7*%
X304540000Y-78000000D03*
%TD*%
D10*
%TO.P,U16,1,VCC_1*%
%TO.N,/CB_PWR*%
X110000000Y-78000000D03*
D11*
%TO.P,U16,2,GND_2*%
%TO.N,GND*%
X111270000Y-78000000D03*
%TO.P,U16,3,OUT_3*%
%TO.N,/S7*%
X112540000Y-78000000D03*
%TD*%
D10*
%TO.P,U34,1,VCC_1*%
%TO.N,/CE_PWR*%
X206000000Y-270000000D03*
D11*
%TO.P,U34,2,GND_2*%
%TO.N,GND*%
X207270000Y-270000000D03*
%TO.P,U34,3,OUT_3*%
%TO.N,/S1*%
X208540000Y-270000000D03*
%TD*%
D10*
%TO.P,U13,1,VCC_1*%
%TO.N,/CB_PWR*%
X110000000Y-174000000D03*
D11*
%TO.P,U13,2,GND_2*%
%TO.N,GND*%
X111270000Y-174000000D03*
%TO.P,U13,3,OUT_3*%
%TO.N,/S4*%
X112540000Y-174000000D03*
%TD*%
D10*
%TO.P,U47,1,VCC_1*%
%TO.N,/CF_PWR*%
X238000000Y-110000000D03*
D11*
%TO.P,U47,2,GND_2*%
%TO.N,GND*%
X239270000Y-110000000D03*
%TO.P,U47,3,OUT_3*%
%TO.N,/S6*%
X240540000Y-110000000D03*
%TD*%
D10*
%TO.P,U26,1,VCC_1*%
%TO.N,/CD_PWR*%
X174000000Y-270000000D03*
D11*
%TO.P,U26,2,GND_2*%
%TO.N,GND*%
X175270000Y-270000000D03*
%TO.P,U26,3,OUT_3*%
%TO.N,/S1*%
X176540000Y-270000000D03*
%TD*%
D10*
%TO.P,U50,1,VCC_1*%
%TO.N,/CG_PWR*%
X270000000Y-270000000D03*
D11*
%TO.P,U50,2,GND_2*%
%TO.N,GND*%
X271270000Y-270000000D03*
%TO.P,U50,3,OUT_3*%
%TO.N,/S1*%
X272540000Y-270000000D03*
%TD*%
D10*
%TO.P,U24,1,VCC_1*%
%TO.N,/CC_PWR*%
X142000000Y-78000000D03*
D11*
%TO.P,U24,2,GND_2*%
%TO.N,GND*%
X143270000Y-78000000D03*
%TO.P,U24,3,OUT_3*%
%TO.N,/S7*%
X144540000Y-78000000D03*
%TD*%
D10*
%TO.P,U41,1,VCC_1*%
%TO.N,/CF_PWR*%
X238000000Y-302000000D03*
D11*
%TO.P,U41,2,GND_2*%
%TO.N,GND*%
X239270000Y-302000000D03*
%TO.P,U41,3,OUT_3*%
%TO.N,/S0*%
X240540000Y-302000000D03*
%TD*%
D10*
%TO.P,U17,1,VCC_1*%
%TO.N,/CC_PWR*%
X142000000Y-302000000D03*
D11*
%TO.P,U17,2,GND_2*%
%TO.N,GND*%
X143270000Y-302000000D03*
%TO.P,U17,3,OUT_3*%
%TO.N,/S0*%
X144540000Y-302000000D03*
%TD*%
D10*
%TO.P,U3,1,VCC_1*%
%TO.N,/CA_PWR*%
X78000000Y-238000000D03*
D11*
%TO.P,U3,2,GND_2*%
%TO.N,GND*%
X79270000Y-238000000D03*
%TO.P,U3,3,OUT_3*%
%TO.N,/S2*%
X80540000Y-238000000D03*
%TD*%
D10*
%TO.P,U10,1,VCC_1*%
%TO.N,/CB_PWR*%
X110000000Y-270000000D03*
D11*
%TO.P,U10,2,GND_2*%
%TO.N,GND*%
X111270000Y-270000000D03*
%TO.P,U10,3,OUT_3*%
%TO.N,/S1*%
X112540000Y-270000000D03*
%TD*%
D10*
%TO.P,U49,1,VCC_1*%
%TO.N,/CG_PWR*%
X270000000Y-302000000D03*
D11*
%TO.P,U49,2,GND_2*%
%TO.N,GND*%
X271270000Y-302000000D03*
%TO.P,U49,3,OUT_3*%
%TO.N,/S0*%
X272540000Y-302000000D03*
%TD*%
D10*
%TO.P,U21,1,VCC_1*%
%TO.N,/CC_PWR*%
X142000000Y-174000000D03*
D11*
%TO.P,U21,2,GND_2*%
%TO.N,GND*%
X143270000Y-174000000D03*
%TO.P,U21,3,OUT_3*%
%TO.N,/S4*%
X144540000Y-174000000D03*
%TD*%
D10*
%TO.P,U56,1,VCC_1*%
%TO.N,/CG_PWR*%
X270000000Y-78000000D03*
D11*
%TO.P,U56,2,GND_2*%
%TO.N,GND*%
X271270000Y-78000000D03*
%TO.P,U56,3,OUT_3*%
%TO.N,/S7*%
X272540000Y-78000000D03*
%TD*%
D10*
%TO.P,U2,1,VCC_1*%
%TO.N,/CA_PWR*%
X78000000Y-270000000D03*
D11*
%TO.P,U2,2,GND_2*%
%TO.N,GND*%
X79270000Y-270000000D03*
%TO.P,U2,3,OUT_3*%
%TO.N,/S1*%
X80540000Y-270000000D03*
%TD*%
D10*
%TO.P,U29,1,VCC_1*%
%TO.N,/CD_PWR*%
X174000000Y-174000000D03*
D11*
%TO.P,U29,2,GND_2*%
%TO.N,GND*%
X175270000Y-174000000D03*
%TO.P,U29,3,OUT_3*%
%TO.N,/S4*%
X176540000Y-174000000D03*
%TD*%
D10*
%TO.P,U20,1,VCC_1*%
%TO.N,/CC_PWR*%
X142000000Y-206000000D03*
D11*
%TO.P,U20,2,GND_2*%
%TO.N,GND*%
X143270000Y-206000000D03*
%TO.P,U20,3,OUT_3*%
%TO.N,/S3*%
X144540000Y-206000000D03*
%TD*%
D10*
%TO.P,U48,1,VCC_1*%
%TO.N,/CF_PWR*%
X238000000Y-78000000D03*
D11*
%TO.P,U48,2,GND_2*%
%TO.N,GND*%
X239270000Y-78000000D03*
%TO.P,U48,3,OUT_3*%
%TO.N,/S7*%
X240540000Y-78000000D03*
%TD*%
D10*
%TO.P,U27,1,VCC_1*%
%TO.N,/CD_PWR*%
X174000000Y-238000000D03*
D11*
%TO.P,U27,2,GND_2*%
%TO.N,GND*%
X175270000Y-238000000D03*
%TO.P,U27,3,OUT_3*%
%TO.N,/S2*%
X176540000Y-238000000D03*
%TD*%
M02*
