%TF.GenerationSoftware,KiCad,Pcbnew,10.0.3*%
%TF.CreationDate,2026-06-07T20:16:12-04:00*%
%TF.ProjectId,openchess-board-3x3,6f70656e-6368-4657-9373-2d626f617264,rev?*%
%TF.SameCoordinates,Original*%
%TF.FileFunction,Soldermask,Top*%
%TF.FilePolarity,Negative*%
%FSLAX46Y46*%
G04 Gerber Fmt 4.6, Leading zero omitted, Abs format (unit mm)*
G04 Created by KiCad (PCBNEW 10.0.3) date 2026-06-07 20:16:12*
%MOMM*%
%LPD*%
G01*
G04 APERTURE LIST*
G04 Aperture macros list*
%AMRoundRect*
0 Rectangle with rounded corners*
0 $1 Rounding radius*
0 $2 $3 $4 $5 $6 $7 $8 $9 X,Y pos of 4 corners*
0 Add a 4 corners polygon primitive as box body*
4,1,4,$2,$3,$4,$5,$6,$7,$8,$9,$2,$3,0*
0 Add four circle primitives for the rounded corners*
1,1,$1+$1,$2,$3*
1,1,$1+$1,$4,$5*
1,1,$1+$1,$6,$7*
1,1,$1+$1,$8,$9*
0 Add four rect primitives between the rounded corners*
20,1,$1+$1,$2,$3,$4,$5,0*
20,1,$1+$1,$4,$5,$6,$7,0*
20,1,$1+$1,$6,$7,$8,$9,0*
20,1,$1+$1,$8,$9,$2,$3,0*%
G04 Aperture macros list end*
%ADD10RoundRect,0.090000X-0.660000X-0.360000X0.660000X-0.360000X0.660000X0.360000X-0.660000X0.360000X0*%
%ADD11RoundRect,0.250000X-0.475000X0.337500X-0.475000X-0.337500X0.475000X-0.337500X0.475000X0.337500X0*%
%ADD12RoundRect,0.150000X-0.587500X-0.150000X0.587500X-0.150000X0.587500X0.150000X-0.587500X0.150000X0*%
%ADD13RoundRect,0.250000X-0.650000X0.325000X-0.650000X-0.325000X0.650000X-0.325000X0.650000X0.325000X0*%
%ADD14R,1.700000X1.700000*%
%ADD15C,1.700000*%
G04 APERTURE END LIST*
D10*
%TO.C,D7*%
X133881250Y-74087500D03*
X133881250Y-77387500D03*
X138781250Y-77387500D03*
X138781250Y-74087500D03*
%TD*%
D11*
%TO.C,C19*%
X110331250Y-106700000D03*
X110331250Y-108775000D03*
%TD*%
%TO.C,C25*%
X174331250Y-138700000D03*
X174331250Y-140775000D03*
%TD*%
D12*
%TO.C,U8*%
X151393750Y-90787500D03*
X151393750Y-92687500D03*
X153268750Y-91737500D03*
%TD*%
D11*
%TO.C,C24*%
X142331250Y-138700000D03*
X142331250Y-140775000D03*
%TD*%
D10*
%TO.C,D10*%
X101881250Y-106087500D03*
X101881250Y-109387500D03*
X106781250Y-109387500D03*
X106781250Y-106087500D03*
%TD*%
%TO.C,D8*%
X165881250Y-74087500D03*
X165881250Y-77387500D03*
X170781250Y-77387500D03*
X170781250Y-74087500D03*
%TD*%
D12*
%TO.C,U2*%
X87393750Y-90787500D03*
X87393750Y-92687500D03*
X89268750Y-91737500D03*
%TD*%
D10*
%TO.C,D11*%
X133881250Y-106087500D03*
X133881250Y-109387500D03*
X138781250Y-109387500D03*
X138781250Y-106087500D03*
%TD*%
%TO.C,D5*%
X69881250Y-74087500D03*
X69881250Y-77387500D03*
X74781250Y-77387500D03*
X74781250Y-74087500D03*
%TD*%
D11*
%TO.C,C16*%
X142331250Y-74700000D03*
X142331250Y-76775000D03*
%TD*%
D10*
%TO.C,D15*%
X133881250Y-138087500D03*
X133881250Y-141387500D03*
X138781250Y-141387500D03*
X138781250Y-138087500D03*
%TD*%
D11*
%TO.C,C10*%
X78331250Y-42700000D03*
X78331250Y-44775000D03*
%TD*%
%TO.C,C21*%
X174331250Y-106700000D03*
X174331250Y-108775000D03*
%TD*%
D13*
%TO.C,C4*%
X66131250Y-42262500D03*
X66131250Y-45212500D03*
%TD*%
D12*
%TO.C,U1*%
X87393750Y-122787500D03*
X87393750Y-124687500D03*
X89268750Y-123737500D03*
%TD*%
D11*
%TO.C,C12*%
X142331250Y-42700000D03*
X142331250Y-44775000D03*
%TD*%
D12*
%TO.C,U9*%
X151393750Y-58787500D03*
X151393750Y-60687500D03*
X153268750Y-59737500D03*
%TD*%
D13*
%TO.C,C3*%
X65606250Y-74262500D03*
X65606250Y-77212500D03*
%TD*%
D10*
%TO.C,D9*%
X69881250Y-106087500D03*
X69881250Y-109387500D03*
X74781250Y-109387500D03*
X74781250Y-106087500D03*
%TD*%
D11*
%TO.C,C14*%
X78331250Y-74700000D03*
X78331250Y-76775000D03*
%TD*%
D10*
%TO.C,D14*%
X101881250Y-138087500D03*
X101881250Y-141387500D03*
X106781250Y-141387500D03*
X106781250Y-138087500D03*
%TD*%
D13*
%TO.C,C1*%
X65606250Y-138262500D03*
X65606250Y-141212500D03*
%TD*%
D12*
%TO.C,U6*%
X119393750Y-58787500D03*
X119393750Y-60687500D03*
X121268750Y-59737500D03*
%TD*%
D11*
%TO.C,C20*%
X142331250Y-106700000D03*
X142331250Y-108775000D03*
%TD*%
%TO.C,C18*%
X78331250Y-106700000D03*
X78331250Y-108775000D03*
%TD*%
D10*
%TO.C,D12*%
X165881250Y-106087500D03*
X165881250Y-109387500D03*
X170781250Y-109387500D03*
X170781250Y-106087500D03*
%TD*%
%TO.C,D16*%
X165881250Y-138087500D03*
X165881250Y-141387500D03*
X170781250Y-141387500D03*
X170781250Y-138087500D03*
%TD*%
%TO.C,D13*%
X69881250Y-138087500D03*
X69881250Y-141387500D03*
X74781250Y-141387500D03*
X74781250Y-138087500D03*
%TD*%
D12*
%TO.C,U5*%
X119393750Y-90787500D03*
X119393750Y-92687500D03*
X121268750Y-91737500D03*
%TD*%
D10*
%TO.C,D4*%
X165881250Y-42087500D03*
X165881250Y-45387500D03*
X170781250Y-45387500D03*
X170781250Y-42087500D03*
%TD*%
D13*
%TO.C,C2*%
X65606250Y-106262500D03*
X65606250Y-109212500D03*
%TD*%
D12*
%TO.C,U3*%
X87393750Y-58787500D03*
X87393750Y-60687500D03*
X89268750Y-59737500D03*
%TD*%
D10*
%TO.C,D2*%
X101881250Y-42087500D03*
X101881250Y-45387500D03*
X106781250Y-45387500D03*
X106781250Y-42087500D03*
%TD*%
D11*
%TO.C,C17*%
X174331250Y-74700000D03*
X174331250Y-76775000D03*
%TD*%
D10*
%TO.C,D1*%
X69881250Y-42087500D03*
X69881250Y-45387500D03*
X74781250Y-45387500D03*
X74781250Y-42087500D03*
%TD*%
%TO.C,D6*%
X101881250Y-74087500D03*
X101881250Y-77387500D03*
X106781250Y-77387500D03*
X106781250Y-74087500D03*
%TD*%
D11*
%TO.C,C11*%
X110331250Y-42700000D03*
X110331250Y-44775000D03*
%TD*%
%TO.C,C13*%
X174331250Y-42700000D03*
X174331250Y-44775000D03*
%TD*%
D10*
%TO.C,D3*%
X133881250Y-42087500D03*
X133881250Y-45387500D03*
X138781250Y-45387500D03*
X138781250Y-42087500D03*
%TD*%
D12*
%TO.C,U4*%
X119393750Y-122787500D03*
X119393750Y-124687500D03*
X121268750Y-123737500D03*
%TD*%
%TO.C,U7*%
X151393750Y-122787500D03*
X151393750Y-124687500D03*
X153268750Y-123737500D03*
%TD*%
D11*
%TO.C,C22*%
X78331250Y-138700000D03*
X78331250Y-140775000D03*
%TD*%
%TO.C,C15*%
X110331250Y-74700000D03*
X110331250Y-76775000D03*
%TD*%
%TO.C,C23*%
X110331250Y-138700000D03*
X110331250Y-140775000D03*
%TD*%
D14*
%TO.C,J1*%
X100461250Y-145787500D03*
D15*
X100461250Y-148327500D03*
X97921250Y-145787500D03*
X97921250Y-148327500D03*
X95381250Y-145787500D03*
X95381250Y-148327500D03*
X92841250Y-145787500D03*
X92841250Y-148327500D03*
X90301250Y-145787500D03*
X90301250Y-148327500D03*
X87761250Y-145787500D03*
X87761250Y-148327500D03*
X85221250Y-145787500D03*
X85221250Y-148327500D03*
X82681250Y-145787500D03*
X82681250Y-148327500D03*
X80141250Y-145787500D03*
X80141250Y-148327500D03*
X77601250Y-145787500D03*
X77601250Y-148327500D03*
X75061250Y-145787500D03*
X75061250Y-148327500D03*
X72521250Y-145787500D03*
X72521250Y-148327500D03*
X69981250Y-145787500D03*
X69981250Y-148327500D03*
%TD*%
M02*
