%TF.GenerationSoftware,KiCad,Pcbnew,10.0.3*%
%TF.CreationDate,2026-06-07T20:16:12-04:00*%
%TF.ProjectId,openchess-board-3x3,6f70656e-6368-4657-9373-2d626f617264,rev?*%
%TF.SameCoordinates,Original*%
%TF.FileFunction,Legend,Top*%
%TF.FilePolarity,Positive*%
%FSLAX46Y46*%
G04 Gerber Fmt 4.6, Leading zero omitted, Abs format (unit mm)*
G04 Created by KiCad (PCBNEW 10.0.3) date 2026-06-07 20:16:12*
%MOMM*%
%LPD*%
G01*
G04 APERTURE LIST*
%ADD10C,0.150000*%
%ADD11C,0.250000*%
%ADD12C,0.350000*%
%ADD13C,0.300000*%
%ADD14C,0.400000*%
%ADD15C,0.120000*%
G04 APERTURE END LIST*
D10*
X67931250Y-37737500D02*
G75*
G02*
X64731250Y-37737500I-1600000J0D01*
G01*
X64731250Y-37737500D02*
G75*
G02*
X67931250Y-37737500I1600000J0D01*
G01*
X72331250Y-43737500D02*
X72331250Y-139737500D01*
X72331250Y-43737500D02*
X168331250Y-43737500D01*
X72331250Y-75737500D02*
X168331250Y-75737500D01*
X72331250Y-107737500D02*
X168331250Y-107737500D01*
X72331250Y-139737500D02*
X168331250Y-139737500D01*
X104331250Y-43737500D02*
X104331250Y-139737500D01*
X136331250Y-43737500D02*
X136331250Y-139737500D01*
X168331250Y-43737500D02*
X168331250Y-139737500D01*
X175931250Y-37737500D02*
G75*
G02*
X172731250Y-37737500I-1600000J0D01*
G01*
X172731250Y-37737500D02*
G75*
G02*
X175931250Y-37737500I1600000J0D01*
G01*
X175931250Y-145737500D02*
G75*
G02*
X172731250Y-145737500I-1600000J0D01*
G01*
X172731250Y-145737500D02*
G75*
G02*
X175931250Y-145737500I1600000J0D01*
G01*
X111759821Y-39992319D02*
X111759821Y-38992319D01*
X111759821Y-38992319D02*
X112140773Y-38992319D01*
X112140773Y-38992319D02*
X112236011Y-39039938D01*
X112236011Y-39039938D02*
X112283630Y-39087557D01*
X112283630Y-39087557D02*
X112331249Y-39182795D01*
X112331249Y-39182795D02*
X112331249Y-39325652D01*
X112331249Y-39325652D02*
X112283630Y-39420890D01*
X112283630Y-39420890D02*
X112236011Y-39468509D01*
X112236011Y-39468509D02*
X112140773Y-39516128D01*
X112140773Y-39516128D02*
X111759821Y-39516128D01*
X113188392Y-39992319D02*
X113188392Y-39468509D01*
X113188392Y-39468509D02*
X113140773Y-39373271D01*
X113140773Y-39373271D02*
X113045535Y-39325652D01*
X113045535Y-39325652D02*
X112855059Y-39325652D01*
X112855059Y-39325652D02*
X112759821Y-39373271D01*
X113188392Y-39944700D02*
X113093154Y-39992319D01*
X113093154Y-39992319D02*
X112855059Y-39992319D01*
X112855059Y-39992319D02*
X112759821Y-39944700D01*
X112759821Y-39944700D02*
X112712202Y-39849461D01*
X112712202Y-39849461D02*
X112712202Y-39754223D01*
X112712202Y-39754223D02*
X112759821Y-39658985D01*
X112759821Y-39658985D02*
X112855059Y-39611366D01*
X112855059Y-39611366D02*
X113093154Y-39611366D01*
X113093154Y-39611366D02*
X113188392Y-39563747D01*
X113807440Y-39992319D02*
X113712202Y-39944700D01*
X113712202Y-39944700D02*
X113664583Y-39897080D01*
X113664583Y-39897080D02*
X113616964Y-39801842D01*
X113616964Y-39801842D02*
X113616964Y-39516128D01*
X113616964Y-39516128D02*
X113664583Y-39420890D01*
X113664583Y-39420890D02*
X113712202Y-39373271D01*
X113712202Y-39373271D02*
X113807440Y-39325652D01*
X113807440Y-39325652D02*
X113950297Y-39325652D01*
X113950297Y-39325652D02*
X114045535Y-39373271D01*
X114045535Y-39373271D02*
X114093154Y-39420890D01*
X114093154Y-39420890D02*
X114140773Y-39516128D01*
X114140773Y-39516128D02*
X114140773Y-39801842D01*
X114140773Y-39801842D02*
X114093154Y-39897080D01*
X114093154Y-39897080D02*
X114045535Y-39944700D01*
X114045535Y-39944700D02*
X113950297Y-39992319D01*
X113950297Y-39992319D02*
X113807440Y-39992319D01*
X114712202Y-39992319D02*
X114616964Y-39944700D01*
X114616964Y-39944700D02*
X114569345Y-39849461D01*
X114569345Y-39849461D02*
X114569345Y-38992319D01*
X115236012Y-39992319D02*
X115140774Y-39944700D01*
X115140774Y-39944700D02*
X115093155Y-39897080D01*
X115093155Y-39897080D02*
X115045536Y-39801842D01*
X115045536Y-39801842D02*
X115045536Y-39516128D01*
X115045536Y-39516128D02*
X115093155Y-39420890D01*
X115093155Y-39420890D02*
X115140774Y-39373271D01*
X115140774Y-39373271D02*
X115236012Y-39325652D01*
X115236012Y-39325652D02*
X115378869Y-39325652D01*
X115378869Y-39325652D02*
X115474107Y-39373271D01*
X115474107Y-39373271D02*
X115521726Y-39420890D01*
X115521726Y-39420890D02*
X115569345Y-39516128D01*
X115569345Y-39516128D02*
X115569345Y-39801842D01*
X115569345Y-39801842D02*
X115521726Y-39897080D01*
X115521726Y-39897080D02*
X115474107Y-39944700D01*
X115474107Y-39944700D02*
X115378869Y-39992319D01*
X115378869Y-39992319D02*
X115236012Y-39992319D01*
X116759822Y-39992319D02*
X116759822Y-38992319D01*
X116759822Y-38992319D02*
X117331250Y-39992319D01*
X117331250Y-39992319D02*
X117331250Y-38992319D01*
X118188393Y-39944700D02*
X118093155Y-39992319D01*
X118093155Y-39992319D02*
X117902679Y-39992319D01*
X117902679Y-39992319D02*
X117807441Y-39944700D01*
X117807441Y-39944700D02*
X117759822Y-39849461D01*
X117759822Y-39849461D02*
X117759822Y-39468509D01*
X117759822Y-39468509D02*
X117807441Y-39373271D01*
X117807441Y-39373271D02*
X117902679Y-39325652D01*
X117902679Y-39325652D02*
X118093155Y-39325652D01*
X118093155Y-39325652D02*
X118188393Y-39373271D01*
X118188393Y-39373271D02*
X118236012Y-39468509D01*
X118236012Y-39468509D02*
X118236012Y-39563747D01*
X118236012Y-39563747D02*
X117759822Y-39658985D01*
X118616965Y-39944700D02*
X118712203Y-39992319D01*
X118712203Y-39992319D02*
X118902679Y-39992319D01*
X118902679Y-39992319D02*
X118997917Y-39944700D01*
X118997917Y-39944700D02*
X119045536Y-39849461D01*
X119045536Y-39849461D02*
X119045536Y-39801842D01*
X119045536Y-39801842D02*
X118997917Y-39706604D01*
X118997917Y-39706604D02*
X118902679Y-39658985D01*
X118902679Y-39658985D02*
X118759822Y-39658985D01*
X118759822Y-39658985D02*
X118664584Y-39611366D01*
X118664584Y-39611366D02*
X118616965Y-39516128D01*
X118616965Y-39516128D02*
X118616965Y-39468509D01*
X118616965Y-39468509D02*
X118664584Y-39373271D01*
X118664584Y-39373271D02*
X118759822Y-39325652D01*
X118759822Y-39325652D02*
X118902679Y-39325652D01*
X118902679Y-39325652D02*
X118997917Y-39373271D01*
X119426489Y-39944700D02*
X119521727Y-39992319D01*
X119521727Y-39992319D02*
X119712203Y-39992319D01*
X119712203Y-39992319D02*
X119807441Y-39944700D01*
X119807441Y-39944700D02*
X119855060Y-39849461D01*
X119855060Y-39849461D02*
X119855060Y-39801842D01*
X119855060Y-39801842D02*
X119807441Y-39706604D01*
X119807441Y-39706604D02*
X119712203Y-39658985D01*
X119712203Y-39658985D02*
X119569346Y-39658985D01*
X119569346Y-39658985D02*
X119474108Y-39611366D01*
X119474108Y-39611366D02*
X119426489Y-39516128D01*
X119426489Y-39516128D02*
X119426489Y-39468509D01*
X119426489Y-39468509D02*
X119474108Y-39373271D01*
X119474108Y-39373271D02*
X119569346Y-39325652D01*
X119569346Y-39325652D02*
X119712203Y-39325652D01*
X119712203Y-39325652D02*
X119807441Y-39373271D01*
X120283632Y-39992319D02*
X120283632Y-39325652D01*
X120283632Y-38992319D02*
X120236013Y-39039938D01*
X120236013Y-39039938D02*
X120283632Y-39087557D01*
X120283632Y-39087557D02*
X120331251Y-39039938D01*
X120331251Y-39039938D02*
X120283632Y-38992319D01*
X120283632Y-38992319D02*
X120283632Y-39087557D01*
X120759822Y-39992319D02*
X120759822Y-39325652D01*
X120759822Y-39420890D02*
X120807441Y-39373271D01*
X120807441Y-39373271D02*
X120902679Y-39325652D01*
X120902679Y-39325652D02*
X121045536Y-39325652D01*
X121045536Y-39325652D02*
X121140774Y-39373271D01*
X121140774Y-39373271D02*
X121188393Y-39468509D01*
X121188393Y-39468509D02*
X121188393Y-39992319D01*
X121188393Y-39468509D02*
X121236012Y-39373271D01*
X121236012Y-39373271D02*
X121331250Y-39325652D01*
X121331250Y-39325652D02*
X121474107Y-39325652D01*
X121474107Y-39325652D02*
X121569346Y-39373271D01*
X121569346Y-39373271D02*
X121616965Y-39468509D01*
X121616965Y-39468509D02*
X121616965Y-39992319D01*
X124188393Y-39992319D02*
X123855060Y-39516128D01*
X123616965Y-39992319D02*
X123616965Y-38992319D01*
X123616965Y-38992319D02*
X123997917Y-38992319D01*
X123997917Y-38992319D02*
X124093155Y-39039938D01*
X124093155Y-39039938D02*
X124140774Y-39087557D01*
X124140774Y-39087557D02*
X124188393Y-39182795D01*
X124188393Y-39182795D02*
X124188393Y-39325652D01*
X124188393Y-39325652D02*
X124140774Y-39420890D01*
X124140774Y-39420890D02*
X124093155Y-39468509D01*
X124093155Y-39468509D02*
X123997917Y-39516128D01*
X123997917Y-39516128D02*
X123616965Y-39516128D01*
X124997917Y-39944700D02*
X124902679Y-39992319D01*
X124902679Y-39992319D02*
X124712203Y-39992319D01*
X124712203Y-39992319D02*
X124616965Y-39944700D01*
X124616965Y-39944700D02*
X124569346Y-39849461D01*
X124569346Y-39849461D02*
X124569346Y-39468509D01*
X124569346Y-39468509D02*
X124616965Y-39373271D01*
X124616965Y-39373271D02*
X124712203Y-39325652D01*
X124712203Y-39325652D02*
X124902679Y-39325652D01*
X124902679Y-39325652D02*
X124997917Y-39373271D01*
X124997917Y-39373271D02*
X125045536Y-39468509D01*
X125045536Y-39468509D02*
X125045536Y-39563747D01*
X125045536Y-39563747D02*
X124569346Y-39658985D01*
X125378870Y-39325652D02*
X125616965Y-39992319D01*
X125616965Y-39992319D02*
X125855060Y-39325652D01*
X127188394Y-38992319D02*
X127283632Y-38992319D01*
X127283632Y-38992319D02*
X127378870Y-39039938D01*
X127378870Y-39039938D02*
X127426489Y-39087557D01*
X127426489Y-39087557D02*
X127474108Y-39182795D01*
X127474108Y-39182795D02*
X127521727Y-39373271D01*
X127521727Y-39373271D02*
X127521727Y-39611366D01*
X127521727Y-39611366D02*
X127474108Y-39801842D01*
X127474108Y-39801842D02*
X127426489Y-39897080D01*
X127426489Y-39897080D02*
X127378870Y-39944700D01*
X127378870Y-39944700D02*
X127283632Y-39992319D01*
X127283632Y-39992319D02*
X127188394Y-39992319D01*
X127188394Y-39992319D02*
X127093156Y-39944700D01*
X127093156Y-39944700D02*
X127045537Y-39897080D01*
X127045537Y-39897080D02*
X126997918Y-39801842D01*
X126997918Y-39801842D02*
X126950299Y-39611366D01*
X126950299Y-39611366D02*
X126950299Y-39373271D01*
X126950299Y-39373271D02*
X126997918Y-39182795D01*
X126997918Y-39182795D02*
X127045537Y-39087557D01*
X127045537Y-39087557D02*
X127093156Y-39039938D01*
X127093156Y-39039938D02*
X127188394Y-38992319D01*
X127950299Y-39897080D02*
X127997918Y-39944700D01*
X127997918Y-39944700D02*
X127950299Y-39992319D01*
X127950299Y-39992319D02*
X127902680Y-39944700D01*
X127902680Y-39944700D02*
X127950299Y-39897080D01*
X127950299Y-39897080D02*
X127950299Y-39992319D01*
X128950298Y-39992319D02*
X128378870Y-39992319D01*
X128664584Y-39992319D02*
X128664584Y-38992319D01*
X128664584Y-38992319D02*
X128569346Y-39135176D01*
X128569346Y-39135176D02*
X128474108Y-39230414D01*
X128474108Y-39230414D02*
X128378870Y-39278033D01*
D11*
X87259822Y-64989857D02*
X87974108Y-64989857D01*
X87116965Y-65418428D02*
X87616965Y-63918428D01*
X87616965Y-63918428D02*
X88116965Y-65418428D01*
X88474107Y-63918428D02*
X89402679Y-63918428D01*
X89402679Y-63918428D02*
X88902679Y-64489857D01*
X88902679Y-64489857D02*
X89116964Y-64489857D01*
X89116964Y-64489857D02*
X89259822Y-64561285D01*
X89259822Y-64561285D02*
X89331250Y-64632714D01*
X89331250Y-64632714D02*
X89402679Y-64775571D01*
X89402679Y-64775571D02*
X89402679Y-65132714D01*
X89402679Y-65132714D02*
X89331250Y-65275571D01*
X89331250Y-65275571D02*
X89259822Y-65347000D01*
X89259822Y-65347000D02*
X89116964Y-65418428D01*
X89116964Y-65418428D02*
X88688393Y-65418428D01*
X88688393Y-65418428D02*
X88545536Y-65347000D01*
X88545536Y-65347000D02*
X88474107Y-65275571D01*
X87259822Y-96989857D02*
X87974108Y-96989857D01*
X87116965Y-97418428D02*
X87616965Y-95918428D01*
X87616965Y-95918428D02*
X88116965Y-97418428D01*
X88545536Y-96061285D02*
X88616964Y-95989857D01*
X88616964Y-95989857D02*
X88759822Y-95918428D01*
X88759822Y-95918428D02*
X89116964Y-95918428D01*
X89116964Y-95918428D02*
X89259822Y-95989857D01*
X89259822Y-95989857D02*
X89331250Y-96061285D01*
X89331250Y-96061285D02*
X89402679Y-96204142D01*
X89402679Y-96204142D02*
X89402679Y-96347000D01*
X89402679Y-96347000D02*
X89331250Y-96561285D01*
X89331250Y-96561285D02*
X88474107Y-97418428D01*
X88474107Y-97418428D02*
X89402679Y-97418428D01*
X87259822Y-128989857D02*
X87974108Y-128989857D01*
X87116965Y-129418428D02*
X87616965Y-127918428D01*
X87616965Y-127918428D02*
X88116965Y-129418428D01*
X89402679Y-129418428D02*
X88545536Y-129418428D01*
X88974107Y-129418428D02*
X88974107Y-127918428D01*
X88974107Y-127918428D02*
X88831250Y-128132714D01*
X88831250Y-128132714D02*
X88688393Y-128275571D01*
X88688393Y-128275571D02*
X88545536Y-128347000D01*
X119724107Y-64632714D02*
X119938393Y-64704142D01*
X119938393Y-64704142D02*
X120009822Y-64775571D01*
X120009822Y-64775571D02*
X120081250Y-64918428D01*
X120081250Y-64918428D02*
X120081250Y-65132714D01*
X120081250Y-65132714D02*
X120009822Y-65275571D01*
X120009822Y-65275571D02*
X119938393Y-65347000D01*
X119938393Y-65347000D02*
X119795536Y-65418428D01*
X119795536Y-65418428D02*
X119224107Y-65418428D01*
X119224107Y-65418428D02*
X119224107Y-63918428D01*
X119224107Y-63918428D02*
X119724107Y-63918428D01*
X119724107Y-63918428D02*
X119866965Y-63989857D01*
X119866965Y-63989857D02*
X119938393Y-64061285D01*
X119938393Y-64061285D02*
X120009822Y-64204142D01*
X120009822Y-64204142D02*
X120009822Y-64347000D01*
X120009822Y-64347000D02*
X119938393Y-64489857D01*
X119938393Y-64489857D02*
X119866965Y-64561285D01*
X119866965Y-64561285D02*
X119724107Y-64632714D01*
X119724107Y-64632714D02*
X119224107Y-64632714D01*
X120581250Y-63918428D02*
X121509822Y-63918428D01*
X121509822Y-63918428D02*
X121009822Y-64489857D01*
X121009822Y-64489857D02*
X121224107Y-64489857D01*
X121224107Y-64489857D02*
X121366965Y-64561285D01*
X121366965Y-64561285D02*
X121438393Y-64632714D01*
X121438393Y-64632714D02*
X121509822Y-64775571D01*
X121509822Y-64775571D02*
X121509822Y-65132714D01*
X121509822Y-65132714D02*
X121438393Y-65275571D01*
X121438393Y-65275571D02*
X121366965Y-65347000D01*
X121366965Y-65347000D02*
X121224107Y-65418428D01*
X121224107Y-65418428D02*
X120795536Y-65418428D01*
X120795536Y-65418428D02*
X120652679Y-65347000D01*
X120652679Y-65347000D02*
X120581250Y-65275571D01*
X119724107Y-96632714D02*
X119938393Y-96704142D01*
X119938393Y-96704142D02*
X120009822Y-96775571D01*
X120009822Y-96775571D02*
X120081250Y-96918428D01*
X120081250Y-96918428D02*
X120081250Y-97132714D01*
X120081250Y-97132714D02*
X120009822Y-97275571D01*
X120009822Y-97275571D02*
X119938393Y-97347000D01*
X119938393Y-97347000D02*
X119795536Y-97418428D01*
X119795536Y-97418428D02*
X119224107Y-97418428D01*
X119224107Y-97418428D02*
X119224107Y-95918428D01*
X119224107Y-95918428D02*
X119724107Y-95918428D01*
X119724107Y-95918428D02*
X119866965Y-95989857D01*
X119866965Y-95989857D02*
X119938393Y-96061285D01*
X119938393Y-96061285D02*
X120009822Y-96204142D01*
X120009822Y-96204142D02*
X120009822Y-96347000D01*
X120009822Y-96347000D02*
X119938393Y-96489857D01*
X119938393Y-96489857D02*
X119866965Y-96561285D01*
X119866965Y-96561285D02*
X119724107Y-96632714D01*
X119724107Y-96632714D02*
X119224107Y-96632714D01*
X120652679Y-96061285D02*
X120724107Y-95989857D01*
X120724107Y-95989857D02*
X120866965Y-95918428D01*
X120866965Y-95918428D02*
X121224107Y-95918428D01*
X121224107Y-95918428D02*
X121366965Y-95989857D01*
X121366965Y-95989857D02*
X121438393Y-96061285D01*
X121438393Y-96061285D02*
X121509822Y-96204142D01*
X121509822Y-96204142D02*
X121509822Y-96347000D01*
X121509822Y-96347000D02*
X121438393Y-96561285D01*
X121438393Y-96561285D02*
X120581250Y-97418428D01*
X120581250Y-97418428D02*
X121509822Y-97418428D01*
X119724107Y-128632714D02*
X119938393Y-128704142D01*
X119938393Y-128704142D02*
X120009822Y-128775571D01*
X120009822Y-128775571D02*
X120081250Y-128918428D01*
X120081250Y-128918428D02*
X120081250Y-129132714D01*
X120081250Y-129132714D02*
X120009822Y-129275571D01*
X120009822Y-129275571D02*
X119938393Y-129347000D01*
X119938393Y-129347000D02*
X119795536Y-129418428D01*
X119795536Y-129418428D02*
X119224107Y-129418428D01*
X119224107Y-129418428D02*
X119224107Y-127918428D01*
X119224107Y-127918428D02*
X119724107Y-127918428D01*
X119724107Y-127918428D02*
X119866965Y-127989857D01*
X119866965Y-127989857D02*
X119938393Y-128061285D01*
X119938393Y-128061285D02*
X120009822Y-128204142D01*
X120009822Y-128204142D02*
X120009822Y-128347000D01*
X120009822Y-128347000D02*
X119938393Y-128489857D01*
X119938393Y-128489857D02*
X119866965Y-128561285D01*
X119866965Y-128561285D02*
X119724107Y-128632714D01*
X119724107Y-128632714D02*
X119224107Y-128632714D01*
X121509822Y-129418428D02*
X120652679Y-129418428D01*
X121081250Y-129418428D02*
X121081250Y-127918428D01*
X121081250Y-127918428D02*
X120938393Y-128132714D01*
X120938393Y-128132714D02*
X120795536Y-128275571D01*
X120795536Y-128275571D02*
X120652679Y-128347000D01*
X152081250Y-65275571D02*
X152009822Y-65347000D01*
X152009822Y-65347000D02*
X151795536Y-65418428D01*
X151795536Y-65418428D02*
X151652679Y-65418428D01*
X151652679Y-65418428D02*
X151438393Y-65347000D01*
X151438393Y-65347000D02*
X151295536Y-65204142D01*
X151295536Y-65204142D02*
X151224107Y-65061285D01*
X151224107Y-65061285D02*
X151152679Y-64775571D01*
X151152679Y-64775571D02*
X151152679Y-64561285D01*
X151152679Y-64561285D02*
X151224107Y-64275571D01*
X151224107Y-64275571D02*
X151295536Y-64132714D01*
X151295536Y-64132714D02*
X151438393Y-63989857D01*
X151438393Y-63989857D02*
X151652679Y-63918428D01*
X151652679Y-63918428D02*
X151795536Y-63918428D01*
X151795536Y-63918428D02*
X152009822Y-63989857D01*
X152009822Y-63989857D02*
X152081250Y-64061285D01*
X152581250Y-63918428D02*
X153509822Y-63918428D01*
X153509822Y-63918428D02*
X153009822Y-64489857D01*
X153009822Y-64489857D02*
X153224107Y-64489857D01*
X153224107Y-64489857D02*
X153366965Y-64561285D01*
X153366965Y-64561285D02*
X153438393Y-64632714D01*
X153438393Y-64632714D02*
X153509822Y-64775571D01*
X153509822Y-64775571D02*
X153509822Y-65132714D01*
X153509822Y-65132714D02*
X153438393Y-65275571D01*
X153438393Y-65275571D02*
X153366965Y-65347000D01*
X153366965Y-65347000D02*
X153224107Y-65418428D01*
X153224107Y-65418428D02*
X152795536Y-65418428D01*
X152795536Y-65418428D02*
X152652679Y-65347000D01*
X152652679Y-65347000D02*
X152581250Y-65275571D01*
X152081250Y-97275571D02*
X152009822Y-97347000D01*
X152009822Y-97347000D02*
X151795536Y-97418428D01*
X151795536Y-97418428D02*
X151652679Y-97418428D01*
X151652679Y-97418428D02*
X151438393Y-97347000D01*
X151438393Y-97347000D02*
X151295536Y-97204142D01*
X151295536Y-97204142D02*
X151224107Y-97061285D01*
X151224107Y-97061285D02*
X151152679Y-96775571D01*
X151152679Y-96775571D02*
X151152679Y-96561285D01*
X151152679Y-96561285D02*
X151224107Y-96275571D01*
X151224107Y-96275571D02*
X151295536Y-96132714D01*
X151295536Y-96132714D02*
X151438393Y-95989857D01*
X151438393Y-95989857D02*
X151652679Y-95918428D01*
X151652679Y-95918428D02*
X151795536Y-95918428D01*
X151795536Y-95918428D02*
X152009822Y-95989857D01*
X152009822Y-95989857D02*
X152081250Y-96061285D01*
X152652679Y-96061285D02*
X152724107Y-95989857D01*
X152724107Y-95989857D02*
X152866965Y-95918428D01*
X152866965Y-95918428D02*
X153224107Y-95918428D01*
X153224107Y-95918428D02*
X153366965Y-95989857D01*
X153366965Y-95989857D02*
X153438393Y-96061285D01*
X153438393Y-96061285D02*
X153509822Y-96204142D01*
X153509822Y-96204142D02*
X153509822Y-96347000D01*
X153509822Y-96347000D02*
X153438393Y-96561285D01*
X153438393Y-96561285D02*
X152581250Y-97418428D01*
X152581250Y-97418428D02*
X153509822Y-97418428D01*
X152081250Y-129275571D02*
X152009822Y-129347000D01*
X152009822Y-129347000D02*
X151795536Y-129418428D01*
X151795536Y-129418428D02*
X151652679Y-129418428D01*
X151652679Y-129418428D02*
X151438393Y-129347000D01*
X151438393Y-129347000D02*
X151295536Y-129204142D01*
X151295536Y-129204142D02*
X151224107Y-129061285D01*
X151224107Y-129061285D02*
X151152679Y-128775571D01*
X151152679Y-128775571D02*
X151152679Y-128561285D01*
X151152679Y-128561285D02*
X151224107Y-128275571D01*
X151224107Y-128275571D02*
X151295536Y-128132714D01*
X151295536Y-128132714D02*
X151438393Y-127989857D01*
X151438393Y-127989857D02*
X151652679Y-127918428D01*
X151652679Y-127918428D02*
X151795536Y-127918428D01*
X151795536Y-127918428D02*
X152009822Y-127989857D01*
X152009822Y-127989857D02*
X152081250Y-128061285D01*
X153509822Y-129418428D02*
X152652679Y-129418428D01*
X153081250Y-129418428D02*
X153081250Y-127918428D01*
X153081250Y-127918428D02*
X152938393Y-128132714D01*
X152938393Y-128132714D02*
X152795536Y-128275571D01*
X152795536Y-128275571D02*
X152652679Y-128347000D01*
D12*
X98236009Y-35444538D02*
X98616962Y-35444538D01*
X98616962Y-35444538D02*
X98807438Y-35539776D01*
X98807438Y-35539776D02*
X98997914Y-35730252D01*
X98997914Y-35730252D02*
X99093152Y-36111204D01*
X99093152Y-36111204D02*
X99093152Y-36777871D01*
X99093152Y-36777871D02*
X98997914Y-37158823D01*
X98997914Y-37158823D02*
X98807438Y-37349300D01*
X98807438Y-37349300D02*
X98616962Y-37444538D01*
X98616962Y-37444538D02*
X98236009Y-37444538D01*
X98236009Y-37444538D02*
X98045533Y-37349300D01*
X98045533Y-37349300D02*
X97855057Y-37158823D01*
X97855057Y-37158823D02*
X97759819Y-36777871D01*
X97759819Y-36777871D02*
X97759819Y-36111204D01*
X97759819Y-36111204D02*
X97855057Y-35730252D01*
X97855057Y-35730252D02*
X98045533Y-35539776D01*
X98045533Y-35539776D02*
X98236009Y-35444538D01*
X99950295Y-36111204D02*
X99950295Y-38111204D01*
X99950295Y-36206442D02*
X100140771Y-36111204D01*
X100140771Y-36111204D02*
X100521724Y-36111204D01*
X100521724Y-36111204D02*
X100712200Y-36206442D01*
X100712200Y-36206442D02*
X100807438Y-36301680D01*
X100807438Y-36301680D02*
X100902676Y-36492157D01*
X100902676Y-36492157D02*
X100902676Y-37063585D01*
X100902676Y-37063585D02*
X100807438Y-37254061D01*
X100807438Y-37254061D02*
X100712200Y-37349300D01*
X100712200Y-37349300D02*
X100521724Y-37444538D01*
X100521724Y-37444538D02*
X100140771Y-37444538D01*
X100140771Y-37444538D02*
X99950295Y-37349300D01*
X102521724Y-37349300D02*
X102331248Y-37444538D01*
X102331248Y-37444538D02*
X101950295Y-37444538D01*
X101950295Y-37444538D02*
X101759819Y-37349300D01*
X101759819Y-37349300D02*
X101664581Y-37158823D01*
X101664581Y-37158823D02*
X101664581Y-36396919D01*
X101664581Y-36396919D02*
X101759819Y-36206442D01*
X101759819Y-36206442D02*
X101950295Y-36111204D01*
X101950295Y-36111204D02*
X102331248Y-36111204D01*
X102331248Y-36111204D02*
X102521724Y-36206442D01*
X102521724Y-36206442D02*
X102616962Y-36396919D01*
X102616962Y-36396919D02*
X102616962Y-36587395D01*
X102616962Y-36587395D02*
X101664581Y-36777871D01*
X103474105Y-36111204D02*
X103474105Y-37444538D01*
X103474105Y-36301680D02*
X103569343Y-36206442D01*
X103569343Y-36206442D02*
X103759819Y-36111204D01*
X103759819Y-36111204D02*
X104045534Y-36111204D01*
X104045534Y-36111204D02*
X104236010Y-36206442D01*
X104236010Y-36206442D02*
X104331248Y-36396919D01*
X104331248Y-36396919D02*
X104331248Y-37444538D01*
X106426486Y-37254061D02*
X106331248Y-37349300D01*
X106331248Y-37349300D02*
X106045534Y-37444538D01*
X106045534Y-37444538D02*
X105855058Y-37444538D01*
X105855058Y-37444538D02*
X105569343Y-37349300D01*
X105569343Y-37349300D02*
X105378867Y-37158823D01*
X105378867Y-37158823D02*
X105283629Y-36968347D01*
X105283629Y-36968347D02*
X105188391Y-36587395D01*
X105188391Y-36587395D02*
X105188391Y-36301680D01*
X105188391Y-36301680D02*
X105283629Y-35920728D01*
X105283629Y-35920728D02*
X105378867Y-35730252D01*
X105378867Y-35730252D02*
X105569343Y-35539776D01*
X105569343Y-35539776D02*
X105855058Y-35444538D01*
X105855058Y-35444538D02*
X106045534Y-35444538D01*
X106045534Y-35444538D02*
X106331248Y-35539776D01*
X106331248Y-35539776D02*
X106426486Y-35635014D01*
X107283629Y-37444538D02*
X107283629Y-35444538D01*
X108140772Y-37444538D02*
X108140772Y-36396919D01*
X108140772Y-36396919D02*
X108045534Y-36206442D01*
X108045534Y-36206442D02*
X107855058Y-36111204D01*
X107855058Y-36111204D02*
X107569343Y-36111204D01*
X107569343Y-36111204D02*
X107378867Y-36206442D01*
X107378867Y-36206442D02*
X107283629Y-36301680D01*
X109855058Y-37349300D02*
X109664582Y-37444538D01*
X109664582Y-37444538D02*
X109283629Y-37444538D01*
X109283629Y-37444538D02*
X109093153Y-37349300D01*
X109093153Y-37349300D02*
X108997915Y-37158823D01*
X108997915Y-37158823D02*
X108997915Y-36396919D01*
X108997915Y-36396919D02*
X109093153Y-36206442D01*
X109093153Y-36206442D02*
X109283629Y-36111204D01*
X109283629Y-36111204D02*
X109664582Y-36111204D01*
X109664582Y-36111204D02*
X109855058Y-36206442D01*
X109855058Y-36206442D02*
X109950296Y-36396919D01*
X109950296Y-36396919D02*
X109950296Y-36587395D01*
X109950296Y-36587395D02*
X108997915Y-36777871D01*
X110712201Y-37349300D02*
X110902677Y-37444538D01*
X110902677Y-37444538D02*
X111283629Y-37444538D01*
X111283629Y-37444538D02*
X111474106Y-37349300D01*
X111474106Y-37349300D02*
X111569344Y-37158823D01*
X111569344Y-37158823D02*
X111569344Y-37063585D01*
X111569344Y-37063585D02*
X111474106Y-36873109D01*
X111474106Y-36873109D02*
X111283629Y-36777871D01*
X111283629Y-36777871D02*
X110997915Y-36777871D01*
X110997915Y-36777871D02*
X110807439Y-36682633D01*
X110807439Y-36682633D02*
X110712201Y-36492157D01*
X110712201Y-36492157D02*
X110712201Y-36396919D01*
X110712201Y-36396919D02*
X110807439Y-36206442D01*
X110807439Y-36206442D02*
X110997915Y-36111204D01*
X110997915Y-36111204D02*
X111283629Y-36111204D01*
X111283629Y-36111204D02*
X111474106Y-36206442D01*
X112331249Y-37349300D02*
X112521725Y-37444538D01*
X112521725Y-37444538D02*
X112902677Y-37444538D01*
X112902677Y-37444538D02*
X113093154Y-37349300D01*
X113093154Y-37349300D02*
X113188392Y-37158823D01*
X113188392Y-37158823D02*
X113188392Y-37063585D01*
X113188392Y-37063585D02*
X113093154Y-36873109D01*
X113093154Y-36873109D02*
X112902677Y-36777871D01*
X112902677Y-36777871D02*
X112616963Y-36777871D01*
X112616963Y-36777871D02*
X112426487Y-36682633D01*
X112426487Y-36682633D02*
X112331249Y-36492157D01*
X112331249Y-36492157D02*
X112331249Y-36396919D01*
X112331249Y-36396919D02*
X112426487Y-36206442D01*
X112426487Y-36206442D02*
X112616963Y-36111204D01*
X112616963Y-36111204D02*
X112902677Y-36111204D01*
X112902677Y-36111204D02*
X113093154Y-36206442D01*
X115378869Y-36777871D02*
X117093155Y-36777871D01*
X119188393Y-35444538D02*
X120426488Y-35444538D01*
X120426488Y-35444538D02*
X119759821Y-36206442D01*
X119759821Y-36206442D02*
X120045536Y-36206442D01*
X120045536Y-36206442D02*
X120236012Y-36301680D01*
X120236012Y-36301680D02*
X120331250Y-36396919D01*
X120331250Y-36396919D02*
X120426488Y-36587395D01*
X120426488Y-36587395D02*
X120426488Y-37063585D01*
X120426488Y-37063585D02*
X120331250Y-37254061D01*
X120331250Y-37254061D02*
X120236012Y-37349300D01*
X120236012Y-37349300D02*
X120045536Y-37444538D01*
X120045536Y-37444538D02*
X119474107Y-37444538D01*
X119474107Y-37444538D02*
X119283631Y-37349300D01*
X119283631Y-37349300D02*
X119188393Y-37254061D01*
X121474107Y-36111204D02*
X122616964Y-37254061D01*
X122616964Y-36111204D02*
X121474107Y-37254061D01*
X123569345Y-35444538D02*
X124807440Y-35444538D01*
X124807440Y-35444538D02*
X124140773Y-36206442D01*
X124140773Y-36206442D02*
X124426488Y-36206442D01*
X124426488Y-36206442D02*
X124616964Y-36301680D01*
X124616964Y-36301680D02*
X124712202Y-36396919D01*
X124712202Y-36396919D02*
X124807440Y-36587395D01*
X124807440Y-36587395D02*
X124807440Y-37063585D01*
X124807440Y-37063585D02*
X124712202Y-37254061D01*
X124712202Y-37254061D02*
X124616964Y-37349300D01*
X124616964Y-37349300D02*
X124426488Y-37444538D01*
X124426488Y-37444538D02*
X123855059Y-37444538D01*
X123855059Y-37444538D02*
X123664583Y-37349300D01*
X123664583Y-37349300D02*
X123569345Y-37254061D01*
X126902679Y-35444538D02*
X128045536Y-35444538D01*
X127474107Y-37444538D02*
X127474107Y-35444538D01*
X129474108Y-37349300D02*
X129283632Y-37444538D01*
X129283632Y-37444538D02*
X128902679Y-37444538D01*
X128902679Y-37444538D02*
X128712203Y-37349300D01*
X128712203Y-37349300D02*
X128616965Y-37158823D01*
X128616965Y-37158823D02*
X128616965Y-36396919D01*
X128616965Y-36396919D02*
X128712203Y-36206442D01*
X128712203Y-36206442D02*
X128902679Y-36111204D01*
X128902679Y-36111204D02*
X129283632Y-36111204D01*
X129283632Y-36111204D02*
X129474108Y-36206442D01*
X129474108Y-36206442D02*
X129569346Y-36396919D01*
X129569346Y-36396919D02*
X129569346Y-36587395D01*
X129569346Y-36587395D02*
X128616965Y-36777871D01*
X130331251Y-37349300D02*
X130521727Y-37444538D01*
X130521727Y-37444538D02*
X130902679Y-37444538D01*
X130902679Y-37444538D02*
X131093156Y-37349300D01*
X131093156Y-37349300D02*
X131188394Y-37158823D01*
X131188394Y-37158823D02*
X131188394Y-37063585D01*
X131188394Y-37063585D02*
X131093156Y-36873109D01*
X131093156Y-36873109D02*
X130902679Y-36777871D01*
X130902679Y-36777871D02*
X130616965Y-36777871D01*
X130616965Y-36777871D02*
X130426489Y-36682633D01*
X130426489Y-36682633D02*
X130331251Y-36492157D01*
X130331251Y-36492157D02*
X130331251Y-36396919D01*
X130331251Y-36396919D02*
X130426489Y-36206442D01*
X130426489Y-36206442D02*
X130616965Y-36111204D01*
X130616965Y-36111204D02*
X130902679Y-36111204D01*
X130902679Y-36111204D02*
X131093156Y-36206442D01*
X131759823Y-36111204D02*
X132521727Y-36111204D01*
X132045537Y-35444538D02*
X132045537Y-37158823D01*
X132045537Y-37158823D02*
X132140775Y-37349300D01*
X132140775Y-37349300D02*
X132331251Y-37444538D01*
X132331251Y-37444538D02*
X132521727Y-37444538D01*
X134712204Y-37444538D02*
X134712204Y-35444538D01*
X134712204Y-35444538D02*
X135378871Y-36873109D01*
X135378871Y-36873109D02*
X136045537Y-35444538D01*
X136045537Y-35444538D02*
X136045537Y-37444538D01*
X137855061Y-37444538D02*
X137855061Y-36396919D01*
X137855061Y-36396919D02*
X137759823Y-36206442D01*
X137759823Y-36206442D02*
X137569347Y-36111204D01*
X137569347Y-36111204D02*
X137188394Y-36111204D01*
X137188394Y-36111204D02*
X136997918Y-36206442D01*
X137855061Y-37349300D02*
X137664585Y-37444538D01*
X137664585Y-37444538D02*
X137188394Y-37444538D01*
X137188394Y-37444538D02*
X136997918Y-37349300D01*
X136997918Y-37349300D02*
X136902680Y-37158823D01*
X136902680Y-37158823D02*
X136902680Y-36968347D01*
X136902680Y-36968347D02*
X136997918Y-36777871D01*
X136997918Y-36777871D02*
X137188394Y-36682633D01*
X137188394Y-36682633D02*
X137664585Y-36682633D01*
X137664585Y-36682633D02*
X137855061Y-36587395D01*
X138521728Y-36111204D02*
X139283632Y-36111204D01*
X138807442Y-35444538D02*
X138807442Y-37158823D01*
X138807442Y-37158823D02*
X138902680Y-37349300D01*
X138902680Y-37349300D02*
X139093156Y-37444538D01*
X139093156Y-37444538D02*
X139283632Y-37444538D01*
X139950299Y-37444538D02*
X139950299Y-36111204D01*
X139950299Y-36492157D02*
X140045537Y-36301680D01*
X140045537Y-36301680D02*
X140140775Y-36206442D01*
X140140775Y-36206442D02*
X140331251Y-36111204D01*
X140331251Y-36111204D02*
X140521728Y-36111204D01*
X141188394Y-37444538D02*
X141188394Y-36111204D01*
X141188394Y-35444538D02*
X141093156Y-35539776D01*
X141093156Y-35539776D02*
X141188394Y-35635014D01*
X141188394Y-35635014D02*
X141283632Y-35539776D01*
X141283632Y-35539776D02*
X141188394Y-35444538D01*
X141188394Y-35444538D02*
X141188394Y-35635014D01*
X141950299Y-37444538D02*
X142997918Y-36111204D01*
X141950299Y-36111204D02*
X142997918Y-37444538D01*
D13*
X65497916Y-58378447D02*
X67045535Y-58378447D01*
X67045535Y-58378447D02*
X66212202Y-59330828D01*
X66212202Y-59330828D02*
X66569345Y-59330828D01*
X66569345Y-59330828D02*
X66807440Y-59449876D01*
X66807440Y-59449876D02*
X66926488Y-59568923D01*
X66926488Y-59568923D02*
X67045535Y-59807019D01*
X67045535Y-59807019D02*
X67045535Y-60402257D01*
X67045535Y-60402257D02*
X66926488Y-60640352D01*
X66926488Y-60640352D02*
X66807440Y-60759400D01*
X66807440Y-60759400D02*
X66569345Y-60878447D01*
X66569345Y-60878447D02*
X65855059Y-60878447D01*
X65855059Y-60878447D02*
X65616964Y-60759400D01*
X65616964Y-60759400D02*
X65497916Y-60640352D01*
X65616964Y-90616542D02*
X65736012Y-90497495D01*
X65736012Y-90497495D02*
X65974107Y-90378447D01*
X65974107Y-90378447D02*
X66569345Y-90378447D01*
X66569345Y-90378447D02*
X66807440Y-90497495D01*
X66807440Y-90497495D02*
X66926488Y-90616542D01*
X66926488Y-90616542D02*
X67045535Y-90854638D01*
X67045535Y-90854638D02*
X67045535Y-91092733D01*
X67045535Y-91092733D02*
X66926488Y-91449876D01*
X66926488Y-91449876D02*
X65497916Y-92878447D01*
X65497916Y-92878447D02*
X67045535Y-92878447D01*
X120509821Y-145568923D02*
X120866964Y-145687971D01*
X120866964Y-145687971D02*
X120986011Y-145807019D01*
X120986011Y-145807019D02*
X121105059Y-146045114D01*
X121105059Y-146045114D02*
X121105059Y-146402257D01*
X121105059Y-146402257D02*
X120986011Y-146640352D01*
X120986011Y-146640352D02*
X120866964Y-146759400D01*
X120866964Y-146759400D02*
X120628869Y-146878447D01*
X120628869Y-146878447D02*
X119676488Y-146878447D01*
X119676488Y-146878447D02*
X119676488Y-144378447D01*
X119676488Y-144378447D02*
X120509821Y-144378447D01*
X120509821Y-144378447D02*
X120747916Y-144497495D01*
X120747916Y-144497495D02*
X120866964Y-144616542D01*
X120866964Y-144616542D02*
X120986011Y-144854638D01*
X120986011Y-144854638D02*
X120986011Y-145092733D01*
X120986011Y-145092733D02*
X120866964Y-145330828D01*
X120866964Y-145330828D02*
X120747916Y-145449876D01*
X120747916Y-145449876D02*
X120509821Y-145568923D01*
X120509821Y-145568923D02*
X119676488Y-145568923D01*
X153105059Y-146640352D02*
X152986011Y-146759400D01*
X152986011Y-146759400D02*
X152628869Y-146878447D01*
X152628869Y-146878447D02*
X152390773Y-146878447D01*
X152390773Y-146878447D02*
X152033630Y-146759400D01*
X152033630Y-146759400D02*
X151795535Y-146521304D01*
X151795535Y-146521304D02*
X151676488Y-146283209D01*
X151676488Y-146283209D02*
X151557440Y-145807019D01*
X151557440Y-145807019D02*
X151557440Y-145449876D01*
X151557440Y-145449876D02*
X151676488Y-144973685D01*
X151676488Y-144973685D02*
X151795535Y-144735590D01*
X151795535Y-144735590D02*
X152033630Y-144497495D01*
X152033630Y-144497495D02*
X152390773Y-144378447D01*
X152390773Y-144378447D02*
X152628869Y-144378447D01*
X152628869Y-144378447D02*
X152986011Y-144497495D01*
X152986011Y-144497495D02*
X153105059Y-144616542D01*
D14*
X172926878Y-65023214D02*
X173069735Y-64594642D01*
X173069735Y-64594642D02*
X173212592Y-64451785D01*
X173212592Y-64451785D02*
X173498307Y-64308928D01*
X173498307Y-64308928D02*
X173926878Y-64308928D01*
X173926878Y-64308928D02*
X174212592Y-64451785D01*
X174212592Y-64451785D02*
X174355450Y-64594642D01*
X174355450Y-64594642D02*
X174498307Y-64880357D01*
X174498307Y-64880357D02*
X174498307Y-66023214D01*
X174498307Y-66023214D02*
X171498307Y-66023214D01*
X171498307Y-66023214D02*
X171498307Y-65023214D01*
X171498307Y-65023214D02*
X171641164Y-64737500D01*
X171641164Y-64737500D02*
X171784021Y-64594642D01*
X171784021Y-64594642D02*
X172069735Y-64451785D01*
X172069735Y-64451785D02*
X172355450Y-64451785D01*
X172355450Y-64451785D02*
X172641164Y-64594642D01*
X172641164Y-64594642D02*
X172784021Y-64737500D01*
X172784021Y-64737500D02*
X172926878Y-65023214D01*
X172926878Y-65023214D02*
X172926878Y-66023214D01*
X174498307Y-61594642D02*
X174498307Y-63023214D01*
X174498307Y-63023214D02*
X171498307Y-63023214D01*
X173641164Y-60737500D02*
X173641164Y-59308929D01*
X174498307Y-61023214D02*
X171498307Y-60023214D01*
X171498307Y-60023214D02*
X174498307Y-59023214D01*
X174212592Y-56308928D02*
X174355450Y-56451785D01*
X174355450Y-56451785D02*
X174498307Y-56880357D01*
X174498307Y-56880357D02*
X174498307Y-57166071D01*
X174498307Y-57166071D02*
X174355450Y-57594642D01*
X174355450Y-57594642D02*
X174069735Y-57880357D01*
X174069735Y-57880357D02*
X173784021Y-58023214D01*
X173784021Y-58023214D02*
X173212592Y-58166071D01*
X173212592Y-58166071D02*
X172784021Y-58166071D01*
X172784021Y-58166071D02*
X172212592Y-58023214D01*
X172212592Y-58023214D02*
X171926878Y-57880357D01*
X171926878Y-57880357D02*
X171641164Y-57594642D01*
X171641164Y-57594642D02*
X171498307Y-57166071D01*
X171498307Y-57166071D02*
X171498307Y-56880357D01*
X171498307Y-56880357D02*
X171641164Y-56451785D01*
X171641164Y-56451785D02*
X171784021Y-56308928D01*
X174498307Y-55023214D02*
X171498307Y-55023214D01*
X174498307Y-53308928D02*
X172784021Y-54594642D01*
X171498307Y-53308928D02*
X173212592Y-55023214D01*
D10*
X135593155Y-72692319D02*
X135593155Y-71692319D01*
X135593155Y-71692319D02*
X135831250Y-71692319D01*
X135831250Y-71692319D02*
X135974107Y-71739938D01*
X135974107Y-71739938D02*
X136069345Y-71835176D01*
X136069345Y-71835176D02*
X136116964Y-71930414D01*
X136116964Y-71930414D02*
X136164583Y-72120890D01*
X136164583Y-72120890D02*
X136164583Y-72263747D01*
X136164583Y-72263747D02*
X136116964Y-72454223D01*
X136116964Y-72454223D02*
X136069345Y-72549461D01*
X136069345Y-72549461D02*
X135974107Y-72644700D01*
X135974107Y-72644700D02*
X135831250Y-72692319D01*
X135831250Y-72692319D02*
X135593155Y-72692319D01*
X136497917Y-71692319D02*
X137164583Y-71692319D01*
X137164583Y-71692319D02*
X136736012Y-72692319D01*
X132559821Y-74499795D02*
X132102678Y-74499795D01*
X132331250Y-74499795D02*
X132331250Y-73699795D01*
X132331250Y-73699795D02*
X132255059Y-73814080D01*
X132255059Y-73814080D02*
X132178869Y-73890271D01*
X132178869Y-73890271D02*
X132102678Y-73928366D01*
X112370830Y-108380357D02*
X112418450Y-108427976D01*
X112418450Y-108427976D02*
X112466069Y-108570833D01*
X112466069Y-108570833D02*
X112466069Y-108666071D01*
X112466069Y-108666071D02*
X112418450Y-108808928D01*
X112418450Y-108808928D02*
X112323211Y-108904166D01*
X112323211Y-108904166D02*
X112227973Y-108951785D01*
X112227973Y-108951785D02*
X112037497Y-108999404D01*
X112037497Y-108999404D02*
X111894640Y-108999404D01*
X111894640Y-108999404D02*
X111704164Y-108951785D01*
X111704164Y-108951785D02*
X111608926Y-108904166D01*
X111608926Y-108904166D02*
X111513688Y-108808928D01*
X111513688Y-108808928D02*
X111466069Y-108666071D01*
X111466069Y-108666071D02*
X111466069Y-108570833D01*
X111466069Y-108570833D02*
X111513688Y-108427976D01*
X111513688Y-108427976D02*
X111561307Y-108380357D01*
X112466069Y-107427976D02*
X112466069Y-107999404D01*
X112466069Y-107713690D02*
X111466069Y-107713690D01*
X111466069Y-107713690D02*
X111608926Y-107808928D01*
X111608926Y-107808928D02*
X111704164Y-107904166D01*
X111704164Y-107904166D02*
X111751783Y-107999404D01*
X112466069Y-106951785D02*
X112466069Y-106761309D01*
X112466069Y-106761309D02*
X112418450Y-106666071D01*
X112418450Y-106666071D02*
X112370830Y-106618452D01*
X112370830Y-106618452D02*
X112227973Y-106523214D01*
X112227973Y-106523214D02*
X112037497Y-106475595D01*
X112037497Y-106475595D02*
X111656545Y-106475595D01*
X111656545Y-106475595D02*
X111561307Y-106523214D01*
X111561307Y-106523214D02*
X111513688Y-106570833D01*
X111513688Y-106570833D02*
X111466069Y-106666071D01*
X111466069Y-106666071D02*
X111466069Y-106856547D01*
X111466069Y-106856547D02*
X111513688Y-106951785D01*
X111513688Y-106951785D02*
X111561307Y-106999404D01*
X111561307Y-106999404D02*
X111656545Y-107047023D01*
X111656545Y-107047023D02*
X111894640Y-107047023D01*
X111894640Y-107047023D02*
X111989878Y-106999404D01*
X111989878Y-106999404D02*
X112037497Y-106951785D01*
X112037497Y-106951785D02*
X112085116Y-106856547D01*
X112085116Y-106856547D02*
X112085116Y-106666071D01*
X112085116Y-106666071D02*
X112037497Y-106570833D01*
X112037497Y-106570833D02*
X111989878Y-106523214D01*
X111989878Y-106523214D02*
X111894640Y-106475595D01*
X176370830Y-140380357D02*
X176418450Y-140427976D01*
X176418450Y-140427976D02*
X176466069Y-140570833D01*
X176466069Y-140570833D02*
X176466069Y-140666071D01*
X176466069Y-140666071D02*
X176418450Y-140808928D01*
X176418450Y-140808928D02*
X176323211Y-140904166D01*
X176323211Y-140904166D02*
X176227973Y-140951785D01*
X176227973Y-140951785D02*
X176037497Y-140999404D01*
X176037497Y-140999404D02*
X175894640Y-140999404D01*
X175894640Y-140999404D02*
X175704164Y-140951785D01*
X175704164Y-140951785D02*
X175608926Y-140904166D01*
X175608926Y-140904166D02*
X175513688Y-140808928D01*
X175513688Y-140808928D02*
X175466069Y-140666071D01*
X175466069Y-140666071D02*
X175466069Y-140570833D01*
X175466069Y-140570833D02*
X175513688Y-140427976D01*
X175513688Y-140427976D02*
X175561307Y-140380357D01*
X175561307Y-139999404D02*
X175513688Y-139951785D01*
X175513688Y-139951785D02*
X175466069Y-139856547D01*
X175466069Y-139856547D02*
X175466069Y-139618452D01*
X175466069Y-139618452D02*
X175513688Y-139523214D01*
X175513688Y-139523214D02*
X175561307Y-139475595D01*
X175561307Y-139475595D02*
X175656545Y-139427976D01*
X175656545Y-139427976D02*
X175751783Y-139427976D01*
X175751783Y-139427976D02*
X175894640Y-139475595D01*
X175894640Y-139475595D02*
X176466069Y-140047023D01*
X176466069Y-140047023D02*
X176466069Y-139427976D01*
X175466069Y-138523214D02*
X175466069Y-138999404D01*
X175466069Y-138999404D02*
X175942259Y-139047023D01*
X175942259Y-139047023D02*
X175894640Y-138999404D01*
X175894640Y-138999404D02*
X175847021Y-138904166D01*
X175847021Y-138904166D02*
X175847021Y-138666071D01*
X175847021Y-138666071D02*
X175894640Y-138570833D01*
X175894640Y-138570833D02*
X175942259Y-138523214D01*
X175942259Y-138523214D02*
X176037497Y-138475595D01*
X176037497Y-138475595D02*
X176275592Y-138475595D01*
X176275592Y-138475595D02*
X176370830Y-138523214D01*
X176370830Y-138523214D02*
X176418450Y-138570833D01*
X176418450Y-138570833D02*
X176466069Y-138666071D01*
X176466069Y-138666071D02*
X176466069Y-138904166D01*
X176466069Y-138904166D02*
X176418450Y-138999404D01*
X176418450Y-138999404D02*
X176370830Y-139047023D01*
X151569345Y-88792319D02*
X151569345Y-89601842D01*
X151569345Y-89601842D02*
X151616964Y-89697080D01*
X151616964Y-89697080D02*
X151664583Y-89744700D01*
X151664583Y-89744700D02*
X151759821Y-89792319D01*
X151759821Y-89792319D02*
X151950297Y-89792319D01*
X151950297Y-89792319D02*
X152045535Y-89744700D01*
X152045535Y-89744700D02*
X152093154Y-89697080D01*
X152093154Y-89697080D02*
X152140773Y-89601842D01*
X152140773Y-89601842D02*
X152140773Y-88792319D01*
X152759821Y-89220890D02*
X152664583Y-89173271D01*
X152664583Y-89173271D02*
X152616964Y-89125652D01*
X152616964Y-89125652D02*
X152569345Y-89030414D01*
X152569345Y-89030414D02*
X152569345Y-88982795D01*
X152569345Y-88982795D02*
X152616964Y-88887557D01*
X152616964Y-88887557D02*
X152664583Y-88839938D01*
X152664583Y-88839938D02*
X152759821Y-88792319D01*
X152759821Y-88792319D02*
X152950297Y-88792319D01*
X152950297Y-88792319D02*
X153045535Y-88839938D01*
X153045535Y-88839938D02*
X153093154Y-88887557D01*
X153093154Y-88887557D02*
X153140773Y-88982795D01*
X153140773Y-88982795D02*
X153140773Y-89030414D01*
X153140773Y-89030414D02*
X153093154Y-89125652D01*
X153093154Y-89125652D02*
X153045535Y-89173271D01*
X153045535Y-89173271D02*
X152950297Y-89220890D01*
X152950297Y-89220890D02*
X152759821Y-89220890D01*
X152759821Y-89220890D02*
X152664583Y-89268509D01*
X152664583Y-89268509D02*
X152616964Y-89316128D01*
X152616964Y-89316128D02*
X152569345Y-89411366D01*
X152569345Y-89411366D02*
X152569345Y-89601842D01*
X152569345Y-89601842D02*
X152616964Y-89697080D01*
X152616964Y-89697080D02*
X152664583Y-89744700D01*
X152664583Y-89744700D02*
X152759821Y-89792319D01*
X152759821Y-89792319D02*
X152950297Y-89792319D01*
X152950297Y-89792319D02*
X153045535Y-89744700D01*
X153045535Y-89744700D02*
X153093154Y-89697080D01*
X153093154Y-89697080D02*
X153140773Y-89601842D01*
X153140773Y-89601842D02*
X153140773Y-89411366D01*
X153140773Y-89411366D02*
X153093154Y-89316128D01*
X153093154Y-89316128D02*
X153045535Y-89268509D01*
X153045535Y-89268509D02*
X152950297Y-89220890D01*
X144370830Y-140380357D02*
X144418450Y-140427976D01*
X144418450Y-140427976D02*
X144466069Y-140570833D01*
X144466069Y-140570833D02*
X144466069Y-140666071D01*
X144466069Y-140666071D02*
X144418450Y-140808928D01*
X144418450Y-140808928D02*
X144323211Y-140904166D01*
X144323211Y-140904166D02*
X144227973Y-140951785D01*
X144227973Y-140951785D02*
X144037497Y-140999404D01*
X144037497Y-140999404D02*
X143894640Y-140999404D01*
X143894640Y-140999404D02*
X143704164Y-140951785D01*
X143704164Y-140951785D02*
X143608926Y-140904166D01*
X143608926Y-140904166D02*
X143513688Y-140808928D01*
X143513688Y-140808928D02*
X143466069Y-140666071D01*
X143466069Y-140666071D02*
X143466069Y-140570833D01*
X143466069Y-140570833D02*
X143513688Y-140427976D01*
X143513688Y-140427976D02*
X143561307Y-140380357D01*
X143561307Y-139999404D02*
X143513688Y-139951785D01*
X143513688Y-139951785D02*
X143466069Y-139856547D01*
X143466069Y-139856547D02*
X143466069Y-139618452D01*
X143466069Y-139618452D02*
X143513688Y-139523214D01*
X143513688Y-139523214D02*
X143561307Y-139475595D01*
X143561307Y-139475595D02*
X143656545Y-139427976D01*
X143656545Y-139427976D02*
X143751783Y-139427976D01*
X143751783Y-139427976D02*
X143894640Y-139475595D01*
X143894640Y-139475595D02*
X144466069Y-140047023D01*
X144466069Y-140047023D02*
X144466069Y-139427976D01*
X143799402Y-138570833D02*
X144466069Y-138570833D01*
X143418450Y-138808928D02*
X144132735Y-139047023D01*
X144132735Y-139047023D02*
X144132735Y-138427976D01*
X103116964Y-104692319D02*
X103116964Y-103692319D01*
X103116964Y-103692319D02*
X103355059Y-103692319D01*
X103355059Y-103692319D02*
X103497916Y-103739938D01*
X103497916Y-103739938D02*
X103593154Y-103835176D01*
X103593154Y-103835176D02*
X103640773Y-103930414D01*
X103640773Y-103930414D02*
X103688392Y-104120890D01*
X103688392Y-104120890D02*
X103688392Y-104263747D01*
X103688392Y-104263747D02*
X103640773Y-104454223D01*
X103640773Y-104454223D02*
X103593154Y-104549461D01*
X103593154Y-104549461D02*
X103497916Y-104644700D01*
X103497916Y-104644700D02*
X103355059Y-104692319D01*
X103355059Y-104692319D02*
X103116964Y-104692319D01*
X104640773Y-104692319D02*
X104069345Y-104692319D01*
X104355059Y-104692319D02*
X104355059Y-103692319D01*
X104355059Y-103692319D02*
X104259821Y-103835176D01*
X104259821Y-103835176D02*
X104164583Y-103930414D01*
X104164583Y-103930414D02*
X104069345Y-103978033D01*
X105259821Y-103692319D02*
X105355059Y-103692319D01*
X105355059Y-103692319D02*
X105450297Y-103739938D01*
X105450297Y-103739938D02*
X105497916Y-103787557D01*
X105497916Y-103787557D02*
X105545535Y-103882795D01*
X105545535Y-103882795D02*
X105593154Y-104073271D01*
X105593154Y-104073271D02*
X105593154Y-104311366D01*
X105593154Y-104311366D02*
X105545535Y-104501842D01*
X105545535Y-104501842D02*
X105497916Y-104597080D01*
X105497916Y-104597080D02*
X105450297Y-104644700D01*
X105450297Y-104644700D02*
X105355059Y-104692319D01*
X105355059Y-104692319D02*
X105259821Y-104692319D01*
X105259821Y-104692319D02*
X105164583Y-104644700D01*
X105164583Y-104644700D02*
X105116964Y-104597080D01*
X105116964Y-104597080D02*
X105069345Y-104501842D01*
X105069345Y-104501842D02*
X105021726Y-104311366D01*
X105021726Y-104311366D02*
X105021726Y-104073271D01*
X105021726Y-104073271D02*
X105069345Y-103882795D01*
X105069345Y-103882795D02*
X105116964Y-103787557D01*
X105116964Y-103787557D02*
X105164583Y-103739938D01*
X105164583Y-103739938D02*
X105259821Y-103692319D01*
X100559821Y-106499795D02*
X100102678Y-106499795D01*
X100331250Y-106499795D02*
X100331250Y-105699795D01*
X100331250Y-105699795D02*
X100255059Y-105814080D01*
X100255059Y-105814080D02*
X100178869Y-105890271D01*
X100178869Y-105890271D02*
X100102678Y-105928366D01*
X167593155Y-72692319D02*
X167593155Y-71692319D01*
X167593155Y-71692319D02*
X167831250Y-71692319D01*
X167831250Y-71692319D02*
X167974107Y-71739938D01*
X167974107Y-71739938D02*
X168069345Y-71835176D01*
X168069345Y-71835176D02*
X168116964Y-71930414D01*
X168116964Y-71930414D02*
X168164583Y-72120890D01*
X168164583Y-72120890D02*
X168164583Y-72263747D01*
X168164583Y-72263747D02*
X168116964Y-72454223D01*
X168116964Y-72454223D02*
X168069345Y-72549461D01*
X168069345Y-72549461D02*
X167974107Y-72644700D01*
X167974107Y-72644700D02*
X167831250Y-72692319D01*
X167831250Y-72692319D02*
X167593155Y-72692319D01*
X168736012Y-72120890D02*
X168640774Y-72073271D01*
X168640774Y-72073271D02*
X168593155Y-72025652D01*
X168593155Y-72025652D02*
X168545536Y-71930414D01*
X168545536Y-71930414D02*
X168545536Y-71882795D01*
X168545536Y-71882795D02*
X168593155Y-71787557D01*
X168593155Y-71787557D02*
X168640774Y-71739938D01*
X168640774Y-71739938D02*
X168736012Y-71692319D01*
X168736012Y-71692319D02*
X168926488Y-71692319D01*
X168926488Y-71692319D02*
X169021726Y-71739938D01*
X169021726Y-71739938D02*
X169069345Y-71787557D01*
X169069345Y-71787557D02*
X169116964Y-71882795D01*
X169116964Y-71882795D02*
X169116964Y-71930414D01*
X169116964Y-71930414D02*
X169069345Y-72025652D01*
X169069345Y-72025652D02*
X169021726Y-72073271D01*
X169021726Y-72073271D02*
X168926488Y-72120890D01*
X168926488Y-72120890D02*
X168736012Y-72120890D01*
X168736012Y-72120890D02*
X168640774Y-72168509D01*
X168640774Y-72168509D02*
X168593155Y-72216128D01*
X168593155Y-72216128D02*
X168545536Y-72311366D01*
X168545536Y-72311366D02*
X168545536Y-72501842D01*
X168545536Y-72501842D02*
X168593155Y-72597080D01*
X168593155Y-72597080D02*
X168640774Y-72644700D01*
X168640774Y-72644700D02*
X168736012Y-72692319D01*
X168736012Y-72692319D02*
X168926488Y-72692319D01*
X168926488Y-72692319D02*
X169021726Y-72644700D01*
X169021726Y-72644700D02*
X169069345Y-72597080D01*
X169069345Y-72597080D02*
X169116964Y-72501842D01*
X169116964Y-72501842D02*
X169116964Y-72311366D01*
X169116964Y-72311366D02*
X169069345Y-72216128D01*
X169069345Y-72216128D02*
X169021726Y-72168509D01*
X169021726Y-72168509D02*
X168926488Y-72120890D01*
X164559821Y-74499795D02*
X164102678Y-74499795D01*
X164331250Y-74499795D02*
X164331250Y-73699795D01*
X164331250Y-73699795D02*
X164255059Y-73814080D01*
X164255059Y-73814080D02*
X164178869Y-73890271D01*
X164178869Y-73890271D02*
X164102678Y-73928366D01*
X87569345Y-88792319D02*
X87569345Y-89601842D01*
X87569345Y-89601842D02*
X87616964Y-89697080D01*
X87616964Y-89697080D02*
X87664583Y-89744700D01*
X87664583Y-89744700D02*
X87759821Y-89792319D01*
X87759821Y-89792319D02*
X87950297Y-89792319D01*
X87950297Y-89792319D02*
X88045535Y-89744700D01*
X88045535Y-89744700D02*
X88093154Y-89697080D01*
X88093154Y-89697080D02*
X88140773Y-89601842D01*
X88140773Y-89601842D02*
X88140773Y-88792319D01*
X88569345Y-88887557D02*
X88616964Y-88839938D01*
X88616964Y-88839938D02*
X88712202Y-88792319D01*
X88712202Y-88792319D02*
X88950297Y-88792319D01*
X88950297Y-88792319D02*
X89045535Y-88839938D01*
X89045535Y-88839938D02*
X89093154Y-88887557D01*
X89093154Y-88887557D02*
X89140773Y-88982795D01*
X89140773Y-88982795D02*
X89140773Y-89078033D01*
X89140773Y-89078033D02*
X89093154Y-89220890D01*
X89093154Y-89220890D02*
X88521726Y-89792319D01*
X88521726Y-89792319D02*
X89140773Y-89792319D01*
X135116964Y-104692319D02*
X135116964Y-103692319D01*
X135116964Y-103692319D02*
X135355059Y-103692319D01*
X135355059Y-103692319D02*
X135497916Y-103739938D01*
X135497916Y-103739938D02*
X135593154Y-103835176D01*
X135593154Y-103835176D02*
X135640773Y-103930414D01*
X135640773Y-103930414D02*
X135688392Y-104120890D01*
X135688392Y-104120890D02*
X135688392Y-104263747D01*
X135688392Y-104263747D02*
X135640773Y-104454223D01*
X135640773Y-104454223D02*
X135593154Y-104549461D01*
X135593154Y-104549461D02*
X135497916Y-104644700D01*
X135497916Y-104644700D02*
X135355059Y-104692319D01*
X135355059Y-104692319D02*
X135116964Y-104692319D01*
X136640773Y-104692319D02*
X136069345Y-104692319D01*
X136355059Y-104692319D02*
X136355059Y-103692319D01*
X136355059Y-103692319D02*
X136259821Y-103835176D01*
X136259821Y-103835176D02*
X136164583Y-103930414D01*
X136164583Y-103930414D02*
X136069345Y-103978033D01*
X137593154Y-104692319D02*
X137021726Y-104692319D01*
X137307440Y-104692319D02*
X137307440Y-103692319D01*
X137307440Y-103692319D02*
X137212202Y-103835176D01*
X137212202Y-103835176D02*
X137116964Y-103930414D01*
X137116964Y-103930414D02*
X137021726Y-103978033D01*
X132559821Y-106499795D02*
X132102678Y-106499795D01*
X132331250Y-106499795D02*
X132331250Y-105699795D01*
X132331250Y-105699795D02*
X132255059Y-105814080D01*
X132255059Y-105814080D02*
X132178869Y-105890271D01*
X132178869Y-105890271D02*
X132102678Y-105928366D01*
X71593155Y-72692319D02*
X71593155Y-71692319D01*
X71593155Y-71692319D02*
X71831250Y-71692319D01*
X71831250Y-71692319D02*
X71974107Y-71739938D01*
X71974107Y-71739938D02*
X72069345Y-71835176D01*
X72069345Y-71835176D02*
X72116964Y-71930414D01*
X72116964Y-71930414D02*
X72164583Y-72120890D01*
X72164583Y-72120890D02*
X72164583Y-72263747D01*
X72164583Y-72263747D02*
X72116964Y-72454223D01*
X72116964Y-72454223D02*
X72069345Y-72549461D01*
X72069345Y-72549461D02*
X71974107Y-72644700D01*
X71974107Y-72644700D02*
X71831250Y-72692319D01*
X71831250Y-72692319D02*
X71593155Y-72692319D01*
X73069345Y-71692319D02*
X72593155Y-71692319D01*
X72593155Y-71692319D02*
X72545536Y-72168509D01*
X72545536Y-72168509D02*
X72593155Y-72120890D01*
X72593155Y-72120890D02*
X72688393Y-72073271D01*
X72688393Y-72073271D02*
X72926488Y-72073271D01*
X72926488Y-72073271D02*
X73021726Y-72120890D01*
X73021726Y-72120890D02*
X73069345Y-72168509D01*
X73069345Y-72168509D02*
X73116964Y-72263747D01*
X73116964Y-72263747D02*
X73116964Y-72501842D01*
X73116964Y-72501842D02*
X73069345Y-72597080D01*
X73069345Y-72597080D02*
X73021726Y-72644700D01*
X73021726Y-72644700D02*
X72926488Y-72692319D01*
X72926488Y-72692319D02*
X72688393Y-72692319D01*
X72688393Y-72692319D02*
X72593155Y-72644700D01*
X72593155Y-72644700D02*
X72545536Y-72597080D01*
X68559821Y-74499795D02*
X68102678Y-74499795D01*
X68331250Y-74499795D02*
X68331250Y-73699795D01*
X68331250Y-73699795D02*
X68255059Y-73814080D01*
X68255059Y-73814080D02*
X68178869Y-73890271D01*
X68178869Y-73890271D02*
X68102678Y-73928366D01*
X144370830Y-76380357D02*
X144418450Y-76427976D01*
X144418450Y-76427976D02*
X144466069Y-76570833D01*
X144466069Y-76570833D02*
X144466069Y-76666071D01*
X144466069Y-76666071D02*
X144418450Y-76808928D01*
X144418450Y-76808928D02*
X144323211Y-76904166D01*
X144323211Y-76904166D02*
X144227973Y-76951785D01*
X144227973Y-76951785D02*
X144037497Y-76999404D01*
X144037497Y-76999404D02*
X143894640Y-76999404D01*
X143894640Y-76999404D02*
X143704164Y-76951785D01*
X143704164Y-76951785D02*
X143608926Y-76904166D01*
X143608926Y-76904166D02*
X143513688Y-76808928D01*
X143513688Y-76808928D02*
X143466069Y-76666071D01*
X143466069Y-76666071D02*
X143466069Y-76570833D01*
X143466069Y-76570833D02*
X143513688Y-76427976D01*
X143513688Y-76427976D02*
X143561307Y-76380357D01*
X144466069Y-75427976D02*
X144466069Y-75999404D01*
X144466069Y-75713690D02*
X143466069Y-75713690D01*
X143466069Y-75713690D02*
X143608926Y-75808928D01*
X143608926Y-75808928D02*
X143704164Y-75904166D01*
X143704164Y-75904166D02*
X143751783Y-75999404D01*
X143466069Y-74570833D02*
X143466069Y-74761309D01*
X143466069Y-74761309D02*
X143513688Y-74856547D01*
X143513688Y-74856547D02*
X143561307Y-74904166D01*
X143561307Y-74904166D02*
X143704164Y-74999404D01*
X143704164Y-74999404D02*
X143894640Y-75047023D01*
X143894640Y-75047023D02*
X144275592Y-75047023D01*
X144275592Y-75047023D02*
X144370830Y-74999404D01*
X144370830Y-74999404D02*
X144418450Y-74951785D01*
X144418450Y-74951785D02*
X144466069Y-74856547D01*
X144466069Y-74856547D02*
X144466069Y-74666071D01*
X144466069Y-74666071D02*
X144418450Y-74570833D01*
X144418450Y-74570833D02*
X144370830Y-74523214D01*
X144370830Y-74523214D02*
X144275592Y-74475595D01*
X144275592Y-74475595D02*
X144037497Y-74475595D01*
X144037497Y-74475595D02*
X143942259Y-74523214D01*
X143942259Y-74523214D02*
X143894640Y-74570833D01*
X143894640Y-74570833D02*
X143847021Y-74666071D01*
X143847021Y-74666071D02*
X143847021Y-74856547D01*
X143847021Y-74856547D02*
X143894640Y-74951785D01*
X143894640Y-74951785D02*
X143942259Y-74999404D01*
X143942259Y-74999404D02*
X144037497Y-75047023D01*
X135116964Y-136692319D02*
X135116964Y-135692319D01*
X135116964Y-135692319D02*
X135355059Y-135692319D01*
X135355059Y-135692319D02*
X135497916Y-135739938D01*
X135497916Y-135739938D02*
X135593154Y-135835176D01*
X135593154Y-135835176D02*
X135640773Y-135930414D01*
X135640773Y-135930414D02*
X135688392Y-136120890D01*
X135688392Y-136120890D02*
X135688392Y-136263747D01*
X135688392Y-136263747D02*
X135640773Y-136454223D01*
X135640773Y-136454223D02*
X135593154Y-136549461D01*
X135593154Y-136549461D02*
X135497916Y-136644700D01*
X135497916Y-136644700D02*
X135355059Y-136692319D01*
X135355059Y-136692319D02*
X135116964Y-136692319D01*
X136640773Y-136692319D02*
X136069345Y-136692319D01*
X136355059Y-136692319D02*
X136355059Y-135692319D01*
X136355059Y-135692319D02*
X136259821Y-135835176D01*
X136259821Y-135835176D02*
X136164583Y-135930414D01*
X136164583Y-135930414D02*
X136069345Y-135978033D01*
X137545535Y-135692319D02*
X137069345Y-135692319D01*
X137069345Y-135692319D02*
X137021726Y-136168509D01*
X137021726Y-136168509D02*
X137069345Y-136120890D01*
X137069345Y-136120890D02*
X137164583Y-136073271D01*
X137164583Y-136073271D02*
X137402678Y-136073271D01*
X137402678Y-136073271D02*
X137497916Y-136120890D01*
X137497916Y-136120890D02*
X137545535Y-136168509D01*
X137545535Y-136168509D02*
X137593154Y-136263747D01*
X137593154Y-136263747D02*
X137593154Y-136501842D01*
X137593154Y-136501842D02*
X137545535Y-136597080D01*
X137545535Y-136597080D02*
X137497916Y-136644700D01*
X137497916Y-136644700D02*
X137402678Y-136692319D01*
X137402678Y-136692319D02*
X137164583Y-136692319D01*
X137164583Y-136692319D02*
X137069345Y-136644700D01*
X137069345Y-136644700D02*
X137021726Y-136597080D01*
X132559821Y-138499795D02*
X132102678Y-138499795D01*
X132331250Y-138499795D02*
X132331250Y-137699795D01*
X132331250Y-137699795D02*
X132255059Y-137814080D01*
X132255059Y-137814080D02*
X132178869Y-137890271D01*
X132178869Y-137890271D02*
X132102678Y-137928366D01*
X80370830Y-44380357D02*
X80418450Y-44427976D01*
X80418450Y-44427976D02*
X80466069Y-44570833D01*
X80466069Y-44570833D02*
X80466069Y-44666071D01*
X80466069Y-44666071D02*
X80418450Y-44808928D01*
X80418450Y-44808928D02*
X80323211Y-44904166D01*
X80323211Y-44904166D02*
X80227973Y-44951785D01*
X80227973Y-44951785D02*
X80037497Y-44999404D01*
X80037497Y-44999404D02*
X79894640Y-44999404D01*
X79894640Y-44999404D02*
X79704164Y-44951785D01*
X79704164Y-44951785D02*
X79608926Y-44904166D01*
X79608926Y-44904166D02*
X79513688Y-44808928D01*
X79513688Y-44808928D02*
X79466069Y-44666071D01*
X79466069Y-44666071D02*
X79466069Y-44570833D01*
X79466069Y-44570833D02*
X79513688Y-44427976D01*
X79513688Y-44427976D02*
X79561307Y-44380357D01*
X80466069Y-43427976D02*
X80466069Y-43999404D01*
X80466069Y-43713690D02*
X79466069Y-43713690D01*
X79466069Y-43713690D02*
X79608926Y-43808928D01*
X79608926Y-43808928D02*
X79704164Y-43904166D01*
X79704164Y-43904166D02*
X79751783Y-43999404D01*
X79466069Y-42808928D02*
X79466069Y-42713690D01*
X79466069Y-42713690D02*
X79513688Y-42618452D01*
X79513688Y-42618452D02*
X79561307Y-42570833D01*
X79561307Y-42570833D02*
X79656545Y-42523214D01*
X79656545Y-42523214D02*
X79847021Y-42475595D01*
X79847021Y-42475595D02*
X80085116Y-42475595D01*
X80085116Y-42475595D02*
X80275592Y-42523214D01*
X80275592Y-42523214D02*
X80370830Y-42570833D01*
X80370830Y-42570833D02*
X80418450Y-42618452D01*
X80418450Y-42618452D02*
X80466069Y-42713690D01*
X80466069Y-42713690D02*
X80466069Y-42808928D01*
X80466069Y-42808928D02*
X80418450Y-42904166D01*
X80418450Y-42904166D02*
X80370830Y-42951785D01*
X80370830Y-42951785D02*
X80275592Y-42999404D01*
X80275592Y-42999404D02*
X80085116Y-43047023D01*
X80085116Y-43047023D02*
X79847021Y-43047023D01*
X79847021Y-43047023D02*
X79656545Y-42999404D01*
X79656545Y-42999404D02*
X79561307Y-42951785D01*
X79561307Y-42951785D02*
X79513688Y-42904166D01*
X79513688Y-42904166D02*
X79466069Y-42808928D01*
X176370830Y-108380357D02*
X176418450Y-108427976D01*
X176418450Y-108427976D02*
X176466069Y-108570833D01*
X176466069Y-108570833D02*
X176466069Y-108666071D01*
X176466069Y-108666071D02*
X176418450Y-108808928D01*
X176418450Y-108808928D02*
X176323211Y-108904166D01*
X176323211Y-108904166D02*
X176227973Y-108951785D01*
X176227973Y-108951785D02*
X176037497Y-108999404D01*
X176037497Y-108999404D02*
X175894640Y-108999404D01*
X175894640Y-108999404D02*
X175704164Y-108951785D01*
X175704164Y-108951785D02*
X175608926Y-108904166D01*
X175608926Y-108904166D02*
X175513688Y-108808928D01*
X175513688Y-108808928D02*
X175466069Y-108666071D01*
X175466069Y-108666071D02*
X175466069Y-108570833D01*
X175466069Y-108570833D02*
X175513688Y-108427976D01*
X175513688Y-108427976D02*
X175561307Y-108380357D01*
X175561307Y-107999404D02*
X175513688Y-107951785D01*
X175513688Y-107951785D02*
X175466069Y-107856547D01*
X175466069Y-107856547D02*
X175466069Y-107618452D01*
X175466069Y-107618452D02*
X175513688Y-107523214D01*
X175513688Y-107523214D02*
X175561307Y-107475595D01*
X175561307Y-107475595D02*
X175656545Y-107427976D01*
X175656545Y-107427976D02*
X175751783Y-107427976D01*
X175751783Y-107427976D02*
X175894640Y-107475595D01*
X175894640Y-107475595D02*
X176466069Y-108047023D01*
X176466069Y-108047023D02*
X176466069Y-107427976D01*
X176466069Y-106475595D02*
X176466069Y-107047023D01*
X176466069Y-106761309D02*
X175466069Y-106761309D01*
X175466069Y-106761309D02*
X175608926Y-106856547D01*
X175608926Y-106856547D02*
X175704164Y-106951785D01*
X175704164Y-106951785D02*
X175751783Y-107047023D01*
X68340830Y-43904166D02*
X68388450Y-43951785D01*
X68388450Y-43951785D02*
X68436069Y-44094642D01*
X68436069Y-44094642D02*
X68436069Y-44189880D01*
X68436069Y-44189880D02*
X68388450Y-44332737D01*
X68388450Y-44332737D02*
X68293211Y-44427975D01*
X68293211Y-44427975D02*
X68197973Y-44475594D01*
X68197973Y-44475594D02*
X68007497Y-44523213D01*
X68007497Y-44523213D02*
X67864640Y-44523213D01*
X67864640Y-44523213D02*
X67674164Y-44475594D01*
X67674164Y-44475594D02*
X67578926Y-44427975D01*
X67578926Y-44427975D02*
X67483688Y-44332737D01*
X67483688Y-44332737D02*
X67436069Y-44189880D01*
X67436069Y-44189880D02*
X67436069Y-44094642D01*
X67436069Y-44094642D02*
X67483688Y-43951785D01*
X67483688Y-43951785D02*
X67531307Y-43904166D01*
X67769402Y-43047023D02*
X68436069Y-43047023D01*
X67388450Y-43285118D02*
X68102735Y-43523213D01*
X68102735Y-43523213D02*
X68102735Y-42904166D01*
X87569345Y-120792319D02*
X87569345Y-121601842D01*
X87569345Y-121601842D02*
X87616964Y-121697080D01*
X87616964Y-121697080D02*
X87664583Y-121744700D01*
X87664583Y-121744700D02*
X87759821Y-121792319D01*
X87759821Y-121792319D02*
X87950297Y-121792319D01*
X87950297Y-121792319D02*
X88045535Y-121744700D01*
X88045535Y-121744700D02*
X88093154Y-121697080D01*
X88093154Y-121697080D02*
X88140773Y-121601842D01*
X88140773Y-121601842D02*
X88140773Y-120792319D01*
X89140773Y-121792319D02*
X88569345Y-121792319D01*
X88855059Y-121792319D02*
X88855059Y-120792319D01*
X88855059Y-120792319D02*
X88759821Y-120935176D01*
X88759821Y-120935176D02*
X88664583Y-121030414D01*
X88664583Y-121030414D02*
X88569345Y-121078033D01*
X144370830Y-44380357D02*
X144418450Y-44427976D01*
X144418450Y-44427976D02*
X144466069Y-44570833D01*
X144466069Y-44570833D02*
X144466069Y-44666071D01*
X144466069Y-44666071D02*
X144418450Y-44808928D01*
X144418450Y-44808928D02*
X144323211Y-44904166D01*
X144323211Y-44904166D02*
X144227973Y-44951785D01*
X144227973Y-44951785D02*
X144037497Y-44999404D01*
X144037497Y-44999404D02*
X143894640Y-44999404D01*
X143894640Y-44999404D02*
X143704164Y-44951785D01*
X143704164Y-44951785D02*
X143608926Y-44904166D01*
X143608926Y-44904166D02*
X143513688Y-44808928D01*
X143513688Y-44808928D02*
X143466069Y-44666071D01*
X143466069Y-44666071D02*
X143466069Y-44570833D01*
X143466069Y-44570833D02*
X143513688Y-44427976D01*
X143513688Y-44427976D02*
X143561307Y-44380357D01*
X144466069Y-43427976D02*
X144466069Y-43999404D01*
X144466069Y-43713690D02*
X143466069Y-43713690D01*
X143466069Y-43713690D02*
X143608926Y-43808928D01*
X143608926Y-43808928D02*
X143704164Y-43904166D01*
X143704164Y-43904166D02*
X143751783Y-43999404D01*
X143561307Y-43047023D02*
X143513688Y-42999404D01*
X143513688Y-42999404D02*
X143466069Y-42904166D01*
X143466069Y-42904166D02*
X143466069Y-42666071D01*
X143466069Y-42666071D02*
X143513688Y-42570833D01*
X143513688Y-42570833D02*
X143561307Y-42523214D01*
X143561307Y-42523214D02*
X143656545Y-42475595D01*
X143656545Y-42475595D02*
X143751783Y-42475595D01*
X143751783Y-42475595D02*
X143894640Y-42523214D01*
X143894640Y-42523214D02*
X144466069Y-43094642D01*
X144466069Y-43094642D02*
X144466069Y-42475595D01*
X151569345Y-56792319D02*
X151569345Y-57601842D01*
X151569345Y-57601842D02*
X151616964Y-57697080D01*
X151616964Y-57697080D02*
X151664583Y-57744700D01*
X151664583Y-57744700D02*
X151759821Y-57792319D01*
X151759821Y-57792319D02*
X151950297Y-57792319D01*
X151950297Y-57792319D02*
X152045535Y-57744700D01*
X152045535Y-57744700D02*
X152093154Y-57697080D01*
X152093154Y-57697080D02*
X152140773Y-57601842D01*
X152140773Y-57601842D02*
X152140773Y-56792319D01*
X152664583Y-57792319D02*
X152855059Y-57792319D01*
X152855059Y-57792319D02*
X152950297Y-57744700D01*
X152950297Y-57744700D02*
X152997916Y-57697080D01*
X152997916Y-57697080D02*
X153093154Y-57554223D01*
X153093154Y-57554223D02*
X153140773Y-57363747D01*
X153140773Y-57363747D02*
X153140773Y-56982795D01*
X153140773Y-56982795D02*
X153093154Y-56887557D01*
X153093154Y-56887557D02*
X153045535Y-56839938D01*
X153045535Y-56839938D02*
X152950297Y-56792319D01*
X152950297Y-56792319D02*
X152759821Y-56792319D01*
X152759821Y-56792319D02*
X152664583Y-56839938D01*
X152664583Y-56839938D02*
X152616964Y-56887557D01*
X152616964Y-56887557D02*
X152569345Y-56982795D01*
X152569345Y-56982795D02*
X152569345Y-57220890D01*
X152569345Y-57220890D02*
X152616964Y-57316128D01*
X152616964Y-57316128D02*
X152664583Y-57363747D01*
X152664583Y-57363747D02*
X152759821Y-57411366D01*
X152759821Y-57411366D02*
X152950297Y-57411366D01*
X152950297Y-57411366D02*
X153045535Y-57363747D01*
X153045535Y-57363747D02*
X153093154Y-57316128D01*
X153093154Y-57316128D02*
X153140773Y-57220890D01*
X67815830Y-75904166D02*
X67863450Y-75951785D01*
X67863450Y-75951785D02*
X67911069Y-76094642D01*
X67911069Y-76094642D02*
X67911069Y-76189880D01*
X67911069Y-76189880D02*
X67863450Y-76332737D01*
X67863450Y-76332737D02*
X67768211Y-76427975D01*
X67768211Y-76427975D02*
X67672973Y-76475594D01*
X67672973Y-76475594D02*
X67482497Y-76523213D01*
X67482497Y-76523213D02*
X67339640Y-76523213D01*
X67339640Y-76523213D02*
X67149164Y-76475594D01*
X67149164Y-76475594D02*
X67053926Y-76427975D01*
X67053926Y-76427975D02*
X66958688Y-76332737D01*
X66958688Y-76332737D02*
X66911069Y-76189880D01*
X66911069Y-76189880D02*
X66911069Y-76094642D01*
X66911069Y-76094642D02*
X66958688Y-75951785D01*
X66958688Y-75951785D02*
X67006307Y-75904166D01*
X66911069Y-75570832D02*
X66911069Y-74951785D01*
X66911069Y-74951785D02*
X67292021Y-75285118D01*
X67292021Y-75285118D02*
X67292021Y-75142261D01*
X67292021Y-75142261D02*
X67339640Y-75047023D01*
X67339640Y-75047023D02*
X67387259Y-74999404D01*
X67387259Y-74999404D02*
X67482497Y-74951785D01*
X67482497Y-74951785D02*
X67720592Y-74951785D01*
X67720592Y-74951785D02*
X67815830Y-74999404D01*
X67815830Y-74999404D02*
X67863450Y-75047023D01*
X67863450Y-75047023D02*
X67911069Y-75142261D01*
X67911069Y-75142261D02*
X67911069Y-75427975D01*
X67911069Y-75427975D02*
X67863450Y-75523213D01*
X67863450Y-75523213D02*
X67815830Y-75570832D01*
X71593155Y-104692319D02*
X71593155Y-103692319D01*
X71593155Y-103692319D02*
X71831250Y-103692319D01*
X71831250Y-103692319D02*
X71974107Y-103739938D01*
X71974107Y-103739938D02*
X72069345Y-103835176D01*
X72069345Y-103835176D02*
X72116964Y-103930414D01*
X72116964Y-103930414D02*
X72164583Y-104120890D01*
X72164583Y-104120890D02*
X72164583Y-104263747D01*
X72164583Y-104263747D02*
X72116964Y-104454223D01*
X72116964Y-104454223D02*
X72069345Y-104549461D01*
X72069345Y-104549461D02*
X71974107Y-104644700D01*
X71974107Y-104644700D02*
X71831250Y-104692319D01*
X71831250Y-104692319D02*
X71593155Y-104692319D01*
X72640774Y-104692319D02*
X72831250Y-104692319D01*
X72831250Y-104692319D02*
X72926488Y-104644700D01*
X72926488Y-104644700D02*
X72974107Y-104597080D01*
X72974107Y-104597080D02*
X73069345Y-104454223D01*
X73069345Y-104454223D02*
X73116964Y-104263747D01*
X73116964Y-104263747D02*
X73116964Y-103882795D01*
X73116964Y-103882795D02*
X73069345Y-103787557D01*
X73069345Y-103787557D02*
X73021726Y-103739938D01*
X73021726Y-103739938D02*
X72926488Y-103692319D01*
X72926488Y-103692319D02*
X72736012Y-103692319D01*
X72736012Y-103692319D02*
X72640774Y-103739938D01*
X72640774Y-103739938D02*
X72593155Y-103787557D01*
X72593155Y-103787557D02*
X72545536Y-103882795D01*
X72545536Y-103882795D02*
X72545536Y-104120890D01*
X72545536Y-104120890D02*
X72593155Y-104216128D01*
X72593155Y-104216128D02*
X72640774Y-104263747D01*
X72640774Y-104263747D02*
X72736012Y-104311366D01*
X72736012Y-104311366D02*
X72926488Y-104311366D01*
X72926488Y-104311366D02*
X73021726Y-104263747D01*
X73021726Y-104263747D02*
X73069345Y-104216128D01*
X73069345Y-104216128D02*
X73116964Y-104120890D01*
X68559821Y-106499795D02*
X68102678Y-106499795D01*
X68331250Y-106499795D02*
X68331250Y-105699795D01*
X68331250Y-105699795D02*
X68255059Y-105814080D01*
X68255059Y-105814080D02*
X68178869Y-105890271D01*
X68178869Y-105890271D02*
X68102678Y-105928366D01*
X80370830Y-76380357D02*
X80418450Y-76427976D01*
X80418450Y-76427976D02*
X80466069Y-76570833D01*
X80466069Y-76570833D02*
X80466069Y-76666071D01*
X80466069Y-76666071D02*
X80418450Y-76808928D01*
X80418450Y-76808928D02*
X80323211Y-76904166D01*
X80323211Y-76904166D02*
X80227973Y-76951785D01*
X80227973Y-76951785D02*
X80037497Y-76999404D01*
X80037497Y-76999404D02*
X79894640Y-76999404D01*
X79894640Y-76999404D02*
X79704164Y-76951785D01*
X79704164Y-76951785D02*
X79608926Y-76904166D01*
X79608926Y-76904166D02*
X79513688Y-76808928D01*
X79513688Y-76808928D02*
X79466069Y-76666071D01*
X79466069Y-76666071D02*
X79466069Y-76570833D01*
X79466069Y-76570833D02*
X79513688Y-76427976D01*
X79513688Y-76427976D02*
X79561307Y-76380357D01*
X80466069Y-75427976D02*
X80466069Y-75999404D01*
X80466069Y-75713690D02*
X79466069Y-75713690D01*
X79466069Y-75713690D02*
X79608926Y-75808928D01*
X79608926Y-75808928D02*
X79704164Y-75904166D01*
X79704164Y-75904166D02*
X79751783Y-75999404D01*
X79799402Y-74570833D02*
X80466069Y-74570833D01*
X79418450Y-74808928D02*
X80132735Y-75047023D01*
X80132735Y-75047023D02*
X80132735Y-74427976D01*
X103116964Y-136692319D02*
X103116964Y-135692319D01*
X103116964Y-135692319D02*
X103355059Y-135692319D01*
X103355059Y-135692319D02*
X103497916Y-135739938D01*
X103497916Y-135739938D02*
X103593154Y-135835176D01*
X103593154Y-135835176D02*
X103640773Y-135930414D01*
X103640773Y-135930414D02*
X103688392Y-136120890D01*
X103688392Y-136120890D02*
X103688392Y-136263747D01*
X103688392Y-136263747D02*
X103640773Y-136454223D01*
X103640773Y-136454223D02*
X103593154Y-136549461D01*
X103593154Y-136549461D02*
X103497916Y-136644700D01*
X103497916Y-136644700D02*
X103355059Y-136692319D01*
X103355059Y-136692319D02*
X103116964Y-136692319D01*
X104640773Y-136692319D02*
X104069345Y-136692319D01*
X104355059Y-136692319D02*
X104355059Y-135692319D01*
X104355059Y-135692319D02*
X104259821Y-135835176D01*
X104259821Y-135835176D02*
X104164583Y-135930414D01*
X104164583Y-135930414D02*
X104069345Y-135978033D01*
X105497916Y-136025652D02*
X105497916Y-136692319D01*
X105259821Y-135644700D02*
X105021726Y-136358985D01*
X105021726Y-136358985D02*
X105640773Y-136358985D01*
X100559821Y-138499795D02*
X100102678Y-138499795D01*
X100331250Y-138499795D02*
X100331250Y-137699795D01*
X100331250Y-137699795D02*
X100255059Y-137814080D01*
X100255059Y-137814080D02*
X100178869Y-137890271D01*
X100178869Y-137890271D02*
X100102678Y-137928366D01*
X67815830Y-139904166D02*
X67863450Y-139951785D01*
X67863450Y-139951785D02*
X67911069Y-140094642D01*
X67911069Y-140094642D02*
X67911069Y-140189880D01*
X67911069Y-140189880D02*
X67863450Y-140332737D01*
X67863450Y-140332737D02*
X67768211Y-140427975D01*
X67768211Y-140427975D02*
X67672973Y-140475594D01*
X67672973Y-140475594D02*
X67482497Y-140523213D01*
X67482497Y-140523213D02*
X67339640Y-140523213D01*
X67339640Y-140523213D02*
X67149164Y-140475594D01*
X67149164Y-140475594D02*
X67053926Y-140427975D01*
X67053926Y-140427975D02*
X66958688Y-140332737D01*
X66958688Y-140332737D02*
X66911069Y-140189880D01*
X66911069Y-140189880D02*
X66911069Y-140094642D01*
X66911069Y-140094642D02*
X66958688Y-139951785D01*
X66958688Y-139951785D02*
X67006307Y-139904166D01*
X67911069Y-138951785D02*
X67911069Y-139523213D01*
X67911069Y-139237499D02*
X66911069Y-139237499D01*
X66911069Y-139237499D02*
X67053926Y-139332737D01*
X67053926Y-139332737D02*
X67149164Y-139427975D01*
X67149164Y-139427975D02*
X67196783Y-139523213D01*
X119569345Y-56792319D02*
X119569345Y-57601842D01*
X119569345Y-57601842D02*
X119616964Y-57697080D01*
X119616964Y-57697080D02*
X119664583Y-57744700D01*
X119664583Y-57744700D02*
X119759821Y-57792319D01*
X119759821Y-57792319D02*
X119950297Y-57792319D01*
X119950297Y-57792319D02*
X120045535Y-57744700D01*
X120045535Y-57744700D02*
X120093154Y-57697080D01*
X120093154Y-57697080D02*
X120140773Y-57601842D01*
X120140773Y-57601842D02*
X120140773Y-56792319D01*
X121045535Y-56792319D02*
X120855059Y-56792319D01*
X120855059Y-56792319D02*
X120759821Y-56839938D01*
X120759821Y-56839938D02*
X120712202Y-56887557D01*
X120712202Y-56887557D02*
X120616964Y-57030414D01*
X120616964Y-57030414D02*
X120569345Y-57220890D01*
X120569345Y-57220890D02*
X120569345Y-57601842D01*
X120569345Y-57601842D02*
X120616964Y-57697080D01*
X120616964Y-57697080D02*
X120664583Y-57744700D01*
X120664583Y-57744700D02*
X120759821Y-57792319D01*
X120759821Y-57792319D02*
X120950297Y-57792319D01*
X120950297Y-57792319D02*
X121045535Y-57744700D01*
X121045535Y-57744700D02*
X121093154Y-57697080D01*
X121093154Y-57697080D02*
X121140773Y-57601842D01*
X121140773Y-57601842D02*
X121140773Y-57363747D01*
X121140773Y-57363747D02*
X121093154Y-57268509D01*
X121093154Y-57268509D02*
X121045535Y-57220890D01*
X121045535Y-57220890D02*
X120950297Y-57173271D01*
X120950297Y-57173271D02*
X120759821Y-57173271D01*
X120759821Y-57173271D02*
X120664583Y-57220890D01*
X120664583Y-57220890D02*
X120616964Y-57268509D01*
X120616964Y-57268509D02*
X120569345Y-57363747D01*
X144370830Y-108380357D02*
X144418450Y-108427976D01*
X144418450Y-108427976D02*
X144466069Y-108570833D01*
X144466069Y-108570833D02*
X144466069Y-108666071D01*
X144466069Y-108666071D02*
X144418450Y-108808928D01*
X144418450Y-108808928D02*
X144323211Y-108904166D01*
X144323211Y-108904166D02*
X144227973Y-108951785D01*
X144227973Y-108951785D02*
X144037497Y-108999404D01*
X144037497Y-108999404D02*
X143894640Y-108999404D01*
X143894640Y-108999404D02*
X143704164Y-108951785D01*
X143704164Y-108951785D02*
X143608926Y-108904166D01*
X143608926Y-108904166D02*
X143513688Y-108808928D01*
X143513688Y-108808928D02*
X143466069Y-108666071D01*
X143466069Y-108666071D02*
X143466069Y-108570833D01*
X143466069Y-108570833D02*
X143513688Y-108427976D01*
X143513688Y-108427976D02*
X143561307Y-108380357D01*
X143561307Y-107999404D02*
X143513688Y-107951785D01*
X143513688Y-107951785D02*
X143466069Y-107856547D01*
X143466069Y-107856547D02*
X143466069Y-107618452D01*
X143466069Y-107618452D02*
X143513688Y-107523214D01*
X143513688Y-107523214D02*
X143561307Y-107475595D01*
X143561307Y-107475595D02*
X143656545Y-107427976D01*
X143656545Y-107427976D02*
X143751783Y-107427976D01*
X143751783Y-107427976D02*
X143894640Y-107475595D01*
X143894640Y-107475595D02*
X144466069Y-108047023D01*
X144466069Y-108047023D02*
X144466069Y-107427976D01*
X143466069Y-106808928D02*
X143466069Y-106713690D01*
X143466069Y-106713690D02*
X143513688Y-106618452D01*
X143513688Y-106618452D02*
X143561307Y-106570833D01*
X143561307Y-106570833D02*
X143656545Y-106523214D01*
X143656545Y-106523214D02*
X143847021Y-106475595D01*
X143847021Y-106475595D02*
X144085116Y-106475595D01*
X144085116Y-106475595D02*
X144275592Y-106523214D01*
X144275592Y-106523214D02*
X144370830Y-106570833D01*
X144370830Y-106570833D02*
X144418450Y-106618452D01*
X144418450Y-106618452D02*
X144466069Y-106713690D01*
X144466069Y-106713690D02*
X144466069Y-106808928D01*
X144466069Y-106808928D02*
X144418450Y-106904166D01*
X144418450Y-106904166D02*
X144370830Y-106951785D01*
X144370830Y-106951785D02*
X144275592Y-106999404D01*
X144275592Y-106999404D02*
X144085116Y-107047023D01*
X144085116Y-107047023D02*
X143847021Y-107047023D01*
X143847021Y-107047023D02*
X143656545Y-106999404D01*
X143656545Y-106999404D02*
X143561307Y-106951785D01*
X143561307Y-106951785D02*
X143513688Y-106904166D01*
X143513688Y-106904166D02*
X143466069Y-106808928D01*
X80370830Y-108380357D02*
X80418450Y-108427976D01*
X80418450Y-108427976D02*
X80466069Y-108570833D01*
X80466069Y-108570833D02*
X80466069Y-108666071D01*
X80466069Y-108666071D02*
X80418450Y-108808928D01*
X80418450Y-108808928D02*
X80323211Y-108904166D01*
X80323211Y-108904166D02*
X80227973Y-108951785D01*
X80227973Y-108951785D02*
X80037497Y-108999404D01*
X80037497Y-108999404D02*
X79894640Y-108999404D01*
X79894640Y-108999404D02*
X79704164Y-108951785D01*
X79704164Y-108951785D02*
X79608926Y-108904166D01*
X79608926Y-108904166D02*
X79513688Y-108808928D01*
X79513688Y-108808928D02*
X79466069Y-108666071D01*
X79466069Y-108666071D02*
X79466069Y-108570833D01*
X79466069Y-108570833D02*
X79513688Y-108427976D01*
X79513688Y-108427976D02*
X79561307Y-108380357D01*
X80466069Y-107427976D02*
X80466069Y-107999404D01*
X80466069Y-107713690D02*
X79466069Y-107713690D01*
X79466069Y-107713690D02*
X79608926Y-107808928D01*
X79608926Y-107808928D02*
X79704164Y-107904166D01*
X79704164Y-107904166D02*
X79751783Y-107999404D01*
X79894640Y-106856547D02*
X79847021Y-106951785D01*
X79847021Y-106951785D02*
X79799402Y-106999404D01*
X79799402Y-106999404D02*
X79704164Y-107047023D01*
X79704164Y-107047023D02*
X79656545Y-107047023D01*
X79656545Y-107047023D02*
X79561307Y-106999404D01*
X79561307Y-106999404D02*
X79513688Y-106951785D01*
X79513688Y-106951785D02*
X79466069Y-106856547D01*
X79466069Y-106856547D02*
X79466069Y-106666071D01*
X79466069Y-106666071D02*
X79513688Y-106570833D01*
X79513688Y-106570833D02*
X79561307Y-106523214D01*
X79561307Y-106523214D02*
X79656545Y-106475595D01*
X79656545Y-106475595D02*
X79704164Y-106475595D01*
X79704164Y-106475595D02*
X79799402Y-106523214D01*
X79799402Y-106523214D02*
X79847021Y-106570833D01*
X79847021Y-106570833D02*
X79894640Y-106666071D01*
X79894640Y-106666071D02*
X79894640Y-106856547D01*
X79894640Y-106856547D02*
X79942259Y-106951785D01*
X79942259Y-106951785D02*
X79989878Y-106999404D01*
X79989878Y-106999404D02*
X80085116Y-107047023D01*
X80085116Y-107047023D02*
X80275592Y-107047023D01*
X80275592Y-107047023D02*
X80370830Y-106999404D01*
X80370830Y-106999404D02*
X80418450Y-106951785D01*
X80418450Y-106951785D02*
X80466069Y-106856547D01*
X80466069Y-106856547D02*
X80466069Y-106666071D01*
X80466069Y-106666071D02*
X80418450Y-106570833D01*
X80418450Y-106570833D02*
X80370830Y-106523214D01*
X80370830Y-106523214D02*
X80275592Y-106475595D01*
X80275592Y-106475595D02*
X80085116Y-106475595D01*
X80085116Y-106475595D02*
X79989878Y-106523214D01*
X79989878Y-106523214D02*
X79942259Y-106570833D01*
X79942259Y-106570833D02*
X79894640Y-106666071D01*
X167116964Y-104692319D02*
X167116964Y-103692319D01*
X167116964Y-103692319D02*
X167355059Y-103692319D01*
X167355059Y-103692319D02*
X167497916Y-103739938D01*
X167497916Y-103739938D02*
X167593154Y-103835176D01*
X167593154Y-103835176D02*
X167640773Y-103930414D01*
X167640773Y-103930414D02*
X167688392Y-104120890D01*
X167688392Y-104120890D02*
X167688392Y-104263747D01*
X167688392Y-104263747D02*
X167640773Y-104454223D01*
X167640773Y-104454223D02*
X167593154Y-104549461D01*
X167593154Y-104549461D02*
X167497916Y-104644700D01*
X167497916Y-104644700D02*
X167355059Y-104692319D01*
X167355059Y-104692319D02*
X167116964Y-104692319D01*
X168640773Y-104692319D02*
X168069345Y-104692319D01*
X168355059Y-104692319D02*
X168355059Y-103692319D01*
X168355059Y-103692319D02*
X168259821Y-103835176D01*
X168259821Y-103835176D02*
X168164583Y-103930414D01*
X168164583Y-103930414D02*
X168069345Y-103978033D01*
X169021726Y-103787557D02*
X169069345Y-103739938D01*
X169069345Y-103739938D02*
X169164583Y-103692319D01*
X169164583Y-103692319D02*
X169402678Y-103692319D01*
X169402678Y-103692319D02*
X169497916Y-103739938D01*
X169497916Y-103739938D02*
X169545535Y-103787557D01*
X169545535Y-103787557D02*
X169593154Y-103882795D01*
X169593154Y-103882795D02*
X169593154Y-103978033D01*
X169593154Y-103978033D02*
X169545535Y-104120890D01*
X169545535Y-104120890D02*
X168974107Y-104692319D01*
X168974107Y-104692319D02*
X169593154Y-104692319D01*
X164559821Y-106499795D02*
X164102678Y-106499795D01*
X164331250Y-106499795D02*
X164331250Y-105699795D01*
X164331250Y-105699795D02*
X164255059Y-105814080D01*
X164255059Y-105814080D02*
X164178869Y-105890271D01*
X164178869Y-105890271D02*
X164102678Y-105928366D01*
X167116964Y-136692319D02*
X167116964Y-135692319D01*
X167116964Y-135692319D02*
X167355059Y-135692319D01*
X167355059Y-135692319D02*
X167497916Y-135739938D01*
X167497916Y-135739938D02*
X167593154Y-135835176D01*
X167593154Y-135835176D02*
X167640773Y-135930414D01*
X167640773Y-135930414D02*
X167688392Y-136120890D01*
X167688392Y-136120890D02*
X167688392Y-136263747D01*
X167688392Y-136263747D02*
X167640773Y-136454223D01*
X167640773Y-136454223D02*
X167593154Y-136549461D01*
X167593154Y-136549461D02*
X167497916Y-136644700D01*
X167497916Y-136644700D02*
X167355059Y-136692319D01*
X167355059Y-136692319D02*
X167116964Y-136692319D01*
X168640773Y-136692319D02*
X168069345Y-136692319D01*
X168355059Y-136692319D02*
X168355059Y-135692319D01*
X168355059Y-135692319D02*
X168259821Y-135835176D01*
X168259821Y-135835176D02*
X168164583Y-135930414D01*
X168164583Y-135930414D02*
X168069345Y-135978033D01*
X169497916Y-135692319D02*
X169307440Y-135692319D01*
X169307440Y-135692319D02*
X169212202Y-135739938D01*
X169212202Y-135739938D02*
X169164583Y-135787557D01*
X169164583Y-135787557D02*
X169069345Y-135930414D01*
X169069345Y-135930414D02*
X169021726Y-136120890D01*
X169021726Y-136120890D02*
X169021726Y-136501842D01*
X169021726Y-136501842D02*
X169069345Y-136597080D01*
X169069345Y-136597080D02*
X169116964Y-136644700D01*
X169116964Y-136644700D02*
X169212202Y-136692319D01*
X169212202Y-136692319D02*
X169402678Y-136692319D01*
X169402678Y-136692319D02*
X169497916Y-136644700D01*
X169497916Y-136644700D02*
X169545535Y-136597080D01*
X169545535Y-136597080D02*
X169593154Y-136501842D01*
X169593154Y-136501842D02*
X169593154Y-136263747D01*
X169593154Y-136263747D02*
X169545535Y-136168509D01*
X169545535Y-136168509D02*
X169497916Y-136120890D01*
X169497916Y-136120890D02*
X169402678Y-136073271D01*
X169402678Y-136073271D02*
X169212202Y-136073271D01*
X169212202Y-136073271D02*
X169116964Y-136120890D01*
X169116964Y-136120890D02*
X169069345Y-136168509D01*
X169069345Y-136168509D02*
X169021726Y-136263747D01*
X164559821Y-138499795D02*
X164102678Y-138499795D01*
X164331250Y-138499795D02*
X164331250Y-137699795D01*
X164331250Y-137699795D02*
X164255059Y-137814080D01*
X164255059Y-137814080D02*
X164178869Y-137890271D01*
X164178869Y-137890271D02*
X164102678Y-137928366D01*
X71116964Y-136692319D02*
X71116964Y-135692319D01*
X71116964Y-135692319D02*
X71355059Y-135692319D01*
X71355059Y-135692319D02*
X71497916Y-135739938D01*
X71497916Y-135739938D02*
X71593154Y-135835176D01*
X71593154Y-135835176D02*
X71640773Y-135930414D01*
X71640773Y-135930414D02*
X71688392Y-136120890D01*
X71688392Y-136120890D02*
X71688392Y-136263747D01*
X71688392Y-136263747D02*
X71640773Y-136454223D01*
X71640773Y-136454223D02*
X71593154Y-136549461D01*
X71593154Y-136549461D02*
X71497916Y-136644700D01*
X71497916Y-136644700D02*
X71355059Y-136692319D01*
X71355059Y-136692319D02*
X71116964Y-136692319D01*
X72640773Y-136692319D02*
X72069345Y-136692319D01*
X72355059Y-136692319D02*
X72355059Y-135692319D01*
X72355059Y-135692319D02*
X72259821Y-135835176D01*
X72259821Y-135835176D02*
X72164583Y-135930414D01*
X72164583Y-135930414D02*
X72069345Y-135978033D01*
X72974107Y-135692319D02*
X73593154Y-135692319D01*
X73593154Y-135692319D02*
X73259821Y-136073271D01*
X73259821Y-136073271D02*
X73402678Y-136073271D01*
X73402678Y-136073271D02*
X73497916Y-136120890D01*
X73497916Y-136120890D02*
X73545535Y-136168509D01*
X73545535Y-136168509D02*
X73593154Y-136263747D01*
X73593154Y-136263747D02*
X73593154Y-136501842D01*
X73593154Y-136501842D02*
X73545535Y-136597080D01*
X73545535Y-136597080D02*
X73497916Y-136644700D01*
X73497916Y-136644700D02*
X73402678Y-136692319D01*
X73402678Y-136692319D02*
X73116964Y-136692319D01*
X73116964Y-136692319D02*
X73021726Y-136644700D01*
X73021726Y-136644700D02*
X72974107Y-136597080D01*
X68559821Y-138499795D02*
X68102678Y-138499795D01*
X68331250Y-138499795D02*
X68331250Y-137699795D01*
X68331250Y-137699795D02*
X68255059Y-137814080D01*
X68255059Y-137814080D02*
X68178869Y-137890271D01*
X68178869Y-137890271D02*
X68102678Y-137928366D01*
X119569345Y-88792319D02*
X119569345Y-89601842D01*
X119569345Y-89601842D02*
X119616964Y-89697080D01*
X119616964Y-89697080D02*
X119664583Y-89744700D01*
X119664583Y-89744700D02*
X119759821Y-89792319D01*
X119759821Y-89792319D02*
X119950297Y-89792319D01*
X119950297Y-89792319D02*
X120045535Y-89744700D01*
X120045535Y-89744700D02*
X120093154Y-89697080D01*
X120093154Y-89697080D02*
X120140773Y-89601842D01*
X120140773Y-89601842D02*
X120140773Y-88792319D01*
X121093154Y-88792319D02*
X120616964Y-88792319D01*
X120616964Y-88792319D02*
X120569345Y-89268509D01*
X120569345Y-89268509D02*
X120616964Y-89220890D01*
X120616964Y-89220890D02*
X120712202Y-89173271D01*
X120712202Y-89173271D02*
X120950297Y-89173271D01*
X120950297Y-89173271D02*
X121045535Y-89220890D01*
X121045535Y-89220890D02*
X121093154Y-89268509D01*
X121093154Y-89268509D02*
X121140773Y-89363747D01*
X121140773Y-89363747D02*
X121140773Y-89601842D01*
X121140773Y-89601842D02*
X121093154Y-89697080D01*
X121093154Y-89697080D02*
X121045535Y-89744700D01*
X121045535Y-89744700D02*
X120950297Y-89792319D01*
X120950297Y-89792319D02*
X120712202Y-89792319D01*
X120712202Y-89792319D02*
X120616964Y-89744700D01*
X120616964Y-89744700D02*
X120569345Y-89697080D01*
X167593155Y-40692319D02*
X167593155Y-39692319D01*
X167593155Y-39692319D02*
X167831250Y-39692319D01*
X167831250Y-39692319D02*
X167974107Y-39739938D01*
X167974107Y-39739938D02*
X168069345Y-39835176D01*
X168069345Y-39835176D02*
X168116964Y-39930414D01*
X168116964Y-39930414D02*
X168164583Y-40120890D01*
X168164583Y-40120890D02*
X168164583Y-40263747D01*
X168164583Y-40263747D02*
X168116964Y-40454223D01*
X168116964Y-40454223D02*
X168069345Y-40549461D01*
X168069345Y-40549461D02*
X167974107Y-40644700D01*
X167974107Y-40644700D02*
X167831250Y-40692319D01*
X167831250Y-40692319D02*
X167593155Y-40692319D01*
X169021726Y-40025652D02*
X169021726Y-40692319D01*
X168783631Y-39644700D02*
X168545536Y-40358985D01*
X168545536Y-40358985D02*
X169164583Y-40358985D01*
X164559821Y-42499795D02*
X164102678Y-42499795D01*
X164331250Y-42499795D02*
X164331250Y-41699795D01*
X164331250Y-41699795D02*
X164255059Y-41814080D01*
X164255059Y-41814080D02*
X164178869Y-41890271D01*
X164178869Y-41890271D02*
X164102678Y-41928366D01*
X67815830Y-107904166D02*
X67863450Y-107951785D01*
X67863450Y-107951785D02*
X67911069Y-108094642D01*
X67911069Y-108094642D02*
X67911069Y-108189880D01*
X67911069Y-108189880D02*
X67863450Y-108332737D01*
X67863450Y-108332737D02*
X67768211Y-108427975D01*
X67768211Y-108427975D02*
X67672973Y-108475594D01*
X67672973Y-108475594D02*
X67482497Y-108523213D01*
X67482497Y-108523213D02*
X67339640Y-108523213D01*
X67339640Y-108523213D02*
X67149164Y-108475594D01*
X67149164Y-108475594D02*
X67053926Y-108427975D01*
X67053926Y-108427975D02*
X66958688Y-108332737D01*
X66958688Y-108332737D02*
X66911069Y-108189880D01*
X66911069Y-108189880D02*
X66911069Y-108094642D01*
X66911069Y-108094642D02*
X66958688Y-107951785D01*
X66958688Y-107951785D02*
X67006307Y-107904166D01*
X67006307Y-107523213D02*
X66958688Y-107475594D01*
X66958688Y-107475594D02*
X66911069Y-107380356D01*
X66911069Y-107380356D02*
X66911069Y-107142261D01*
X66911069Y-107142261D02*
X66958688Y-107047023D01*
X66958688Y-107047023D02*
X67006307Y-106999404D01*
X67006307Y-106999404D02*
X67101545Y-106951785D01*
X67101545Y-106951785D02*
X67196783Y-106951785D01*
X67196783Y-106951785D02*
X67339640Y-106999404D01*
X67339640Y-106999404D02*
X67911069Y-107570832D01*
X67911069Y-107570832D02*
X67911069Y-106951785D01*
X87569345Y-56792319D02*
X87569345Y-57601842D01*
X87569345Y-57601842D02*
X87616964Y-57697080D01*
X87616964Y-57697080D02*
X87664583Y-57744700D01*
X87664583Y-57744700D02*
X87759821Y-57792319D01*
X87759821Y-57792319D02*
X87950297Y-57792319D01*
X87950297Y-57792319D02*
X88045535Y-57744700D01*
X88045535Y-57744700D02*
X88093154Y-57697080D01*
X88093154Y-57697080D02*
X88140773Y-57601842D01*
X88140773Y-57601842D02*
X88140773Y-56792319D01*
X88521726Y-56792319D02*
X89140773Y-56792319D01*
X89140773Y-56792319D02*
X88807440Y-57173271D01*
X88807440Y-57173271D02*
X88950297Y-57173271D01*
X88950297Y-57173271D02*
X89045535Y-57220890D01*
X89045535Y-57220890D02*
X89093154Y-57268509D01*
X89093154Y-57268509D02*
X89140773Y-57363747D01*
X89140773Y-57363747D02*
X89140773Y-57601842D01*
X89140773Y-57601842D02*
X89093154Y-57697080D01*
X89093154Y-57697080D02*
X89045535Y-57744700D01*
X89045535Y-57744700D02*
X88950297Y-57792319D01*
X88950297Y-57792319D02*
X88664583Y-57792319D01*
X88664583Y-57792319D02*
X88569345Y-57744700D01*
X88569345Y-57744700D02*
X88521726Y-57697080D01*
X103593155Y-40692319D02*
X103593155Y-39692319D01*
X103593155Y-39692319D02*
X103831250Y-39692319D01*
X103831250Y-39692319D02*
X103974107Y-39739938D01*
X103974107Y-39739938D02*
X104069345Y-39835176D01*
X104069345Y-39835176D02*
X104116964Y-39930414D01*
X104116964Y-39930414D02*
X104164583Y-40120890D01*
X104164583Y-40120890D02*
X104164583Y-40263747D01*
X104164583Y-40263747D02*
X104116964Y-40454223D01*
X104116964Y-40454223D02*
X104069345Y-40549461D01*
X104069345Y-40549461D02*
X103974107Y-40644700D01*
X103974107Y-40644700D02*
X103831250Y-40692319D01*
X103831250Y-40692319D02*
X103593155Y-40692319D01*
X104545536Y-39787557D02*
X104593155Y-39739938D01*
X104593155Y-39739938D02*
X104688393Y-39692319D01*
X104688393Y-39692319D02*
X104926488Y-39692319D01*
X104926488Y-39692319D02*
X105021726Y-39739938D01*
X105021726Y-39739938D02*
X105069345Y-39787557D01*
X105069345Y-39787557D02*
X105116964Y-39882795D01*
X105116964Y-39882795D02*
X105116964Y-39978033D01*
X105116964Y-39978033D02*
X105069345Y-40120890D01*
X105069345Y-40120890D02*
X104497917Y-40692319D01*
X104497917Y-40692319D02*
X105116964Y-40692319D01*
X100559821Y-42499795D02*
X100102678Y-42499795D01*
X100331250Y-42499795D02*
X100331250Y-41699795D01*
X100331250Y-41699795D02*
X100255059Y-41814080D01*
X100255059Y-41814080D02*
X100178869Y-41890271D01*
X100178869Y-41890271D02*
X100102678Y-41928366D01*
X176370830Y-76380357D02*
X176418450Y-76427976D01*
X176418450Y-76427976D02*
X176466069Y-76570833D01*
X176466069Y-76570833D02*
X176466069Y-76666071D01*
X176466069Y-76666071D02*
X176418450Y-76808928D01*
X176418450Y-76808928D02*
X176323211Y-76904166D01*
X176323211Y-76904166D02*
X176227973Y-76951785D01*
X176227973Y-76951785D02*
X176037497Y-76999404D01*
X176037497Y-76999404D02*
X175894640Y-76999404D01*
X175894640Y-76999404D02*
X175704164Y-76951785D01*
X175704164Y-76951785D02*
X175608926Y-76904166D01*
X175608926Y-76904166D02*
X175513688Y-76808928D01*
X175513688Y-76808928D02*
X175466069Y-76666071D01*
X175466069Y-76666071D02*
X175466069Y-76570833D01*
X175466069Y-76570833D02*
X175513688Y-76427976D01*
X175513688Y-76427976D02*
X175561307Y-76380357D01*
X176466069Y-75427976D02*
X176466069Y-75999404D01*
X176466069Y-75713690D02*
X175466069Y-75713690D01*
X175466069Y-75713690D02*
X175608926Y-75808928D01*
X175608926Y-75808928D02*
X175704164Y-75904166D01*
X175704164Y-75904166D02*
X175751783Y-75999404D01*
X175466069Y-75094642D02*
X175466069Y-74427976D01*
X175466069Y-74427976D02*
X176466069Y-74856547D01*
X71593155Y-40692319D02*
X71593155Y-39692319D01*
X71593155Y-39692319D02*
X71831250Y-39692319D01*
X71831250Y-39692319D02*
X71974107Y-39739938D01*
X71974107Y-39739938D02*
X72069345Y-39835176D01*
X72069345Y-39835176D02*
X72116964Y-39930414D01*
X72116964Y-39930414D02*
X72164583Y-40120890D01*
X72164583Y-40120890D02*
X72164583Y-40263747D01*
X72164583Y-40263747D02*
X72116964Y-40454223D01*
X72116964Y-40454223D02*
X72069345Y-40549461D01*
X72069345Y-40549461D02*
X71974107Y-40644700D01*
X71974107Y-40644700D02*
X71831250Y-40692319D01*
X71831250Y-40692319D02*
X71593155Y-40692319D01*
X73116964Y-40692319D02*
X72545536Y-40692319D01*
X72831250Y-40692319D02*
X72831250Y-39692319D01*
X72831250Y-39692319D02*
X72736012Y-39835176D01*
X72736012Y-39835176D02*
X72640774Y-39930414D01*
X72640774Y-39930414D02*
X72545536Y-39978033D01*
X68559821Y-42499795D02*
X68102678Y-42499795D01*
X68331250Y-42499795D02*
X68331250Y-41699795D01*
X68331250Y-41699795D02*
X68255059Y-41814080D01*
X68255059Y-41814080D02*
X68178869Y-41890271D01*
X68178869Y-41890271D02*
X68102678Y-41928366D01*
X103593155Y-72692319D02*
X103593155Y-71692319D01*
X103593155Y-71692319D02*
X103831250Y-71692319D01*
X103831250Y-71692319D02*
X103974107Y-71739938D01*
X103974107Y-71739938D02*
X104069345Y-71835176D01*
X104069345Y-71835176D02*
X104116964Y-71930414D01*
X104116964Y-71930414D02*
X104164583Y-72120890D01*
X104164583Y-72120890D02*
X104164583Y-72263747D01*
X104164583Y-72263747D02*
X104116964Y-72454223D01*
X104116964Y-72454223D02*
X104069345Y-72549461D01*
X104069345Y-72549461D02*
X103974107Y-72644700D01*
X103974107Y-72644700D02*
X103831250Y-72692319D01*
X103831250Y-72692319D02*
X103593155Y-72692319D01*
X105021726Y-71692319D02*
X104831250Y-71692319D01*
X104831250Y-71692319D02*
X104736012Y-71739938D01*
X104736012Y-71739938D02*
X104688393Y-71787557D01*
X104688393Y-71787557D02*
X104593155Y-71930414D01*
X104593155Y-71930414D02*
X104545536Y-72120890D01*
X104545536Y-72120890D02*
X104545536Y-72501842D01*
X104545536Y-72501842D02*
X104593155Y-72597080D01*
X104593155Y-72597080D02*
X104640774Y-72644700D01*
X104640774Y-72644700D02*
X104736012Y-72692319D01*
X104736012Y-72692319D02*
X104926488Y-72692319D01*
X104926488Y-72692319D02*
X105021726Y-72644700D01*
X105021726Y-72644700D02*
X105069345Y-72597080D01*
X105069345Y-72597080D02*
X105116964Y-72501842D01*
X105116964Y-72501842D02*
X105116964Y-72263747D01*
X105116964Y-72263747D02*
X105069345Y-72168509D01*
X105069345Y-72168509D02*
X105021726Y-72120890D01*
X105021726Y-72120890D02*
X104926488Y-72073271D01*
X104926488Y-72073271D02*
X104736012Y-72073271D01*
X104736012Y-72073271D02*
X104640774Y-72120890D01*
X104640774Y-72120890D02*
X104593155Y-72168509D01*
X104593155Y-72168509D02*
X104545536Y-72263747D01*
X100559821Y-74499795D02*
X100102678Y-74499795D01*
X100331250Y-74499795D02*
X100331250Y-73699795D01*
X100331250Y-73699795D02*
X100255059Y-73814080D01*
X100255059Y-73814080D02*
X100178869Y-73890271D01*
X100178869Y-73890271D02*
X100102678Y-73928366D01*
X112370830Y-44380357D02*
X112418450Y-44427976D01*
X112418450Y-44427976D02*
X112466069Y-44570833D01*
X112466069Y-44570833D02*
X112466069Y-44666071D01*
X112466069Y-44666071D02*
X112418450Y-44808928D01*
X112418450Y-44808928D02*
X112323211Y-44904166D01*
X112323211Y-44904166D02*
X112227973Y-44951785D01*
X112227973Y-44951785D02*
X112037497Y-44999404D01*
X112037497Y-44999404D02*
X111894640Y-44999404D01*
X111894640Y-44999404D02*
X111704164Y-44951785D01*
X111704164Y-44951785D02*
X111608926Y-44904166D01*
X111608926Y-44904166D02*
X111513688Y-44808928D01*
X111513688Y-44808928D02*
X111466069Y-44666071D01*
X111466069Y-44666071D02*
X111466069Y-44570833D01*
X111466069Y-44570833D02*
X111513688Y-44427976D01*
X111513688Y-44427976D02*
X111561307Y-44380357D01*
X112466069Y-43427976D02*
X112466069Y-43999404D01*
X112466069Y-43713690D02*
X111466069Y-43713690D01*
X111466069Y-43713690D02*
X111608926Y-43808928D01*
X111608926Y-43808928D02*
X111704164Y-43904166D01*
X111704164Y-43904166D02*
X111751783Y-43999404D01*
X112466069Y-42475595D02*
X112466069Y-43047023D01*
X112466069Y-42761309D02*
X111466069Y-42761309D01*
X111466069Y-42761309D02*
X111608926Y-42856547D01*
X111608926Y-42856547D02*
X111704164Y-42951785D01*
X111704164Y-42951785D02*
X111751783Y-43047023D01*
X176370830Y-44380357D02*
X176418450Y-44427976D01*
X176418450Y-44427976D02*
X176466069Y-44570833D01*
X176466069Y-44570833D02*
X176466069Y-44666071D01*
X176466069Y-44666071D02*
X176418450Y-44808928D01*
X176418450Y-44808928D02*
X176323211Y-44904166D01*
X176323211Y-44904166D02*
X176227973Y-44951785D01*
X176227973Y-44951785D02*
X176037497Y-44999404D01*
X176037497Y-44999404D02*
X175894640Y-44999404D01*
X175894640Y-44999404D02*
X175704164Y-44951785D01*
X175704164Y-44951785D02*
X175608926Y-44904166D01*
X175608926Y-44904166D02*
X175513688Y-44808928D01*
X175513688Y-44808928D02*
X175466069Y-44666071D01*
X175466069Y-44666071D02*
X175466069Y-44570833D01*
X175466069Y-44570833D02*
X175513688Y-44427976D01*
X175513688Y-44427976D02*
X175561307Y-44380357D01*
X176466069Y-43427976D02*
X176466069Y-43999404D01*
X176466069Y-43713690D02*
X175466069Y-43713690D01*
X175466069Y-43713690D02*
X175608926Y-43808928D01*
X175608926Y-43808928D02*
X175704164Y-43904166D01*
X175704164Y-43904166D02*
X175751783Y-43999404D01*
X175466069Y-43094642D02*
X175466069Y-42475595D01*
X175466069Y-42475595D02*
X175847021Y-42808928D01*
X175847021Y-42808928D02*
X175847021Y-42666071D01*
X175847021Y-42666071D02*
X175894640Y-42570833D01*
X175894640Y-42570833D02*
X175942259Y-42523214D01*
X175942259Y-42523214D02*
X176037497Y-42475595D01*
X176037497Y-42475595D02*
X176275592Y-42475595D01*
X176275592Y-42475595D02*
X176370830Y-42523214D01*
X176370830Y-42523214D02*
X176418450Y-42570833D01*
X176418450Y-42570833D02*
X176466069Y-42666071D01*
X176466069Y-42666071D02*
X176466069Y-42951785D01*
X176466069Y-42951785D02*
X176418450Y-43047023D01*
X176418450Y-43047023D02*
X176370830Y-43094642D01*
X135593155Y-40692319D02*
X135593155Y-39692319D01*
X135593155Y-39692319D02*
X135831250Y-39692319D01*
X135831250Y-39692319D02*
X135974107Y-39739938D01*
X135974107Y-39739938D02*
X136069345Y-39835176D01*
X136069345Y-39835176D02*
X136116964Y-39930414D01*
X136116964Y-39930414D02*
X136164583Y-40120890D01*
X136164583Y-40120890D02*
X136164583Y-40263747D01*
X136164583Y-40263747D02*
X136116964Y-40454223D01*
X136116964Y-40454223D02*
X136069345Y-40549461D01*
X136069345Y-40549461D02*
X135974107Y-40644700D01*
X135974107Y-40644700D02*
X135831250Y-40692319D01*
X135831250Y-40692319D02*
X135593155Y-40692319D01*
X136497917Y-39692319D02*
X137116964Y-39692319D01*
X137116964Y-39692319D02*
X136783631Y-40073271D01*
X136783631Y-40073271D02*
X136926488Y-40073271D01*
X136926488Y-40073271D02*
X137021726Y-40120890D01*
X137021726Y-40120890D02*
X137069345Y-40168509D01*
X137069345Y-40168509D02*
X137116964Y-40263747D01*
X137116964Y-40263747D02*
X137116964Y-40501842D01*
X137116964Y-40501842D02*
X137069345Y-40597080D01*
X137069345Y-40597080D02*
X137021726Y-40644700D01*
X137021726Y-40644700D02*
X136926488Y-40692319D01*
X136926488Y-40692319D02*
X136640774Y-40692319D01*
X136640774Y-40692319D02*
X136545536Y-40644700D01*
X136545536Y-40644700D02*
X136497917Y-40597080D01*
X132559821Y-42499795D02*
X132102678Y-42499795D01*
X132331250Y-42499795D02*
X132331250Y-41699795D01*
X132331250Y-41699795D02*
X132255059Y-41814080D01*
X132255059Y-41814080D02*
X132178869Y-41890271D01*
X132178869Y-41890271D02*
X132102678Y-41928366D01*
X119569345Y-120792319D02*
X119569345Y-121601842D01*
X119569345Y-121601842D02*
X119616964Y-121697080D01*
X119616964Y-121697080D02*
X119664583Y-121744700D01*
X119664583Y-121744700D02*
X119759821Y-121792319D01*
X119759821Y-121792319D02*
X119950297Y-121792319D01*
X119950297Y-121792319D02*
X120045535Y-121744700D01*
X120045535Y-121744700D02*
X120093154Y-121697080D01*
X120093154Y-121697080D02*
X120140773Y-121601842D01*
X120140773Y-121601842D02*
X120140773Y-120792319D01*
X121045535Y-121125652D02*
X121045535Y-121792319D01*
X120807440Y-120744700D02*
X120569345Y-121458985D01*
X120569345Y-121458985D02*
X121188392Y-121458985D01*
X151569345Y-120792319D02*
X151569345Y-121601842D01*
X151569345Y-121601842D02*
X151616964Y-121697080D01*
X151616964Y-121697080D02*
X151664583Y-121744700D01*
X151664583Y-121744700D02*
X151759821Y-121792319D01*
X151759821Y-121792319D02*
X151950297Y-121792319D01*
X151950297Y-121792319D02*
X152045535Y-121744700D01*
X152045535Y-121744700D02*
X152093154Y-121697080D01*
X152093154Y-121697080D02*
X152140773Y-121601842D01*
X152140773Y-121601842D02*
X152140773Y-120792319D01*
X152521726Y-120792319D02*
X153188392Y-120792319D01*
X153188392Y-120792319D02*
X152759821Y-121792319D01*
X80370830Y-140380357D02*
X80418450Y-140427976D01*
X80418450Y-140427976D02*
X80466069Y-140570833D01*
X80466069Y-140570833D02*
X80466069Y-140666071D01*
X80466069Y-140666071D02*
X80418450Y-140808928D01*
X80418450Y-140808928D02*
X80323211Y-140904166D01*
X80323211Y-140904166D02*
X80227973Y-140951785D01*
X80227973Y-140951785D02*
X80037497Y-140999404D01*
X80037497Y-140999404D02*
X79894640Y-140999404D01*
X79894640Y-140999404D02*
X79704164Y-140951785D01*
X79704164Y-140951785D02*
X79608926Y-140904166D01*
X79608926Y-140904166D02*
X79513688Y-140808928D01*
X79513688Y-140808928D02*
X79466069Y-140666071D01*
X79466069Y-140666071D02*
X79466069Y-140570833D01*
X79466069Y-140570833D02*
X79513688Y-140427976D01*
X79513688Y-140427976D02*
X79561307Y-140380357D01*
X79561307Y-139999404D02*
X79513688Y-139951785D01*
X79513688Y-139951785D02*
X79466069Y-139856547D01*
X79466069Y-139856547D02*
X79466069Y-139618452D01*
X79466069Y-139618452D02*
X79513688Y-139523214D01*
X79513688Y-139523214D02*
X79561307Y-139475595D01*
X79561307Y-139475595D02*
X79656545Y-139427976D01*
X79656545Y-139427976D02*
X79751783Y-139427976D01*
X79751783Y-139427976D02*
X79894640Y-139475595D01*
X79894640Y-139475595D02*
X80466069Y-140047023D01*
X80466069Y-140047023D02*
X80466069Y-139427976D01*
X79561307Y-139047023D02*
X79513688Y-138999404D01*
X79513688Y-138999404D02*
X79466069Y-138904166D01*
X79466069Y-138904166D02*
X79466069Y-138666071D01*
X79466069Y-138666071D02*
X79513688Y-138570833D01*
X79513688Y-138570833D02*
X79561307Y-138523214D01*
X79561307Y-138523214D02*
X79656545Y-138475595D01*
X79656545Y-138475595D02*
X79751783Y-138475595D01*
X79751783Y-138475595D02*
X79894640Y-138523214D01*
X79894640Y-138523214D02*
X80466069Y-139094642D01*
X80466069Y-139094642D02*
X80466069Y-138475595D01*
X112370830Y-76380357D02*
X112418450Y-76427976D01*
X112418450Y-76427976D02*
X112466069Y-76570833D01*
X112466069Y-76570833D02*
X112466069Y-76666071D01*
X112466069Y-76666071D02*
X112418450Y-76808928D01*
X112418450Y-76808928D02*
X112323211Y-76904166D01*
X112323211Y-76904166D02*
X112227973Y-76951785D01*
X112227973Y-76951785D02*
X112037497Y-76999404D01*
X112037497Y-76999404D02*
X111894640Y-76999404D01*
X111894640Y-76999404D02*
X111704164Y-76951785D01*
X111704164Y-76951785D02*
X111608926Y-76904166D01*
X111608926Y-76904166D02*
X111513688Y-76808928D01*
X111513688Y-76808928D02*
X111466069Y-76666071D01*
X111466069Y-76666071D02*
X111466069Y-76570833D01*
X111466069Y-76570833D02*
X111513688Y-76427976D01*
X111513688Y-76427976D02*
X111561307Y-76380357D01*
X112466069Y-75427976D02*
X112466069Y-75999404D01*
X112466069Y-75713690D02*
X111466069Y-75713690D01*
X111466069Y-75713690D02*
X111608926Y-75808928D01*
X111608926Y-75808928D02*
X111704164Y-75904166D01*
X111704164Y-75904166D02*
X111751783Y-75999404D01*
X111466069Y-74523214D02*
X111466069Y-74999404D01*
X111466069Y-74999404D02*
X111942259Y-75047023D01*
X111942259Y-75047023D02*
X111894640Y-74999404D01*
X111894640Y-74999404D02*
X111847021Y-74904166D01*
X111847021Y-74904166D02*
X111847021Y-74666071D01*
X111847021Y-74666071D02*
X111894640Y-74570833D01*
X111894640Y-74570833D02*
X111942259Y-74523214D01*
X111942259Y-74523214D02*
X112037497Y-74475595D01*
X112037497Y-74475595D02*
X112275592Y-74475595D01*
X112275592Y-74475595D02*
X112370830Y-74523214D01*
X112370830Y-74523214D02*
X112418450Y-74570833D01*
X112418450Y-74570833D02*
X112466069Y-74666071D01*
X112466069Y-74666071D02*
X112466069Y-74904166D01*
X112466069Y-74904166D02*
X112418450Y-74999404D01*
X112418450Y-74999404D02*
X112370830Y-75047023D01*
X112370830Y-140380357D02*
X112418450Y-140427976D01*
X112418450Y-140427976D02*
X112466069Y-140570833D01*
X112466069Y-140570833D02*
X112466069Y-140666071D01*
X112466069Y-140666071D02*
X112418450Y-140808928D01*
X112418450Y-140808928D02*
X112323211Y-140904166D01*
X112323211Y-140904166D02*
X112227973Y-140951785D01*
X112227973Y-140951785D02*
X112037497Y-140999404D01*
X112037497Y-140999404D02*
X111894640Y-140999404D01*
X111894640Y-140999404D02*
X111704164Y-140951785D01*
X111704164Y-140951785D02*
X111608926Y-140904166D01*
X111608926Y-140904166D02*
X111513688Y-140808928D01*
X111513688Y-140808928D02*
X111466069Y-140666071D01*
X111466069Y-140666071D02*
X111466069Y-140570833D01*
X111466069Y-140570833D02*
X111513688Y-140427976D01*
X111513688Y-140427976D02*
X111561307Y-140380357D01*
X111561307Y-139999404D02*
X111513688Y-139951785D01*
X111513688Y-139951785D02*
X111466069Y-139856547D01*
X111466069Y-139856547D02*
X111466069Y-139618452D01*
X111466069Y-139618452D02*
X111513688Y-139523214D01*
X111513688Y-139523214D02*
X111561307Y-139475595D01*
X111561307Y-139475595D02*
X111656545Y-139427976D01*
X111656545Y-139427976D02*
X111751783Y-139427976D01*
X111751783Y-139427976D02*
X111894640Y-139475595D01*
X111894640Y-139475595D02*
X112466069Y-140047023D01*
X112466069Y-140047023D02*
X112466069Y-139427976D01*
X111466069Y-139094642D02*
X111466069Y-138475595D01*
X111466069Y-138475595D02*
X111847021Y-138808928D01*
X111847021Y-138808928D02*
X111847021Y-138666071D01*
X111847021Y-138666071D02*
X111894640Y-138570833D01*
X111894640Y-138570833D02*
X111942259Y-138523214D01*
X111942259Y-138523214D02*
X112037497Y-138475595D01*
X112037497Y-138475595D02*
X112275592Y-138475595D01*
X112275592Y-138475595D02*
X112370830Y-138523214D01*
X112370830Y-138523214D02*
X112418450Y-138570833D01*
X112418450Y-138570833D02*
X112466069Y-138666071D01*
X112466069Y-138666071D02*
X112466069Y-138951785D01*
X112466069Y-138951785D02*
X112418450Y-139047023D01*
X112418450Y-139047023D02*
X112370830Y-139094642D01*
%TO.C,D7*%
D15*
X132831250Y-72987500D02*
X132831250Y-78487500D01*
X132831250Y-72987500D02*
X139831250Y-72987500D01*
X132831250Y-78487500D02*
X139381250Y-78487500D01*
X133631250Y-76637500D02*
X133631250Y-74837500D01*
X139031250Y-76637500D02*
X139031250Y-74837500D01*
X139381250Y-78487500D02*
X139831250Y-78037500D01*
X139831250Y-78037500D02*
X139831250Y-72987500D01*
%TO.C,C19*%
X109596250Y-107476248D02*
X109596250Y-107998752D01*
X111066250Y-107476248D02*
X111066250Y-107998752D01*
%TO.C,C25*%
X173596250Y-139476248D02*
X173596250Y-139998752D01*
X175066250Y-139476248D02*
X175066250Y-139998752D01*
%TO.C,U8*%
X151571250Y-90177500D02*
X153091250Y-90177500D01*
X151571250Y-90227500D02*
X151571250Y-90177500D01*
X151571250Y-92127500D02*
X151571250Y-91347500D01*
X151571250Y-93297500D02*
X151571250Y-93247500D01*
X153091250Y-90177500D02*
X153091250Y-91177500D01*
X153091250Y-92297500D02*
X153091250Y-93297500D01*
X153091250Y-93297500D02*
X151571250Y-93297500D01*
X151031250Y-91357500D02*
X151271250Y-91687500D01*
X150791250Y-91687500D01*
X151031250Y-91357500D01*
G36*
X151271250Y-91687500D02*
G01*
X150791250Y-91687500D01*
X151031250Y-91357500D01*
X151271250Y-91687500D01*
G37*
%TO.C,C24*%
X141596250Y-139476248D02*
X141596250Y-139998752D01*
X143066250Y-139476248D02*
X143066250Y-139998752D01*
%TO.C,D10*%
X100831250Y-104987500D02*
X100831250Y-110487500D01*
X100831250Y-104987500D02*
X107831250Y-104987500D01*
X100831250Y-110487500D02*
X107381250Y-110487500D01*
X101631250Y-108637500D02*
X101631250Y-106837500D01*
X107031250Y-108637500D02*
X107031250Y-106837500D01*
X107381250Y-110487500D02*
X107831250Y-110037500D01*
X107831250Y-110037500D02*
X107831250Y-104987500D01*
%TO.C,D8*%
X164831250Y-72987500D02*
X164831250Y-78487500D01*
X164831250Y-72987500D02*
X171831250Y-72987500D01*
X164831250Y-78487500D02*
X171381250Y-78487500D01*
X165631250Y-76637500D02*
X165631250Y-74837500D01*
X171031250Y-76637500D02*
X171031250Y-74837500D01*
X171381250Y-78487500D02*
X171831250Y-78037500D01*
X171831250Y-78037500D02*
X171831250Y-72987500D01*
%TO.C,U2*%
X87571250Y-90177500D02*
X89091250Y-90177500D01*
X87571250Y-90227500D02*
X87571250Y-90177500D01*
X87571250Y-92127500D02*
X87571250Y-91347500D01*
X87571250Y-93297500D02*
X87571250Y-93247500D01*
X89091250Y-90177500D02*
X89091250Y-91177500D01*
X89091250Y-92297500D02*
X89091250Y-93297500D01*
X89091250Y-93297500D02*
X87571250Y-93297500D01*
X87031250Y-91357500D02*
X87271250Y-91687500D01*
X86791250Y-91687500D01*
X87031250Y-91357500D01*
G36*
X87271250Y-91687500D02*
G01*
X86791250Y-91687500D01*
X87031250Y-91357500D01*
X87271250Y-91687500D01*
G37*
%TO.C,D11*%
X132831250Y-104987500D02*
X132831250Y-110487500D01*
X132831250Y-104987500D02*
X139831250Y-104987500D01*
X132831250Y-110487500D02*
X139381250Y-110487500D01*
X133631250Y-108637500D02*
X133631250Y-106837500D01*
X139031250Y-108637500D02*
X139031250Y-106837500D01*
X139381250Y-110487500D02*
X139831250Y-110037500D01*
X139831250Y-110037500D02*
X139831250Y-104987500D01*
%TO.C,D5*%
X68831250Y-72987500D02*
X68831250Y-78487500D01*
X68831250Y-72987500D02*
X75831250Y-72987500D01*
X68831250Y-78487500D02*
X75381250Y-78487500D01*
X69631250Y-76637500D02*
X69631250Y-74837500D01*
X75031250Y-76637500D02*
X75031250Y-74837500D01*
X75381250Y-78487500D02*
X75831250Y-78037500D01*
X75831250Y-78037500D02*
X75831250Y-72987500D01*
%TO.C,C16*%
X141596250Y-75476248D02*
X141596250Y-75998752D01*
X143066250Y-75476248D02*
X143066250Y-75998752D01*
%TO.C,D15*%
X132831250Y-136987500D02*
X132831250Y-142487500D01*
X132831250Y-136987500D02*
X139831250Y-136987500D01*
X132831250Y-142487500D02*
X139381250Y-142487500D01*
X133631250Y-140637500D02*
X133631250Y-138837500D01*
X139031250Y-140637500D02*
X139031250Y-138837500D01*
X139381250Y-142487500D02*
X139831250Y-142037500D01*
X139831250Y-142037500D02*
X139831250Y-136987500D01*
%TO.C,C10*%
X77596250Y-43476248D02*
X77596250Y-43998752D01*
X79066250Y-43476248D02*
X79066250Y-43998752D01*
%TO.C,C21*%
X173596250Y-107476248D02*
X173596250Y-107998752D01*
X175066250Y-107476248D02*
X175066250Y-107998752D01*
%TO.C,C4*%
X65221250Y-43026248D02*
X65221250Y-44448752D01*
X67041250Y-43026248D02*
X67041250Y-44448752D01*
%TO.C,U1*%
X87571250Y-122177500D02*
X89091250Y-122177500D01*
X87571250Y-122227500D02*
X87571250Y-122177500D01*
X87571250Y-124127500D02*
X87571250Y-123347500D01*
X87571250Y-125297500D02*
X87571250Y-125247500D01*
X89091250Y-122177500D02*
X89091250Y-123177500D01*
X89091250Y-124297500D02*
X89091250Y-125297500D01*
X89091250Y-125297500D02*
X87571250Y-125297500D01*
X87031250Y-123357500D02*
X87271250Y-123687500D01*
X86791250Y-123687500D01*
X87031250Y-123357500D01*
G36*
X87271250Y-123687500D02*
G01*
X86791250Y-123687500D01*
X87031250Y-123357500D01*
X87271250Y-123687500D01*
G37*
%TO.C,C12*%
X141596250Y-43476248D02*
X141596250Y-43998752D01*
X143066250Y-43476248D02*
X143066250Y-43998752D01*
%TO.C,U9*%
X151571250Y-58177500D02*
X153091250Y-58177500D01*
X151571250Y-58227500D02*
X151571250Y-58177500D01*
X151571250Y-60127500D02*
X151571250Y-59347500D01*
X151571250Y-61297500D02*
X151571250Y-61247500D01*
X153091250Y-58177500D02*
X153091250Y-59177500D01*
X153091250Y-60297500D02*
X153091250Y-61297500D01*
X153091250Y-61297500D02*
X151571250Y-61297500D01*
X151031250Y-59357500D02*
X151271250Y-59687500D01*
X150791250Y-59687500D01*
X151031250Y-59357500D01*
G36*
X151271250Y-59687500D02*
G01*
X150791250Y-59687500D01*
X151031250Y-59357500D01*
X151271250Y-59687500D01*
G37*
%TO.C,C3*%
X64696250Y-75026248D02*
X64696250Y-76448752D01*
X66516250Y-75026248D02*
X66516250Y-76448752D01*
%TO.C,D9*%
X68831250Y-104987500D02*
X68831250Y-110487500D01*
X68831250Y-104987500D02*
X75831250Y-104987500D01*
X68831250Y-110487500D02*
X75381250Y-110487500D01*
X69631250Y-108637500D02*
X69631250Y-106837500D01*
X75031250Y-108637500D02*
X75031250Y-106837500D01*
X75381250Y-110487500D02*
X75831250Y-110037500D01*
X75831250Y-110037500D02*
X75831250Y-104987500D01*
%TO.C,C14*%
X77596250Y-75476248D02*
X77596250Y-75998752D01*
X79066250Y-75476248D02*
X79066250Y-75998752D01*
%TO.C,D14*%
X100831250Y-136987500D02*
X100831250Y-142487500D01*
X100831250Y-136987500D02*
X107831250Y-136987500D01*
X100831250Y-142487500D02*
X107381250Y-142487500D01*
X101631250Y-140637500D02*
X101631250Y-138837500D01*
X107031250Y-140637500D02*
X107031250Y-138837500D01*
X107381250Y-142487500D02*
X107831250Y-142037500D01*
X107831250Y-142037500D02*
X107831250Y-136987500D01*
%TO.C,C1*%
X64696250Y-139026248D02*
X64696250Y-140448752D01*
X66516250Y-139026248D02*
X66516250Y-140448752D01*
%TO.C,U6*%
X119571250Y-58177500D02*
X121091250Y-58177500D01*
X119571250Y-58227500D02*
X119571250Y-58177500D01*
X119571250Y-60127500D02*
X119571250Y-59347500D01*
X119571250Y-61297500D02*
X119571250Y-61247500D01*
X121091250Y-58177500D02*
X121091250Y-59177500D01*
X121091250Y-60297500D02*
X121091250Y-61297500D01*
X121091250Y-61297500D02*
X119571250Y-61297500D01*
X119031250Y-59357500D02*
X119271250Y-59687500D01*
X118791250Y-59687500D01*
X119031250Y-59357500D01*
G36*
X119271250Y-59687500D02*
G01*
X118791250Y-59687500D01*
X119031250Y-59357500D01*
X119271250Y-59687500D01*
G37*
%TO.C,C20*%
X141596250Y-107476248D02*
X141596250Y-107998752D01*
X143066250Y-107476248D02*
X143066250Y-107998752D01*
%TO.C,C18*%
X77596250Y-107476248D02*
X77596250Y-107998752D01*
X79066250Y-107476248D02*
X79066250Y-107998752D01*
%TO.C,D12*%
X164831250Y-104987500D02*
X164831250Y-110487500D01*
X164831250Y-104987500D02*
X171831250Y-104987500D01*
X164831250Y-110487500D02*
X171381250Y-110487500D01*
X165631250Y-108637500D02*
X165631250Y-106837500D01*
X171031250Y-108637500D02*
X171031250Y-106837500D01*
X171381250Y-110487500D02*
X171831250Y-110037500D01*
X171831250Y-110037500D02*
X171831250Y-104987500D01*
%TO.C,D16*%
X164831250Y-136987500D02*
X164831250Y-142487500D01*
X164831250Y-136987500D02*
X171831250Y-136987500D01*
X164831250Y-142487500D02*
X171381250Y-142487500D01*
X165631250Y-140637500D02*
X165631250Y-138837500D01*
X171031250Y-140637500D02*
X171031250Y-138837500D01*
X171381250Y-142487500D02*
X171831250Y-142037500D01*
X171831250Y-142037500D02*
X171831250Y-136987500D01*
%TO.C,D13*%
X68831250Y-136987500D02*
X68831250Y-142487500D01*
X68831250Y-136987500D02*
X75831250Y-136987500D01*
X68831250Y-142487500D02*
X75381250Y-142487500D01*
X69631250Y-140637500D02*
X69631250Y-138837500D01*
X75031250Y-140637500D02*
X75031250Y-138837500D01*
X75381250Y-142487500D02*
X75831250Y-142037500D01*
X75831250Y-142037500D02*
X75831250Y-136987500D01*
%TO.C,U5*%
X119571250Y-90177500D02*
X121091250Y-90177500D01*
X119571250Y-90227500D02*
X119571250Y-90177500D01*
X119571250Y-92127500D02*
X119571250Y-91347500D01*
X119571250Y-93297500D02*
X119571250Y-93247500D01*
X121091250Y-90177500D02*
X121091250Y-91177500D01*
X121091250Y-92297500D02*
X121091250Y-93297500D01*
X121091250Y-93297500D02*
X119571250Y-93297500D01*
X119031250Y-91357500D02*
X119271250Y-91687500D01*
X118791250Y-91687500D01*
X119031250Y-91357500D01*
G36*
X119271250Y-91687500D02*
G01*
X118791250Y-91687500D01*
X119031250Y-91357500D01*
X119271250Y-91687500D01*
G37*
%TO.C,D4*%
X164831250Y-40987500D02*
X164831250Y-46487500D01*
X164831250Y-40987500D02*
X171831250Y-40987500D01*
X164831250Y-46487500D02*
X171381250Y-46487500D01*
X165631250Y-44637500D02*
X165631250Y-42837500D01*
X171031250Y-44637500D02*
X171031250Y-42837500D01*
X171381250Y-46487500D02*
X171831250Y-46037500D01*
X171831250Y-46037500D02*
X171831250Y-40987500D01*
%TO.C,C2*%
X64696250Y-107026248D02*
X64696250Y-108448752D01*
X66516250Y-107026248D02*
X66516250Y-108448752D01*
%TO.C,U3*%
X87571250Y-58177500D02*
X89091250Y-58177500D01*
X87571250Y-58227500D02*
X87571250Y-58177500D01*
X87571250Y-60127500D02*
X87571250Y-59347500D01*
X87571250Y-61297500D02*
X87571250Y-61247500D01*
X89091250Y-58177500D02*
X89091250Y-59177500D01*
X89091250Y-60297500D02*
X89091250Y-61297500D01*
X89091250Y-61297500D02*
X87571250Y-61297500D01*
X87031250Y-59357500D02*
X87271250Y-59687500D01*
X86791250Y-59687500D01*
X87031250Y-59357500D01*
G36*
X87271250Y-59687500D02*
G01*
X86791250Y-59687500D01*
X87031250Y-59357500D01*
X87271250Y-59687500D01*
G37*
%TO.C,D2*%
X100831250Y-40987500D02*
X100831250Y-46487500D01*
X100831250Y-40987500D02*
X107831250Y-40987500D01*
X100831250Y-46487500D02*
X107381250Y-46487500D01*
X101631250Y-44637500D02*
X101631250Y-42837500D01*
X107031250Y-44637500D02*
X107031250Y-42837500D01*
X107381250Y-46487500D02*
X107831250Y-46037500D01*
X107831250Y-46037500D02*
X107831250Y-40987500D01*
%TO.C,C17*%
X173596250Y-75476248D02*
X173596250Y-75998752D01*
X175066250Y-75476248D02*
X175066250Y-75998752D01*
%TO.C,D1*%
X68831250Y-40987500D02*
X68831250Y-46487500D01*
X68831250Y-40987500D02*
X75831250Y-40987500D01*
X68831250Y-46487500D02*
X75381250Y-46487500D01*
X69631250Y-44637500D02*
X69631250Y-42837500D01*
X75031250Y-44637500D02*
X75031250Y-42837500D01*
X75381250Y-46487500D02*
X75831250Y-46037500D01*
X75831250Y-46037500D02*
X75831250Y-40987500D01*
%TO.C,D6*%
X100831250Y-72987500D02*
X100831250Y-78487500D01*
X100831250Y-72987500D02*
X107831250Y-72987500D01*
X100831250Y-78487500D02*
X107381250Y-78487500D01*
X101631250Y-76637500D02*
X101631250Y-74837500D01*
X107031250Y-76637500D02*
X107031250Y-74837500D01*
X107381250Y-78487500D02*
X107831250Y-78037500D01*
X107831250Y-78037500D02*
X107831250Y-72987500D01*
%TO.C,C11*%
X109596250Y-43476248D02*
X109596250Y-43998752D01*
X111066250Y-43476248D02*
X111066250Y-43998752D01*
%TO.C,C13*%
X173596250Y-43476248D02*
X173596250Y-43998752D01*
X175066250Y-43476248D02*
X175066250Y-43998752D01*
%TO.C,D3*%
X132831250Y-40987500D02*
X132831250Y-46487500D01*
X132831250Y-40987500D02*
X139831250Y-40987500D01*
X132831250Y-46487500D02*
X139381250Y-46487500D01*
X133631250Y-44637500D02*
X133631250Y-42837500D01*
X139031250Y-44637500D02*
X139031250Y-42837500D01*
X139381250Y-46487500D02*
X139831250Y-46037500D01*
X139831250Y-46037500D02*
X139831250Y-40987500D01*
%TO.C,U4*%
X119571250Y-122177500D02*
X121091250Y-122177500D01*
X119571250Y-122227500D02*
X119571250Y-122177500D01*
X119571250Y-124127500D02*
X119571250Y-123347500D01*
X119571250Y-125297500D02*
X119571250Y-125247500D01*
X121091250Y-122177500D02*
X121091250Y-123177500D01*
X121091250Y-124297500D02*
X121091250Y-125297500D01*
X121091250Y-125297500D02*
X119571250Y-125297500D01*
X119031250Y-123357500D02*
X119271250Y-123687500D01*
X118791250Y-123687500D01*
X119031250Y-123357500D01*
G36*
X119271250Y-123687500D02*
G01*
X118791250Y-123687500D01*
X119031250Y-123357500D01*
X119271250Y-123687500D01*
G37*
%TO.C,U7*%
X151571250Y-122177500D02*
X153091250Y-122177500D01*
X151571250Y-122227500D02*
X151571250Y-122177500D01*
X151571250Y-124127500D02*
X151571250Y-123347500D01*
X151571250Y-125297500D02*
X151571250Y-125247500D01*
X153091250Y-122177500D02*
X153091250Y-123177500D01*
X153091250Y-124297500D02*
X153091250Y-125297500D01*
X153091250Y-125297500D02*
X151571250Y-125297500D01*
X151031250Y-123357500D02*
X151271250Y-123687500D01*
X150791250Y-123687500D01*
X151031250Y-123357500D01*
G36*
X151271250Y-123687500D02*
G01*
X150791250Y-123687500D01*
X151031250Y-123357500D01*
X151271250Y-123687500D01*
G37*
%TO.C,C22*%
X77596250Y-139476248D02*
X77596250Y-139998752D01*
X79066250Y-139476248D02*
X79066250Y-139998752D01*
%TO.C,C15*%
X109596250Y-75476248D02*
X109596250Y-75998752D01*
X111066250Y-75476248D02*
X111066250Y-75998752D01*
%TO.C,C23*%
X109596250Y-139476248D02*
X109596250Y-139998752D01*
X111066250Y-139476248D02*
X111066250Y-139998752D01*
%TD*%
M02*
